M48
;Layer_Color=6321
;FILE_FORMAT=2:4
INCH
;TYPE=PLATED
T1F00S00C0.0100
T2F00S00C0.0150
T3F00S00C0.0200
T4F00S00C0.0280
T5F00S00C0.0315
T6F00S00C0.0394
T7F00S00C0.0400
T8F00S00C0.1083
%
T01
X016010Y039980
X016030Y041150
X018490Y039970
X019470Y040770
X023800Y037670
X024450Y037770
X025330Y038150
X027000Y038220
X027260Y038920
X027490Y038710
X027740Y038480
X027680Y037840
X027962Y037478
X028780Y037890
X029060Y037910
X029448Y037852
X029940Y037860
X029960Y038450
Y038720
Y038990
X029567Y038717
Y038283
X029133
Y038717
X028750Y038720
Y038440
Y038160
X028710Y039130
X028740Y040080
X028160Y039770
X027440Y039920
X029520Y039870
X029830Y039820
X029620Y040490
X029460Y040850
X029210Y041150
X029750Y041140
X030390Y040140
X030700Y039050
Y038700
X030760Y038210
Y037800
X029950Y037240
X026580Y035650
X025380Y035290
X025470Y034810
X024860Y035620
X032330Y037800
X032620
X032910
X033230Y037820
X033440Y038030
X033480Y038320
X033490Y038610
Y038880
X033520Y039330
X033240Y039300
X033040Y039070
X033020Y038780
Y038490
X032910Y038250
X032620
X032330
X031380Y040730
T02
X034680Y032820
Y033120
Y033420
Y033720
Y034020
Y034320
Y034620
Y034920
Y035220
Y035520
Y035820
Y036120
Y036420
Y036720
Y037020
Y037320
Y037620
Y037920
Y038220
Y038520
X034380
Y039720
X034680
Y040020
Y040320
Y040620
Y040920
Y041220
T03
X014290Y032300
Y034000
X016304Y033314
X017483Y033340
X019483Y033350
X021486
X023489
X025491
X027494
X029497
X029490Y031330
X027493Y031340
X025490
X023490Y031330
X021483Y031340
X019480
X017480Y031330
X020310Y035570
X021500Y036020
Y038270
X022290Y040650
X024273
X026260
X026270Y042660
X024283
X022290Y042640
X020310
X020300Y040650
X022899Y034820
X025250Y037000
X028008Y037005
X028060Y039390
X030910Y039730
X030108Y036105
X031605Y036600
X031500Y033350
X031490Y031340
X032710Y039320
X032700Y040080
X031750Y041800
X033750
T04
X027700Y039760
T05
X018266Y035680
X019250Y037570
X016888
T06
X017040Y040910
X018040
T07
X018270Y031350
Y032350
Y033350
X020270
Y032350
Y031350
X022270
Y032350
Y033350
X024270
Y032350
Y031350
X026270
Y032350
Y033350
X028270
Y032350
Y031350
X030270
Y032350
Y033350
X030750Y042600
X029750
X028750
X027050Y042650
Y041650
Y040650
X025067
Y041650
Y042650
X023083
Y041650
Y040650
X021100
Y041650
Y042650
X019060Y042140
X018060
X017060
X031750Y042600
X032750
X033750
X032270Y033350
Y032350
Y031350
T08
X014730Y031500
Y042500
X035640Y042550
Y031450
M30
