M48
;Layer_Color=6321
;FILE_FORMAT=2:5
INCH,LZ
;TYPE=PLATED
T1F00S00C0.02000
T2F00S00C0.03543
T3F00S00C0.04000
T4F00S00C0.10827
%
T01
X0323143Y02075
X0323143Y02275
X0347929
X0347929Y02075
X03725
Y02275
X03975
X03975Y02075
X0394Y0282
X04175Y0281
Y0309
X0394Y031
X0322Y0267
X0307Y02735
X0302
X0293Y0282
X028Y02755
X0297Y02595
X0298357Y02275
X0298357Y02075
X0273571
X0273571Y02275
X0248786
X0248786Y02075
X0224
X0224Y02275
X02055Y0274
X01955
X01855
X01905Y03065
X02105
X02085Y03425
Y03525
X02115Y0396
X02315Y0395
X02515
X02615
X03015
X0293Y0374
X02875Y0373
X03215Y0395
X03515
X03615
X03915
X0394Y03655
X04175Y03645
Y0336667
X0394Y0338
T02
X0185815Y03425
Y03525
T03
X0313643Y02075
Y02175
Y02275
X0338428
Y02175
Y02075
X0363214
Y02175
Y02275
X0388
Y02175
Y02075
X03975Y0272
X04075
X04175
Y0299833
X04075
X03975
X0288857Y02275
Y02175
Y02075
X0264071
Y02175
Y02275
X0239286
Y02175
Y02075
X02145
Y02175
Y02275
X0216453Y0390193
X0206453
Y0400193
X0216453
X0226453
Y0390193
X0236453
Y0400193
X0246453
Y0390193
X0256453
Y0400193
X0266453
Y0390193
X0276453
Y0400193
X0286453
Y0390193
X0296453
Y0400193
X0306453
Y0390193
X0316453
Y0400193
X0326453
Y0390193
X0336453
Y0400193
X0346453
Y0390193
X0356453
Y0400193
X0366453
Y0390193
X0376453
Y0400193
X0386453
Y0390193
X0396453
Y0400193
X03975Y03555
X04075
X04175
Y0327667
X04075
X03975
T04
X0415626Y020228
X018728
Y0395193
X0415626
M30
