G04 Layer_Color=2752767*
%FSAX24Y24*%
%MOIN*%
G70*
G01*
G75*
%ADD30C,0.0050*%
%ADD46C,0.0067*%
D30*
X021250Y020550D02*
Y020950D01*
X021650D01*
Y020550D01*
X021250D01*
Y021550D02*
Y021950D01*
X021650D01*
Y021550D01*
X021250D01*
Y022550D02*
Y022950D01*
X021650D01*
Y022550D01*
X021250D01*
X023729Y020550D02*
Y020950D01*
X024129D01*
Y020550D01*
X023729D01*
Y021550D02*
Y021950D01*
X024129D01*
Y021550D01*
X023729D01*
Y022550D02*
Y022950D01*
X024129D01*
Y022550D01*
X023729D01*
X018582Y034050D02*
X018382Y034450D01*
X018781D01*
X018582Y034050D01*
Y035050D02*
X018382Y035450D01*
X018781D01*
X018582Y035050D01*
X031164Y020550D02*
Y020950D01*
X031564D01*
Y020550D01*
X031164D01*
Y021550D02*
Y021950D01*
X031564D01*
Y021550D01*
X031164D01*
Y022550D02*
Y022950D01*
X031564D01*
Y022550D01*
X031164D01*
X033643Y020550D02*
Y020950D01*
X034043D01*
Y020550D01*
X033643D01*
Y021550D02*
Y021950D01*
X034043D01*
Y021550D01*
X033643D01*
Y022550D02*
Y022950D01*
X034043D01*
Y022550D01*
X033643D01*
X036121Y020550D02*
Y020950D01*
X036521D01*
Y020550D01*
X036121D01*
Y021550D02*
Y021950D01*
X036521D01*
Y021550D01*
X036121D01*
Y022550D02*
Y022950D01*
X036521D01*
Y022550D01*
X036121D01*
X026207Y020550D02*
Y020950D01*
X026607D01*
Y020550D01*
X026207D01*
Y021550D02*
Y021950D01*
X026607D01*
Y021550D01*
X026207D01*
Y022550D02*
Y022950D01*
X026607D01*
Y022550D01*
X026207D01*
X038600Y020550D02*
Y020950D01*
X039000D01*
Y020550D01*
X038600D01*
Y021550D02*
Y021950D01*
X039000D01*
Y021550D01*
X038600D01*
Y022550D02*
Y022950D01*
X039000D01*
Y022550D01*
X038600D01*
X028686Y020550D02*
Y020950D01*
X029086D01*
Y020550D01*
X028686D01*
Y021550D02*
Y021950D01*
X029086D01*
Y021550D01*
X028686D01*
Y022550D02*
Y022950D01*
X029086D01*
Y022550D01*
X028686D01*
X039550Y035350D02*
Y035750D01*
X039950D01*
Y035350D01*
X039550D01*
X040550D02*
Y035750D01*
X040950D01*
Y035350D01*
X040550D01*
X041550D02*
Y035750D01*
X041950D01*
Y035350D01*
X041550D01*
X039550Y032567D02*
Y032967D01*
X039950D01*
Y032567D01*
X039550D01*
X040550D02*
Y032967D01*
X040950D01*
Y032567D01*
X040550D01*
X041550D02*
Y032967D01*
X041950D01*
Y032567D01*
X041550D01*
X039550Y029783D02*
Y030183D01*
X039950D01*
Y029783D01*
X039550D01*
X040550D02*
Y030183D01*
X040950D01*
Y029783D01*
X040550D01*
X041550D02*
Y030183D01*
X041950D01*
Y029783D01*
X041550D01*
X039550Y027000D02*
Y027400D01*
X039950D01*
Y027000D01*
X039550D01*
X040550D02*
Y027400D01*
X040950D01*
Y027000D01*
X040550D01*
X041550D02*
Y027400D01*
X041950D01*
Y027000D01*
X041550D01*
X020445Y038819D02*
Y039219D01*
X020845D01*
Y038819D01*
X020445D01*
Y039819D02*
Y040219D01*
X020845D01*
Y039819D01*
X020445D01*
X021445Y038819D02*
Y039219D01*
X021845D01*
Y038819D01*
X021445D01*
Y039819D02*
Y040219D01*
X021845D01*
Y039819D01*
X021445D01*
X022445Y038819D02*
Y039219D01*
X022845D01*
Y038819D01*
X022445D01*
Y039819D02*
Y040219D01*
X022845D01*
Y039819D01*
X022445D01*
X023445Y038819D02*
Y039219D01*
X023845D01*
Y038819D01*
X023445D01*
Y039819D02*
Y040219D01*
X023845D01*
Y039819D01*
X023445D01*
X024445Y038819D02*
Y039219D01*
X024845D01*
Y038819D01*
X024445D01*
Y039819D02*
Y040219D01*
X024845D01*
Y039819D01*
X024445D01*
X025445Y038819D02*
Y039219D01*
X025845D01*
Y038819D01*
X025445D01*
Y039819D02*
Y040219D01*
X025845D01*
Y039819D01*
X025445D01*
X026445Y038819D02*
Y039219D01*
X026845D01*
Y038819D01*
X026445D01*
Y039819D02*
Y040219D01*
X026845D01*
Y039819D01*
X026445D01*
X027445Y038819D02*
Y039219D01*
X027845D01*
Y038819D01*
X027445D01*
Y039819D02*
Y040219D01*
X027845D01*
Y039819D01*
X027445D01*
X028445Y038819D02*
Y039219D01*
X028845D01*
Y038819D01*
X028445D01*
Y039819D02*
Y040219D01*
X028845D01*
Y039819D01*
X028445D01*
X029445Y038819D02*
Y039219D01*
X029845D01*
Y038819D01*
X029445D01*
Y039819D02*
Y040219D01*
X029845D01*
Y039819D01*
X029445D01*
X030445Y038819D02*
Y039219D01*
X030845D01*
Y038819D01*
X030445D01*
Y039819D02*
Y040219D01*
X030845D01*
Y039819D01*
X030445D01*
X031445Y038819D02*
Y039219D01*
X031845D01*
Y038819D01*
X031445D01*
Y039819D02*
Y040219D01*
X031845D01*
Y039819D01*
X031445D01*
X032445Y038819D02*
Y039219D01*
X032845D01*
Y038819D01*
X032445D01*
Y039819D02*
Y040219D01*
X032845D01*
Y039819D01*
X032445D01*
X033445Y038819D02*
Y039219D01*
X033845D01*
Y038819D01*
X033445D01*
Y039819D02*
Y040219D01*
X033845D01*
Y039819D01*
X033445D01*
X034445Y038819D02*
Y039219D01*
X034845D01*
Y038819D01*
X034445D01*
Y039819D02*
Y040219D01*
X034845D01*
Y039819D01*
X034445D01*
X035445Y038819D02*
Y039219D01*
X035845D01*
Y038819D01*
X035445D01*
Y039819D02*
Y040219D01*
X035845D01*
Y039819D01*
X035445D01*
X036445Y038819D02*
Y039219D01*
X036845D01*
Y038819D01*
X036445D01*
Y039819D02*
Y040219D01*
X036845D01*
Y039819D01*
X036445D01*
X037445Y038819D02*
Y039219D01*
X037845D01*
Y038819D01*
X037445D01*
Y039819D02*
Y040219D01*
X037845D01*
Y039819D01*
X037445D01*
X038445Y038819D02*
Y039219D01*
X038845D01*
Y038819D01*
X038445D01*
Y039819D02*
Y040219D01*
X038845D01*
Y039819D01*
X038445D01*
X039445Y038819D02*
Y039219D01*
X039845D01*
Y038819D01*
X039445D01*
Y039819D02*
Y040219D01*
X039845D01*
Y039819D01*
X039445D01*
X028000Y027350D02*
X028100Y027450D01*
X028200D01*
X028100Y027550D01*
X028200Y027650D01*
X028100D01*
X028000Y027750D01*
X027900Y027650D01*
X027800D01*
X027900Y027550D01*
X027800Y027450D01*
X027900D01*
X028000Y027350D01*
X029836Y020550D02*
X029936Y020650D01*
X030036D01*
X029936Y020750D01*
X030036Y020850D01*
X029936D01*
X029836Y020950D01*
X029736Y020850D01*
X029636D01*
X029736Y020750D01*
X029636Y020650D01*
X029736D01*
X029836Y020550D01*
X041750Y027900D02*
X041850Y028000D01*
X041950D01*
X041850Y028100D01*
X041950Y028200D01*
X041850D01*
X041750Y028300D01*
X041650Y028200D01*
X041550D01*
X041650Y028100D01*
X041550Y028000D01*
X041650D01*
X041750Y027900D01*
X039400Y028000D02*
X039500Y028100D01*
X039600D01*
X039500Y028200D01*
X039600Y028300D01*
X039500D01*
X039400Y028400D01*
X039300Y028300D01*
X039200D01*
X039300Y028200D01*
X039200Y028100D01*
X039300D01*
X039400Y028000D01*
X041750Y030700D02*
X041850Y030800D01*
X041950D01*
X041850Y030900D01*
X041950Y031000D01*
X041850D01*
X041750Y031100D01*
X041650Y031000D01*
X041550D01*
X041650Y030900D01*
X041550Y030800D01*
X041650D01*
X041750Y030700D01*
X039400Y030800D02*
X039500Y030900D01*
X039600D01*
X039500Y031000D01*
X039600Y031100D01*
X039500D01*
X039400Y031200D01*
X039300Y031100D01*
X039200D01*
X039300Y031000D01*
X039200Y030900D01*
X039300D01*
X039400Y030800D01*
X029300Y037200D02*
X029400Y037300D01*
X029500D01*
X029400Y037400D01*
X029500Y037500D01*
X029400D01*
X029300Y037600D01*
X029200Y037500D01*
X029100D01*
X029200Y037400D01*
X029100Y037300D01*
X029200D01*
X029300Y037200D01*
X028750Y037100D02*
X028850Y037200D01*
X028950D01*
X028850Y037300D01*
X028950Y037400D01*
X028850D01*
X028750Y037500D01*
X028650Y037400D01*
X028550D01*
X028650Y037300D01*
X028550Y037200D01*
X028650D01*
X028750Y037100D01*
X029700Y025750D02*
X029800Y025850D01*
X029900D01*
X029800Y025950D01*
X029900Y026050D01*
X029800D01*
X029700Y026150D01*
X029600Y026050D01*
X029500D01*
X029600Y025950D01*
X029500Y025850D01*
X029600D01*
X029700Y025750D01*
X030200Y027150D02*
X030300Y027250D01*
X030400D01*
X030300Y027350D01*
X030400Y027450D01*
X030300D01*
X030200Y027550D01*
X030100Y027450D01*
X030000D01*
X030100Y027350D01*
X030000Y027250D01*
X030100D01*
X030200Y027150D01*
X030700D02*
X030800Y027250D01*
X030900D01*
X030800Y027350D01*
X030900Y027450D01*
X030800D01*
X030700Y027550D01*
X030600Y027450D01*
X030500D01*
X030600Y027350D01*
X030500Y027250D01*
X030600D01*
X030700Y027150D01*
X020550Y027200D02*
X020650Y027300D01*
X020750D01*
X020650Y027400D01*
X020750Y027500D01*
X020650D01*
X020550Y027600D01*
X020450Y027500D01*
X020350D01*
X020450Y027400D01*
X020350Y027300D01*
X020450D01*
X020550Y027200D01*
X019550D02*
X019650Y027300D01*
X019750D01*
X019650Y027400D01*
X019750Y027500D01*
X019650D01*
X019550Y027600D01*
X019450Y027500D01*
X019350D01*
X019450Y027400D01*
X019350Y027300D01*
X019450D01*
X019550Y027200D01*
X018550D02*
X018650Y027300D01*
X018750D01*
X018650Y027400D01*
X018750Y027500D01*
X018650D01*
X018550Y027600D01*
X018450Y027500D01*
X018350D01*
X018450Y027400D01*
X018350Y027300D01*
X018450D01*
X018550Y027200D01*
X041750Y036250D02*
X041850Y036350D01*
X041950D01*
X041850Y036450D01*
X041950Y036550D01*
X041850D01*
X041750Y036650D01*
X041650Y036550D01*
X041550D01*
X041650Y036450D01*
X041550Y036350D01*
X041650D01*
X041750Y036250D01*
Y033467D02*
X041850Y033567D01*
X041950D01*
X041850Y033667D01*
X041950Y033767D01*
X041850D01*
X041750Y033867D01*
X041650Y033767D01*
X041550D01*
X041650Y033667D01*
X041550Y033567D01*
X041650D01*
X041750Y033467D01*
X022400Y022550D02*
X022500Y022650D01*
X022600D01*
X022500Y022750D01*
X022600Y022850D01*
X022500D01*
X022400Y022950D01*
X022300Y022850D01*
X022200D01*
X022300Y022750D01*
X022200Y022650D01*
X022300D01*
X022400Y022550D01*
X024879D02*
X024979Y022650D01*
X025079D01*
X024979Y022750D01*
X025079Y022850D01*
X024979D01*
X024879Y022950D01*
X024779Y022850D01*
X024679D01*
X024779Y022750D01*
X024679Y022650D01*
X024779D01*
X024879Y022550D01*
X027357D02*
X027457Y022650D01*
X027557D01*
X027457Y022750D01*
X027557Y022850D01*
X027457D01*
X027357Y022950D01*
X027257Y022850D01*
X027157D01*
X027257Y022750D01*
X027157Y022650D01*
X027257D01*
X027357Y022550D01*
X029836D02*
X029936Y022650D01*
X030036D01*
X029936Y022750D01*
X030036Y022850D01*
X029936D01*
X029836Y022950D01*
X029736Y022850D01*
X029636D01*
X029736Y022750D01*
X029636Y022650D01*
X029736D01*
X029836Y022550D01*
X022400Y020550D02*
X022500Y020650D01*
X022600D01*
X022500Y020750D01*
X022600Y020850D01*
X022500D01*
X022400Y020950D01*
X022300Y020850D01*
X022200D01*
X022300Y020750D01*
X022200Y020650D01*
X022300D01*
X022400Y020550D01*
X024879D02*
X024979Y020650D01*
X025079D01*
X024979Y020750D01*
X025079Y020850D01*
X024979D01*
X024879Y020950D01*
X024779Y020850D01*
X024679D01*
X024779Y020750D01*
X024679Y020650D01*
X024779D01*
X024879Y020550D01*
X027357D02*
X027457Y020650D01*
X027557D01*
X027457Y020750D01*
X027557Y020850D01*
X027457D01*
X027357Y020950D01*
X027257Y020850D01*
X027157D01*
X027257Y020750D01*
X027157Y020650D01*
X027257D01*
X027357Y020550D01*
X032314D02*
X032414Y020650D01*
X032514D01*
X032414Y020750D01*
X032514Y020850D01*
X032414D01*
X032314Y020950D01*
X032214Y020850D01*
X032114D01*
X032214Y020750D01*
X032114Y020650D01*
X032214D01*
X032314Y020550D01*
X034793D02*
X034893Y020650D01*
X034993D01*
X034893Y020750D01*
X034993Y020850D01*
X034893D01*
X034793Y020950D01*
X034693Y020850D01*
X034593D01*
X034693Y020750D01*
X034593Y020650D01*
X034693D01*
X034793Y020550D01*
X032314Y022550D02*
X032414Y022650D01*
X032514D01*
X032414Y022750D01*
X032514Y022850D01*
X032414D01*
X032314Y022950D01*
X032214Y022850D01*
X032114D01*
X032214Y022750D01*
X032114Y022650D01*
X032214D01*
X032314Y022550D01*
X034793D02*
X034893Y022650D01*
X034993D01*
X034893Y022750D01*
X034993Y022850D01*
X034893D01*
X034793Y022950D01*
X034693Y022850D01*
X034593D01*
X034693Y022750D01*
X034593Y022650D01*
X034693D01*
X034793Y022550D01*
X037250D02*
X037350Y022650D01*
X037450D01*
X037350Y022750D01*
X037450Y022850D01*
X037350D01*
X037250Y022950D01*
X037150Y022850D01*
X037050D01*
X037150Y022750D01*
X037050Y022650D01*
X037150D01*
X037250Y022550D01*
Y020550D02*
X037350Y020650D01*
X037450D01*
X037350Y020750D01*
X037450Y020850D01*
X037350D01*
X037250Y020950D01*
X037150Y020850D01*
X037050D01*
X037150Y020750D01*
X037050Y020650D01*
X037150D01*
X037250Y020550D01*
X039750D02*
X039850Y020650D01*
X039950D01*
X039850Y020750D01*
X039950Y020850D01*
X039850D01*
X039750Y020950D01*
X039650Y020850D01*
X039550D01*
X039650Y020750D01*
X039550Y020650D01*
X039650D01*
X039750Y020550D01*
X039750Y022550D02*
X039850Y022650D01*
X039950D01*
X039850Y022750D01*
X039950Y022850D01*
X039850D01*
X039750Y022950D01*
X039650Y022850D01*
X039550D01*
X039650Y022750D01*
X039550Y022650D01*
X039650D01*
X039750Y022550D01*
X021050Y030450D02*
X021150Y030550D01*
X021250D01*
X021150Y030650D01*
X021250Y030750D01*
X021150D01*
X021050Y030850D01*
X020950Y030750D01*
X020850D01*
X020950Y030650D01*
X020850Y030550D01*
X020950D01*
X021050Y030450D01*
X020850Y034050D02*
X020950Y034150D01*
X021050D01*
X020950Y034250D01*
X021050Y034350D01*
X020950D01*
X020850Y034450D01*
X020750Y034350D01*
X020650D01*
X020750Y034250D01*
X020650Y034150D01*
X020750D01*
X020850Y034050D01*
Y035050D02*
X020950Y035150D01*
X021050D01*
X020950Y035250D01*
X021050Y035350D01*
X020950D01*
X020850Y035450D01*
X020750Y035350D01*
X020650D01*
X020750Y035250D01*
X020650Y035150D01*
X020750D01*
X020850Y035050D01*
X032200Y026500D02*
X032300Y026600D01*
X032400D01*
X032300Y026700D01*
X032400Y026800D01*
X032300D01*
X032200Y026900D01*
X032100Y026800D01*
X032000D01*
X032100Y026700D01*
X032000Y026600D01*
X032100D01*
X032200Y026500D01*
X025150Y039300D02*
X025250Y039400D01*
X025350D01*
X025250Y039500D01*
X025350Y039600D01*
X025250D01*
X025150Y039700D01*
X025050Y039600D01*
X024950D01*
X025050Y039500D01*
X024950Y039400D01*
X025050D01*
X025150Y039300D01*
X039150D02*
X039250Y039400D01*
X039350D01*
X039250Y039500D01*
X039350Y039600D01*
X039250D01*
X039150Y039700D01*
X039050Y039600D01*
X038950D01*
X039050Y039500D01*
X038950Y039400D01*
X039050D01*
X039150Y039300D01*
X036150D02*
X036250Y039400D01*
X036350D01*
X036250Y039500D01*
X036350Y039600D01*
X036250D01*
X036150Y039700D01*
X036050Y039600D01*
X035950D01*
X036050Y039500D01*
X035950Y039400D01*
X036050D01*
X036150Y039300D01*
X035150D02*
X035250Y039400D01*
X035350D01*
X035250Y039500D01*
X035350Y039600D01*
X035250D01*
X035150Y039700D01*
X035050Y039600D01*
X034950D01*
X035050Y039500D01*
X034950Y039400D01*
X035050D01*
X035150Y039300D01*
X032150D02*
X032250Y039400D01*
X032350D01*
X032250Y039500D01*
X032350Y039600D01*
X032250D01*
X032150Y039700D01*
X032050Y039600D01*
X031950D01*
X032050Y039500D01*
X031950Y039400D01*
X032050D01*
X032150Y039300D01*
X030150D02*
X030250Y039400D01*
X030350D01*
X030250Y039500D01*
X030350Y039600D01*
X030250D01*
X030150Y039700D01*
X030050Y039600D01*
X029950D01*
X030050Y039500D01*
X029950Y039400D01*
X030050D01*
X030150Y039300D01*
X026150D02*
X026250Y039400D01*
X026350D01*
X026250Y039500D01*
X026350Y039600D01*
X026250D01*
X026150Y039700D01*
X026050Y039600D01*
X025950D01*
X026050Y039500D01*
X025950Y039400D01*
X026050D01*
X026150Y039300D01*
X023150D02*
X023250Y039400D01*
X023350D01*
X023250Y039500D01*
X023350Y039600D01*
X023250D01*
X023150Y039700D01*
X023050Y039600D01*
X022950D01*
X023050Y039500D01*
X022950Y039400D01*
X023050D01*
X023150Y039300D01*
X029300Y028000D02*
X029400Y028100D01*
X029500D01*
X029400Y028200D01*
X029500Y028300D01*
X029400D01*
X029300Y028400D01*
X029200Y028300D01*
X029100D01*
X029200Y028200D01*
X029100Y028100D01*
X029200D01*
X029300Y028000D01*
X039400Y036350D02*
X039500Y036450D01*
X039600D01*
X039500Y036550D01*
X039600Y036650D01*
X039500D01*
X039400Y036750D01*
X039300Y036650D01*
X039200D01*
X039300Y036550D01*
X039200Y036450D01*
X039300D01*
X039400Y036350D01*
Y033600D02*
X039500Y033700D01*
X039600D01*
X039500Y033800D01*
X039600Y033900D01*
X039500D01*
X039400Y034000D01*
X039300Y033900D01*
X039200D01*
X039300Y033800D01*
X039200Y033700D01*
X039300D01*
X039400Y033600D01*
X021150Y039400D02*
X021250Y039500D01*
X021350D01*
X021250Y039600D01*
X021350Y039700D01*
X021250D01*
X021150Y039800D01*
X021050Y039700D01*
X020950D01*
X021050Y039600D01*
X020950Y039500D01*
X021050D01*
X021150Y039400D01*
X019050Y030450D02*
X019150Y030550D01*
X019250D01*
X019150Y030650D01*
X019250Y030750D01*
X019150D01*
X019050Y030850D01*
X018950Y030750D01*
X018850D01*
X018950Y030650D01*
X018850Y030550D01*
X018950D01*
X019050Y030450D01*
D46*
X041763Y020228D02*
G03*
X041763Y020228I-000200J000000D01*
G01*
X018928D02*
G03*
X018928Y020228I-000200J000000D01*
G01*
X041763Y039519D02*
G03*
X041763Y039519I-000200J000000D01*
G01*
X018928D02*
G03*
X018928Y039519I-000200J000000D01*
G01*
M02*
