G04 Layer_Physical_Order=4*
G04 Layer_Color=11436288*
%FSAX24Y24*%
%MOIN*%
G70*
G01*
G75*
%ADD14C,0.0100*%
%ADD15R,0.0900X0.0800*%
%ADD16O,0.0900X0.0800*%
%ADD17C,0.1083*%
%ADD18C,0.0630*%
%ADD19R,0.0630X0.0630*%
%ADD20R,0.0800X0.0900*%
%ADD21O,0.0800X0.0900*%
%ADD22R,0.0600X0.0600*%
%ADD23C,0.0600*%
%ADD24C,0.0300*%
D14*
X040750Y029983D02*
Y029983D01*
X040750Y029982D02*
X040750Y029983D01*
X040750Y029100D02*
Y029982D01*
X040500Y028550D02*
X040750Y028300D01*
Y027200D02*
Y028300D01*
X040500Y028850D02*
X040750Y029100D01*
X037350Y028850D02*
X040500D01*
X029300Y036900D02*
X037350Y028850D01*
X037150Y028550D02*
X040500D01*
X028750Y036950D02*
X037150Y028550D01*
X029300Y036900D02*
Y037400D01*
X028750Y036950D02*
Y037300D01*
X030050Y025250D02*
X030700Y025900D01*
X021300Y025250D02*
X030050D01*
X019550Y027000D02*
X021300Y025250D01*
X018550Y027400D02*
X018950Y027000D01*
X019550D01*
X030700Y025900D02*
Y027350D01*
X030200Y025850D02*
Y027350D01*
X029950Y025600D02*
X030200Y025850D01*
X021750Y025600D02*
X029950D01*
X019950Y027400D02*
X021750Y025600D01*
X019550Y027400D02*
X019950D01*
X022000Y025950D02*
X029700D01*
X020550Y027400D02*
X022000Y025950D01*
X026050Y038500D02*
X029550D01*
X018550Y031000D02*
X026050Y038500D01*
X018550Y027400D02*
Y031000D01*
X027400Y037850D02*
X030950D01*
X020550Y031000D02*
X027400Y037850D01*
X020550Y027400D02*
Y031000D01*
X019550Y027400D02*
Y031000D01*
X026750Y038200D01*
X031645Y038545D02*
Y039019D01*
X030950Y037850D02*
X031645Y038545D01*
X030645D02*
Y039019D01*
X030300Y038200D02*
X030645Y038545D01*
X026750Y038200D02*
X030300D01*
X029645Y038595D02*
Y039019D01*
X029550Y038500D02*
X029645Y038595D01*
D15*
X021450Y020750D02*
D03*
X023929D02*
D03*
X031364D02*
D03*
X033843D02*
D03*
X036321D02*
D03*
X026407D02*
D03*
X038800D02*
D03*
X028886D02*
D03*
D16*
X021450Y021750D02*
D03*
Y022750D02*
D03*
X023929Y021750D02*
D03*
Y022750D02*
D03*
X031364Y021750D02*
D03*
Y022750D02*
D03*
X033843Y021750D02*
D03*
Y022750D02*
D03*
X036321Y021750D02*
D03*
Y022750D02*
D03*
X026407Y021750D02*
D03*
Y022750D02*
D03*
X038800Y021750D02*
D03*
Y022750D02*
D03*
X028886Y021750D02*
D03*
Y022750D02*
D03*
D17*
X041563Y020228D02*
D03*
X018728D02*
D03*
X041563Y039519D02*
D03*
X018728D02*
D03*
D18*
X018582Y034250D02*
D03*
D19*
Y035250D02*
D03*
D20*
X039750Y035550D02*
D03*
Y032767D02*
D03*
X039750Y029983D02*
D03*
Y027200D02*
D03*
D21*
X040750Y035550D02*
D03*
X041750D02*
D03*
X040750Y032767D02*
D03*
X041750D02*
D03*
X040750Y029983D02*
D03*
X041750D02*
D03*
X040750Y027200D02*
D03*
X041750D02*
D03*
D22*
X020645Y039019D02*
D03*
D23*
Y040019D02*
D03*
X021645Y039019D02*
D03*
Y040019D02*
D03*
X022645Y039019D02*
D03*
Y040019D02*
D03*
X023645Y039019D02*
D03*
Y040019D02*
D03*
X024645Y039019D02*
D03*
Y040019D02*
D03*
X025645Y039019D02*
D03*
Y040019D02*
D03*
X026645Y039019D02*
D03*
Y040019D02*
D03*
X027645Y039019D02*
D03*
Y040019D02*
D03*
X028645Y039019D02*
D03*
Y040019D02*
D03*
X029645Y039019D02*
D03*
Y040019D02*
D03*
X030645Y039019D02*
D03*
Y040019D02*
D03*
X031645Y039019D02*
D03*
Y040019D02*
D03*
X032645Y039019D02*
D03*
Y040019D02*
D03*
X033645Y039019D02*
D03*
Y040019D02*
D03*
X034645Y039019D02*
D03*
Y040019D02*
D03*
X035645Y039019D02*
D03*
Y040019D02*
D03*
X036645Y039019D02*
D03*
Y040019D02*
D03*
X037645Y039019D02*
D03*
Y040019D02*
D03*
X038645Y039019D02*
D03*
Y040019D02*
D03*
X039645Y039019D02*
D03*
Y040019D02*
D03*
D24*
X028000Y027550D02*
D03*
X029836Y020750D02*
D03*
X041750Y028100D02*
D03*
X039400Y028200D02*
D03*
X041750Y030900D02*
D03*
X039400Y031000D02*
D03*
X029300Y037400D02*
D03*
X028750Y037300D02*
D03*
X029700Y025950D02*
D03*
X030200Y027350D02*
D03*
X030700D02*
D03*
X020550Y027400D02*
D03*
X019550D02*
D03*
X018550D02*
D03*
X041750Y036450D02*
D03*
Y033667D02*
D03*
X022400Y022750D02*
D03*
X024879D02*
D03*
X027357D02*
D03*
X029836D02*
D03*
X022400Y020750D02*
D03*
X024879D02*
D03*
X027357D02*
D03*
X032314D02*
D03*
X034793D02*
D03*
X032314Y022750D02*
D03*
X034793D02*
D03*
X037250D02*
D03*
Y020750D02*
D03*
X039750D02*
D03*
X039750Y022750D02*
D03*
X021050Y030650D02*
D03*
X020850Y034250D02*
D03*
Y035250D02*
D03*
X032200Y026700D02*
D03*
X025150Y039500D02*
D03*
X039150D02*
D03*
X036150D02*
D03*
X035150D02*
D03*
X032150D02*
D03*
X030150D02*
D03*
X026150D02*
D03*
X023150D02*
D03*
X029300Y028200D02*
D03*
X039400Y036550D02*
D03*
Y033800D02*
D03*
X021150Y039600D02*
D03*
X019050Y030650D02*
D03*
M02*
