G04 Layer_Color=20142*
%FSAX24Y24*%
%MOIN*%
G70*
G01*
G75*
%ADD31O,0.0266X0.0778*%
%ADD32R,0.0384X0.0443*%
%ADD33R,0.0424X0.1250*%
G04:AMPARAMS|DCode=34|XSize=43mil|YSize=58mil|CornerRadius=6.5mil|HoleSize=0mil|Usage=FLASHONLY|Rotation=0.000|XOffset=0mil|YOffset=0mil|HoleType=Round|Shape=RoundedRectangle|*
%AMROUNDEDRECTD34*
21,1,0.0430,0.0450,0,0,0.0*
21,1,0.0300,0.0580,0,0,0.0*
1,1,0.0130,0.0150,-0.0225*
1,1,0.0130,-0.0150,-0.0225*
1,1,0.0130,-0.0150,0.0225*
1,1,0.0130,0.0150,0.0225*
%
%ADD34ROUNDEDRECTD34*%
%ADD35R,0.0930X0.0830*%
%ADD36O,0.0930X0.0830*%
%ADD37C,0.1113*%
%ADD38C,0.0660*%
%ADD39R,0.0660X0.0660*%
%ADD40R,0.0830X0.0930*%
%ADD41O,0.0830X0.0930*%
%ADD42R,0.0630X0.0630*%
%ADD43C,0.0630*%
%ADD44C,0.0330*%
D31*
X031700Y026625D02*
D03*
X031200D02*
D03*
X030700D02*
D03*
X030200D02*
D03*
X029700D02*
D03*
X029200D02*
D03*
X028700D02*
D03*
X028200D02*
D03*
X031700Y024775D02*
D03*
X031200D02*
D03*
X030700D02*
D03*
X030200D02*
D03*
X029700D02*
D03*
X029200D02*
D03*
X028700D02*
D03*
X028200D02*
D03*
D32*
X019834Y034250D02*
D03*
X020366D02*
D03*
X019834Y035250D02*
D03*
X020366D02*
D03*
X040466Y028200D02*
D03*
X039934D02*
D03*
X040466Y031000D02*
D03*
X039934D02*
D03*
X040466Y033800D02*
D03*
X039934D02*
D03*
X040466Y036550D02*
D03*
X039934D02*
D03*
D33*
X019050Y029613D02*
D03*
X020050D02*
D03*
X021050D02*
D03*
Y027487D02*
D03*
X020050D02*
D03*
X019050D02*
D03*
D34*
X028600Y027550D02*
D03*
X029300D02*
D03*
D35*
X021450Y020750D02*
D03*
X023929D02*
D03*
X031364D02*
D03*
X033843D02*
D03*
X036321D02*
D03*
X026407D02*
D03*
X038800D02*
D03*
X028886D02*
D03*
D36*
X021450Y021750D02*
D03*
Y022750D02*
D03*
X023929Y021750D02*
D03*
Y022750D02*
D03*
X031364Y021750D02*
D03*
Y022750D02*
D03*
X033843Y021750D02*
D03*
Y022750D02*
D03*
X036321Y021750D02*
D03*
Y022750D02*
D03*
X026407Y021750D02*
D03*
Y022750D02*
D03*
X038800Y021750D02*
D03*
Y022750D02*
D03*
X028886Y021750D02*
D03*
Y022750D02*
D03*
D37*
X041563Y020228D02*
D03*
X018728D02*
D03*
X041563Y039519D02*
D03*
X018728D02*
D03*
D38*
X018582Y034250D02*
D03*
D39*
Y035250D02*
D03*
D40*
X039750Y035550D02*
D03*
Y032767D02*
D03*
X039750Y029983D02*
D03*
Y027200D02*
D03*
D41*
X040750Y035550D02*
D03*
X041750D02*
D03*
X040750Y032767D02*
D03*
X041750D02*
D03*
X040750Y029983D02*
D03*
X041750D02*
D03*
X040750Y027200D02*
D03*
X041750D02*
D03*
D42*
X020645Y039019D02*
D03*
D43*
Y040019D02*
D03*
X021645Y039019D02*
D03*
Y040019D02*
D03*
X022645Y039019D02*
D03*
Y040019D02*
D03*
X023645Y039019D02*
D03*
Y040019D02*
D03*
X024645Y039019D02*
D03*
Y040019D02*
D03*
X025645Y039019D02*
D03*
Y040019D02*
D03*
X026645Y039019D02*
D03*
Y040019D02*
D03*
X027645Y039019D02*
D03*
Y040019D02*
D03*
X028645Y039019D02*
D03*
Y040019D02*
D03*
X029645Y039019D02*
D03*
Y040019D02*
D03*
X030645Y039019D02*
D03*
Y040019D02*
D03*
X031645Y039019D02*
D03*
Y040019D02*
D03*
X032645Y039019D02*
D03*
Y040019D02*
D03*
X033645Y039019D02*
D03*
Y040019D02*
D03*
X034645Y039019D02*
D03*
Y040019D02*
D03*
X035645Y039019D02*
D03*
Y040019D02*
D03*
X036645Y039019D02*
D03*
Y040019D02*
D03*
X037645Y039019D02*
D03*
Y040019D02*
D03*
X038645Y039019D02*
D03*
Y040019D02*
D03*
X039645Y039019D02*
D03*
Y040019D02*
D03*
D44*
X028000Y027550D02*
D03*
X029836Y020750D02*
D03*
X041750Y028100D02*
D03*
X039400Y028200D02*
D03*
X041750Y030900D02*
D03*
X039400Y031000D02*
D03*
X029300Y037400D02*
D03*
X028750Y037300D02*
D03*
X029700Y025950D02*
D03*
X030200Y027350D02*
D03*
X030700D02*
D03*
X020550Y027400D02*
D03*
X019550D02*
D03*
X018550D02*
D03*
X041750Y036450D02*
D03*
Y033667D02*
D03*
X022400Y022750D02*
D03*
X024879D02*
D03*
X027357D02*
D03*
X029836D02*
D03*
X022400Y020750D02*
D03*
X024879D02*
D03*
X027357D02*
D03*
X032314D02*
D03*
X034793D02*
D03*
X032314Y022750D02*
D03*
X034793D02*
D03*
X037250D02*
D03*
Y020750D02*
D03*
X039750D02*
D03*
X039750Y022750D02*
D03*
X021050Y030650D02*
D03*
X020850Y034250D02*
D03*
Y035250D02*
D03*
X032200Y026700D02*
D03*
X025150Y039500D02*
D03*
X039150D02*
D03*
X036150D02*
D03*
X035150D02*
D03*
X032150D02*
D03*
X030150D02*
D03*
X026150D02*
D03*
X023150D02*
D03*
X029300Y028200D02*
D03*
X039400Y036550D02*
D03*
Y033800D02*
D03*
X021150Y039600D02*
D03*
X019050Y030650D02*
D03*
M02*
