G04 Layer_Color=128*
%FSAX24Y24*%
%MOIN*%
G70*
G01*
G75*
%ADD30C,0.0050*%
D30*
X021250Y020750D02*
X021650D01*
X021450Y020550D02*
Y020950D01*
X021250Y021750D02*
X021650D01*
X021450Y021550D02*
Y021950D01*
X021250Y022750D02*
X021650D01*
X021450Y022550D02*
Y022950D01*
X023729Y020750D02*
X024129D01*
X023929Y020550D02*
Y020950D01*
X023729Y021750D02*
X024129D01*
X023929Y021550D02*
Y021950D01*
X023729Y022750D02*
X024129D01*
X023929Y022550D02*
Y022950D01*
X041021Y020228D02*
X042104D01*
X041563Y019687D02*
Y020769D01*
X018187Y020228D02*
X019269D01*
X018728Y019687D02*
Y020769D01*
X041021Y039519D02*
X042104D01*
X041563Y038978D02*
Y040061D01*
X018187Y039519D02*
X019269D01*
X018728Y038978D02*
Y040061D01*
X018404Y034250D02*
X018759D01*
X018582Y034073D02*
Y034427D01*
X018404Y035250D02*
X018759D01*
X018582Y035073D02*
Y035427D01*
X031164Y020750D02*
X031564D01*
X031364Y020550D02*
Y020950D01*
X031164Y021750D02*
X031564D01*
X031364Y021550D02*
Y021950D01*
X031164Y022750D02*
X031564D01*
X031364Y022550D02*
Y022950D01*
X033643Y020750D02*
X034043D01*
X033843Y020550D02*
Y020950D01*
X033643Y021750D02*
X034043D01*
X033843Y021550D02*
Y021950D01*
X033643Y022750D02*
X034043D01*
X033843Y022550D02*
Y022950D01*
X036121Y020750D02*
X036521D01*
X036321Y020550D02*
Y020950D01*
X036121Y021750D02*
X036521D01*
X036321Y021550D02*
Y021950D01*
X036121Y022750D02*
X036521D01*
X036321Y022550D02*
Y022950D01*
X026207Y020750D02*
X026607D01*
X026407Y020550D02*
Y020950D01*
X026207Y021750D02*
X026607D01*
X026407Y021550D02*
Y021950D01*
X026207Y022750D02*
X026607D01*
X026407Y022550D02*
Y022950D01*
X038600Y020750D02*
X039000D01*
X038800Y020550D02*
Y020950D01*
X038600Y021750D02*
X039000D01*
X038800Y021550D02*
Y021950D01*
X038600Y022750D02*
X039000D01*
X038800Y022550D02*
Y022950D01*
X028686Y020750D02*
X029086D01*
X028886Y020550D02*
Y020950D01*
X028686Y021750D02*
X029086D01*
X028886Y021550D02*
Y021950D01*
X028686Y022750D02*
X029086D01*
X028886Y022550D02*
Y022950D01*
X039550Y035550D02*
X039950D01*
X039750Y035350D02*
Y035750D01*
X040550Y035550D02*
X040950D01*
X040750Y035350D02*
Y035750D01*
X041550Y035550D02*
X041950D01*
X041750Y035350D02*
Y035750D01*
X039550Y032767D02*
X039950D01*
X039750Y032567D02*
Y032967D01*
X040550Y032767D02*
X040950D01*
X040750Y032567D02*
Y032967D01*
X041550Y032767D02*
X041950D01*
X041750Y032567D02*
Y032967D01*
X039550Y029983D02*
X039950D01*
X039750Y029783D02*
Y030183D01*
X040550Y029983D02*
X040950D01*
X040750Y029783D02*
Y030183D01*
X041550Y029983D02*
X041950D01*
X041750Y029783D02*
Y030183D01*
X039550Y027200D02*
X039950D01*
X039750Y027000D02*
Y027400D01*
X040550Y027200D02*
X040950D01*
X040750Y027000D02*
Y027400D01*
X041550Y027200D02*
X041950D01*
X041750Y027000D02*
Y027400D01*
X020445Y039019D02*
X020845D01*
X020645Y038819D02*
Y039219D01*
X020445Y040019D02*
X020845D01*
X020645Y039819D02*
Y040219D01*
X021445Y039019D02*
X021845D01*
X021645Y038819D02*
Y039219D01*
X021445Y040019D02*
X021845D01*
X021645Y039819D02*
Y040219D01*
X022445Y039019D02*
X022845D01*
X022645Y038819D02*
Y039219D01*
X022445Y040019D02*
X022845D01*
X022645Y039819D02*
Y040219D01*
X023445Y039019D02*
X023845D01*
X023645Y038819D02*
Y039219D01*
X023445Y040019D02*
X023845D01*
X023645Y039819D02*
Y040219D01*
X024445Y039019D02*
X024845D01*
X024645Y038819D02*
Y039219D01*
X024445Y040019D02*
X024845D01*
X024645Y039819D02*
Y040219D01*
X025445Y039019D02*
X025845D01*
X025645Y038819D02*
Y039219D01*
X025445Y040019D02*
X025845D01*
X025645Y039819D02*
Y040219D01*
X026445Y039019D02*
X026845D01*
X026645Y038819D02*
Y039219D01*
X026445Y040019D02*
X026845D01*
X026645Y039819D02*
Y040219D01*
X027445Y039019D02*
X027845D01*
X027645Y038819D02*
Y039219D01*
X027445Y040019D02*
X027845D01*
X027645Y039819D02*
Y040219D01*
X028445Y039019D02*
X028845D01*
X028645Y038819D02*
Y039219D01*
X028445Y040019D02*
X028845D01*
X028645Y039819D02*
Y040219D01*
X029445Y039019D02*
X029845D01*
X029645Y038819D02*
Y039219D01*
X029445Y040019D02*
X029845D01*
X029645Y039819D02*
Y040219D01*
X030445Y039019D02*
X030845D01*
X030645Y038819D02*
Y039219D01*
X030445Y040019D02*
X030845D01*
X030645Y039819D02*
Y040219D01*
X031445Y039019D02*
X031845D01*
X031645Y038819D02*
Y039219D01*
X031445Y040019D02*
X031845D01*
X031645Y039819D02*
Y040219D01*
X032445Y039019D02*
X032845D01*
X032645Y038819D02*
Y039219D01*
X032445Y040019D02*
X032845D01*
X032645Y039819D02*
Y040219D01*
X033445Y039019D02*
X033845D01*
X033645Y038819D02*
Y039219D01*
X033445Y040019D02*
X033845D01*
X033645Y039819D02*
Y040219D01*
X034445Y039019D02*
X034845D01*
X034645Y038819D02*
Y039219D01*
X034445Y040019D02*
X034845D01*
X034645Y039819D02*
Y040219D01*
X035445Y039019D02*
X035845D01*
X035645Y038819D02*
Y039219D01*
X035445Y040019D02*
X035845D01*
X035645Y039819D02*
Y040219D01*
X036445Y039019D02*
X036845D01*
X036645Y038819D02*
Y039219D01*
X036445Y040019D02*
X036845D01*
X036645Y039819D02*
Y040219D01*
X037445Y039019D02*
X037845D01*
X037645Y038819D02*
Y039219D01*
X037445Y040019D02*
X037845D01*
X037645Y039819D02*
Y040219D01*
X038445Y039019D02*
X038845D01*
X038645Y038819D02*
Y039219D01*
X038445Y040019D02*
X038845D01*
X038645Y039819D02*
Y040219D01*
X039445Y039019D02*
X039845D01*
X039645Y038819D02*
Y039219D01*
X039445Y040019D02*
X039845D01*
X039645Y039819D02*
Y040219D01*
X027900Y027550D02*
X028100D01*
X028000Y027450D02*
Y027650D01*
X029736Y020750D02*
X029936D01*
X029836Y020650D02*
Y020850D01*
X041650Y028100D02*
X041850D01*
X041750Y028000D02*
Y028200D01*
X039300D02*
X039500D01*
X039400Y028100D02*
Y028300D01*
X041650Y030900D02*
X041850D01*
X041750Y030800D02*
Y031000D01*
X039300D02*
X039500D01*
X039400Y030900D02*
Y031100D01*
X029200Y037400D02*
X029400D01*
X029300Y037300D02*
Y037500D01*
X028650Y037300D02*
X028850D01*
X028750Y037200D02*
Y037400D01*
X029600Y025950D02*
X029800D01*
X029700Y025850D02*
Y026050D01*
X030100Y027350D02*
X030300D01*
X030200Y027250D02*
Y027450D01*
X030600Y027350D02*
X030800D01*
X030700Y027250D02*
Y027450D01*
X020450Y027400D02*
X020650D01*
X020550Y027300D02*
Y027500D01*
X019450Y027400D02*
X019650D01*
X019550Y027300D02*
Y027500D01*
X018450Y027400D02*
X018650D01*
X018550Y027300D02*
Y027500D01*
X041650Y036450D02*
X041850D01*
X041750Y036350D02*
Y036550D01*
X041650Y033667D02*
X041850D01*
X041750Y033567D02*
Y033767D01*
X022300Y022750D02*
X022500D01*
X022400Y022650D02*
Y022850D01*
X024779Y022750D02*
X024979D01*
X024879Y022650D02*
Y022850D01*
X027257Y022750D02*
X027457D01*
X027357Y022650D02*
Y022850D01*
X029736Y022750D02*
X029936D01*
X029836Y022650D02*
Y022850D01*
X022300Y020750D02*
X022500D01*
X022400Y020650D02*
Y020850D01*
X024779Y020750D02*
X024979D01*
X024879Y020650D02*
Y020850D01*
X027257Y020750D02*
X027457D01*
X027357Y020650D02*
Y020850D01*
X032214Y020750D02*
X032414D01*
X032314Y020650D02*
Y020850D01*
X034693Y020750D02*
X034893D01*
X034793Y020650D02*
Y020850D01*
X032214Y022750D02*
X032414D01*
X032314Y022650D02*
Y022850D01*
X034693Y022750D02*
X034893D01*
X034793Y022650D02*
Y022850D01*
X037150Y022750D02*
X037350D01*
X037250Y022650D02*
Y022850D01*
X037150Y020750D02*
X037350D01*
X037250Y020650D02*
Y020850D01*
X039650Y020750D02*
X039850D01*
X039750Y020650D02*
Y020850D01*
X039650Y022750D02*
X039850D01*
X039750Y022650D02*
Y022850D01*
X020950Y030650D02*
X021150D01*
X021050Y030550D02*
Y030750D01*
X020750Y034250D02*
X020950D01*
X020850Y034150D02*
Y034350D01*
X020750Y035250D02*
X020950D01*
X020850Y035150D02*
Y035350D01*
X032100Y026700D02*
X032300D01*
X032200Y026600D02*
Y026800D01*
X025050Y039500D02*
X025250D01*
X025150Y039400D02*
Y039600D01*
X039050Y039500D02*
X039250D01*
X039150Y039400D02*
Y039600D01*
X036050Y039500D02*
X036250D01*
X036150Y039400D02*
Y039600D01*
X035050Y039500D02*
X035250D01*
X035150Y039400D02*
Y039600D01*
X032050Y039500D02*
X032250D01*
X032150Y039400D02*
Y039600D01*
X030050Y039500D02*
X030250D01*
X030150Y039400D02*
Y039600D01*
X026050Y039500D02*
X026250D01*
X026150Y039400D02*
Y039600D01*
X023050Y039500D02*
X023250D01*
X023150Y039400D02*
Y039600D01*
X029200Y028200D02*
X029400D01*
X029300Y028100D02*
Y028300D01*
X039300Y036550D02*
X039500D01*
X039400Y036450D02*
Y036650D01*
X039300Y033800D02*
X039500D01*
X039400Y033700D02*
Y033900D01*
X021050Y039600D02*
X021250D01*
X021150Y039500D02*
Y039700D01*
X018950Y030650D02*
X019150D01*
X019050Y030550D02*
Y030750D01*
M02*
