G04 Layer_Color=15132400*
%FSAX24Y24*%
%MOIN*%
G70*
G01*
G75*
%ADD14C,0.0100*%
%ADD25C,0.0157*%
%ADD26C,0.0098*%
%ADD27C,0.0079*%
%ADD28C,0.0059*%
%ADD29C,0.0060*%
%ADD30C,0.0050*%
G36*
X031549Y030226D02*
X031555Y030223D01*
X031556Y030222D01*
X031559Y030221D01*
X031562Y030218D01*
X031566Y030213D01*
X031567Y030212D01*
X031568Y030209D01*
X031570Y030204D01*
X031572Y030198D01*
Y030197D01*
X031574Y030193D01*
X031575Y030188D01*
Y030182D01*
Y030181D01*
Y030177D01*
X031574Y030171D01*
X031572Y030166D01*
X031546Y030063D01*
X031547D01*
X031549Y030064D01*
X031552D01*
X031558Y030066D01*
X031569Y030068D01*
X031580Y030070D01*
X031581D01*
X031582Y030071D01*
X031590Y030072D01*
X031600Y030073D01*
X031611Y030076D01*
X031612D01*
X031615Y030077D01*
X031621Y030078D01*
X031630Y030079D01*
X031640Y030081D01*
X031641D01*
X031642Y030082D01*
X031648Y030083D01*
X031655Y030084D01*
X031661Y030087D01*
X031662D01*
X031667Y030088D01*
X031671Y030089D01*
X031676Y030090D01*
X031677D01*
X031679Y030091D01*
X031689D01*
X031697Y030090D01*
X031701D01*
X031708Y030088D01*
X031709D01*
X031710Y030087D01*
X031716Y030081D01*
X031717Y030080D01*
X031718Y030079D01*
X031719Y030076D01*
Y030071D01*
Y030070D01*
Y030066D01*
X031717Y030061D01*
X031715Y030056D01*
X031713Y030054D01*
X031712Y030051D01*
X031706Y030043D01*
X031705Y030042D01*
X031702Y030041D01*
X031699Y030038D01*
X031693Y030036D01*
X031692D01*
X031689Y030033D01*
X031685Y030032D01*
X031680Y030031D01*
X031679D01*
X031676Y030030D01*
X031671Y030029D01*
X031665Y030028D01*
X031663D01*
X031659Y030027D01*
X031652Y030026D01*
X031645Y030023D01*
X031642D01*
X031638Y030022D01*
X031630Y030020D01*
X031621Y030018D01*
X031619D01*
X031614Y030016D01*
X031607Y030014D01*
X031598Y030012D01*
X031597D01*
X031596Y030011D01*
X031588Y030010D01*
X031579Y030007D01*
X031569Y030004D01*
X031567D01*
X031562Y030003D01*
X031556Y030002D01*
X031549Y030000D01*
X031548D01*
X031545Y029999D01*
X031536Y029998D01*
X031528D01*
Y029997D01*
X031527Y029994D01*
X031526Y029990D01*
X031524Y029984D01*
X031519Y029971D01*
X031515Y029957D01*
Y029956D01*
X031514Y029953D01*
Y029949D01*
X031512Y029944D01*
X031509Y029932D01*
X031507Y029919D01*
Y029918D01*
Y029916D01*
X031506Y029913D01*
X031505Y029909D01*
X031504Y029899D01*
X031501Y029888D01*
Y029886D01*
Y029880D01*
X031500Y029873D01*
Y029868D01*
Y029867D01*
Y029862D01*
Y029856D01*
X031501Y029849D01*
Y029848D01*
X031504Y029843D01*
X031505Y029839D01*
X031508Y029833D01*
X031509Y029832D01*
X031511Y029830D01*
X031515Y029826D01*
X031520Y029822D01*
X031521D01*
X031526Y029821D01*
X031531Y029820D01*
X031539Y029819D01*
X031542D01*
X031546Y029820D01*
X031551D01*
X031562Y029823D01*
X031576Y029829D01*
X031577D01*
X031579Y029831D01*
X031582Y029833D01*
X031587Y029837D01*
X031599Y029844D01*
X031611Y029856D01*
X031612Y029857D01*
X031615Y029859D01*
X031618Y029862D01*
X031622Y029867D01*
X031632Y029878D01*
X031643Y029891D01*
X031645Y029892D01*
X031646Y029894D01*
X031649Y029899D01*
X031652Y029903D01*
X031661Y029916D01*
X031671Y029928D01*
X031672Y029929D01*
X031675Y029931D01*
X031678Y029933D01*
X031683Y029934D01*
X031685D01*
X031688Y029933D01*
X031690D01*
X031693Y029931D01*
X031695D01*
X031696Y029930D01*
X031699Y029927D01*
X031700Y029926D01*
X031701Y029920D01*
Y029918D01*
Y029916D01*
Y029914D01*
X031700Y029912D01*
X031699Y029908D01*
X031697Y029901D01*
X031690Y029887D01*
X031682Y029870D01*
Y029869D01*
X031680Y029867D01*
X031678Y029862D01*
X031675Y029856D01*
X031667Y029841D01*
X031658Y029824D01*
X031657Y029823D01*
X031655Y029820D01*
X031651Y029814D01*
X031646Y029809D01*
X031645Y029808D01*
X031641Y029804D01*
X031637Y029800D01*
X031630Y029794D01*
X031629Y029793D01*
X031626Y029790D01*
X031620Y029786D01*
X031614Y029781D01*
X031612Y029780D01*
X031608Y029778D01*
X031602Y029773D01*
X031597Y029770D01*
X031596D01*
X031595Y029769D01*
X031588Y029766D01*
X031578Y029761D01*
X031566Y029758D01*
X031563D01*
X031556Y029757D01*
X031546Y029756D01*
X031535Y029754D01*
X031526D01*
X031520Y029756D01*
X031507Y029758D01*
X031492Y029762D01*
X031491D01*
X031489Y029763D01*
X031486Y029766D01*
X031482Y029769D01*
X031471Y029776D01*
X031461Y029786D01*
Y029787D01*
X031459Y029788D01*
X031457Y029791D01*
X031455Y029796D01*
X031448Y029807D01*
X031442Y029820D01*
Y029821D01*
X031441Y029823D01*
X031440Y029828D01*
X031439Y029833D01*
X031437Y029847D01*
X031436Y029862D01*
Y029863D01*
Y029868D01*
Y029873D01*
X031437Y029882D01*
Y029891D01*
X031439Y029902D01*
X031442Y029926D01*
Y029927D01*
X031444Y029931D01*
X031446Y029938D01*
X031447Y029946D01*
X031450Y029956D01*
X031452Y029967D01*
X031458Y029989D01*
X031451D01*
X031446Y029990D01*
X031438Y029991D01*
X031437Y029992D01*
X031432Y029993D01*
X031427Y029996D01*
X031420Y029999D01*
X031419Y030000D01*
X031416Y030002D01*
X031407Y030009D01*
X031406Y030010D01*
X031405Y030013D01*
X031404Y030018D01*
X031402Y030024D01*
Y030026D01*
Y030027D01*
X031404Y030032D01*
Y030033D01*
X031405Y030036D01*
X031408Y030042D01*
X031409Y030043D01*
X031410Y030046D01*
X031415Y030051D01*
X031416Y030052D01*
X031418Y030053D01*
X031421Y030054D01*
X031475D01*
X031477Y030056D01*
X031480Y030057D01*
X031482Y030060D01*
X031484Y030061D01*
X031485Y030064D01*
X031487Y030072D01*
Y030073D01*
X031488Y030076D01*
X031489Y030080D01*
X031490Y030084D01*
X031492Y030097D01*
X031496Y030109D01*
Y030110D01*
X031497Y030111D01*
X031498Y030118D01*
X031500Y030127D01*
X031502Y030134D01*
X031504Y030137D01*
X031505Y030141D01*
X031506Y030147D01*
X031507Y030152D01*
Y030153D01*
X031508Y030157D01*
X031509Y030163D01*
Y030164D01*
Y030167D01*
Y030172D01*
Y030173D01*
Y030176D01*
Y030179D01*
Y030184D01*
Y030188D01*
Y030189D01*
Y030190D01*
Y030196D01*
Y030197D01*
Y030199D01*
X031510Y030203D01*
X031512Y030209D01*
Y030210D01*
X031515Y030213D01*
X031517Y030217D01*
X031520Y030221D01*
X031521Y030222D01*
X031525Y030224D01*
X031530Y030227D01*
X031538Y030228D01*
X031544D01*
X031549Y030226D01*
D02*
G37*
G36*
X028522D02*
X028527Y030223D01*
X028528Y030222D01*
X028532Y030221D01*
X028535Y030218D01*
X028538Y030213D01*
X028539Y030212D01*
X028540Y030209D01*
X028543Y030204D01*
X028545Y030198D01*
Y030197D01*
X028546Y030193D01*
X028547Y030188D01*
Y030182D01*
Y030181D01*
Y030177D01*
X028546Y030171D01*
X028545Y030166D01*
X028518Y030063D01*
X028519D01*
X028522Y030064D01*
X028525D01*
X028530Y030066D01*
X028542Y030068D01*
X028553Y030070D01*
X028554D01*
X028555Y030071D01*
X028563Y030072D01*
X028573Y030073D01*
X028584Y030076D01*
X028585D01*
X028587Y030077D01*
X028594Y030078D01*
X028603Y030079D01*
X028613Y030081D01*
X028614D01*
X028615Y030082D01*
X028620Y030083D01*
X028627Y030084D01*
X028634Y030087D01*
X028635D01*
X028639Y030088D01*
X028644Y030089D01*
X028648Y030090D01*
X028649D01*
X028652Y030091D01*
X028662D01*
X028669Y030090D01*
X028674D01*
X028680Y030088D01*
X028682D01*
X028683Y030087D01*
X028688Y030081D01*
X028689Y030080D01*
X028690Y030079D01*
X028692Y030076D01*
Y030071D01*
Y030070D01*
Y030066D01*
X028689Y030061D01*
X028687Y030056D01*
X028686Y030054D01*
X028685Y030051D01*
X028678Y030043D01*
X028677Y030042D01*
X028675Y030041D01*
X028672Y030038D01*
X028666Y030036D01*
X028665D01*
X028662Y030033D01*
X028657Y030032D01*
X028653Y030031D01*
X028652D01*
X028648Y030030D01*
X028644Y030029D01*
X028637Y030028D01*
X028636D01*
X028632Y030027D01*
X028625Y030026D01*
X028617Y030023D01*
X028615D01*
X028610Y030022D01*
X028603Y030020D01*
X028594Y030018D01*
X028592D01*
X028586Y030016D01*
X028579Y030014D01*
X028570Y030012D01*
X028569D01*
X028568Y030011D01*
X028560Y030010D01*
X028552Y030007D01*
X028542Y030004D01*
X028539D01*
X028535Y030003D01*
X028528Y030002D01*
X028522Y030000D01*
X028520D01*
X028517Y029999D01*
X028508Y029998D01*
X028500D01*
Y029997D01*
X028499Y029994D01*
X028498Y029990D01*
X028496Y029984D01*
X028492Y029971D01*
X028487Y029957D01*
Y029956D01*
X028486Y029953D01*
Y029949D01*
X028485Y029944D01*
X028482Y029932D01*
X028479Y029919D01*
Y029918D01*
Y029916D01*
X028478Y029913D01*
X028477Y029909D01*
X028476Y029899D01*
X028474Y029888D01*
Y029886D01*
Y029880D01*
X028473Y029873D01*
Y029868D01*
Y029867D01*
Y029862D01*
Y029856D01*
X028474Y029849D01*
Y029848D01*
X028476Y029843D01*
X028477Y029839D01*
X028480Y029833D01*
X028482Y029832D01*
X028484Y029830D01*
X028487Y029826D01*
X028493Y029822D01*
X028494D01*
X028498Y029821D01*
X028504Y029820D01*
X028512Y029819D01*
X028515D01*
X028518Y029820D01*
X028524D01*
X028535Y029823D01*
X028548Y029829D01*
X028549D01*
X028552Y029831D01*
X028555Y029833D01*
X028559Y029837D01*
X028572Y029844D01*
X028584Y029856D01*
X028585Y029857D01*
X028587Y029859D01*
X028590Y029862D01*
X028595Y029867D01*
X028605Y029878D01*
X028616Y029891D01*
X028617Y029892D01*
X028618Y029894D01*
X028622Y029899D01*
X028625Y029903D01*
X028634Y029916D01*
X028644Y029928D01*
X028645Y029929D01*
X028647Y029931D01*
X028650Y029933D01*
X028656Y029934D01*
X028657D01*
X028660Y029933D01*
X028663D01*
X028666Y029931D01*
X028667D01*
X028668Y029930D01*
X028672Y029927D01*
X028673Y029926D01*
X028674Y029920D01*
Y029918D01*
Y029916D01*
Y029914D01*
X028673Y029912D01*
X028672Y029908D01*
X028669Y029901D01*
X028663Y029887D01*
X028655Y029870D01*
Y029869D01*
X028653Y029867D01*
X028650Y029862D01*
X028647Y029856D01*
X028639Y029841D01*
X028630Y029824D01*
X028629Y029823D01*
X028627Y029820D01*
X028624Y029814D01*
X028618Y029809D01*
X028617Y029808D01*
X028614Y029804D01*
X028609Y029800D01*
X028603Y029794D01*
X028602Y029793D01*
X028598Y029790D01*
X028593Y029786D01*
X028586Y029781D01*
X028585Y029780D01*
X028580Y029778D01*
X028575Y029773D01*
X028569Y029770D01*
X028568D01*
X028567Y029769D01*
X028560Y029766D01*
X028550Y029761D01*
X028538Y029758D01*
X028536D01*
X028528Y029757D01*
X028518Y029756D01*
X028507Y029754D01*
X028498D01*
X028493Y029756D01*
X028479Y029758D01*
X028465Y029762D01*
X028464D01*
X028462Y029763D01*
X028458Y029766D01*
X028455Y029769D01*
X028444Y029776D01*
X028434Y029786D01*
Y029787D01*
X028432Y029788D01*
X028429Y029791D01*
X028427Y029796D01*
X028420Y029807D01*
X028415Y029820D01*
Y029821D01*
X028414Y029823D01*
X028413Y029828D01*
X028412Y029833D01*
X028409Y029847D01*
X028408Y029862D01*
Y029863D01*
Y029868D01*
Y029873D01*
X028409Y029882D01*
Y029891D01*
X028412Y029902D01*
X028415Y029926D01*
Y029927D01*
X028416Y029931D01*
X028418Y029938D01*
X028419Y029946D01*
X028423Y029956D01*
X028425Y029967D01*
X028430Y029989D01*
X028424D01*
X028418Y029990D01*
X028410Y029991D01*
X028409Y029992D01*
X028405Y029993D01*
X028399Y029996D01*
X028393Y029999D01*
X028392Y030000D01*
X028388Y030002D01*
X028379Y030009D01*
X028378Y030010D01*
X028377Y030013D01*
X028376Y030018D01*
X028375Y030024D01*
Y030026D01*
Y030027D01*
X028376Y030032D01*
Y030033D01*
X028377Y030036D01*
X028380Y030042D01*
X028382Y030043D01*
X028383Y030046D01*
X028387Y030051D01*
X028388Y030052D01*
X028390Y030053D01*
X028394Y030054D01*
X028447D01*
X028449Y030056D01*
X028453Y030057D01*
X028455Y030060D01*
X028456Y030061D01*
X028457Y030064D01*
X028459Y030072D01*
Y030073D01*
X028460Y030076D01*
X028462Y030080D01*
X028463Y030084D01*
X028465Y030097D01*
X028468Y030109D01*
Y030110D01*
X028469Y030111D01*
X028470Y030118D01*
X028473Y030127D01*
X028475Y030134D01*
X028476Y030137D01*
X028477Y030141D01*
X028478Y030147D01*
X028479Y030152D01*
Y030153D01*
X028480Y030157D01*
X028482Y030163D01*
Y030164D01*
Y030167D01*
Y030172D01*
Y030173D01*
Y030176D01*
Y030179D01*
Y030184D01*
Y030188D01*
Y030189D01*
Y030190D01*
Y030196D01*
Y030197D01*
Y030199D01*
X028483Y030203D01*
X028485Y030209D01*
Y030210D01*
X028487Y030213D01*
X028489Y030217D01*
X028493Y030221D01*
X028494Y030222D01*
X028497Y030224D01*
X028503Y030227D01*
X028510Y030228D01*
X028516D01*
X028522Y030226D01*
D02*
G37*
G36*
X027894Y030072D02*
X027906Y030071D01*
X027918Y030068D01*
X027919D01*
X027921Y030067D01*
X027927Y030064D01*
X027936Y030060D01*
X027944Y030054D01*
X027946Y030053D01*
X027949Y030049D01*
X027955Y030041D01*
X027959Y030032D01*
X027961Y030030D01*
X027963Y030024D01*
X027964Y030016D01*
X027965Y030006D01*
Y030003D01*
Y029998D01*
X027964Y029991D01*
X027962Y029982D01*
Y029981D01*
X027961Y029979D01*
X027959Y029976D01*
X027957Y029970D01*
X027951Y029959D01*
X027942Y029947D01*
X027941Y029946D01*
X027939Y029944D01*
X027933Y029938D01*
X027923Y029929D01*
X027909Y029919D01*
X027908D01*
X027906Y029917D01*
X027903Y029914D01*
X027898Y029912D01*
X027885Y029907D01*
X027869Y029900D01*
X027868D01*
X027866Y029899D01*
X027862Y029898D01*
X027856Y029896D01*
X027842Y029892D01*
X027825Y029888D01*
X027824D01*
X027822Y029887D01*
X027817D01*
X027812Y029886D01*
X027798Y029882D01*
X027783Y029880D01*
X027779D01*
X027776Y029879D01*
X027771D01*
X027759Y029878D01*
X027747Y029876D01*
Y029874D01*
X027745Y029871D01*
X027744Y029866D01*
X027742Y029859D01*
Y029858D01*
X027741Y029853D01*
X027739Y029847D01*
Y029840D01*
Y029839D01*
Y029837D01*
X027741Y029832D01*
X027742Y029828D01*
X027744Y029822D01*
X027746Y029817D01*
X027751Y029811D01*
X027756Y029807D01*
X027757D01*
X027759Y029804D01*
X027763Y029803D01*
X027768Y029801D01*
X027775Y029799D01*
X027783Y029798D01*
X027792Y029796D01*
X027813D01*
X027824Y029797D01*
X027835Y029799D01*
X027836D01*
X027837Y029800D01*
X027845Y029802D01*
X027854Y029806D01*
X027864Y029809D01*
X027865D01*
X027866Y029810D01*
X027873Y029813D01*
X027882Y029818D01*
X027891Y029822D01*
X027892D01*
X027893Y029823D01*
X027898Y029827D01*
X027906Y029831D01*
X027914Y029837D01*
X027915D01*
X027916Y029838D01*
X027922Y029842D01*
X027929Y029847D01*
X027938Y029851D01*
X027939D01*
X027941Y029852D01*
X027946Y029854D01*
X027953Y029856D01*
X027959Y029857D01*
X027964D01*
X027968Y029854D01*
X027971Y029852D01*
X027972Y029851D01*
X027973Y029850D01*
X027974Y029847D01*
Y029843D01*
Y029841D01*
Y029837D01*
Y029836D01*
X027973Y029832D01*
Y029831D01*
X027972Y029827D01*
X027969Y029820D01*
X027966Y029813D01*
X027965Y029812D01*
X027963Y029808D01*
X027957Y029803D01*
X027952Y029798D01*
X027951Y029797D01*
X027945Y029793D01*
X027937Y029788D01*
X027928Y029781D01*
X027916Y029774D01*
X027903Y029768D01*
X027888Y029761D01*
X027874Y029756D01*
X027872D01*
X027867Y029753D01*
X027859Y029752D01*
X027848Y029750D01*
X027836Y029748D01*
X027822Y029746D01*
X027806Y029744D01*
X027789Y029743D01*
X027777D01*
X027768Y029744D01*
X027766D01*
X027762Y029746D01*
X027754Y029747D01*
X027744Y029749D01*
X027742D01*
X027736Y029751D01*
X027728Y029753D01*
X027719Y029757D01*
X027717Y029758D01*
X027712Y029761D01*
X027705Y029767D01*
X027697Y029773D01*
X027696Y029776D01*
X027692Y029780D01*
X027686Y029788D01*
X027682Y029798D01*
Y029799D01*
X027681Y029801D01*
X027679Y029803D01*
Y029808D01*
X027677Y029820D01*
X027676Y029834D01*
Y029836D01*
Y029838D01*
Y029841D01*
X027677Y029846D01*
X027678Y029858D01*
X027681Y029872D01*
X027679D01*
X027678Y029873D01*
X027675Y029876D01*
X027672Y029878D01*
X027671Y029879D01*
X027669Y029881D01*
X027668Y029884D01*
X027667Y029890D01*
Y029891D01*
Y029892D01*
X027668Y029899D01*
X027671Y029908D01*
X027675Y029916D01*
X027676Y029918D01*
X027682Y029922D01*
X027688Y029927D01*
X027698Y029931D01*
X027699Y029932D01*
X027701Y029937D01*
X027705Y029943D01*
X027709Y029952D01*
Y029953D01*
X027711Y029954D01*
X027715Y029961D01*
X027722Y029970D01*
X027731Y029981D01*
X027732Y029982D01*
X027733Y029984D01*
X027735Y029988D01*
X027738Y029991D01*
X027747Y030002D01*
X027758Y030013D01*
X027759Y030014D01*
X027762Y030017D01*
X027765Y030019D01*
X027769Y030023D01*
X027781Y030033D01*
X027794Y030043D01*
X027795Y030044D01*
X027797Y030046D01*
X027801Y030048D01*
X027806Y030051D01*
X027819Y030058D01*
X027835Y030064D01*
X027836D01*
X027839Y030066D01*
X027844Y030068D01*
X027849Y030069D01*
X027856Y030071D01*
X027864Y030072D01*
X027882Y030073D01*
X027889D01*
X027894Y030072D01*
D02*
G37*
G36*
X028846Y030099D02*
X028850Y030097D01*
X028852Y030096D01*
X028854Y030093D01*
X028857Y030090D01*
X028860Y030086D01*
X028862Y030084D01*
X028863Y030081D01*
X028865Y030077D01*
X028866Y030070D01*
Y030069D01*
X028867Y030064D01*
Y030058D01*
Y030051D01*
Y030050D01*
Y030048D01*
Y030043D01*
X028866Y030039D01*
Y030038D01*
Y030036D01*
Y030030D01*
X028868Y030032D01*
X028873Y030037D01*
X028879Y030044D01*
X028887Y030052D01*
X028888D01*
X028889Y030054D01*
X028895Y030059D01*
X028903Y030066D01*
X028912Y030072D01*
X028913D01*
X028914Y030073D01*
X028920Y030078D01*
X028929Y030082D01*
X028939Y030087D01*
X028940D01*
X028942Y030088D01*
X028948Y030090D01*
X028958Y030091D01*
X028969Y030092D01*
X028973D01*
X028980Y030091D01*
X028982D01*
X028985Y030090D01*
X028989Y030089D01*
X028994Y030088D01*
X028995D01*
X028998Y030087D01*
X029003Y030086D01*
X029008Y030083D01*
X029009Y030082D01*
X029013Y030081D01*
X029018Y030078D01*
X029024Y030074D01*
X029025D01*
X029026Y030073D01*
X029030Y030069D01*
X029037Y030061D01*
X029044Y030052D01*
Y030051D01*
X029045Y030050D01*
X029048Y030043D01*
X029050Y030034D01*
X029052Y030024D01*
Y030023D01*
Y030021D01*
X029050Y030017D01*
X029049Y030012D01*
Y030011D01*
X029048Y030008D01*
X029047Y030004D01*
X029044Y030000D01*
X029043Y029999D01*
X029042Y029998D01*
X029035Y029992D01*
X029034D01*
X029032Y029991D01*
X029028Y029990D01*
X029024Y029989D01*
X029019D01*
X029015Y029990D01*
X029008Y029991D01*
X029007Y029992D01*
X029003Y029993D01*
X028998Y029997D01*
X028994Y030000D01*
X028993Y030001D01*
X028988Y030006D01*
Y030007D01*
X028987Y030008D01*
X028984Y030013D01*
Y030014D01*
X028983Y030016D01*
X028979Y030021D01*
Y030022D01*
X028978Y030023D01*
X028976Y030026D01*
X028975Y030027D01*
X028962D01*
X028957Y030026D01*
X028945Y030022D01*
X028933Y030017D01*
X028932D01*
X028929Y030016D01*
X028927Y030013D01*
X028923Y030011D01*
X028913Y030003D01*
X028902Y029994D01*
X028900Y029993D01*
X028899Y029992D01*
X028893Y029986D01*
X028884Y029977D01*
X028875Y029966D01*
Y029964D01*
X028873Y029963D01*
X028868Y029957D01*
X028860Y029948D01*
X028854Y029938D01*
Y029937D01*
X028853Y029932D01*
X028850Y029927D01*
X028849Y029919D01*
X028846Y029909D01*
X028844Y029899D01*
X028837Y029874D01*
Y029873D01*
X028836Y029869D01*
X028834Y029862D01*
X028832Y029853D01*
X028829Y029843D01*
X028826Y029831D01*
X028819Y029806D01*
Y029796D01*
Y029793D01*
Y029789D01*
Y029782D01*
X028818Y029773D01*
Y029771D01*
Y029767D01*
X028817Y029760D01*
X028815Y029753D01*
X028814D01*
X028812Y029751D01*
X028808Y029749D01*
X028803Y029747D01*
X028802Y029746D01*
X028798Y029744D01*
X028793Y029743D01*
X028786Y029742D01*
X028784D01*
X028777Y029743D01*
X028769Y029746D01*
X028763Y029751D01*
X028762Y029753D01*
X028759Y029758D01*
X028757Y029766D01*
X028756Y029774D01*
Y029776D01*
Y029778D01*
Y029782D01*
X028757Y029787D01*
Y029788D01*
X028758Y029791D01*
X028759Y029797D01*
X028760Y029803D01*
X028762Y029811D01*
X028764Y029821D01*
X028768Y029842D01*
Y029843D01*
X028769Y029848D01*
X028770Y029853D01*
X028773Y029862D01*
X028774Y029871D01*
X028776Y029881D01*
X028780Y029904D01*
Y029906D01*
X028782Y029910D01*
X028783Y029916D01*
X028785Y029923D01*
X028786Y029933D01*
X028788Y029943D01*
X028793Y029966D01*
Y029967D01*
X028794Y029971D01*
X028795Y029977D01*
X028797Y029984D01*
X028798Y029993D01*
X028800Y030002D01*
X028804Y030021D01*
Y030022D01*
Y030023D01*
Y030027D01*
Y030028D01*
Y030029D01*
Y030033D01*
Y030036D01*
Y030040D01*
Y030048D01*
X028805Y030056D01*
Y030057D01*
Y030058D01*
X028806Y030063D01*
X028808Y030070D01*
X028809Y030077D01*
Y030078D01*
X028810Y030079D01*
X028813Y030084D01*
X028815Y030091D01*
X028818Y030096D01*
X028819Y030097D01*
X028822Y030099D01*
X028827Y030100D01*
X028834Y030101D01*
X028840D01*
X028846Y030099D01*
D02*
G37*
G36*
X030891Y030087D02*
X030897Y030084D01*
X030898D01*
X030901Y030082D01*
X030906Y030080D01*
X030909Y030077D01*
X030910Y030076D01*
X030911Y030073D01*
X030914Y030070D01*
X030916Y030066D01*
Y030064D01*
X030917Y030062D01*
X030918Y030058D01*
Y030052D01*
Y030051D01*
Y030047D01*
X030917Y030041D01*
X030915Y030034D01*
Y030033D01*
X030914Y030029D01*
X030911Y030023D01*
X030909Y030018D01*
X030861Y029826D01*
Y029824D01*
Y029823D01*
X030860Y029817D01*
X030859Y029807D01*
X030858Y029797D01*
Y029794D01*
X030857Y029789D01*
X030856Y029781D01*
X030855Y029772D01*
X030854Y029770D01*
X030852Y029768D01*
X030851Y029764D01*
Y029763D01*
X030850Y029761D01*
X030849Y029759D01*
X030846Y029754D01*
X030845Y029753D01*
X030844Y029752D01*
X030837Y029748D01*
X030836D01*
X030834Y029747D01*
X030828Y029746D01*
X030810D01*
X030805Y029747D01*
X030804D01*
X030801Y029748D01*
X030798Y029749D01*
X030795Y029750D01*
X030792Y029751D01*
X030790Y029756D01*
Y029757D01*
Y029759D01*
X030789Y029766D01*
Y029768D01*
Y029772D01*
X030790Y029780D01*
X030791Y029790D01*
Y029791D01*
Y029793D01*
X030792Y029796D01*
Y029800D01*
X030794Y029812D01*
Y029827D01*
X030791Y029826D01*
X030786Y029821D01*
X030777Y029814D01*
X030767Y029806D01*
X030766D01*
X030765Y029803D01*
X030758Y029799D01*
X030748Y029791D01*
X030737Y029783D01*
X030736D01*
X030735Y029781D01*
X030727Y029777D01*
X030717Y029771D01*
X030706Y029764D01*
X030705D01*
X030704Y029763D01*
X030697Y029761D01*
X030687Y029759D01*
X030677Y029758D01*
X030670D01*
X030664Y029759D01*
X030656Y029761D01*
X030655Y029762D01*
X030650Y029763D01*
X030645Y029767D01*
X030639Y029770D01*
X030638Y029771D01*
X030636Y029772D01*
X030629Y029779D01*
X030619Y029789D01*
X030611Y029800D01*
Y029801D01*
X030610Y029803D01*
X030609Y029806D01*
X030608Y029810D01*
X030605Y029821D01*
X030604Y029836D01*
Y029837D01*
Y029841D01*
Y029848D01*
X030605Y029854D01*
Y029857D01*
X030606Y029861D01*
X030608Y029868D01*
X030610Y029877D01*
Y029878D01*
X030611Y029879D01*
Y029882D01*
X030612Y029887D01*
X030616Y029898D01*
X030621Y029912D01*
X030628Y029928D01*
X030636Y029946D01*
X030646Y029964D01*
X030657Y029983D01*
Y029984D01*
X030658Y029986D01*
X030664Y029991D01*
X030670Y030001D01*
X030680Y030012D01*
X030692Y030026D01*
X030707Y030039D01*
X030722Y030053D01*
X030740Y030067D01*
X030741Y030068D01*
X030744Y030069D01*
X030748Y030071D01*
X030752Y030073D01*
X030765Y030079D01*
X030779Y030083D01*
X030780D01*
X030782Y030084D01*
X030786D01*
X030791Y030086D01*
X030804Y030087D01*
X030817Y030088D01*
X030829D01*
X030836Y030087D01*
X030838D01*
X030842Y030086D01*
X030848D01*
X030855Y030084D01*
X030856D01*
X030860Y030086D01*
X030864Y030087D01*
X030869D01*
X030871Y030088D01*
X030886D01*
X030891Y030087D01*
D02*
G37*
G36*
X029464Y030110D02*
X029471Y030109D01*
X029474D01*
X029478Y030107D01*
X029484Y030104D01*
X029489Y030101D01*
X029490Y030100D01*
X029494Y030098D01*
X029498Y030094D01*
X029501Y030089D01*
X029503Y030088D01*
X029504Y030083D01*
X029505Y030077D01*
X029506Y030069D01*
Y030068D01*
Y030064D01*
X029505Y030059D01*
X029504Y030052D01*
Y030051D01*
X029501Y030047D01*
X029499Y030041D01*
X029496Y030036D01*
X029495Y030034D01*
X029493Y030032D01*
X029489Y030028D01*
X029484Y030024D01*
X029483Y030023D01*
X029478Y030022D01*
X029473Y030021D01*
X029466Y030020D01*
X029461D01*
X029456Y030021D01*
X029450Y030022D01*
X029449Y030023D01*
X029446Y030024D01*
X029438Y030029D01*
X029436Y030030D01*
X029431Y030032D01*
X029430Y030033D01*
X029425Y030037D01*
X029424D01*
X029423Y030036D01*
X029416Y030032D01*
X029407Y030027D01*
X029397Y030019D01*
X029395Y030017D01*
X029389Y030012D01*
X029383Y030004D01*
X029374Y029994D01*
X029372Y029992D01*
X029367Y029987D01*
X029360Y029978D01*
X029353Y029967D01*
Y029966D01*
X029351Y029964D01*
X029347Y029958D01*
X029341Y029948D01*
X029336Y029937D01*
Y029936D01*
X029335Y029934D01*
X029332Y029928D01*
X029328Y029919D01*
X029324Y029908D01*
Y029907D01*
X029323Y029906D01*
X029320Y029899D01*
X029318Y029891D01*
X029315Y029882D01*
Y029881D01*
X029314Y029877D01*
X029313Y029870D01*
X029310Y029862D01*
Y029860D01*
X029309Y029856D01*
X029308Y029848D01*
Y029840D01*
Y029839D01*
Y029836D01*
Y029831D01*
X029309Y029827D01*
Y029826D01*
X029310Y029822D01*
X029315Y029814D01*
X029316Y029813D01*
X029317Y029812D01*
X029323Y029807D01*
X029324D01*
X029327Y029806D01*
X029332Y029804D01*
X029345D01*
X029353Y029806D01*
X029362Y029807D01*
X029363D01*
X029364Y029808D01*
X029369Y029809D01*
X029377Y029812D01*
X029386Y029816D01*
X029387D01*
X029388Y029817D01*
X029394Y029819D01*
X029402Y029823D01*
X029409Y029828D01*
X029410D01*
X029411Y029829D01*
X029417Y029832D01*
X029425Y029837D01*
X029433Y029841D01*
X029434Y029842D01*
X029437Y029844D01*
X029441Y029847D01*
X029446Y029850D01*
X029447Y029851D01*
X029450Y029852D01*
X029458Y029858D01*
X029459Y029859D01*
X029463Y029860D01*
X029470Y029864D01*
X029471D01*
X029474Y029866D01*
X029479Y029867D01*
X029483D01*
X029486Y029866D01*
X029489Y029863D01*
X029490D01*
X029493Y029861D01*
X029494Y029859D01*
X029495Y029854D01*
Y029853D01*
Y029851D01*
X029493Y029844D01*
Y029843D01*
X029491Y029842D01*
X029489Y029836D01*
X029484Y029828D01*
X029478Y029819D01*
X029477Y029817D01*
X029473Y029812D01*
X029467Y029806D01*
X029459Y029799D01*
X029457Y029798D01*
X029453Y029793D01*
X029445Y029788D01*
X029436Y029782D01*
X029434Y029781D01*
X029428Y029778D01*
X029421Y029774D01*
X029413Y029770D01*
X029411D01*
X029408Y029768D01*
X029404Y029766D01*
X029398Y029763D01*
X029383Y029758D01*
X029366Y029752D01*
X029365D01*
X029363Y029751D01*
X029358D01*
X029353Y029750D01*
X029340Y029749D01*
X029328Y029748D01*
X029320D01*
X029316Y029749D01*
X029315D01*
X029312Y029750D01*
X029304D01*
X029303Y029751D01*
X029299Y029752D01*
X029294Y029756D01*
X029287Y029759D01*
X029274Y029770D01*
X029266Y029777D01*
X029260Y029784D01*
Y029786D01*
X029258Y029789D01*
X029256Y029793D01*
X029254Y029799D01*
X029252Y029807D01*
X029249Y029816D01*
X029248Y029826D01*
X029247Y029836D01*
Y029837D01*
Y029838D01*
Y029843D01*
X029248Y029852D01*
X029249Y029862D01*
Y029863D01*
Y029864D01*
X029252Y029871D01*
X029253Y029880D01*
X029256Y029891D01*
Y029892D01*
X029257Y029897D01*
X029259Y029902D01*
X029262Y029909D01*
X029264Y029918D01*
X029267Y029928D01*
X029276Y029950D01*
X029277Y029951D01*
X029278Y029956D01*
X029282Y029961D01*
X029285Y029969D01*
X029289Y029978D01*
X029295Y029988D01*
X029308Y030009D01*
X029309Y030010D01*
X029312Y030013D01*
X029316Y030019D01*
X029322Y030027D01*
X029328Y030034D01*
X029336Y030043D01*
X029353Y030061D01*
X029354Y030062D01*
X029357Y030066D01*
X029362Y030070D01*
X029368Y030076D01*
X029376Y030081D01*
X029386Y030089D01*
X029406Y030101D01*
X029408Y030102D01*
X029413Y030104D01*
X029419Y030107D01*
X029427Y030109D01*
X029429D01*
X029434Y030110D01*
X029441Y030111D01*
X029457D01*
X029464Y030110D01*
D02*
G37*
G36*
X028249D02*
X028257Y030109D01*
X028259D01*
X028264Y030107D01*
X028269Y030104D01*
X028275Y030101D01*
X028276Y030100D01*
X028279Y030098D01*
X028284Y030094D01*
X028287Y030089D01*
X028288Y030088D01*
X028289Y030083D01*
X028291Y030077D01*
X028292Y030069D01*
Y030068D01*
Y030064D01*
X028291Y030059D01*
X028289Y030052D01*
Y030051D01*
X028287Y030047D01*
X028285Y030041D01*
X028282Y030036D01*
X028280Y030034D01*
X028278Y030032D01*
X028275Y030028D01*
X028269Y030024D01*
X028268Y030023D01*
X028264Y030022D01*
X028258Y030021D01*
X028252Y030020D01*
X028247D01*
X028242Y030021D01*
X028236Y030022D01*
X028235Y030023D01*
X028232Y030024D01*
X028224Y030029D01*
X028222Y030030D01*
X028217Y030032D01*
X028216Y030033D01*
X028210Y030037D01*
X028209D01*
X028208Y030036D01*
X028202Y030032D01*
X028193Y030027D01*
X028183Y030019D01*
X028181Y030017D01*
X028175Y030012D01*
X028168Y030004D01*
X028159Y029994D01*
X028157Y029992D01*
X028153Y029987D01*
X028146Y029978D01*
X028138Y029967D01*
Y029966D01*
X028137Y029964D01*
X028133Y029958D01*
X028127Y029948D01*
X028122Y029937D01*
Y029936D01*
X028121Y029934D01*
X028117Y029928D01*
X028114Y029919D01*
X028109Y029908D01*
Y029907D01*
X028108Y029906D01*
X028106Y029899D01*
X028104Y029891D01*
X028101Y029882D01*
Y029881D01*
X028099Y029877D01*
X028098Y029870D01*
X028096Y029862D01*
Y029860D01*
X028095Y029856D01*
X028094Y029848D01*
Y029840D01*
Y029839D01*
Y029836D01*
Y029831D01*
X028095Y029827D01*
Y029826D01*
X028096Y029822D01*
X028101Y029814D01*
X028102Y029813D01*
X028103Y029812D01*
X028108Y029807D01*
X028109D01*
X028113Y029806D01*
X028117Y029804D01*
X028131D01*
X028138Y029806D01*
X028147Y029807D01*
X028148D01*
X028149Y029808D01*
X028155Y029809D01*
X028163Y029812D01*
X028172Y029816D01*
X028173D01*
X028174Y029817D01*
X028179Y029819D01*
X028187Y029823D01*
X028195Y029828D01*
X028196D01*
X028197Y029829D01*
X028203Y029832D01*
X028210Y029837D01*
X028218Y029841D01*
X028219Y029842D01*
X028223Y029844D01*
X028227Y029847D01*
X028232Y029850D01*
X028233Y029851D01*
X028236Y029852D01*
X028244Y029858D01*
X028245Y029859D01*
X028248Y029860D01*
X028256Y029864D01*
X028257D01*
X028259Y029866D01*
X028265Y029867D01*
X028268D01*
X028272Y029866D01*
X028275Y029863D01*
X028276D01*
X028278Y029861D01*
X028279Y029859D01*
X028280Y029854D01*
Y029853D01*
Y029851D01*
X028278Y029844D01*
Y029843D01*
X028277Y029842D01*
X028275Y029836D01*
X028269Y029828D01*
X028264Y029819D01*
X028263Y029817D01*
X028258Y029812D01*
X028253Y029806D01*
X028245Y029799D01*
X028243Y029798D01*
X028238Y029793D01*
X028231Y029788D01*
X028222Y029782D01*
X028219Y029781D01*
X028214Y029778D01*
X028207Y029774D01*
X028198Y029770D01*
X028197D01*
X028194Y029768D01*
X028189Y029766D01*
X028184Y029763D01*
X028168Y029758D01*
X028152Y029752D01*
X028151D01*
X028148Y029751D01*
X028144D01*
X028138Y029750D01*
X028126Y029749D01*
X028114Y029748D01*
X028106D01*
X028102Y029749D01*
X028101D01*
X028097Y029750D01*
X028089D01*
X028088Y029751D01*
X028085Y029752D01*
X028079Y029756D01*
X028073Y029759D01*
X028059Y029770D01*
X028052Y029777D01*
X028046Y029784D01*
Y029786D01*
X028044Y029789D01*
X028042Y029793D01*
X028039Y029799D01*
X028037Y029807D01*
X028035Y029816D01*
X028034Y029826D01*
X028033Y029836D01*
Y029837D01*
Y029838D01*
Y029843D01*
X028034Y029852D01*
X028035Y029862D01*
Y029863D01*
Y029864D01*
X028037Y029871D01*
X028038Y029880D01*
X028042Y029891D01*
Y029892D01*
X028043Y029897D01*
X028045Y029902D01*
X028047Y029909D01*
X028049Y029918D01*
X028053Y029928D01*
X028062Y029950D01*
X028063Y029951D01*
X028064Y029956D01*
X028067Y029961D01*
X028071Y029969D01*
X028075Y029978D01*
X028081Y029988D01*
X028094Y030009D01*
X028095Y030010D01*
X028097Y030013D01*
X028102Y030019D01*
X028107Y030027D01*
X028114Y030034D01*
X028122Y030043D01*
X028138Y030061D01*
X028139Y030062D01*
X028143Y030066D01*
X028147Y030070D01*
X028154Y030076D01*
X028162Y030081D01*
X028172Y030089D01*
X028192Y030101D01*
X028194Y030102D01*
X028198Y030104D01*
X028205Y030107D01*
X028213Y030109D01*
X028215D01*
X028219Y030110D01*
X028227Y030111D01*
X028243D01*
X028249Y030110D01*
D02*
G37*
G36*
X033484Y030071D02*
X033486D01*
X033489Y030070D01*
X033496Y030067D01*
X033497D01*
X033498Y030066D01*
X033502Y030060D01*
X033503Y030059D01*
X033504Y030058D01*
X033506Y030054D01*
Y030051D01*
Y030050D01*
Y030048D01*
Y030047D01*
X033504Y030046D01*
X033494Y030008D01*
Y030007D01*
X033493Y030004D01*
Y030001D01*
X033491Y029997D01*
X033490Y029991D01*
X033488Y029984D01*
X033484Y029968D01*
X033479Y029948D01*
X033473Y029926D01*
X033467Y029902D01*
X033460Y029878D01*
Y029877D01*
X033459Y029874D01*
X033458Y029871D01*
X033457Y029867D01*
X033456Y029861D01*
X033453Y029853D01*
X033449Y029837D01*
X033443Y029818D01*
X033438Y029796D01*
X033432Y029772D01*
X033426Y029749D01*
X033424Y029748D01*
X033423Y029743D01*
X033422Y029741D01*
X033419Y029737D01*
X033418Y029734D01*
X033413Y029731D01*
X033412D01*
X033411Y029730D01*
X033404Y029729D01*
X033403D01*
X033399Y029730D01*
X033393Y029731D01*
X033388Y029733D01*
X033387Y029734D01*
X033383Y029736D01*
X033376Y029742D01*
X033374Y029743D01*
X033372Y029746D01*
X033370Y029750D01*
X033368Y029754D01*
Y029756D01*
X033367Y029759D01*
X033366Y029767D01*
Y029768D01*
Y029770D01*
Y029771D01*
Y029773D01*
X033377Y029816D01*
Y029817D01*
X033378Y029819D01*
X033379Y029823D01*
X033380Y029830D01*
X033382Y029837D01*
X033384Y029846D01*
X033390Y029864D01*
Y029866D01*
X033391Y029870D01*
X033393Y029876D01*
X033394Y029883D01*
X033398Y029892D01*
X033400Y029902D01*
X033406Y029924D01*
Y029926D01*
X033407Y029930D01*
X033409Y029936D01*
X033411Y029944D01*
X033413Y029953D01*
X033417Y029964D01*
X033423Y029988D01*
Y029989D01*
X033424Y029993D01*
X033427Y030000D01*
X033429Y030009D01*
X033431Y030018D01*
X033434Y030029D01*
X033440Y030052D01*
Y030053D01*
X033442Y030057D01*
Y030058D01*
X033443Y030059D01*
X033448Y030063D01*
X033449Y030064D01*
X033451Y030066D01*
X033458Y030069D01*
X033459Y030070D01*
X033462Y030071D01*
X033467Y030072D01*
X033477D01*
X033484Y030071D01*
D02*
G37*
G36*
X029174D02*
X029175D01*
X029178Y030070D01*
X029185Y030067D01*
X029186D01*
X029187Y030066D01*
X029192Y030060D01*
X029193Y030059D01*
X029194Y030058D01*
X029195Y030054D01*
Y030051D01*
Y030050D01*
Y030048D01*
Y030047D01*
X029194Y030046D01*
X029184Y030008D01*
Y030007D01*
X029183Y030004D01*
Y030001D01*
X029180Y029997D01*
X029179Y029991D01*
X029177Y029984D01*
X029174Y029968D01*
X029168Y029948D01*
X029163Y029926D01*
X029156Y029902D01*
X029149Y029878D01*
Y029877D01*
X029148Y029874D01*
X029147Y029871D01*
X029146Y029867D01*
X029145Y029861D01*
X029143Y029853D01*
X029138Y029837D01*
X029133Y029818D01*
X029127Y029796D01*
X029122Y029772D01*
X029115Y029749D01*
X029114Y029748D01*
X029113Y029743D01*
X029112Y029741D01*
X029108Y029737D01*
X029107Y029734D01*
X029103Y029731D01*
X029102D01*
X029100Y029730D01*
X029094Y029729D01*
X029093D01*
X029088Y029730D01*
X029083Y029731D01*
X029077Y029733D01*
X029076Y029734D01*
X029073Y029736D01*
X029065Y029742D01*
X029064Y029743D01*
X029062Y029746D01*
X029059Y029750D01*
X029057Y029754D01*
Y029756D01*
X029056Y029759D01*
X029055Y029767D01*
Y029768D01*
Y029770D01*
Y029771D01*
Y029773D01*
X029066Y029816D01*
Y029817D01*
X029067Y029819D01*
X029068Y029823D01*
X029069Y029830D01*
X029072Y029837D01*
X029074Y029846D01*
X029079Y029864D01*
Y029866D01*
X029080Y029870D01*
X029083Y029876D01*
X029084Y029883D01*
X029087Y029892D01*
X029089Y029902D01*
X029095Y029924D01*
Y029926D01*
X029096Y029930D01*
X029098Y029936D01*
X029100Y029944D01*
X029103Y029953D01*
X029106Y029964D01*
X029113Y029988D01*
Y029989D01*
X029114Y029993D01*
X029116Y030000D01*
X029118Y030009D01*
X029120Y030018D01*
X029124Y030029D01*
X029129Y030052D01*
Y030053D01*
X029132Y030057D01*
Y030058D01*
X029133Y030059D01*
X029137Y030063D01*
X029138Y030064D01*
X029140Y030066D01*
X029147Y030069D01*
X029148Y030070D01*
X029152Y030071D01*
X029156Y030072D01*
X029166D01*
X029174Y030071D01*
D02*
G37*
G36*
X031879Y030102D02*
X031880D01*
X031883Y030101D01*
X031888Y030100D01*
X031891Y030097D01*
X031892Y030096D01*
X031895Y030092D01*
X031898Y030087D01*
X031900Y030079D01*
X031901Y030078D01*
X031902Y030073D01*
X031903Y030067D01*
Y030061D01*
Y030060D01*
Y030058D01*
X031902Y030054D01*
X031900Y030048D01*
X031899Y030046D01*
X031898Y030041D01*
X031895Y030036D01*
X031891Y030028D01*
Y030027D01*
X031890Y030022D01*
X031888Y030016D01*
X031886Y030008D01*
X031881Y029990D01*
X031877Y029971D01*
Y029970D01*
X031876Y029968D01*
X031875Y029963D01*
X031873Y029958D01*
X031871Y029946D01*
X031868Y029933D01*
Y029932D01*
Y029931D01*
X031867Y029926D01*
X031866Y029918D01*
X031865Y029910D01*
Y029909D01*
Y029906D01*
X031863Y029901D01*
Y029897D01*
Y029896D01*
Y029893D01*
Y029890D01*
X031865Y029886D01*
X031866Y029874D01*
X031869Y029864D01*
X031870Y029862D01*
X031873Y029859D01*
X031879Y029856D01*
X031886Y029853D01*
X031889D01*
X031893Y029854D01*
X031898Y029856D01*
X031899D01*
X031902Y029858D01*
X031907Y029860D01*
X031913Y029863D01*
X031915Y029864D01*
X031919Y029867D01*
X031925Y029870D01*
X031931Y029876D01*
X031948Y029889D01*
X031966Y029904D01*
X031967Y029906D01*
X031969Y029909D01*
X031973Y029913D01*
X031979Y029919D01*
X031985Y029927D01*
X031991Y029934D01*
X032003Y029953D01*
X032005Y029954D01*
X032006Y029958D01*
X032009Y029963D01*
X032012Y029971D01*
X032017Y029980D01*
X032021Y029990D01*
X032030Y030013D01*
X032031Y030014D01*
X032032Y030019D01*
X032035Y030026D01*
X032038Y030034D01*
X032041Y030044D01*
X032045Y030057D01*
X032048Y030070D01*
X032051Y030084D01*
X032052Y030086D01*
X032055Y030089D01*
X032056Y030090D01*
X032057Y030091D01*
X032061Y030093D01*
X032062D01*
X032065Y030094D01*
X032070Y030097D01*
X032071D01*
X032072Y030098D01*
X032078Y030099D01*
X032085D01*
X032089Y030098D01*
X032099Y030094D01*
X032108Y030088D01*
X032109Y030086D01*
X032113Y030081D01*
X032117Y030072D01*
X032118Y030060D01*
Y030059D01*
Y030054D01*
X032117Y030048D01*
X032115Y030039D01*
Y030038D01*
Y030037D01*
X032112Y030030D01*
X032110Y030020D01*
X032107Y030008D01*
Y030007D01*
X032106Y030006D01*
X032105Y029998D01*
X032101Y029989D01*
X032098Y029978D01*
Y029977D01*
X032097Y029976D01*
X032096Y029970D01*
X032093Y029962D01*
X032091Y029956D01*
X032073Y029906D01*
Y029904D01*
X032071Y029900D01*
X032069Y029893D01*
X032066Y029884D01*
X032062Y029874D01*
X032059Y029864D01*
X032051Y029842D01*
Y029841D01*
X032050Y029838D01*
X032048Y029832D01*
X032046Y029824D01*
X032042Y029817D01*
X032039Y029808D01*
X032031Y029789D01*
Y029788D01*
X032029Y029784D01*
X032027Y029780D01*
X032025Y029774D01*
X032017Y029759D01*
X032007Y029743D01*
X032006Y029742D01*
X032005Y029740D01*
X032001Y029736D01*
X031998Y029730D01*
X031987Y029716D01*
X031973Y029700D01*
X031972Y029699D01*
X031970Y029697D01*
X031966Y029692D01*
X031961Y029687D01*
X031955Y029680D01*
X031947Y029673D01*
X031928Y029658D01*
X031927Y029657D01*
X031923Y029654D01*
X031918Y029650D01*
X031910Y029644D01*
X031901Y029637D01*
X031890Y029630D01*
X031878Y029621D01*
X031865Y029613D01*
X031863D01*
X031861Y029611D01*
X031857Y029609D01*
X031851Y029606D01*
X031837Y029599D01*
X031820Y029591D01*
X031819D01*
X031817Y029590D01*
X031812Y029589D01*
X031807Y029587D01*
X031792Y029583D01*
X031776Y029582D01*
X031772D01*
X031769Y029583D01*
X031766Y029586D01*
X031765Y029587D01*
X031763Y029588D01*
X031758Y029593D01*
Y029594D01*
X031756Y029597D01*
X031752Y029603D01*
Y029604D01*
Y029607D01*
X031751Y029614D01*
Y029616D01*
Y029619D01*
X031752Y029627D01*
Y029628D01*
X031753Y029630D01*
X031757Y029636D01*
X031758Y029637D01*
X031759Y029638D01*
X031763Y029641D01*
X031765D01*
X031766Y029642D01*
X031769Y029644D01*
X031770D01*
X031775Y029646D01*
X031781Y029648D01*
X031789Y029650D01*
X031791D01*
X031797Y029652D01*
X031805Y029654D01*
X031815Y029658D01*
X031816D01*
X031817Y029659D01*
X031823Y029661D01*
X031832Y029664D01*
X031843Y029670D01*
X031845D01*
X031846Y029671D01*
X031849Y029673D01*
X031853Y029676D01*
X031863Y029682D01*
X031876Y029690D01*
X031877Y029691D01*
X031879Y029692D01*
X031882Y029696D01*
X031887Y029699D01*
X031897Y029708D01*
X031910Y029720D01*
X031911Y029721D01*
X031913Y029723D01*
X031917Y029727D01*
X031921Y029731D01*
X031932Y029743D01*
X031945Y029759D01*
X031946Y029760D01*
X031948Y029763D01*
X031950Y029768D01*
X031955Y029773D01*
X031959Y029781D01*
X031965Y029790D01*
X031976Y029810D01*
X031977Y029811D01*
X031978Y029816D01*
X031981Y029821D01*
X031985Y029830D01*
X031988Y029840D01*
X031992Y029851D01*
X031997Y029864D01*
X032000Y029878D01*
X031999Y029877D01*
X031996Y029872D01*
X031991Y029867D01*
X031985Y029860D01*
X031983Y029858D01*
X031979Y029853D01*
X031972Y029848D01*
X031965Y029840D01*
X031962Y029839D01*
X031958Y029834D01*
X031951Y029828D01*
X031943Y029821D01*
X031941Y029820D01*
X031937Y029816D01*
X031930Y029810D01*
X031922Y029804D01*
X031920Y029803D01*
X031916Y029800D01*
X031908Y029796D01*
X031900Y029792D01*
X031899D01*
X031895Y029791D01*
X031888Y029790D01*
X031881Y029789D01*
X031877D01*
X031872Y029790D01*
X031867D01*
X031853Y029793D01*
X031840Y029799D01*
X031839Y029800D01*
X031837Y029801D01*
X031835Y029803D01*
X031830Y029808D01*
X031825Y029812D01*
X031819Y029819D01*
X031813Y029827D01*
X031808Y029836D01*
Y029837D01*
X031806Y029841D01*
X031805Y029847D01*
X031802Y029854D01*
Y029856D01*
Y029857D01*
X031801Y029862D01*
X031800Y029870D01*
Y029879D01*
Y029880D01*
Y029882D01*
Y029886D01*
Y029891D01*
Y029903D01*
X031801Y029917D01*
Y029918D01*
Y029920D01*
X031802Y029923D01*
Y029929D01*
X031805Y029941D01*
X031807Y029956D01*
Y029957D01*
X031808Y029959D01*
X031809Y029963D01*
X031810Y029968D01*
X031812Y029981D01*
X031816Y029997D01*
Y029998D01*
X031817Y030001D01*
X031818Y030006D01*
X031819Y030011D01*
X031821Y030019D01*
X031822Y030027D01*
X031827Y030046D01*
Y030047D01*
Y030050D01*
Y030054D01*
X031828Y030059D01*
Y030060D01*
X031829Y030062D01*
Y030068D01*
Y030069D01*
Y030071D01*
Y030073D01*
Y030074D01*
Y030076D01*
X031830Y030079D01*
X031833Y030086D01*
X031835Y030087D01*
X031836Y030089D01*
X031841Y030096D01*
X031842Y030097D01*
X031845Y030098D01*
X031848Y030100D01*
X031852Y030101D01*
X031853D01*
X031856Y030102D01*
X031863Y030103D01*
X031873D01*
X031879Y030102D01*
D02*
G37*
G36*
X033228Y030107D02*
X033234Y030106D01*
X033249Y030102D01*
X033257Y030098D01*
X033264Y030093D01*
X033266Y030092D01*
X033268Y030091D01*
X033271Y030088D01*
X033277Y030083D01*
X033281Y030078D01*
X033287Y030071D01*
X033292Y030063D01*
X033298Y030054D01*
X033299Y030053D01*
X033300Y030050D01*
X033302Y030044D01*
X033304Y030039D01*
X033306Y030038D01*
X033307Y030034D01*
X033308Y030029D01*
X033310Y030022D01*
X033311Y030021D01*
X033312Y030017D01*
X033313Y030011D01*
X033314Y030004D01*
Y030002D01*
X033316Y029998D01*
Y029991D01*
Y029982D01*
Y029981D01*
Y029978D01*
Y029971D01*
X033314Y029964D01*
X033313Y029956D01*
X033312Y029946D01*
X033307Y029923D01*
Y029922D01*
X033306Y029919D01*
X033303Y029912D01*
X033300Y029906D01*
X033297Y029897D01*
X033292Y029887D01*
X033281Y029866D01*
X033280Y029864D01*
X033278Y029861D01*
X033274Y029856D01*
X033270Y029849D01*
X033263Y029840D01*
X033257Y029831D01*
X033240Y029811D01*
X033239Y029810D01*
X033236Y029807D01*
X033231Y029802D01*
X033224Y029796D01*
X033217Y029789D01*
X033208Y029781D01*
X033188Y029764D01*
X033187Y029763D01*
X033184Y029762D01*
X033180Y029760D01*
X033174Y029757D01*
X033168Y029753D01*
X033161Y029750D01*
X033143Y029743D01*
X033142D01*
X033139Y029742D01*
X033134Y029741D01*
X033128Y029740D01*
X033120Y029738D01*
X033111Y029737D01*
X033091Y029736D01*
X033081D01*
X033074Y029737D01*
X033059Y029739D01*
X033042Y029743D01*
X033041D01*
X033039Y029744D01*
X033036Y029747D01*
X033030Y029749D01*
X033019Y029754D01*
X033008Y029763D01*
Y029764D01*
X033006Y029766D01*
X033003Y029769D01*
X033000Y029773D01*
X032993Y029783D01*
X032988Y029797D01*
Y029798D01*
X032987Y029800D01*
X032986Y029804D01*
X032984Y029809D01*
X032983Y029816D01*
X032982Y029823D01*
X032981Y029840D01*
Y029841D01*
Y029844D01*
Y029849D01*
X032982Y029854D01*
Y029862D01*
X032984Y029870D01*
X032988Y029889D01*
Y029890D01*
X032989Y029893D01*
X032990Y029898D01*
X032992Y029903D01*
X032994Y029910D01*
X032997Y029918D01*
X033004Y029936D01*
Y029937D01*
X033007Y029940D01*
X033009Y029944D01*
X033012Y029951D01*
X033017Y029959D01*
X033022Y029968D01*
X033034Y029986D01*
X033036Y029987D01*
X033038Y029990D01*
X033042Y029994D01*
X033047Y030001D01*
X033053Y030009D01*
X033061Y030018D01*
X033079Y030036D01*
X033080Y030037D01*
X033083Y030040D01*
X033089Y030044D01*
X033097Y030050D01*
X033106Y030058D01*
X033116Y030066D01*
X033139Y030081D01*
X033140Y030082D01*
X033143Y030083D01*
X033148Y030086D01*
X033156Y030088D01*
X033157D01*
X033158Y030089D01*
X033163Y030090D01*
X033171Y030092D01*
X033179Y030093D01*
X033180Y030094D01*
X033181Y030096D01*
X033184Y030098D01*
X033189Y030101D01*
X033194Y030103D01*
X033201Y030106D01*
X033209Y030107D01*
X033218Y030108D01*
X033222D01*
X033228Y030107D01*
D02*
G37*
G36*
X031107Y030112D02*
X031114Y030111D01*
X031121Y030107D01*
X031122Y030106D01*
X031126Y030102D01*
X031129Y030097D01*
X031130Y030089D01*
Y030088D01*
X031129Y030084D01*
X031128Y030083D01*
X031127Y030079D01*
X031111Y030041D01*
X031112Y030042D01*
X031114Y030043D01*
X031120Y030049D01*
X031130Y030057D01*
X031142Y030064D01*
X031144Y030066D01*
X031146Y030067D01*
X031149Y030069D01*
X031154Y030072D01*
X031164Y030079D01*
X031177Y030087D01*
X031178D01*
X031180Y030089D01*
X031184Y030090D01*
X031188Y030092D01*
X031199Y030098D01*
X031211Y030102D01*
X031212D01*
X031215Y030103D01*
X031218Y030104D01*
X031222Y030106D01*
X031234Y030107D01*
X031247Y030108D01*
X031252D01*
X031259Y030107D01*
X031267Y030106D01*
X031275Y030103D01*
X031284Y030100D01*
X031292Y030096D01*
X031300Y030089D01*
X031301Y030088D01*
X031304Y030086D01*
X031307Y030081D01*
X031310Y030076D01*
X031314Y030067D01*
X031317Y030057D01*
X031319Y030046D01*
X031320Y030031D01*
Y030030D01*
Y030028D01*
Y030022D01*
X031319Y030017D01*
X031318Y030009D01*
X031317Y030000D01*
X031312Y029980D01*
Y029979D01*
X031311Y029976D01*
X031309Y029969D01*
X031307Y029961D01*
X031305Y029952D01*
X031300Y029941D01*
X031292Y029918D01*
Y029917D01*
X031290Y029912D01*
X031288Y029906D01*
X031286Y029897D01*
X031281Y029887D01*
X031278Y029876D01*
X031268Y029849D01*
X031267Y029848D01*
X031266Y029843D01*
X031264Y029836D01*
X031260Y029827D01*
X031256Y029816D01*
X031251Y029803D01*
X031242Y029776D01*
Y029774D01*
X031240Y029770D01*
X031238Y029764D01*
X031236Y029759D01*
X031235Y029758D01*
X031234Y029756D01*
X031230Y029752D01*
X031227Y029749D01*
X031226Y029748D01*
X031224Y029747D01*
X031220Y029744D01*
X031216Y029743D01*
X031215D01*
X031212Y029742D01*
X031207Y029741D01*
X031199D01*
X031194Y029742D01*
X031187Y029743D01*
X031181Y029746D01*
X031180Y029747D01*
X031179Y029749D01*
X031177Y029754D01*
X031176Y029762D01*
Y029764D01*
Y029769D01*
X031177Y029777D01*
X031179Y029787D01*
Y029788D01*
X031180Y029789D01*
Y029792D01*
X031181Y029797D01*
X031185Y029807D01*
X031188Y029819D01*
Y029820D01*
X031189Y029822D01*
X031190Y029826D01*
X031191Y029830D01*
X031196Y029842D01*
X031200Y029857D01*
Y029858D01*
X031201Y029860D01*
X031204Y029864D01*
X031206Y029869D01*
X031210Y029882D01*
X031217Y029898D01*
Y029899D01*
X031218Y029901D01*
X031219Y029904D01*
X031221Y029908D01*
X031226Y029919D01*
X031230Y029931D01*
Y029932D01*
X031231Y029934D01*
X031232Y029938D01*
X031235Y029941D01*
X031238Y029952D01*
X031242Y029963D01*
Y029964D01*
X031244Y029966D01*
X031246Y029973D01*
X031249Y029982D01*
X031251Y029993D01*
Y029994D01*
X031252Y029996D01*
X031254Y030002D01*
X031255Y030011D01*
Y030020D01*
Y030022D01*
X031254Y030027D01*
X031252Y030032D01*
X031249Y030039D01*
X031248Y030040D01*
X031246Y030043D01*
X031240Y030047D01*
X031231Y030048D01*
X031229D01*
X031222Y030047D01*
X031214Y030046D01*
X031204Y030041D01*
X031202D01*
X031201Y030040D01*
X031195Y030037D01*
X031185Y030032D01*
X031174Y030026D01*
X031172D01*
X031171Y030023D01*
X031168Y030022D01*
X031164Y030019D01*
X031154Y030011D01*
X031141Y030002D01*
X031140D01*
X031139Y030000D01*
X031131Y029994D01*
X031121Y029986D01*
X031110Y029976D01*
X031109Y029974D01*
X031106Y029971D01*
X031100Y029968D01*
X031095Y029963D01*
X031094Y029962D01*
X031090Y029960D01*
X031086Y029958D01*
X031080Y029954D01*
X031079Y029953D01*
X031077Y029949D01*
X031074Y029942D01*
X031069Y029932D01*
Y029931D01*
X031068Y029930D01*
X031066Y029923D01*
X031062Y029914D01*
X031058Y029902D01*
Y029901D01*
X031057Y029900D01*
Y029897D01*
X031055Y029892D01*
X031052Y029882D01*
X031048Y029870D01*
Y029869D01*
X031047Y029867D01*
Y029864D01*
X031046Y029860D01*
X031042Y029850D01*
X031040Y029839D01*
Y029838D01*
X031039Y029834D01*
X031038Y029829D01*
X031037Y029823D01*
Y029822D01*
X031036Y029819D01*
Y029814D01*
X031035Y029808D01*
Y029807D01*
X031034Y029802D01*
X031032Y029797D01*
X031031Y029790D01*
Y029789D01*
X031030Y029784D01*
X031028Y029778D01*
X031026Y029770D01*
Y029769D01*
X031025Y029766D01*
X031024Y029761D01*
X031020Y029758D01*
X031018Y029756D01*
X031012Y029752D01*
X031011D01*
X031010Y029751D01*
X031004Y029750D01*
X030996D01*
X030990Y029751D01*
X030982Y029752D01*
X030975Y029756D01*
X030974Y029757D01*
X030970Y029761D01*
X030967Y029769D01*
X030966Y029774D01*
Y029781D01*
Y029782D01*
Y029784D01*
Y029791D01*
Y029792D01*
X030967Y029794D01*
X030968Y029799D01*
X030969Y029804D01*
Y029806D01*
X030970Y029810D01*
X030972Y029817D01*
X030974Y029826D01*
X030976Y029834D01*
X030978Y029844D01*
X030984Y029866D01*
Y029867D01*
X030985Y029870D01*
X030987Y029876D01*
X030988Y029882D01*
X030994Y029899D01*
X030999Y029917D01*
Y029918D01*
X031000Y029921D01*
X031002Y029926D01*
X031004Y029931D01*
X031009Y029947D01*
X031015Y029962D01*
Y029963D01*
X031016Y029966D01*
X031018Y029970D01*
X031019Y029976D01*
X031025Y029989D01*
X031030Y030004D01*
Y030006D01*
X031031Y030008D01*
X031034Y030012D01*
X031036Y030018D01*
X031041Y030032D01*
X031048Y030048D01*
Y030049D01*
X031049Y030052D01*
X031051Y030057D01*
X031054Y030063D01*
X031057Y030070D01*
X031060Y030079D01*
X031067Y030099D01*
Y030100D01*
X031069Y030102D01*
X031072Y030106D01*
X031078Y030109D01*
X031080Y030110D01*
X031085Y030111D01*
X031090Y030112D01*
X031098Y030113D01*
X031100D01*
X031107Y030112D01*
D02*
G37*
G36*
X030577Y030302D02*
X030581Y030301D01*
X030582D01*
X030586Y030300D01*
X030595Y030294D01*
X030596Y030293D01*
X030599Y030292D01*
X030606Y030285D01*
X030607Y030284D01*
X030608Y030282D01*
X030609Y030279D01*
X030610Y030274D01*
Y030272D01*
X030609Y030267D01*
Y030264D01*
X030608Y030260D01*
X030517Y029896D01*
Y029894D01*
X030516Y029892D01*
X030515Y029888D01*
X030514Y029882D01*
X030510Y029869D01*
X030507Y029853D01*
Y029852D01*
Y029850D01*
X030506Y029847D01*
X030505Y029842D01*
X030504Y029832D01*
X030503Y029821D01*
Y029812D01*
Y029810D01*
Y029806D01*
X030501Y029798D01*
X030500Y029789D01*
Y029788D01*
Y029787D01*
X030499Y029781D01*
X030498Y029773D01*
X030495Y029764D01*
X030494Y029762D01*
X030492Y029758D01*
X030489Y029752D01*
X030484Y029747D01*
X030482Y029746D01*
X030479Y029743D01*
X030474Y029741D01*
X030466Y029740D01*
X030465D01*
X030460Y029741D01*
X030454Y029742D01*
X030448Y029744D01*
X030447Y029746D01*
X030444Y029748D01*
X030436Y029754D01*
X030435Y029756D01*
X030434Y029758D01*
X030431Y029762D01*
X030429Y029768D01*
Y029769D01*
Y029772D01*
X030428Y029777D01*
Y029782D01*
Y029783D01*
Y029786D01*
Y029790D01*
X030429Y029796D01*
Y029797D01*
X030430Y029801D01*
Y029807D01*
X030431Y029813D01*
Y029816D01*
X030433Y029820D01*
X030434Y029826D01*
X030435Y029832D01*
Y029834D01*
X030436Y029838D01*
X030437Y029843D01*
X030438Y029849D01*
X030532Y030221D01*
Y030222D01*
Y030223D01*
X030534Y030229D01*
Y030238D01*
X030535Y030248D01*
Y030249D01*
Y030250D01*
X030536Y030257D01*
X030538Y030266D01*
X030540Y030274D01*
Y030275D01*
X030541Y030277D01*
X030544Y030281D01*
X030547Y030288D01*
X030551Y030294D01*
X030552Y030296D01*
X030556Y030299D01*
X030561Y030302D01*
X030569Y030303D01*
X030572D01*
X030577Y030302D01*
D02*
G37*
G36*
X027637D02*
X027642Y030301D01*
X027643D01*
X027646Y030300D01*
X027655Y030294D01*
X027656Y030293D01*
X027659Y030292D01*
X027666Y030285D01*
X027667Y030284D01*
X027668Y030282D01*
X027669Y030279D01*
X027671Y030274D01*
Y030272D01*
X027669Y030267D01*
Y030264D01*
X027668Y030260D01*
X027577Y029896D01*
Y029894D01*
X027576Y029892D01*
X027575Y029888D01*
X027574Y029882D01*
X027571Y029869D01*
X027567Y029853D01*
Y029852D01*
Y029850D01*
X027566Y029847D01*
X027565Y029842D01*
X027564Y029832D01*
X027563Y029821D01*
Y029812D01*
Y029810D01*
Y029806D01*
X027562Y029798D01*
X027561Y029789D01*
Y029788D01*
Y029787D01*
X027559Y029781D01*
X027558Y029773D01*
X027555Y029764D01*
X027554Y029762D01*
X027553Y029758D01*
X027549Y029752D01*
X027544Y029747D01*
X027543Y029746D01*
X027539Y029743D01*
X027534Y029741D01*
X027526Y029740D01*
X027525D01*
X027521Y029741D01*
X027514Y029742D01*
X027508Y029744D01*
X027507Y029746D01*
X027504Y029748D01*
X027496Y029754D01*
X027495Y029756D01*
X027494Y029758D01*
X027492Y029762D01*
X027489Y029768D01*
Y029769D01*
Y029772D01*
X027488Y029777D01*
Y029782D01*
Y029783D01*
Y029786D01*
Y029790D01*
X027489Y029796D01*
Y029797D01*
X027491Y029801D01*
Y029807D01*
X027492Y029813D01*
Y029816D01*
X027493Y029820D01*
X027494Y029826D01*
X027495Y029832D01*
Y029834D01*
X027496Y029838D01*
X027497Y029843D01*
X027498Y029849D01*
X027593Y030221D01*
Y030222D01*
Y030223D01*
X027594Y030229D01*
Y030238D01*
X027595Y030248D01*
Y030249D01*
Y030250D01*
X027596Y030257D01*
X027598Y030266D01*
X027601Y030274D01*
Y030275D01*
X027602Y030277D01*
X027604Y030281D01*
X027607Y030288D01*
X027612Y030294D01*
X027613Y030296D01*
X027616Y030299D01*
X027622Y030302D01*
X027629Y030303D01*
X027633D01*
X027637Y030302D01*
D02*
G37*
G36*
X029392Y034182D02*
Y034176D01*
Y034163D01*
Y034143D01*
Y034117D01*
Y034085D01*
Y034046D01*
Y033916D01*
X029794D01*
X030060Y033651D01*
X030073Y033638D01*
X030105Y033605D01*
X030144Y033566D01*
X030196Y033515D01*
X030241Y033456D01*
X030287Y033411D01*
X030319Y033372D01*
X030326Y033359D01*
Y033353D01*
Y033346D01*
X030319Y033320D01*
X030306Y033281D01*
X030274Y033236D01*
X030261Y033223D01*
X030248Y033203D01*
X030222Y033184D01*
X030190Y033152D01*
X030151Y033106D01*
X030099Y033054D01*
X030041Y032996D01*
X030034Y032990D01*
X030015Y032970D01*
X029989Y032944D01*
X029956Y032912D01*
X029885Y032841D01*
X029853Y032808D01*
X029827Y032789D01*
X029820Y032782D01*
X029801Y032769D01*
X029775Y032756D01*
X029749Y032750D01*
X029742D01*
X029716Y032756D01*
X029691Y032763D01*
X029665Y032782D01*
X029658Y032789D01*
X029652Y032808D01*
X029639Y032834D01*
X029632Y032866D01*
Y032873D01*
Y032886D01*
X029645Y032905D01*
X029665Y032938D01*
X029671Y032951D01*
X029703Y032983D01*
X029723Y033009D01*
X029755Y033041D01*
X029788Y033080D01*
X029833Y033126D01*
X030041Y033327D01*
X029691Y033677D01*
X028394D01*
X028044Y033327D01*
X028258Y033126D01*
X028265Y033119D01*
X028278Y033106D01*
X028304Y033080D01*
X028330Y033054D01*
X028381Y032990D01*
X028407Y032964D01*
X028427Y032938D01*
X028433Y032931D01*
X028446Y032912D01*
X028459Y032886D01*
X028466Y032866D01*
Y032860D01*
X028459Y032834D01*
X028453Y032808D01*
X028427Y032782D01*
X028420Y032776D01*
X028407Y032769D01*
X028381Y032756D01*
X028349Y032750D01*
X028330D01*
X028304Y032763D01*
X028265Y032789D01*
X028252Y032802D01*
X028239Y032815D01*
X028219Y032834D01*
X028187Y032860D01*
X028155Y032892D01*
X028109Y032938D01*
X028051Y032996D01*
X028044Y033003D01*
X028025Y033022D01*
X027992Y033054D01*
X027954Y033093D01*
X027876Y033171D01*
X027837Y033210D01*
X027811Y033236D01*
Y033242D01*
X027805Y033249D01*
X027785Y033275D01*
X027766Y033314D01*
X027759Y033353D01*
X027766Y033359D01*
X027772Y033378D01*
X027792Y033398D01*
X027824Y033437D01*
X027876Y033489D01*
X027941Y033560D01*
X028031Y033651D01*
X028291Y033916D01*
X028692D01*
X028705Y034454D01*
X028790Y034422D01*
X028796D01*
X028822Y034409D01*
X028854Y034402D01*
X028893Y034396D01*
X028932D01*
X028978Y034390D01*
X029153D01*
X029198Y034396D01*
X029204D01*
X029230Y034402D01*
X029263Y034409D01*
X029295Y034422D01*
X029392Y034454D01*
Y034182D01*
D02*
G37*
G36*
X029107Y035770D02*
X029185D01*
X029191Y035763D01*
X029230Y035751D01*
X029276Y035725D01*
X029334Y035692D01*
X029341D01*
X029347Y035686D01*
X029386Y035666D01*
X029425Y035634D01*
X029470Y035595D01*
X029477Y035589D01*
X029490Y035576D01*
X029503Y035550D01*
X029522Y035517D01*
X029529Y035511D01*
X029541Y035491D01*
X029561Y035465D01*
X029574Y035433D01*
X029580Y035420D01*
X029593Y035394D01*
X029606Y035362D01*
X029613Y035323D01*
Y035316D01*
X029619Y035290D01*
X029626Y035251D01*
Y035193D01*
Y035187D01*
Y035180D01*
Y035141D01*
X029619Y035096D01*
X029613Y035057D01*
Y035051D01*
X029606Y035031D01*
X029593Y034992D01*
X029567Y034947D01*
Y034940D01*
X029561Y034927D01*
X029535Y034889D01*
X029496Y034830D01*
X029451Y034778D01*
X029438Y034765D01*
X029405Y034739D01*
X029354Y034707D01*
X029282Y034668D01*
X029276Y034662D01*
X029250Y034649D01*
X029211Y034636D01*
X029179Y034629D01*
X029146D01*
X029101Y034623D01*
X028952D01*
X028913Y034629D01*
X028906D01*
X028887Y034636D01*
X028854Y034649D01*
X028809Y034668D01*
X028803D01*
X028796Y034675D01*
X028751Y034701D01*
X028699Y034733D01*
X028641Y034778D01*
X028628Y034791D01*
X028602Y034824D01*
X028563Y034876D01*
X028524Y034947D01*
Y034953D01*
X028517Y034960D01*
X028505Y034986D01*
X028492Y035025D01*
X028479Y035057D01*
Y035064D01*
Y035089D01*
X028472Y035135D01*
Y035193D01*
Y035200D01*
Y035206D01*
Y035245D01*
Y035290D01*
X028479Y035329D01*
Y035336D01*
X028485Y035362D01*
X028498Y035401D01*
X028524Y035446D01*
X028530Y035452D01*
X028537Y035472D01*
X028556Y035498D01*
X028576Y035530D01*
X028641Y035608D01*
X028725Y035679D01*
X028731Y035686D01*
X028751Y035692D01*
X028777Y035712D01*
X028809Y035725D01*
X028854Y035744D01*
X028900Y035757D01*
X028958Y035770D01*
X029016Y035776D01*
X029075D01*
X029107Y035770D01*
D02*
G37*
G36*
X030792Y035193D02*
Y035187D01*
Y035180D01*
Y035167D01*
Y035141D01*
Y035115D01*
Y035076D01*
Y035025D01*
Y034843D01*
X029788Y034850D01*
X029820Y034940D01*
Y034947D01*
X029827Y034973D01*
X029833Y034999D01*
X029840Y035038D01*
Y035051D01*
X029846Y035076D01*
X029853Y035128D01*
Y035193D01*
Y035200D01*
Y035213D01*
Y035251D01*
X029846Y035303D01*
X029840Y035349D01*
Y035355D01*
X029833Y035381D01*
X029827Y035414D01*
X029820Y035446D01*
X029788Y035543D01*
X029937D01*
X030792Y035550D01*
Y035193D01*
D02*
G37*
G36*
X032782Y032160D02*
X032905D01*
X032957Y032154D01*
X033041D01*
X033067Y032147D01*
X033074Y032141D01*
X033087Y032128D01*
X033100Y032102D01*
X033112Y032069D01*
Y032056D01*
X033119Y032024D01*
Y031998D01*
X033125Y031966D01*
Y031927D01*
Y031881D01*
Y031706D01*
X033190Y031687D01*
X033197D01*
X033210Y031680D01*
X033229D01*
X033262Y031667D01*
X033326Y031642D01*
X033398Y031596D01*
X033404D01*
X033417Y031583D01*
X033456Y031551D01*
X033501Y031493D01*
X033547Y031421D01*
X033553Y031415D01*
X033560Y031389D01*
X033573Y031356D01*
X033579Y031311D01*
Y031298D01*
Y031285D01*
X033586Y031259D01*
Y031220D01*
Y031175D01*
Y031123D01*
Y031052D01*
X033592Y030767D01*
X031026D01*
X031032Y031052D01*
Y031058D01*
Y031084D01*
Y031117D01*
Y031162D01*
Y031246D01*
X031039Y031285D01*
Y031311D01*
Y031324D01*
X031045Y031350D01*
X031058Y031382D01*
X031071Y031421D01*
Y031428D01*
X031084Y031441D01*
X031097Y031460D01*
X031110Y031486D01*
X031162Y031544D01*
X031220Y031596D01*
X031227Y031603D01*
X031239Y031609D01*
X031252Y031622D01*
X031278Y031635D01*
X031350Y031667D01*
X031434Y031687D01*
X031499Y031706D01*
Y031881D01*
Y031888D01*
Y031901D01*
Y031927D01*
Y031959D01*
Y032017D01*
X031505Y032043D01*
Y032069D01*
Y032076D01*
X031518Y032102D01*
X031531Y032121D01*
X031551Y032147D01*
X031557D01*
X031576Y032154D01*
X031654D01*
X031687Y032160D01*
X031849D01*
X031920Y032167D01*
X032646D01*
X032782Y032160D01*
D02*
G37*
G36*
X032730Y035893D02*
X032853D01*
X032905Y035887D01*
X033009D01*
X033048Y035880D01*
X033087D01*
X033119Y035874D01*
X033151D01*
X033171Y035867D01*
X033177D01*
X033184Y035861D01*
X033223Y035848D01*
X033275Y035822D01*
X033333Y035783D01*
X033404Y035731D01*
X033469Y035660D01*
X033521Y035576D01*
X033566Y035472D01*
Y035465D01*
X033573Y035439D01*
X033579Y035394D01*
X033586Y035329D01*
Y035323D01*
Y035310D01*
Y035284D01*
X033592Y035251D01*
Y035206D01*
Y035141D01*
Y035070D01*
Y034979D01*
Y034973D01*
Y034947D01*
Y034908D01*
Y034863D01*
Y034752D01*
X033586Y034707D01*
Y034662D01*
Y034655D01*
Y034649D01*
Y034610D01*
X033579Y034577D01*
Y034558D01*
X033573Y034552D01*
X033566Y034545D01*
X033553Y034532D01*
X033534Y034519D01*
X033495Y034506D01*
X033456D01*
X033430Y034500D01*
X033125D01*
Y034312D01*
Y034305D01*
Y034286D01*
Y034266D01*
Y034234D01*
X033119Y034169D01*
Y034137D01*
X033112Y034111D01*
Y034104D01*
X033100Y034085D01*
X033087Y034059D01*
X033061Y034046D01*
X033035D01*
X032989Y034040D01*
X032821D01*
X032763Y034033D01*
X031978D01*
X031849Y034040D01*
X031628D01*
X031589Y034046D01*
X031557D01*
X031544Y034059D01*
X031525Y034078D01*
X031512Y034111D01*
Y034124D01*
X031505Y034137D01*
Y034156D01*
Y034189D01*
X031499Y034221D01*
Y034260D01*
Y034312D01*
Y034500D01*
X031233D01*
X031168Y034506D01*
X031136D01*
X031110Y034513D01*
X031103D01*
X031084Y034526D01*
X031058Y034539D01*
X031039Y034558D01*
Y034571D01*
X031032Y034603D01*
Y034623D01*
Y034649D01*
Y034688D01*
Y034733D01*
X031026Y034785D01*
Y034843D01*
Y034921D01*
Y034999D01*
Y035096D01*
Y035206D01*
Y035815D01*
X031103Y035900D01*
X032588D01*
X032730Y035893D01*
D02*
G37*
G36*
X032899Y033100D02*
Y033087D01*
Y033067D01*
Y033041D01*
Y032996D01*
Y032931D01*
Y032854D01*
Y032750D01*
Y032400D01*
X031726D01*
Y033800D01*
X032899D01*
Y033100D01*
D02*
G37*
G36*
X028842Y032944D02*
X028887D01*
X028978Y032918D01*
X029016Y032905D01*
X029055Y032879D01*
X029062Y032873D01*
X029081Y032854D01*
X029094Y032828D01*
X029101Y032808D01*
X029107Y032802D01*
X029120D01*
X029133Y032821D01*
X029140Y032828D01*
X029146Y032834D01*
X029179Y032873D01*
X029217Y032912D01*
X029237Y032925D01*
X029250Y032938D01*
X029256D01*
X029276Y032944D01*
X029295D01*
X029321Y032931D01*
X029328Y032925D01*
X029341Y032918D01*
X029354Y032899D01*
Y032866D01*
Y032860D01*
X029347Y032841D01*
X029341Y032815D01*
X029315Y032789D01*
X029308Y032782D01*
X029289Y032756D01*
X029256Y032704D01*
X029217Y032640D01*
Y032633D01*
X029211Y032627D01*
X029191Y032588D01*
X029179Y032555D01*
Y032542D01*
Y032536D01*
X029185D01*
X029191Y032542D01*
X029211D01*
X029237Y032549D01*
X029354D01*
X029386Y032542D01*
X029412Y032536D01*
X029418D01*
X029438Y032529D01*
X029464Y032523D01*
X029503Y032510D01*
X029509D01*
X029516Y032504D01*
X029548Y032484D01*
X029580Y032458D01*
X029593Y032445D01*
X029600Y032426D01*
Y032419D01*
X029593Y032393D01*
X029574Y032348D01*
X029561Y032322D01*
X029535Y032283D01*
Y032277D01*
X029522Y032264D01*
X029509Y032238D01*
X029490Y032212D01*
X029444Y032160D01*
X029418Y032141D01*
X029386Y032121D01*
X029379D01*
X029373Y032115D01*
X029354D01*
X029334Y032108D01*
X029263D01*
X029224Y032115D01*
X029179Y032128D01*
X029172D01*
X029146Y032134D01*
X029127Y032141D01*
X029107D01*
X029101Y032128D01*
Y032115D01*
X029094Y032095D01*
Y032069D01*
Y032037D01*
Y031927D01*
X029924D01*
X030021Y031836D01*
Y031674D01*
Y031667D01*
Y031661D01*
Y031629D01*
Y031583D01*
X030015Y031544D01*
Y031538D01*
Y031518D01*
X030008Y031499D01*
X030002Y031480D01*
X029995Y031473D01*
X029982Y031460D01*
X029963Y031441D01*
X029930Y031421D01*
X029924Y031415D01*
X029898Y031408D01*
X029866Y031402D01*
X029827Y031395D01*
X029781D01*
X029678Y030780D01*
Y030773D01*
X029671Y030747D01*
X029665Y030721D01*
X029658Y030682D01*
X029652Y030643D01*
X029645Y030611D01*
Y030585D01*
X029639Y030566D01*
X029632Y030559D01*
X029645Y030553D01*
X029671Y030546D01*
X029691D01*
X029723Y030540D01*
X029794D01*
X029846Y030533D01*
X033754D01*
X033793Y030494D01*
Y030488D01*
X033799Y030481D01*
X033819Y030449D01*
Y030423D01*
Y030397D01*
X033812Y030371D01*
X033793Y030339D01*
X033754Y030306D01*
X030163D01*
X030164Y030306D01*
X030167Y030297D01*
X030180D01*
X030189Y030296D01*
X030199D01*
X030210Y030294D01*
X030231Y030292D01*
X030236D01*
X030241Y030291D01*
X030247Y030290D01*
X030261Y030289D01*
X030268Y030288D01*
X030274Y030287D01*
X030275D01*
X030278Y030285D01*
X030284Y030284D01*
X030290Y030282D01*
X030298Y030280D01*
X030307Y030278D01*
X030327Y030271D01*
X030328D01*
X030331Y030269D01*
X030337Y030267D01*
X030344Y030264D01*
X030360Y030255D01*
X030377Y030244D01*
X030378Y030243D01*
X030380Y030242D01*
X030385Y030239D01*
X030390Y030234D01*
X030401Y030222D01*
X030413Y030207D01*
X030414Y030206D01*
X030415Y030203D01*
X030417Y030198D01*
X030420Y030192D01*
X030423Y030184D01*
X030425Y030177D01*
X030426Y030167D01*
X030427Y030157D01*
Y030156D01*
Y030154D01*
Y030148D01*
X030426Y030138D01*
X030424Y030126D01*
X030421Y030113D01*
Y030112D01*
X030420Y030111D01*
X030419Y030104D01*
X030415Y030094D01*
X030409Y030084D01*
X030408Y030082D01*
X030404Y030077D01*
X030397Y030070D01*
X030388Y030061D01*
X030387Y030060D01*
X030383Y030057D01*
X030376Y030051D01*
X030367Y030043D01*
X030357Y030036D01*
X030345Y030028D01*
X030331Y030019D01*
X030317Y030011D01*
X030315Y030010D01*
X030310Y030008D01*
X030303Y030004D01*
X030293Y029999D01*
X030281Y029994D01*
X030267Y029988D01*
X030253Y029982D01*
X030237Y029977D01*
X030235Y029976D01*
X030230Y029974D01*
X030221Y029972D01*
X030211Y029969D01*
X030198Y029966D01*
X030184Y029961D01*
X030168Y029958D01*
X030151Y029953D01*
X030149D01*
X030144Y029952D01*
X030136Y029950D01*
X030125Y029948D01*
X030111Y029946D01*
X030097Y029942D01*
X030066Y029937D01*
X030056Y029934D01*
X030055D01*
X030051Y029933D01*
X030048Y029932D01*
X030046Y029929D01*
Y029928D01*
X030045Y029924D01*
X030044Y029920D01*
X030041Y029913D01*
X030037Y029899D01*
X030034Y029884D01*
Y029883D01*
Y029881D01*
X030033Y029878D01*
X030031Y029873D01*
X030029Y029861D01*
X030026Y029848D01*
Y029847D01*
Y029844D01*
X030025Y029841D01*
X030024Y029838D01*
X030021Y029827D01*
X030019Y029813D01*
Y029812D01*
X030018Y029810D01*
Y029807D01*
X030017Y029802D01*
X030014Y029790D01*
X030010Y029776D01*
Y029774D01*
X030009Y029771D01*
X030007Y029766D01*
X030004Y029759D01*
X030003Y029758D01*
X030000Y029753D01*
X029997Y029748D01*
X029993Y029742D01*
X029991Y029741D01*
X029988Y029738D01*
X029984Y029733D01*
X029977Y029729D01*
X029976Y029728D01*
X029971Y029726D01*
X029966Y029723D01*
X029959Y029722D01*
X029958D01*
X029955Y029723D01*
X029951Y029724D01*
X029947Y029727D01*
X029946Y029728D01*
X029945Y029729D01*
X029939Y029736D01*
Y029737D01*
X029938Y029739D01*
X029935Y029747D01*
Y029748D01*
Y029750D01*
X029934Y029754D01*
Y029759D01*
Y029760D01*
Y029762D01*
Y029763D01*
X029935Y029767D01*
Y029768D01*
X029936Y029771D01*
X029938Y029779D01*
X029939Y029780D01*
X029940Y029782D01*
X029943Y029787D01*
X029945Y029791D01*
X029946Y029792D01*
X029947Y029797D01*
X029949Y029802D01*
X029951Y029809D01*
X029953Y029811D01*
X029954Y029816D01*
X029956Y029824D01*
X029959Y029834D01*
X029973Y029892D01*
Y029893D01*
X029974Y029896D01*
X029975Y029900D01*
X029976Y029906D01*
X029979Y029920D01*
X029984Y029936D01*
Y029937D01*
X029985Y029940D01*
X029986Y029944D01*
X029987Y029950D01*
X029989Y029958D01*
X029991Y029966D01*
X029996Y029986D01*
Y029987D01*
X029997Y029989D01*
X029998Y029993D01*
X029999Y029999D01*
X030001Y030006D01*
X030004Y030013D01*
X030009Y030031D01*
Y030032D01*
X030010Y030036D01*
X030013Y030040D01*
X030015Y030047D01*
X030017Y030054D01*
X030020Y030062D01*
X030027Y030081D01*
Y030082D01*
X030028Y030086D01*
X030030Y030091D01*
X030033Y030098D01*
X030035Y030106D01*
X030038Y030114D01*
X030045Y030133D01*
Y030134D01*
X030047Y030138D01*
X030048Y030143D01*
X030050Y030151D01*
X030054Y030160D01*
X030056Y030170D01*
X030061Y030191D01*
Y030192D01*
Y030193D01*
Y030194D01*
Y030196D01*
X030060Y030197D01*
X030059D01*
X030058Y030198D01*
X030050D01*
X030045Y030199D01*
X030040Y030200D01*
X030039Y030201D01*
X030037Y030202D01*
X030030Y030208D01*
Y030209D01*
X030028Y030211D01*
X030026Y030218D01*
Y030219D01*
Y030221D01*
X030025Y030226D01*
Y030230D01*
Y030231D01*
Y030232D01*
Y030239D01*
X030026Y030247D01*
X030028Y030254D01*
X030029Y030257D01*
X030031Y030260D01*
X030035Y030266D01*
X030038Y030270D01*
X030039Y030271D01*
X030041Y030273D01*
X030046Y030275D01*
X030050Y030278D01*
X030051D01*
X030055Y030279D01*
X030059Y030280D01*
X030065Y030281D01*
X030066D01*
X030069Y030282D01*
X030076Y030284D01*
X030077D01*
X030079Y030287D01*
X030081Y030288D01*
X030084Y030291D01*
X030085Y030292D01*
X030086Y030296D01*
X030088Y030301D01*
X030090Y030306D01*
X026897D01*
X026865Y030339D01*
Y030345D01*
X026858Y030352D01*
X026839Y030391D01*
Y030410D01*
Y030436D01*
X026845Y030469D01*
X026865Y030494D01*
X026897Y030533D01*
X028381D01*
X028427Y030540D01*
X028446D01*
X028466Y030546D01*
X028472Y030553D01*
Y030559D01*
Y030566D01*
X028466Y030585D01*
Y030605D01*
X028459Y030631D01*
X028446Y030676D01*
X028433Y030728D01*
X028420Y030793D01*
X028330Y031395D01*
X028252D01*
X028206Y031408D01*
X028161Y031428D01*
X028135Y031447D01*
X028109Y031473D01*
Y031480D01*
X028103Y031493D01*
X028096Y031505D01*
Y031531D01*
X028090Y031564D01*
X028083Y031609D01*
Y031661D01*
Y031667D01*
Y031680D01*
Y031726D01*
Y031771D01*
X028090Y031797D01*
Y031810D01*
Y031817D01*
X028096Y031836D01*
X028109Y031855D01*
X028129Y031875D01*
X028167Y031920D01*
X028919Y031940D01*
X028958Y032283D01*
X028971Y032380D01*
Y032387D01*
X028978Y032413D01*
Y032432D01*
Y032452D01*
Y032458D01*
X028965Y032465D01*
X028945Y032471D01*
X028906Y032478D01*
X028900D01*
X028880Y032484D01*
X028854Y032491D01*
X028829Y032497D01*
X028764Y032536D01*
X028731Y032562D01*
X028712Y032594D01*
Y032601D01*
X028699Y032607D01*
X028692Y032633D01*
X028679Y032659D01*
Y032666D01*
X028673Y032691D01*
X028667Y032724D01*
X028660Y032763D01*
Y032769D01*
Y032776D01*
Y032802D01*
X028654Y032834D01*
Y032860D01*
Y032866D01*
Y032879D01*
X028667Y032912D01*
X028673Y032918D01*
X028679Y032925D01*
X028692Y032938D01*
X028705Y032944D01*
X028712D01*
X028725Y032951D01*
X028809D01*
X028842Y032944D01*
D02*
G37*
G36*
X033528Y030237D02*
X033529D01*
X033530Y030236D01*
X033536Y030231D01*
X033537D01*
X033538Y030229D01*
X033542Y030223D01*
X033543D01*
X033547Y030222D01*
X033551Y030220D01*
X033553Y030217D01*
X033554Y030216D01*
X033556Y030213D01*
X033557Y030208D01*
Y030202D01*
Y030201D01*
Y030199D01*
X033556Y030192D01*
Y030191D01*
X033554Y030190D01*
X033553Y030184D01*
Y030183D01*
X033551Y030180D01*
X033549Y030176D01*
X033544Y030170D01*
X033543Y030169D01*
X033541Y030167D01*
X033537Y030163D01*
X033531Y030160D01*
X033530Y030159D01*
X033527Y030158D01*
X033521Y030154D01*
X033514Y030152D01*
X033513D01*
X033509Y030151D01*
X033504Y030150D01*
X033494D01*
X033490Y030151D01*
X033487Y030152D01*
X033486Y030153D01*
X033483Y030156D01*
X033480Y030159D01*
X033474Y030166D01*
Y030167D01*
X033472Y030169D01*
X033471Y030171D01*
X033470Y030173D01*
Y030174D01*
Y030176D01*
Y030179D01*
Y030180D01*
Y030181D01*
Y030186D01*
Y030187D01*
X033471Y030188D01*
Y030192D01*
Y030193D01*
X033473Y030198D01*
X033474Y030203D01*
X033478Y030210D01*
X033479Y030212D01*
X033482Y030217D01*
X033487Y030223D01*
X033494Y030230D01*
X033496Y030231D01*
X033499Y030232D01*
X033503Y030233D01*
X033509Y030236D01*
X033510Y030237D01*
X033513Y030238D01*
X033518Y030239D01*
X033523D01*
X033528Y030237D01*
D02*
G37*
G36*
X028433Y037287D02*
X028453Y037280D01*
X028472Y037261D01*
X028479Y037254D01*
X028492Y037241D01*
X028498Y037215D01*
X028505Y037183D01*
Y037176D01*
Y037157D01*
X028498Y037131D01*
X028485Y037105D01*
X028472Y037099D01*
X028453Y037086D01*
X028420Y037073D01*
X028414D01*
X028394Y037060D01*
X028362Y037047D01*
X028323Y037027D01*
X028317D01*
X028304Y037021D01*
X028278Y037014D01*
X028245Y037001D01*
X028213Y036988D01*
X028167Y036969D01*
X028057Y036917D01*
X027941Y036852D01*
X027811Y036775D01*
X027681Y036677D01*
X027552Y036567D01*
X027545Y036561D01*
X027539Y036554D01*
X027519Y036535D01*
X027500Y036509D01*
X027442Y036444D01*
X027377Y036353D01*
X027299Y036243D01*
X027221Y036113D01*
X027150Y035971D01*
X027092Y035809D01*
Y035802D01*
X027085Y035789D01*
X027072Y035744D01*
X027053Y035692D01*
X027040Y035673D01*
X027027Y035653D01*
X027020Y035647D01*
X027007Y035634D01*
X026975Y035621D01*
X026943Y035614D01*
X026936D01*
X026910Y035621D01*
X026884Y035634D01*
X026858Y035653D01*
X026852Y035660D01*
X026845Y035679D01*
X026839Y035712D01*
Y035751D01*
Y035757D01*
X026845Y035776D01*
X026852Y035802D01*
X026858Y035841D01*
X026871Y035893D01*
X026891Y035945D01*
X026917Y036010D01*
X026943Y036081D01*
X026949Y036088D01*
X026956Y036113D01*
X026975Y036152D01*
X027001Y036204D01*
X027033Y036256D01*
X027066Y036314D01*
X027137Y036438D01*
Y036444D01*
X027143Y036450D01*
X027176Y036489D01*
X027215Y036541D01*
X027273Y036612D01*
X027351Y036690D01*
X027435Y036775D01*
X027532Y036865D01*
X027643Y036950D01*
X027649D01*
X027655Y036962D01*
X027694Y036988D01*
X027759Y037027D01*
X027837Y037073D01*
X027934Y037124D01*
X028038Y037176D01*
X028155Y037228D01*
X028278Y037267D01*
X028284D01*
X028291Y037274D01*
X028330Y037280D01*
X028375Y037287D01*
X028407Y037293D01*
X028414D01*
X028433Y037287D01*
D02*
G37*
G36*
X029217Y030237D02*
X029218D01*
X029219Y030236D01*
X029225Y030231D01*
X029226D01*
X029227Y030229D01*
X029232Y030223D01*
X029233D01*
X029236Y030222D01*
X029240Y030220D01*
X029243Y030217D01*
X029244Y030216D01*
X029245Y030213D01*
X029246Y030208D01*
Y030202D01*
Y030201D01*
Y030199D01*
X029245Y030192D01*
Y030191D01*
X029244Y030190D01*
X029243Y030184D01*
Y030183D01*
X029240Y030180D01*
X029238Y030176D01*
X029234Y030170D01*
X029233Y030169D01*
X029230Y030167D01*
X029226Y030163D01*
X029220Y030160D01*
X029219Y030159D01*
X029216Y030158D01*
X029210Y030154D01*
X029204Y030152D01*
X029203D01*
X029198Y030151D01*
X029194Y030150D01*
X029184D01*
X029179Y030151D01*
X029176Y030152D01*
X029175Y030153D01*
X029173Y030156D01*
X029169Y030159D01*
X029164Y030166D01*
Y030167D01*
X029162Y030169D01*
X029160Y030171D01*
X029159Y030173D01*
Y030174D01*
Y030176D01*
Y030179D01*
Y030180D01*
Y030181D01*
Y030186D01*
Y030187D01*
X029160Y030188D01*
Y030192D01*
Y030193D01*
X029163Y030198D01*
X029164Y030203D01*
X029167Y030210D01*
X029168Y030212D01*
X029172Y030217D01*
X029176Y030223D01*
X029184Y030230D01*
X029185Y030231D01*
X029188Y030232D01*
X029193Y030233D01*
X029198Y030236D01*
X029199Y030237D01*
X029203Y030238D01*
X029207Y030239D01*
X029213D01*
X029217Y030237D01*
D02*
G37*
G36*
X032908Y030263D02*
X032921Y030261D01*
X032922D01*
X032924Y030260D01*
X032928D01*
X032932Y030259D01*
X032942Y030254D01*
X032953Y030249D01*
X032954D01*
X032956Y030248D01*
X032961Y030243D01*
X032969Y030237D01*
X032976Y030228D01*
Y030227D01*
X032977Y030226D01*
X032980Y030219D01*
X032983Y030209D01*
X032984Y030196D01*
Y030194D01*
Y030190D01*
X032983Y030184D01*
X032982Y030177D01*
X032980Y030168D01*
X032977Y030158D01*
X032972Y030148D01*
X032967Y030138D01*
X032966Y030137D01*
X032963Y030133D01*
X032960Y030129D01*
X032954Y030122D01*
X032948Y030114D01*
X032940Y030107D01*
X032930Y030099D01*
X032919Y030090D01*
X032918Y030089D01*
X032913Y030087D01*
X032907Y030082D01*
X032898Y030077D01*
X032887Y030070D01*
X032874Y030063D01*
X032859Y030056D01*
X032843Y030048D01*
X032841Y030047D01*
X032836Y030044D01*
X032827Y030041D01*
X032816Y030037D01*
X032801Y030031D01*
X032784Y030024D01*
X032767Y030018D01*
X032747Y030011D01*
X032749D01*
X032753Y030010D01*
X032762Y030009D01*
X032772Y030007D01*
X032783Y030004D01*
X032796Y030002D01*
X032820Y029996D01*
X032821D01*
X032826Y029994D01*
X032831Y029992D01*
X032838Y029990D01*
X032854Y029983D01*
X032871Y029974D01*
X032872D01*
X032874Y029972D01*
X032879Y029970D01*
X032883Y029967D01*
X032893Y029958D01*
X032902Y029947D01*
Y029946D01*
X032903Y029944D01*
X032906Y029941D01*
X032908Y029937D01*
X032911Y029926D01*
X032912Y029912D01*
Y029911D01*
Y029908D01*
X032911Y029902D01*
X032910Y029896D01*
X032909Y029888D01*
X032906Y029879D01*
X032902Y029869D01*
X032897Y029859D01*
X032896Y029858D01*
X032893Y029854D01*
X032890Y029849D01*
X032884Y029842D01*
X032878Y029834D01*
X032869Y029826D01*
X032859Y029816D01*
X032847Y029807D01*
X032844Y029806D01*
X032840Y029802D01*
X032832Y029798D01*
X032821Y029791D01*
X032820D01*
X032819Y029790D01*
X032812Y029786D01*
X032801Y029780D01*
X032789Y029773D01*
X032788D01*
X032786Y029772D01*
X032782Y029770D01*
X032778Y029769D01*
X032766Y029763D01*
X032751Y029758D01*
X032750D01*
X032748Y029757D01*
X032745Y029756D01*
X032739Y029753D01*
X032727Y029749D01*
X032712Y029744D01*
X032711D01*
X032709Y029743D01*
X032705Y029742D01*
X032700Y029741D01*
X032688Y029738D01*
X032673Y029734D01*
X032672D01*
X032670Y029733D01*
X032667D01*
X032662Y029732D01*
X032650Y029731D01*
X032638Y029730D01*
X032629D01*
X032623Y029731D01*
X032622D01*
X032620Y029732D01*
X032612Y029736D01*
X032611Y029737D01*
X032609Y029738D01*
X032602Y029744D01*
X032601Y029746D01*
X032599Y029748D01*
X032597Y029752D01*
X032592Y029758D01*
X032591Y029757D01*
X032587Y029754D01*
X032580Y029751D01*
X032573Y029749D01*
X032572D01*
X032568Y029748D01*
X032561Y029747D01*
X032542D01*
X032539Y029749D01*
X032538Y029750D01*
X032535Y029752D01*
Y029753D01*
X032533Y029754D01*
X032531Y029759D01*
Y029760D01*
Y029761D01*
X032530Y029766D01*
Y029767D01*
Y029769D01*
Y029772D01*
X032531Y029777D01*
X032532Y029789D01*
X032536Y029801D01*
Y029802D01*
X032537Y029804D01*
X032538Y029808D01*
X032539Y029811D01*
X032543Y029822D01*
X032548Y029834D01*
Y029836D01*
X032550Y029840D01*
X032551Y029846D01*
X032555Y029854D01*
X032557Y029863D01*
X032560Y029874D01*
X032568Y029899D01*
Y029900D01*
X032570Y029904D01*
X032572Y029911D01*
X032575Y029920D01*
X032578Y029931D01*
X032581Y029942D01*
X032589Y029968D01*
Y029969D01*
X032591Y029973D01*
X032592Y029980D01*
X032596Y029989D01*
X032598Y029999D01*
X032601Y030010D01*
X032608Y030034D01*
Y030036D01*
X032609Y030040D01*
X032611Y030047D01*
X032613Y030054D01*
X032616Y030064D01*
X032619Y030076D01*
X032625Y030098D01*
X032635Y030140D01*
Y030141D01*
Y030143D01*
X032633Y030146D01*
Y030147D01*
Y030149D01*
X032632Y030157D01*
Y030158D01*
Y030161D01*
Y030169D01*
Y030173D01*
X032633Y030180D01*
X032635Y030183D01*
X032637Y030188D01*
X032638Y030193D01*
X032639Y030194D01*
X032640Y030199D01*
X032642Y030203D01*
X032646Y030209D01*
X032647Y030210D01*
X032649Y030213D01*
X032652Y030218D01*
X032657Y030221D01*
X032658Y030222D01*
X032660Y030224D01*
X032664Y030226D01*
X032669Y030227D01*
X032678D01*
X032685Y030226D01*
X032690D01*
X032697Y030224D01*
X032710D01*
X032711Y030226D01*
X032718Y030227D01*
X032719D01*
X032721Y030228D01*
X032726Y030230D01*
X032731Y030231D01*
X032732Y030232D01*
X032738Y030233D01*
X032745Y030236D01*
X032754Y030239D01*
X032756D01*
X032758Y030240D01*
X032762Y030241D01*
X032767Y030243D01*
X032779Y030247D01*
X032791Y030250D01*
X032792D01*
X032794Y030251D01*
X032798Y030252D01*
X032802Y030253D01*
X032812Y030257D01*
X032824Y030259D01*
X032826D01*
X032827Y030260D01*
X032834Y030261D01*
X032843Y030262D01*
X032854Y030263D01*
X032857D01*
X032863Y030264D01*
X032897D01*
X032908Y030263D01*
D02*
G37*
G36*
X028628Y036152D02*
X028634D01*
X028641Y036146D01*
X028654Y036139D01*
X028673Y036120D01*
X028679Y036113D01*
X028699Y036088D01*
X028712Y036042D01*
Y036016D01*
X028705Y035990D01*
X028692Y035984D01*
X028679Y035971D01*
X028660Y035951D01*
X028654Y035945D01*
X028641Y035938D01*
X028615Y035919D01*
X028582Y035900D01*
X028576D01*
X028563Y035887D01*
X028543Y035874D01*
X028517Y035854D01*
X028453Y035809D01*
X028381Y035751D01*
X028375Y035744D01*
X028368Y035738D01*
X028330Y035699D01*
X028284Y035640D01*
X028245Y035569D01*
Y035563D01*
X028239Y035556D01*
X028219Y035517D01*
X028193Y035478D01*
X028161Y035446D01*
X028155Y035439D01*
X028135Y035433D01*
X028109Y035420D01*
X028077Y035414D01*
X028070D01*
X028051Y035420D01*
X028031Y035433D01*
X028005Y035446D01*
X027999Y035452D01*
X027986Y035465D01*
X027973Y035491D01*
X027967Y035524D01*
Y035537D01*
X027973Y035550D01*
X027986Y035576D01*
X027992Y035582D01*
X027999Y035601D01*
X028012Y035627D01*
X028025Y035666D01*
X028031Y035673D01*
X028044Y035692D01*
X028064Y035725D01*
X028096Y035763D01*
X028135Y035809D01*
X028180Y035861D01*
X028232Y035919D01*
X028291Y035971D01*
X028297Y035977D01*
X028317Y035997D01*
X028349Y036023D01*
X028394Y036049D01*
X028485Y036113D01*
X028537Y036139D01*
X028589Y036159D01*
X028602D01*
X028628Y036152D01*
D02*
G37*
G36*
X027482Y030269D02*
X027491Y030268D01*
X027493D01*
X027497Y030267D01*
X027503Y030266D01*
X027507Y030263D01*
X027508D01*
X027511Y030261D01*
X027514Y030259D01*
X027516Y030255D01*
X027517Y030253D01*
X027518Y030248D01*
Y030247D01*
Y030244D01*
X027516Y030238D01*
Y030237D01*
X027514Y030236D01*
X027512Y030232D01*
X027508Y030229D01*
X027507Y030228D01*
X027505Y030227D01*
X027499Y030223D01*
X027494Y030221D01*
X027493D01*
X027488Y030219D01*
X027482Y030218D01*
X027473Y030217D01*
X027469D01*
X027465Y030216D01*
X027457Y030214D01*
X027455D01*
X027449Y030213D01*
X027442Y030212D01*
X027432Y030210D01*
X027429D01*
X027424Y030209D01*
X027415Y030208D01*
X027406Y030206D01*
X027404D01*
X027399Y030204D01*
X027394Y030203D01*
X027388Y030202D01*
X027389D01*
X027387Y030201D01*
X027384Y030200D01*
X027378Y030199D01*
X027377D01*
X027373Y030198D01*
X027366Y030196D01*
X027358Y030193D01*
X027356D01*
X027351Y030192D01*
X027343Y030190D01*
X027333Y030187D01*
X027332D01*
X027331Y030186D01*
X027325Y030184D01*
X027316Y030181D01*
X027306Y030179D01*
X027304D01*
X027298Y030177D01*
X027291Y030174D01*
X027282Y030171D01*
X027279D01*
X027275Y030169D01*
X027269Y030168D01*
X027264Y030166D01*
X027263D01*
X027261Y030164D01*
X027256Y030162D01*
X027252Y030160D01*
X027241Y030153D01*
X027229Y030143D01*
Y030142D01*
X027227Y030141D01*
X027223Y030134D01*
X027216Y030123D01*
X027209Y030111D01*
Y030110D01*
X027208Y030109D01*
X027207Y030106D01*
X027205Y030100D01*
Y030099D01*
X027203Y030094D01*
X027201Y030089D01*
X027198Y030082D01*
Y030080D01*
X027196Y030076D01*
X027194Y030069D01*
X027191Y030060D01*
Y030058D01*
X027188Y030053D01*
X027186Y030047D01*
X027184Y030039D01*
Y030038D01*
X027182Y030033D01*
X027180Y030027D01*
X027177Y030020D01*
Y030019D01*
X027176Y030016D01*
X027175Y030011D01*
X027174Y030008D01*
X027173Y030006D01*
X027172Y030001D01*
Y030000D01*
Y029998D01*
Y029997D01*
X027173Y029996D01*
X027174D01*
X027177Y029997D01*
X027185Y029998D01*
X027195Y030000D01*
X027196D01*
X027198Y030001D01*
X027202Y030002D01*
X027207Y030003D01*
X027219Y030007D01*
X027235Y030012D01*
X027236D01*
X027239Y030013D01*
X027244Y030016D01*
X027251Y030017D01*
X027257Y030020D01*
X027266Y030022D01*
X027285Y030028D01*
X027286D01*
X027289Y030029D01*
X027295Y030031D01*
X027302Y030033D01*
X027317Y030038D01*
X027335Y030043D01*
X027336D01*
X027339Y030044D01*
X027344Y030046D01*
X027349Y030048D01*
X027364Y030052D01*
X027378Y030056D01*
X027379D01*
X027382Y030057D01*
X027389Y030059D01*
X027398Y030060D01*
X027406Y030061D01*
X027413D01*
X027418Y030059D01*
X027423Y030057D01*
X027424Y030056D01*
X027425Y030053D01*
X027426Y030051D01*
X027427Y030047D01*
Y030044D01*
X027426Y030039D01*
X027424Y030032D01*
X027418Y030024D01*
X027417Y030023D01*
X027412Y030019D01*
X027405Y030012D01*
X027395Y030007D01*
X027394D01*
X027392Y030006D01*
X027386Y030003D01*
X027378Y030000D01*
X027376D01*
X027371Y029998D01*
X027363Y029996D01*
X027353Y029992D01*
X027352D01*
X027351Y029991D01*
X027345Y029990D01*
X027336Y029987D01*
X027327Y029983D01*
X027325D01*
X027321Y029981D01*
X027315Y029980D01*
X027309Y029978D01*
X027308D01*
X027304Y029976D01*
X027297Y029973D01*
X027289Y029970D01*
X027271Y029963D01*
X027261Y029959D01*
X027252Y029956D01*
X027251D01*
X027248Y029954D01*
X027244Y029952D01*
X027238Y029950D01*
X027227Y029946D01*
X027215Y029941D01*
X027213Y029940D01*
X027207Y029938D01*
X027201Y029936D01*
X027194Y029932D01*
X027193D01*
X027190Y029930D01*
X027185Y029929D01*
X027181Y029927D01*
X027180D01*
X027176Y029926D01*
X027172Y029924D01*
X027166Y029923D01*
X027165D01*
X027161Y029922D01*
X027154Y029921D01*
X027145Y029919D01*
Y029918D01*
X027143Y029913D01*
X027141Y029906D01*
X027137Y029896D01*
Y029894D01*
Y029893D01*
X027136Y029890D01*
X027135Y029886D01*
X027133Y029876D01*
X027129Y029863D01*
Y029862D01*
X027128Y029860D01*
Y029858D01*
X027127Y029853D01*
X027125Y029843D01*
X027123Y029832D01*
Y029830D01*
X027122Y029824D01*
X027121Y029819D01*
Y029813D01*
Y029812D01*
Y029810D01*
Y029807D01*
X027122Y029803D01*
X027123Y029801D01*
X027126Y029799D01*
X027127D01*
X027131Y029798D01*
X027142D01*
X027147Y029799D01*
X027153D01*
X027161Y029800D01*
X027177Y029803D01*
X027178D01*
X027182Y029804D01*
X027186Y029806D01*
X027193Y029807D01*
X027199Y029809D01*
X027208Y029811D01*
X027226Y029817D01*
X027227D01*
X027229Y029818D01*
X027234Y029820D01*
X027239Y029822D01*
X027252Y029827D01*
X027265Y029833D01*
X027266D01*
X027268Y029836D01*
X027272Y029837D01*
X027276Y029839D01*
X027286Y029846D01*
X027297Y029851D01*
X027298D01*
X027299Y029852D01*
X027307Y029857D01*
X027316Y029861D01*
X027327Y029866D01*
X027328D01*
X027329Y029867D01*
X027336Y029869D01*
X027346Y029870D01*
X027358Y029871D01*
X027362D01*
X027367Y029870D01*
X027371D01*
X027376Y029868D01*
X027377D01*
X027378Y029867D01*
X027383Y029863D01*
X027384Y029862D01*
X027385Y029861D01*
X027386Y029858D01*
Y029854D01*
Y029852D01*
X027384Y029848D01*
X027381Y029841D01*
X027375Y029833D01*
X027374Y029831D01*
X027368Y029827D01*
X027362Y029821D01*
X027352Y029813D01*
X027351D01*
X027349Y029812D01*
X027343Y029808D01*
X027333Y029802D01*
X027321Y029796D01*
X027319D01*
X027317Y029794D01*
X027314Y029792D01*
X027311Y029791D01*
X027299Y029786D01*
X027286Y029779D01*
X027285D01*
X027283Y029778D01*
X027279Y029777D01*
X027275Y029774D01*
X027264Y029770D01*
X027252Y029764D01*
X027251D01*
X027248Y029763D01*
X027246Y029762D01*
X027242Y029761D01*
X027232Y029758D01*
X027221Y029754D01*
X027219D01*
X027215Y029752D01*
X027208Y029751D01*
X027199Y029748D01*
X027190Y029746D01*
X027178Y029742D01*
X027155Y029738D01*
X027154D01*
X027150Y029737D01*
X027144Y029736D01*
X027136D01*
X027128Y029734D01*
X027118Y029733D01*
X027099Y029732D01*
X027095D01*
X027090Y029733D01*
X027084D01*
X027070Y029737D01*
X027063Y029739D01*
X027057Y029742D01*
X027056D01*
X027055Y029744D01*
X027053Y029747D01*
X027051Y029750D01*
X027047Y029756D01*
X027045Y029761D01*
X027044Y029768D01*
X027043Y029777D01*
Y029778D01*
Y029779D01*
Y029784D01*
X027044Y029793D01*
X027046Y029803D01*
Y029804D01*
X027047Y029806D01*
X027048Y029812D01*
X027051Y029821D01*
X027054Y029833D01*
X027058Y029849D01*
X027064Y029864D01*
X027075Y029900D01*
Y029901D01*
X027076Y029902D01*
X027078Y029908D01*
X027081Y029918D01*
X027085Y029930D01*
X027090Y029944D01*
X027095Y029960D01*
X027105Y029994D01*
X027106Y029997D01*
X027107Y030002D01*
X027109Y030011D01*
X027113Y030022D01*
X027116Y030034D01*
X027121Y030048D01*
X027124Y030061D01*
X027127Y030073D01*
Y030074D01*
X027128Y030079D01*
X027131Y030084D01*
X027133Y030092D01*
X027137Y030110D01*
X027143Y030129D01*
Y030130D01*
X027144Y030133D01*
X027145Y030137D01*
X027147Y030142D01*
X027151Y030156D01*
X027155Y030169D01*
Y030170D01*
X027156Y030172D01*
X027157Y030176D01*
X027160Y030179D01*
X027164Y030190D01*
X027168Y030201D01*
X027169Y030203D01*
X027172Y030208D01*
X027174Y030213D01*
X027177Y030221D01*
X027178Y030223D01*
X027181Y030228D01*
X027185Y030234D01*
X027190Y030241D01*
X027191Y030242D01*
X027194Y030247D01*
X027198Y030251D01*
X027203Y030255D01*
X027204Y030257D01*
X027207Y030259D01*
X027212Y030260D01*
X027216Y030261D01*
X027225D01*
X027233Y030259D01*
X027239Y030257D01*
X027241Y030255D01*
X027244Y030254D01*
X027246Y030251D01*
X027248Y030248D01*
X027252Y030233D01*
X027261D01*
X027266Y030234D01*
X027267D01*
X027272Y030236D01*
X027277Y030237D01*
X027284Y030238D01*
X027285D01*
X027289Y030239D01*
X027295Y030240D01*
X027301Y030241D01*
X027302D01*
X027305Y030242D01*
X027308Y030244D01*
X027312Y030246D01*
X027313D01*
X027316Y030247D01*
X027321Y030248D01*
X027326Y030250D01*
X027341Y030253D01*
X027356Y030257D01*
X027357D01*
X027359Y030258D01*
X027364D01*
X027368Y030259D01*
X027381Y030262D01*
X027395Y030264D01*
X027396D01*
X027398Y030266D01*
X027402D01*
X027406Y030267D01*
X027418Y030268D01*
X027431Y030269D01*
X027437D01*
X027441Y030270D01*
X027474D01*
X027482Y030269D01*
D02*
G37*
G36*
X028530Y036716D02*
X028556Y036710D01*
X028582Y036690D01*
Y036684D01*
X028589Y036677D01*
X028602Y036645D01*
X028608Y036600D01*
X028602Y036574D01*
X028589Y036548D01*
X028582Y036541D01*
X028569Y036535D01*
X028550Y036515D01*
X028543D01*
X028530Y036502D01*
X028505Y036496D01*
X028479Y036483D01*
X028472D01*
X028466Y036476D01*
X028427Y036457D01*
X028368Y036431D01*
X028297Y036392D01*
X028213Y036347D01*
X028122Y036288D01*
X028038Y036217D01*
X027954Y036146D01*
X027947Y036139D01*
X027921Y036107D01*
X027882Y036068D01*
X027837Y036003D01*
X027785Y035932D01*
X027733Y035841D01*
X027681Y035744D01*
X027630Y035627D01*
X027623Y035614D01*
X027617Y035589D01*
X027597Y035556D01*
X027578Y035530D01*
X027565Y035524D01*
X027539Y035517D01*
X027493D01*
X027455Y035530D01*
X027448Y035537D01*
X027429Y035556D01*
X027409Y035582D01*
X027396Y035627D01*
Y035634D01*
Y035647D01*
X027403Y035666D01*
X027416Y035699D01*
X027422Y035705D01*
X027429Y035731D01*
X027442Y035770D01*
X027455Y035809D01*
Y035815D01*
X027461Y035822D01*
X027480Y035861D01*
X027513Y035919D01*
X027552Y035990D01*
X027604Y036075D01*
X027668Y036159D01*
X027740Y036250D01*
X027824Y036340D01*
X027837Y036353D01*
X027869Y036379D01*
X027915Y036418D01*
X027980Y036470D01*
X028064Y036528D01*
X028155Y036587D01*
X028258Y036645D01*
X028368Y036690D01*
X028375D01*
X028381Y036697D01*
X028420Y036710D01*
X028466Y036716D01*
X028505Y036723D01*
X028511D01*
X028530Y036716D01*
D02*
G37*
%LPC*%
G36*
X027871Y030017D02*
X027868D01*
X027861Y030016D01*
X027851Y030013D01*
X027839Y030008D01*
X027838D01*
X027837Y030007D01*
X027831Y030002D01*
X027821Y029996D01*
X027811Y029987D01*
X027809D01*
X027808Y029984D01*
X027803Y029979D01*
X027795Y029970D01*
X027786Y029960D01*
Y029959D01*
X027785Y029958D01*
X027781Y029951D01*
X027775Y029943D01*
X027769Y029934D01*
X027774D01*
X027779Y029936D01*
X027785Y029937D01*
X027801Y029938D01*
X027817Y029941D01*
X027818D01*
X027821Y029942D01*
X027825Y029943D01*
X027831Y029944D01*
X027843Y029949D01*
X027855Y029953D01*
X027856D01*
X027858Y029954D01*
X027865Y029959D01*
X027873Y029963D01*
X027882Y029970D01*
X027883Y029972D01*
X027887Y029977D01*
X027892Y029982D01*
X027895Y029990D01*
Y029991D01*
Y029993D01*
Y029994D01*
Y029997D01*
Y029999D01*
X027894Y030002D01*
X027892Y030007D01*
X027887Y030011D01*
X027886Y030012D01*
X027883Y030014D01*
X027877Y030016D01*
X027871Y030017D01*
D02*
G37*
G36*
X030236Y030226D02*
X030213D01*
X030205Y030224D01*
X030190D01*
X030181Y030223D01*
X030179D01*
X030174Y030222D01*
X030167Y030221D01*
X030159Y030220D01*
X030158D01*
X030154Y030219D01*
X030149Y030218D01*
X030145Y030217D01*
X030144Y030216D01*
X030141Y030212D01*
Y030211D01*
X030140Y030209D01*
X030139Y030208D01*
X030138Y030203D01*
X030135Y030197D01*
X030131Y030188D01*
X030130Y030186D01*
X030128Y030180D01*
X030126Y030170D01*
X030121Y030159D01*
Y030158D01*
X030120Y030157D01*
X030119Y030153D01*
X030118Y030149D01*
X030114Y030138D01*
X030109Y030126D01*
Y030124D01*
X030108Y030122D01*
X030107Y030119D01*
X030105Y030114D01*
X030101Y030103D01*
X030097Y030091D01*
Y030090D01*
X030096Y030088D01*
X030095Y030086D01*
X030094Y030081D01*
X030090Y030070D01*
X030086Y030059D01*
Y030058D01*
X030085Y030057D01*
X030084Y030051D01*
X030081Y030043D01*
X030079Y030036D01*
X030078Y030033D01*
X030077Y030028D01*
X030076Y030026D01*
X030075Y030020D01*
X030074Y030018D01*
X030073Y030013D01*
Y030011D01*
X030071Y030008D01*
Y030007D01*
Y030006D01*
X030073D01*
X030075Y030004D01*
X030083D01*
X030085Y030006D01*
X030089D01*
X030095Y030007D01*
X030096D01*
X030100Y030008D01*
X030106Y030009D01*
X030113Y030010D01*
X030115D01*
X030119Y030011D01*
X030125Y030013D01*
X030131Y030014D01*
X030133D01*
X030136Y030016D01*
X030140Y030017D01*
X030147Y030018D01*
X030154Y030019D01*
X030163Y030021D01*
X030181Y030027D01*
X030183D01*
X030186Y030028D01*
X030191Y030030D01*
X030199Y030032D01*
X030207Y030034D01*
X030216Y030038D01*
X030236Y030044D01*
X030237D01*
X030240Y030047D01*
X030246Y030048D01*
X030253Y030051D01*
X030260Y030054D01*
X030269Y030058D01*
X030287Y030066D01*
X030288D01*
X030291Y030068D01*
X030296Y030070D01*
X030301Y030073D01*
X030316Y030081D01*
X030330Y030090D01*
X030331Y030091D01*
X030334Y030092D01*
X030337Y030094D01*
X030341Y030099D01*
X030351Y030107D01*
X030361Y030117D01*
X030363Y030118D01*
X030364Y030119D01*
X030368Y030126D01*
X030371Y030134D01*
X030374Y030140D01*
Y030146D01*
Y030147D01*
Y030151D01*
X030373Y030156D01*
X030371Y030161D01*
Y030162D01*
X030370Y030166D01*
X030366Y030174D01*
Y030176D01*
X030364Y030178D01*
X030358Y030184D01*
X030349Y030193D01*
X030338Y030202D01*
X030337D01*
X030336Y030204D01*
X030333Y030206D01*
X030328Y030208D01*
X030317Y030212D01*
X030303Y030217D01*
X030301D01*
X030299Y030218D01*
X030296Y030219D01*
X030290Y030220D01*
X030278Y030222D01*
X030263Y030223D01*
X030259D01*
X030255Y030224D01*
X030249D01*
X030236Y030226D01*
D02*
G37*
G36*
X032869Y030200D02*
X032848D01*
X032836Y030198D01*
X032819Y030196D01*
X032818D01*
X032816Y030194D01*
X032811Y030193D01*
X032806Y030192D01*
X032791Y030189D01*
X032774Y030184D01*
X032773D01*
X032771Y030183D01*
X032767Y030182D01*
X032762Y030180D01*
X032750Y030176D01*
X032737Y030169D01*
X032736D01*
X032734Y030168D01*
X032728Y030164D01*
X032720Y030159D01*
X032715Y030153D01*
X032713Y030151D01*
X032712Y030149D01*
X032711Y030144D01*
Y030143D01*
X032710Y030141D01*
X032709Y030137D01*
X032707Y030131D01*
Y030130D01*
X032706Y030127D01*
X032703Y030122D01*
X032701Y030117D01*
Y030116D01*
X032700Y030113D01*
X032699Y030110D01*
X032697Y030107D01*
Y030106D01*
X032696Y030104D01*
X032694Y030101D01*
X032693Y030096D01*
Y030094D01*
X032692Y030091D01*
X032690Y030086D01*
X032688Y030078D01*
Y030076D01*
X032686Y030071D01*
X032683Y030064D01*
X032681Y030056D01*
Y030053D01*
X032679Y030048D01*
X032677Y030040D01*
X032673Y030030D01*
X032675D01*
X032677Y030031D01*
X032681Y030032D01*
X032687Y030034D01*
X032700Y030039D01*
X032716Y030046D01*
X032717D01*
X032720Y030047D01*
X032724Y030049D01*
X032730Y030051D01*
X032746Y030058D01*
X032762Y030064D01*
X032763D01*
X032767Y030067D01*
X032771Y030069D01*
X032778Y030071D01*
X032784Y030074D01*
X032793Y030079D01*
X032811Y030087D01*
X032812Y030088D01*
X032816Y030089D01*
X032820Y030091D01*
X032827Y030094D01*
X032833Y030098D01*
X032842Y030102D01*
X032860Y030111D01*
X032859D01*
X032860Y030112D01*
X032864Y030114D01*
X032870Y030118D01*
X032877Y030122D01*
X032878Y030123D01*
X032882Y030127D01*
X032887Y030131D01*
X032892Y030137D01*
X032893Y030138D01*
X032896Y030142D01*
X032899Y030147D01*
X032902Y030153D01*
X032903Y030154D01*
X032904Y030159D01*
X032906Y030164D01*
X032907Y030170D01*
Y030171D01*
Y030173D01*
X032904Y030181D01*
Y030182D01*
X032902Y030184D01*
X032900Y030188D01*
X032897Y030191D01*
X032896Y030192D01*
X032893Y030193D01*
X032888Y030196D01*
X032882Y030198D01*
X032881D01*
X032877Y030199D01*
X032869Y030200D01*
D02*
G37*
G36*
X032656Y029970D02*
X032655Y029968D01*
X032653Y029962D01*
X032650Y029953D01*
X032647Y029942D01*
X032643Y029930D01*
X032639Y029916D01*
X032631Y029884D01*
Y029882D01*
X032629Y029878D01*
X032628Y029869D01*
X032625Y029859D01*
X032621Y029847D01*
X032618Y029832D01*
X032610Y029802D01*
X032635Y029799D01*
X032643D01*
X032649Y029798D01*
X032659D01*
X032666Y029799D01*
X032676Y029801D01*
X032688Y029803D01*
X032689D01*
X032691Y029804D01*
X032694Y029806D01*
X032699Y029807D01*
X032711Y029810D01*
X032724Y029813D01*
X032726D01*
X032728Y029814D01*
X032731Y029816D01*
X032737Y029818D01*
X032749Y029822D01*
X032762Y029828D01*
X032763D01*
X032766Y029829D01*
X032770Y029831D01*
X032774Y029833D01*
X032787Y029840D01*
X032800Y029847D01*
X032801Y029848D01*
X032804Y029850D01*
X032809Y029853D01*
X032814Y029857D01*
X032816Y029858D01*
X032819Y029861D01*
X032823Y029866D01*
X032829Y029871D01*
X032830Y029872D01*
X032832Y029876D01*
X032836Y029881D01*
X032839Y029887D01*
X032840Y029888D01*
X032841Y029892D01*
X032842Y029898D01*
X032843Y029904D01*
Y029906D01*
Y029907D01*
X032841Y029913D01*
X032837Y029921D01*
X032833Y029926D01*
X032828Y029929D01*
X032827D01*
X032826Y029931D01*
X032821Y029932D01*
X032817Y029936D01*
X032811Y029938D01*
X032804Y029941D01*
X032788Y029946D01*
X032787D01*
X032784Y029947D01*
X032781D01*
X032774Y029948D01*
X032773D01*
X032769Y029949D01*
X032761Y029951D01*
X032752Y029952D01*
X032750D01*
X032743Y029953D01*
X032734Y029956D01*
X032724Y029957D01*
X032722D01*
X032716Y029958D01*
X032707Y029960D01*
X032696Y029961D01*
X032694D01*
X032693Y029962D01*
X032688Y029963D01*
X032680Y029964D01*
X032671Y029966D01*
X032669D01*
X032666Y029967D01*
X032660Y029969D01*
X032656Y029970D01*
D02*
G37*
G36*
X033226Y030043D02*
Y030042D01*
X033223Y030041D01*
X033219Y030034D01*
X033218D01*
X033217Y030032D01*
X033213Y030030D01*
X033209Y030028D01*
X033208D01*
X033204Y030026D01*
X033199Y030024D01*
X033191Y030022D01*
X033189D01*
X033183Y030021D01*
X033174Y030020D01*
X033162Y030018D01*
X033160Y030017D01*
X033154Y030014D01*
X033147Y030010D01*
X033138Y030004D01*
X033136Y030003D01*
X033130Y029999D01*
X033122Y029993D01*
X033113Y029986D01*
X033111Y029983D01*
X033107Y029979D01*
X033099Y029971D01*
X033091Y029961D01*
Y029960D01*
X033089Y029959D01*
X033084Y029953D01*
X033078Y029944D01*
X033071Y029934D01*
Y029933D01*
X033070Y029932D01*
X033067Y029927D01*
X033062Y029918D01*
X033057Y029908D01*
Y029907D01*
X033056Y029906D01*
X033053Y029900D01*
X033050Y029892D01*
X033048Y029884D01*
Y029883D01*
X033047Y029879D01*
X033046Y029873D01*
X033044Y029868D01*
Y029867D01*
Y029863D01*
Y029859D01*
Y029853D01*
Y029851D01*
Y029847D01*
X033046Y029839D01*
X033047Y029831D01*
X033048Y029830D01*
X033049Y029826D01*
X033052Y029819D01*
X033057Y029813D01*
X033058Y029812D01*
X033062Y029810D01*
X033068Y029806D01*
X033074Y029802D01*
X033077Y029801D01*
X033081Y029800D01*
X033090Y029799D01*
X033100Y029798D01*
X033104D01*
X033110Y029799D01*
X033117Y029800D01*
X033133Y029803D01*
X033142Y029807D01*
X033151Y029811D01*
X033152Y029812D01*
X033156Y029813D01*
X033160Y029817D01*
X033166Y029821D01*
X033179Y029832D01*
X033193Y029847D01*
X033194Y029848D01*
X033197Y029850D01*
X033200Y029854D01*
X033204Y029860D01*
X033209Y029867D01*
X033214Y029874D01*
X033224Y029892D01*
X033226Y029893D01*
X033227Y029897D01*
X033229Y029901D01*
X033231Y029907D01*
X033237Y029921D01*
X033242Y029937D01*
Y029938D01*
X033243Y029939D01*
X033244Y029944D01*
X033246Y029952D01*
X033248Y029960D01*
Y029961D01*
Y029962D01*
X033249Y029968D01*
X033250Y029974D01*
Y029981D01*
Y029983D01*
Y029987D01*
X033249Y029993D01*
X033247Y029999D01*
X033246Y030000D01*
X033244Y030004D01*
X033241Y030010D01*
X033238Y030018D01*
Y030019D01*
X033236Y030021D01*
X033233Y030026D01*
X033231Y030030D01*
Y030031D01*
X033229Y030034D01*
X033228Y030039D01*
X033226Y030043D01*
D02*
G37*
G36*
X030832Y030036D02*
X030826D01*
X030821Y030034D01*
X030810Y030033D01*
X030797Y030029D01*
X030796D01*
X030794Y030028D01*
X030790Y030027D01*
X030786Y030024D01*
X030775Y030018D01*
X030762Y030010D01*
X030761D01*
X030759Y030008D01*
X030757Y030006D01*
X030752Y030002D01*
X030741Y029993D01*
X030730Y029982D01*
X030729Y029981D01*
X030728Y029980D01*
X030725Y029977D01*
X030721Y029972D01*
X030712Y029961D01*
X030702Y029949D01*
Y029948D01*
X030700Y029946D01*
X030698Y029942D01*
X030696Y029938D01*
X030688Y029926D01*
X030681Y029912D01*
Y029911D01*
X030680Y029909D01*
X030678Y029906D01*
X030677Y029900D01*
X030672Y029889D01*
X030668Y029874D01*
Y029873D01*
X030667Y029871D01*
X030666Y029867D01*
X030665Y029860D01*
Y029859D01*
Y029854D01*
X030664Y029848D01*
Y029841D01*
Y029840D01*
Y029836D01*
X030665Y029829D01*
X030666Y029823D01*
X030667Y029822D01*
X030669Y029820D01*
X030672Y029817D01*
X030679Y029816D01*
X030681D01*
X030688Y029817D01*
X030697Y029819D01*
X030707Y029822D01*
X030708D01*
X030709Y029823D01*
X030715Y029827D01*
X030724Y029832D01*
X030732Y029839D01*
X030734Y029840D01*
X030735Y029841D01*
X030742Y029847D01*
X030752Y029856D01*
X030764Y029867D01*
X030765Y029868D01*
X030767Y029870D01*
X030769Y029873D01*
X030774Y029877D01*
X030784Y029888D01*
X030795Y029900D01*
X030796Y029901D01*
X030797Y029903D01*
X030800Y029907D01*
X030804Y029911D01*
X030811Y029922D01*
X030820Y029936D01*
Y029937D01*
X030822Y029939D01*
X030824Y029942D01*
X030827Y029948D01*
X030831Y029960D01*
X030836Y029973D01*
X030837Y029976D01*
X030838Y029980D01*
X030839Y029988D01*
X030841Y029997D01*
Y029998D01*
Y029999D01*
X030842Y030006D01*
X030844Y030013D01*
Y030022D01*
Y030023D01*
Y030026D01*
X030841Y030031D01*
Y030032D01*
X030839Y030033D01*
X030837Y030034D01*
X030832Y030036D01*
D02*
G37*
%LPD*%
D14*
X018515Y026975D02*
G03*
X018515Y026975I-000039J000000D01*
G01*
X019528Y039519D02*
G03*
X019528Y039519I-000800J000000D01*
G01*
X042363D02*
G03*
X042363Y039519I-000800J000000D01*
G01*
Y020228D02*
G03*
X042363Y020228I-000800J000000D01*
G01*
X019528D02*
G03*
X019528Y020228I-000800J000000D01*
G01*
X021428Y026778D02*
X021822D01*
Y030322D01*
X021428D02*
X021822D01*
X018475Y026778D02*
X018672D01*
X018278D02*
X018475D01*
X018278D02*
Y030322D01*
X018672D01*
X018082Y033750D02*
Y035750D01*
Y033750D02*
X019081D01*
Y035750D01*
X018082D02*
X019081D01*
X020145Y038519D02*
X040145D01*
Y040519D01*
X020145D02*
X040145D01*
X020145Y038519D02*
Y040519D01*
X039250Y026350D02*
Y025850D01*
X039500D01*
X039583Y025933D01*
Y026267D01*
X039500Y026350D01*
X039250D01*
X039750D02*
Y025850D01*
Y026100D01*
X040083D01*
Y026350D01*
Y025850D01*
X040250Y026350D02*
X040583D01*
X040416D01*
Y025850D01*
X040750Y026100D02*
X041083D01*
X041499Y025850D02*
Y026350D01*
X041249Y026100D01*
X041583D01*
X039200Y029150D02*
Y028650D01*
X039450D01*
X039533Y028733D01*
Y029067D01*
X039450Y029150D01*
X039200D01*
X039700D02*
Y028650D01*
Y028900D01*
X040033D01*
Y029150D01*
Y028650D01*
X040200Y029150D02*
X040533D01*
X040366D01*
Y028650D01*
X040700Y028900D02*
X041033D01*
X041199Y029067D02*
X041283Y029150D01*
X041449D01*
X041533Y029067D01*
Y028983D01*
X041449Y028900D01*
X041366D01*
X041449D01*
X041533Y028817D01*
Y028733D01*
X041449Y028650D01*
X041283D01*
X041199Y028733D01*
X027050Y026050D02*
Y025633D01*
X027133Y025550D01*
X027300D01*
X027383Y025633D01*
Y026050D01*
X027550Y025550D02*
X027716D01*
X027633D01*
Y026050D01*
X027550Y025967D01*
X038000Y019140D02*
Y019473D01*
X038167Y019640D01*
X038333Y019473D01*
Y019140D01*
Y019390D01*
X038000D01*
X038500Y019640D02*
Y019140D01*
X038750D01*
X038833Y019223D01*
Y019557D01*
X038750Y019640D01*
X038500D01*
X039333Y019557D02*
X039250Y019640D01*
X039083D01*
X039000Y019557D01*
Y019223D01*
X039083Y019140D01*
X039250D01*
X039333Y019223D01*
X039500Y019640D02*
X039833D01*
Y019557D01*
X039500Y019223D01*
Y019140D01*
X028090D02*
Y019473D01*
X028257Y019640D01*
X028423Y019473D01*
Y019140D01*
Y019390D01*
X028090D01*
X028590Y019640D02*
Y019140D01*
X028840D01*
X028923Y019223D01*
Y019557D01*
X028840Y019640D01*
X028590D01*
X029423Y019557D02*
X029340Y019640D01*
X029173D01*
X029090Y019557D01*
Y019223D01*
X029173Y019140D01*
X029340D01*
X029423Y019223D01*
X029590Y019557D02*
X029673Y019640D01*
X029839D01*
X029923Y019557D01*
Y019473D01*
X029839Y019390D01*
X029756D01*
X029839D01*
X029923Y019307D01*
Y019223D01*
X029839Y019140D01*
X029673D01*
X029590Y019223D01*
X035520Y019140D02*
Y019473D01*
X035687Y019640D01*
X035853Y019473D01*
Y019140D01*
Y019390D01*
X035520D01*
X036020Y019640D02*
Y019140D01*
X036270D01*
X036353Y019223D01*
Y019557D01*
X036270Y019640D01*
X036020D01*
X036853Y019557D02*
X036770Y019640D01*
X036603D01*
X036520Y019557D01*
Y019223D01*
X036603Y019140D01*
X036770D01*
X036853Y019223D01*
X037353Y019640D02*
X037186Y019557D01*
X037020Y019390D01*
Y019223D01*
X037103Y019140D01*
X037269D01*
X037353Y019223D01*
Y019307D01*
X037269Y019390D01*
X037020D01*
X025610Y019140D02*
Y019473D01*
X025777Y019640D01*
X025943Y019473D01*
Y019140D01*
Y019390D01*
X025610D01*
X026110Y019640D02*
Y019140D01*
X026360D01*
X026443Y019223D01*
Y019557D01*
X026360Y019640D01*
X026110D01*
X026943Y019557D02*
X026860Y019640D01*
X026693D01*
X026610Y019557D01*
Y019223D01*
X026693Y019140D01*
X026860D01*
X026943Y019223D01*
X027443Y019140D02*
X027110D01*
X027443Y019473D01*
Y019557D01*
X027359Y019640D01*
X027193D01*
X027110Y019557D01*
X033040Y019140D02*
Y019473D01*
X033207Y019640D01*
X033373Y019473D01*
Y019140D01*
Y019390D01*
X033040D01*
X033540Y019640D02*
Y019140D01*
X033790D01*
X033873Y019223D01*
Y019557D01*
X033790Y019640D01*
X033540D01*
X034373Y019557D02*
X034290Y019640D01*
X034123D01*
X034040Y019557D01*
Y019223D01*
X034123Y019140D01*
X034290D01*
X034373Y019223D01*
X034873Y019640D02*
X034540D01*
Y019390D01*
X034706Y019473D01*
X034789D01*
X034873Y019390D01*
Y019223D01*
X034789Y019140D01*
X034623D01*
X034540Y019223D01*
X023130Y019140D02*
Y019473D01*
X023297Y019640D01*
X023463Y019473D01*
Y019140D01*
Y019390D01*
X023130D01*
X023630Y019640D02*
Y019140D01*
X023880D01*
X023963Y019223D01*
Y019557D01*
X023880Y019640D01*
X023630D01*
X024463Y019557D02*
X024380Y019640D01*
X024213D01*
X024130Y019557D01*
Y019223D01*
X024213Y019140D01*
X024380D01*
X024463Y019223D01*
X024630Y019140D02*
X024796D01*
X024713D01*
Y019640D01*
X024630Y019557D01*
X030560Y019140D02*
Y019473D01*
X030727Y019640D01*
X030893Y019473D01*
Y019140D01*
Y019390D01*
X030560D01*
X031060Y019640D02*
Y019140D01*
X031310D01*
X031393Y019223D01*
Y019557D01*
X031310Y019640D01*
X031060D01*
X031893Y019557D02*
X031810Y019640D01*
X031643D01*
X031560Y019557D01*
Y019223D01*
X031643Y019140D01*
X031810D01*
X031893Y019223D01*
X032309Y019140D02*
Y019640D01*
X032060Y019390D01*
X032393D01*
X020650Y019140D02*
Y019473D01*
X020817Y019640D01*
X020983Y019473D01*
Y019140D01*
Y019390D01*
X020650D01*
X021150Y019640D02*
Y019140D01*
X021400D01*
X021483Y019223D01*
Y019557D01*
X021400Y019640D01*
X021150D01*
X021983Y019557D02*
X021900Y019640D01*
X021733D01*
X021650Y019557D01*
Y019223D01*
X021733Y019140D01*
X021900D01*
X021983Y019223D01*
X022150Y019557D02*
X022233Y019640D01*
X022399D01*
X022483Y019557D01*
Y019223D01*
X022399Y019140D01*
X022233D01*
X022150Y019223D01*
Y019557D01*
X039250Y031950D02*
Y031450D01*
X039500D01*
X039583Y031533D01*
Y031867D01*
X039500Y031950D01*
X039250D01*
X039750D02*
Y031450D01*
Y031700D01*
X040083D01*
Y031950D01*
Y031450D01*
X040250Y031950D02*
X040583D01*
X040416D01*
Y031450D01*
X040750Y031700D02*
X041083D01*
X041583Y031450D02*
X041249D01*
X041583Y031783D01*
Y031867D01*
X041499Y031950D01*
X041333D01*
X041249Y031867D01*
X039300Y034700D02*
Y034200D01*
X039550D01*
X039633Y034283D01*
Y034617D01*
X039550Y034700D01*
X039300D01*
X039800D02*
Y034200D01*
Y034450D01*
X040133D01*
Y034700D01*
Y034200D01*
X040300Y034700D02*
X040633D01*
X040466D01*
Y034200D01*
X040800Y034450D02*
X041133D01*
X041299Y034200D02*
X041466D01*
X041383D01*
Y034700D01*
X041299Y034617D01*
X018463Y026147D02*
X018380Y026230D01*
X018213D01*
X018130Y026147D01*
Y026063D01*
X018213Y025980D01*
X018380D01*
X018463Y025897D01*
Y025813D01*
X018380Y025730D01*
X018213D01*
X018130Y025813D01*
X018630Y025730D02*
Y026230D01*
X018880D01*
X018963Y026147D01*
Y025980D01*
X018880Y025897D01*
X018630D01*
X019130Y026230D02*
X019296D01*
X019213D01*
Y025730D01*
X019130D01*
X019296D01*
X019546Y026147D02*
X019630Y026230D01*
X019796D01*
X019879Y026147D01*
Y025813D01*
X019796Y025730D01*
X019630D01*
X019546Y025813D01*
Y026147D01*
X018132Y033400D02*
X018298D01*
X018215D01*
Y032900D01*
X018132D01*
X018298D01*
X018881D02*
X018548D01*
X018881Y033233D01*
Y033317D01*
X018798Y033400D01*
X018631D01*
X018548Y033317D01*
X019381D02*
X019298Y033400D01*
X019131D01*
X019048Y033317D01*
Y032983D01*
X019131Y032900D01*
X019298D01*
X019381Y032983D01*
X020450Y038250D02*
X020250D01*
X020350D01*
Y037750D01*
X020250Y037650D01*
X020150D01*
X020050Y037750D01*
X020650Y037650D02*
X020850D01*
X020750D01*
Y038250D01*
X020650Y038150D01*
D25*
X028375Y025621D02*
G03*
X028375Y025621I-000079J000000D01*
G01*
D26*
X027915Y024775D02*
G03*
X027915Y024775I-000049J000000D01*
G01*
D27*
X031918Y025306D02*
Y026094D01*
X027982Y025306D02*
Y026094D01*
X031918D01*
X027982Y025306D02*
X031918D01*
D28*
X020830Y019969D02*
Y023531D01*
X022070D01*
Y019969D02*
Y023531D01*
X023308Y019969D02*
Y023531D01*
X024549D01*
Y019969D02*
Y023531D01*
X030744Y019969D02*
Y023531D01*
X031984D01*
Y019969D02*
Y023531D01*
X033223Y019969D02*
Y023531D01*
X034463D01*
Y019969D02*
Y023531D01*
X035701Y019969D02*
Y023531D01*
X036942D01*
Y019969D02*
Y023531D01*
X025787Y019969D02*
Y023531D01*
X027027D01*
Y019969D02*
Y023531D01*
X038180Y019969D02*
Y023531D01*
X039420D01*
Y019969D02*
Y023531D01*
X028266Y019969D02*
Y023531D01*
X029506D01*
Y019969D02*
Y023531D01*
X038969Y036170D02*
X042531D01*
Y034930D02*
Y036170D01*
X038969Y034930D02*
X042531D01*
X038969Y033387D02*
X042531D01*
Y032147D02*
Y033387D01*
X038969Y032147D02*
X042531D01*
X038969Y030603D02*
X042531D01*
Y029363D02*
Y030603D01*
X038969Y029363D02*
X042531D01*
X038969Y027820D02*
X042531D01*
Y026580D02*
Y027820D01*
X038969Y026580D02*
X042531D01*
D29*
X020830Y019969D02*
X022070D01*
X023308D02*
X024549D01*
X030744D02*
X031984D01*
X033223D02*
X034463D01*
X035701D02*
X036942D01*
X025787D02*
X027027D01*
X038180D02*
X039420D01*
X028266D02*
X029506D01*
X038969Y034930D02*
Y036170D01*
Y032147D02*
Y033387D01*
X038969Y029363D02*
Y030603D01*
Y026580D02*
Y027820D01*
D30*
X029600Y027200D02*
Y027900D01*
X028300Y027200D02*
X029600D01*
X028300D02*
Y027900D01*
X029600D01*
M02*
