G04 Layer_Physical_Order=4*
G04 Layer_Color=11436288*
%FSAX24Y24*%
%MOIN*%
G70*
G01*
G75*
%ADD37C,0.0050*%
%ADD38R,0.1110X0.0899*%
%ADD44R,0.0315X0.1181*%
%ADD45R,0.1181X0.0315*%
%ADD46R,0.0315X0.1378*%
%ADD47O,0.0900X0.0800*%
%ADD48R,0.0900X0.0800*%
%ADD49C,0.0600*%
%ADD50R,0.0600X0.0600*%
%ADD51C,0.0650*%
%ADD52O,0.0800X0.0900*%
%ADD53R,0.0800X0.0900*%
%ADD54C,0.1083*%
%ADD55C,0.0200*%
%ADD56C,0.0500*%
%ADD57C,0.0300*%
%ADD58R,0.1700X0.4345*%
%ADD59R,0.1100X0.6100*%
G36*
X034840Y032300D02*
X033730Y033431D01*
X034840D01*
Y032300D01*
D02*
G37*
G36*
X034830Y040620D02*
X033730D01*
X034830Y041751D01*
Y040620D01*
D02*
G37*
D37*
X029335Y038185D02*
Y039947D01*
X029060Y037910D02*
X029335Y038185D01*
X019754Y041306D02*
X019960Y041100D01*
X018894Y041306D02*
X019754D01*
X018060Y042140D02*
X018894Y041306D01*
X019960Y040350D02*
Y041100D01*
X020150Y039970D02*
X020310Y039810D01*
X018490Y039970D02*
X020150D01*
X027305Y039125D02*
X027950Y039770D01*
X027305Y038967D02*
Y039125D01*
X027950Y039770D02*
X028160D01*
X025010Y037990D02*
Y039570D01*
Y037990D02*
X025120Y037880D01*
X024770Y039810D02*
X025010Y039570D01*
X020310Y039810D02*
X024770D01*
X025120Y037880D02*
X027030D01*
X027680Y037840D02*
X027857Y037663D01*
X027962Y037478D02*
X027980Y037460D01*
X029540D01*
X029940Y037860D01*
X027330Y037240D02*
X029950D01*
X027857Y037663D02*
X028257D01*
X020390Y039920D02*
X027440D01*
X029510Y040490D02*
X029620D01*
X029750Y040990D02*
Y041140D01*
Y040990D02*
X029840Y040900D01*
X030600Y039950D02*
X031380Y040730D01*
X027700Y041010D02*
Y041460D01*
Y041010D02*
X027860Y040850D01*
X029460D01*
X028778Y037890D02*
X028780D01*
X027050Y041650D02*
X027510D01*
X027700Y041460D01*
X028582Y037688D02*
X029148D01*
X029263Y037803D01*
X029460Y037570D02*
X029755Y037865D01*
X028350Y037570D02*
X029460D01*
X028257Y037663D02*
X028350Y037570D01*
X029263Y037803D02*
Y037928D01*
X029372Y038037D01*
X027020Y034060D02*
X027180Y033900D01*
Y032560D02*
Y033900D01*
Y032560D02*
X027390Y032350D01*
X028270D01*
X029350D02*
X030270D01*
X029190Y032510D02*
X029350Y032350D01*
X029190Y032510D02*
Y033900D01*
X028860Y034230D02*
X029190Y033900D01*
X025570Y034060D02*
X027020D01*
X024860Y035620D02*
X025050D01*
X025130Y034500D02*
X025570Y034060D01*
X025130Y034500D02*
Y035540D01*
X025050Y035620D02*
X025130Y035540D01*
X025470Y034510D02*
Y034810D01*
Y034510D02*
X025750Y034230D01*
X028860D01*
X025490Y035290D02*
X025720Y035060D01*
Y034590D02*
Y035060D01*
Y034590D02*
X025940Y034370D01*
X030690D01*
X031110Y033950D01*
Y032510D02*
Y033950D01*
Y032510D02*
X031270Y032350D01*
X032270D01*
X025380Y035290D02*
X025490D01*
X019960Y040350D02*
X020390Y039920D01*
X027490Y038710D02*
X028160D01*
X028740Y039960D02*
Y040080D01*
X029520Y039870D02*
X029670Y040020D01*
X029480Y040250D02*
X029820D01*
X029840Y040270D01*
Y040900D01*
X029528Y040140D02*
X030390D01*
X029670Y040020D02*
X029924D01*
X029994Y039950D01*
X030600D01*
X027220Y037350D02*
X027330Y037240D01*
X027220Y037350D02*
Y037690D01*
X027030Y037880D02*
X027220Y037690D01*
X029755Y037865D02*
Y037937D01*
X029863Y038045D01*
X029372Y038037D02*
X029687D01*
X029335Y039947D02*
X029528Y040140D01*
X029130Y039500D02*
Y039900D01*
X029480Y040250D01*
X025330Y038150D02*
X025460Y038020D01*
X027598D01*
X027603Y038025D01*
X028245D01*
X028582Y037688D01*
X027000Y038220D02*
X027800D01*
X027950Y038370D01*
X027740Y038480D02*
X028150D01*
X027950Y038370D02*
X028220D01*
X028778Y037890D02*
X028945Y038057D01*
X029040Y039410D02*
X029130Y039500D01*
X028945Y038057D02*
Y038975D01*
X029040Y039070D01*
Y039410D01*
X028220Y038370D02*
X028550Y038700D01*
Y038970D01*
X028710Y039130D01*
X028150Y038480D02*
X028440Y038770D01*
X028160Y038710D02*
X028330Y038880D01*
Y039550D01*
X028440Y038770D02*
Y039420D01*
X029510Y040490D01*
X028330Y039550D02*
X028740Y039960D01*
X029687Y038037D02*
X029844Y038194D01*
X029863Y038045D02*
X030045D01*
X030700Y038700D01*
X029844Y038194D02*
X030014D01*
X030460Y038640D01*
Y038830D01*
X030680Y039050D01*
X030700D01*
D38*
X034285Y033880D02*
D03*
D44*
X016888Y037570D02*
D03*
D45*
X018266Y035680D02*
D03*
D46*
X019250Y037570D02*
D03*
D47*
X021100Y042650D02*
D03*
Y041650D02*
D03*
X023083Y042650D02*
D03*
Y041650D02*
D03*
X025067Y042650D02*
D03*
Y041650D02*
D03*
X027050Y042650D02*
D03*
Y041650D02*
D03*
X032270Y031350D02*
D03*
Y032350D02*
D03*
X030270Y031350D02*
D03*
Y032350D02*
D03*
X028270Y031350D02*
D03*
Y032350D02*
D03*
X026270Y031350D02*
D03*
Y032350D02*
D03*
X024270Y031350D02*
D03*
Y032350D02*
D03*
X022270Y031350D02*
D03*
Y032350D02*
D03*
X020270Y031350D02*
D03*
Y032350D02*
D03*
X018270Y031350D02*
D03*
Y032350D02*
D03*
D48*
X021100Y040650D02*
D03*
X023083D02*
D03*
X025067D02*
D03*
X027050D02*
D03*
X032270Y033350D02*
D03*
X030270D02*
D03*
X028270D02*
D03*
X026270D02*
D03*
X024270D02*
D03*
X022270D02*
D03*
X020270D02*
D03*
X018270D02*
D03*
D49*
X028750Y042600D02*
D03*
X029750D02*
D03*
X030750D02*
D03*
X031750D02*
D03*
X032750D02*
D03*
D50*
X033750D02*
D03*
D51*
X018040Y040910D02*
D03*
X017040D02*
D03*
D52*
X019060Y042140D02*
D03*
X018060D02*
D03*
D53*
X017060D02*
D03*
D54*
X035640Y042550D02*
D03*
Y031450D02*
D03*
X014730Y031500D02*
D03*
Y042500D02*
D03*
D55*
X016030Y041150D02*
D03*
X030760Y038210D02*
D03*
X033490Y038610D02*
D03*
X033480Y038320D02*
D03*
X033520Y039330D02*
D03*
X034680Y040920D02*
D03*
Y040620D02*
D03*
Y040320D02*
D03*
Y033120D02*
D03*
Y033420D02*
D03*
Y032820D02*
D03*
Y033720D02*
D03*
Y041220D02*
D03*
Y034320D02*
D03*
Y034020D02*
D03*
Y034620D02*
D03*
Y034920D02*
D03*
X024450Y037770D02*
D03*
X023800Y037670D02*
D03*
X019470Y040770D02*
D03*
X025330Y038150D02*
D03*
X027680Y037840D02*
D03*
X027962Y037478D02*
D03*
X027740Y038480D02*
D03*
X018490Y039970D02*
D03*
X016010Y039980D02*
D03*
X027440Y039920D02*
D03*
X028740Y040080D02*
D03*
X026580Y035650D02*
D03*
X024860Y035620D02*
D03*
X029620Y040490D02*
D03*
X030390Y040140D02*
D03*
X029460Y040850D02*
D03*
X028780Y037890D02*
D03*
X029060Y037910D02*
D03*
X031380Y040730D02*
D03*
X029520Y039870D02*
D03*
X029210Y041150D02*
D03*
X029750Y041140D02*
D03*
X029960Y038720D02*
D03*
X029940Y037860D02*
D03*
X029950Y037240D02*
D03*
X029448Y037852D02*
D03*
X029567Y038283D02*
D03*
X029133D02*
D03*
X029567Y038717D02*
D03*
X029133D02*
D03*
X034380Y038520D02*
D03*
X034680Y040020D02*
D03*
Y039720D02*
D03*
Y035520D02*
D03*
Y035220D02*
D03*
Y036120D02*
D03*
Y035820D02*
D03*
Y036720D02*
D03*
Y036420D02*
D03*
Y037320D02*
D03*
Y037020D02*
D03*
Y037920D02*
D03*
Y038520D02*
D03*
Y038220D02*
D03*
X034380Y039720D02*
D03*
X034680Y037620D02*
D03*
X030700Y038700D02*
D03*
Y039050D02*
D03*
X032330Y037800D02*
D03*
X032620D02*
D03*
X032910D02*
D03*
X032620Y038250D02*
D03*
X032330D02*
D03*
X030760Y037800D02*
D03*
X025470Y034810D02*
D03*
X025380Y035290D02*
D03*
X033020Y038490D02*
D03*
Y038780D02*
D03*
X033040Y039070D02*
D03*
X033240Y039300D02*
D03*
X033490Y038880D02*
D03*
X033440Y038030D02*
D03*
X033230Y037820D02*
D03*
X032910Y038250D02*
D03*
X027490Y038710D02*
D03*
X027260Y038920D02*
D03*
X028160Y039770D02*
D03*
X029830Y039820D02*
D03*
X027000Y038220D02*
D03*
X028750Y038160D02*
D03*
Y038440D02*
D03*
Y038720D02*
D03*
X028710Y039130D02*
D03*
X029960Y038990D02*
D03*
Y038450D02*
D03*
D56*
X027700Y039760D02*
D03*
D57*
X016304Y033314D02*
D03*
X020310Y035570D02*
D03*
X028008Y037005D02*
D03*
X028060Y039390D02*
D03*
X030910Y039730D02*
D03*
X022290Y042640D02*
D03*
X020310D02*
D03*
X024283Y042660D02*
D03*
X026270D02*
D03*
X026260Y040650D02*
D03*
X024273D02*
D03*
X022290D02*
D03*
X020300D02*
D03*
X032700Y040080D02*
D03*
X031605Y036600D02*
D03*
X014290Y034000D02*
D03*
Y032300D02*
D03*
X030108Y036105D02*
D03*
X031750Y041800D02*
D03*
X021500Y038270D02*
D03*
Y036020D02*
D03*
X025250Y037000D02*
D03*
X017483Y033340D02*
D03*
X019483Y033350D02*
D03*
X021486D02*
D03*
X023489D02*
D03*
X025491D02*
D03*
X027494D02*
D03*
X029497D02*
D03*
X031500D02*
D03*
X021483Y031340D02*
D03*
X019480D02*
D03*
X017480Y031330D02*
D03*
X027493Y031340D02*
D03*
X025490D02*
D03*
X023490Y031330D02*
D03*
X031490Y031340D02*
D03*
X029490Y031330D02*
D03*
X022899Y034820D02*
D03*
X033750Y041800D02*
D03*
X032710Y039320D02*
D03*
D58*
X034580Y036502D02*
D03*
D59*
X034280Y037570D02*
D03*
M02*
