G04 Layer_Color=20142*
%FSAX24Y24*%
%MOIN*%
G70*
G01*
G75*
%ADD66R,0.0473X0.0394*%
G04:AMPARAMS|DCode=67|XSize=44mil|YSize=59mil|CornerRadius=7mil|HoleSize=0mil|Usage=FLASHONLY|Rotation=0.000|XOffset=0mil|YOffset=0mil|HoleType=Round|Shape=RoundedRectangle|*
%AMROUNDEDRECTD67*
21,1,0.0440,0.0450,0,0,0.0*
21,1,0.0300,0.0590,0,0,0.0*
1,1,0.0140,0.0150,-0.0225*
1,1,0.0140,-0.0150,-0.0225*
1,1,0.0140,-0.0150,0.0225*
1,1,0.0140,0.0150,0.0225*
%
%ADD67ROUNDEDRECTD67*%
%ADD68R,0.0453X0.0611*%
%ADD69R,0.0532X0.0473*%
%ADD70R,0.0323X0.0339*%
%ADD71R,0.0453X0.0394*%
%ADD72R,0.0394X0.0453*%
%ADD73R,0.0512X0.0197*%
%ADD74R,0.0308X0.0371*%
%ADD75R,0.0453X0.0434*%
%ADD76R,0.0631X0.0257*%
%ADD77R,0.0355X0.0355*%
%ADD78R,0.0355X0.0355*%
%ADD79O,0.0335X0.0138*%
%ADD80O,0.0138X0.0335*%
%ADD81R,0.0886X0.0886*%
G04:AMPARAMS|DCode=82|XSize=44mil|YSize=59mil|CornerRadius=7mil|HoleSize=0mil|Usage=FLASHONLY|Rotation=270.000|XOffset=0mil|YOffset=0mil|HoleType=Round|Shape=RoundedRectangle|*
%AMROUNDEDRECTD82*
21,1,0.0440,0.0450,0,0,270.0*
21,1,0.0300,0.0590,0,0,270.0*
1,1,0.0140,-0.0225,-0.0150*
1,1,0.0140,-0.0225,0.0150*
1,1,0.0140,0.0225,0.0150*
1,1,0.0140,0.0225,-0.0150*
%
%ADD82ROUNDEDRECTD82*%
%ADD83R,0.0434X0.0552*%
%ADD84R,0.0276X0.0375*%
%ADD85R,0.0552X0.0453*%
%ADD86R,0.0292X0.0308*%
%ADD87R,0.0552X0.0434*%
%ADD88R,0.0690X0.0690*%
%ADD89R,0.0375X0.0316*%
%ADD90R,0.0355X0.1221*%
%ADD91R,0.1221X0.0355*%
%ADD92R,0.0355X0.1418*%
%ADD93O,0.0940X0.0840*%
%ADD94R,0.0940X0.0840*%
%ADD95C,0.0640*%
%ADD96R,0.0640X0.0640*%
%ADD97C,0.0690*%
%ADD98O,0.0840X0.0940*%
%ADD99R,0.0840X0.0940*%
%ADD100C,0.1123*%
%ADD101C,0.0240*%
%ADD102C,0.0540*%
%ADD103C,0.0340*%
D66*
X016020Y042125D02*
D03*
Y041535D02*
D03*
D67*
X020950Y038270D02*
D03*
X020250D02*
D03*
D68*
X016304Y032800D02*
D03*
X015576D02*
D03*
X016354Y034500D02*
D03*
X015626D02*
D03*
D69*
X020305Y036020D02*
D03*
X020975D02*
D03*
D70*
X031905Y037057D02*
D03*
Y037443D02*
D03*
X031305Y037057D02*
D03*
Y037443D02*
D03*
D71*
X024450Y038134D02*
D03*
Y038666D02*
D03*
X025250Y035934D02*
D03*
Y036466D02*
D03*
X019070Y040774D02*
D03*
Y041306D02*
D03*
X030390Y041036D02*
D03*
Y040504D02*
D03*
D72*
X018116Y039970D02*
D03*
X017584D02*
D03*
X030394Y041540D02*
D03*
X030926D02*
D03*
X029214Y041550D02*
D03*
X029746D02*
D03*
D73*
X022178Y036446D02*
D03*
Y036190D02*
D03*
Y035934D02*
D03*
Y035678D02*
D03*
Y035422D02*
D03*
Y035166D02*
D03*
Y034910D02*
D03*
Y034654D02*
D03*
X024422Y036446D02*
D03*
Y036190D02*
D03*
Y035934D02*
D03*
Y035678D02*
D03*
Y035422D02*
D03*
Y035166D02*
D03*
Y034910D02*
D03*
Y034654D02*
D03*
D74*
X031513Y038800D02*
D03*
X031087D02*
D03*
D75*
X031895Y038000D02*
D03*
X031305D02*
D03*
D76*
X023000Y038740D02*
D03*
Y037460D02*
D03*
D77*
X014295Y032800D02*
D03*
X014885D02*
D03*
D78*
X014295Y034500D02*
D03*
X014885D02*
D03*
D79*
X030305Y037811D02*
D03*
Y038008D02*
D03*
Y038205D02*
D03*
Y038402D02*
D03*
Y038598D02*
D03*
Y038795D02*
D03*
Y038992D02*
D03*
Y039189D02*
D03*
X028395D02*
D03*
Y038992D02*
D03*
Y038795D02*
D03*
Y038598D02*
D03*
Y038402D02*
D03*
Y038205D02*
D03*
Y038008D02*
D03*
Y037811D02*
D03*
D80*
X030039Y039455D02*
D03*
X029842D02*
D03*
X029645D02*
D03*
X029448D02*
D03*
X029252D02*
D03*
X029055D02*
D03*
X028858D02*
D03*
X028661D02*
D03*
Y037545D02*
D03*
X028858D02*
D03*
X029055D02*
D03*
X029252D02*
D03*
X029448D02*
D03*
X029645D02*
D03*
X029842D02*
D03*
X030039D02*
D03*
D81*
X029350Y038500D02*
D03*
D82*
X031410Y040080D02*
D03*
Y039380D02*
D03*
X032110Y040080D02*
D03*
Y039380D02*
D03*
X030710Y036310D02*
D03*
Y037010D02*
D03*
D83*
X032595Y038750D02*
D03*
X032005D02*
D03*
X016445Y039980D02*
D03*
X017035D02*
D03*
D84*
X020974Y037542D02*
D03*
X020600D02*
D03*
X020226D02*
D03*
Y036598D02*
D03*
X020974D02*
D03*
D85*
X029511Y036191D02*
D03*
X028605D02*
D03*
Y036919D02*
D03*
X029511D02*
D03*
D86*
X028008Y036181D02*
D03*
Y036528D02*
D03*
X030108Y036928D02*
D03*
Y036581D02*
D03*
D87*
X023800Y038055D02*
D03*
Y038645D02*
D03*
D88*
X034080Y039120D02*
D03*
Y038320D02*
D03*
Y039920D02*
D03*
D89*
X027560Y037486D02*
D03*
Y037034D02*
D03*
X026580Y036476D02*
D03*
Y035984D02*
D03*
X026010Y035994D02*
D03*
Y036486D02*
D03*
D90*
X016888Y037570D02*
D03*
D91*
X018266Y035680D02*
D03*
D92*
X019250Y037570D02*
D03*
D93*
X021100Y042650D02*
D03*
Y041650D02*
D03*
X023083Y042650D02*
D03*
Y041650D02*
D03*
X025067Y042650D02*
D03*
Y041650D02*
D03*
X027050Y042650D02*
D03*
Y041650D02*
D03*
X032270Y031350D02*
D03*
Y032350D02*
D03*
X030270Y031350D02*
D03*
Y032350D02*
D03*
X028270Y031350D02*
D03*
Y032350D02*
D03*
X026270Y031350D02*
D03*
Y032350D02*
D03*
X024270Y031350D02*
D03*
Y032350D02*
D03*
X022270Y031350D02*
D03*
Y032350D02*
D03*
X020270Y031350D02*
D03*
Y032350D02*
D03*
X018270Y031350D02*
D03*
Y032350D02*
D03*
D94*
X021100Y040650D02*
D03*
X023083D02*
D03*
X025067D02*
D03*
X027050D02*
D03*
X032270Y033350D02*
D03*
X030270D02*
D03*
X028270D02*
D03*
X026270D02*
D03*
X024270D02*
D03*
X022270D02*
D03*
X020270D02*
D03*
X018270D02*
D03*
D95*
X028750Y042600D02*
D03*
X029750D02*
D03*
X030750D02*
D03*
X031750D02*
D03*
X032750D02*
D03*
D96*
X033750D02*
D03*
D97*
X018040Y040910D02*
D03*
X017040D02*
D03*
D98*
X019060Y042140D02*
D03*
X018060D02*
D03*
D99*
X017060D02*
D03*
D100*
X035640Y042550D02*
D03*
Y031450D02*
D03*
X014730Y031500D02*
D03*
Y042500D02*
D03*
D101*
X016030Y041150D02*
D03*
X024450Y037770D02*
D03*
X023800Y037670D02*
D03*
X019470Y040770D02*
D03*
X016010Y039980D02*
D03*
X026580Y035650D02*
D03*
X031380Y040730D02*
D03*
X029210Y041150D02*
D03*
X029960Y038720D02*
D03*
X029448Y037852D02*
D03*
X029830Y039820D02*
D03*
X028750Y038160D02*
D03*
Y038440D02*
D03*
Y038720D02*
D03*
X029960Y038990D02*
D03*
Y038450D02*
D03*
D102*
X027700Y039760D02*
D03*
D103*
X016304Y033314D02*
D03*
X020310Y035570D02*
D03*
X028008Y037005D02*
D03*
X028060Y039390D02*
D03*
X030910Y039730D02*
D03*
X022290Y042640D02*
D03*
X020310D02*
D03*
X024283Y042660D02*
D03*
X026270D02*
D03*
X026260Y040650D02*
D03*
X024273D02*
D03*
X022290D02*
D03*
X020300D02*
D03*
X032700Y040080D02*
D03*
X031605Y036600D02*
D03*
X014290Y034000D02*
D03*
Y032300D02*
D03*
X030108Y036105D02*
D03*
X031750Y041800D02*
D03*
X021500Y038270D02*
D03*
Y036020D02*
D03*
X025250Y037000D02*
D03*
X017483Y033340D02*
D03*
X019483Y033350D02*
D03*
X021486D02*
D03*
X023489D02*
D03*
X025491D02*
D03*
X027494D02*
D03*
X029497D02*
D03*
X031500D02*
D03*
X021483Y031340D02*
D03*
X019480D02*
D03*
X017480Y031330D02*
D03*
X027493Y031340D02*
D03*
X025490D02*
D03*
X023490Y031330D02*
D03*
X031490Y031340D02*
D03*
X029490Y031330D02*
D03*
X022899Y034820D02*
D03*
X033750Y041800D02*
D03*
X032710Y039320D02*
D03*
M02*
