G04 Layer_Color=15132400*
%FSAX24Y24*%
%MOIN*%
G70*
G01*
G75*
%ADD10C,0.0080*%
%ADD35C,0.0100*%
%ADD37C,0.0050*%
%ADD60C,0.0236*%
%ADD61C,0.0098*%
%ADD62C,0.0079*%
%ADD63C,0.0060*%
%ADD64C,0.0059*%
%ADD65C,0.0039*%
G36*
X026641Y034957D02*
X026660Y034953D01*
X026662D01*
X026663Y034951D01*
X026675Y034947D01*
X026687Y034942D01*
X026702Y034933D01*
X026704D01*
X026706Y034931D01*
X026713Y034923D01*
X026724Y034914D01*
X026734Y034901D01*
X026736Y034897D01*
X026741Y034888D01*
X026745Y034875D01*
X026747Y034859D01*
Y034857D01*
Y034853D01*
Y034846D01*
X026745Y034836D01*
Y034834D01*
X026743Y034833D01*
X026741Y034827D01*
X026739Y034818D01*
Y034816D01*
X026737Y034812D01*
X026734Y034807D01*
X026730Y034801D01*
X026732D01*
Y034799D01*
X026730Y034797D01*
X026728Y034794D01*
X026723Y034792D01*
X026708D01*
X026700Y034794D01*
X026691Y034796D01*
X026680Y034801D01*
X026678Y034803D01*
X026673Y034807D01*
X026665Y034812D01*
X026658Y034820D01*
X026656Y034822D01*
X026650Y034827D01*
X026643Y034833D01*
X026636Y034840D01*
X026634Y034842D01*
X026628Y034846D01*
X026621Y034847D01*
X026612Y034849D01*
X026593D01*
X026588Y034847D01*
X026576Y034844D01*
X026563Y034840D01*
X026549Y034834D01*
X026532Y034829D01*
X026493Y034810D01*
X026491Y034809D01*
X026484Y034805D01*
X026475Y034799D01*
X026460Y034792D01*
X026445Y034781D01*
X026426Y034770D01*
X026388Y034742D01*
X026386Y034740D01*
X026378Y034735D01*
X026367Y034727D01*
X026354Y034716D01*
X026339Y034701D01*
X026323Y034686D01*
X026286Y034651D01*
X026284Y034649D01*
X026278Y034644D01*
X026269Y034633D01*
X026258Y034620D01*
X026243Y034605D01*
X026230Y034588D01*
X026201Y034549D01*
X026199Y034548D01*
X026195Y034540D01*
X026188Y034529D01*
X026180Y034516D01*
X026169Y034499D01*
X026160Y034481D01*
X026141Y034440D01*
Y034438D01*
X026138Y034431D01*
X026134Y034420D01*
X026130Y034407D01*
X026127Y034392D01*
X026123Y034374D01*
X026121Y034355D01*
X026119Y034337D01*
Y034335D01*
Y034329D01*
X026121Y034322D01*
Y034312D01*
X026127Y034290D01*
X026138Y034266D01*
X026140Y034264D01*
X026141Y034261D01*
X026147Y034255D01*
X026153Y034248D01*
X026169Y034229D01*
X026193Y034207D01*
X026195Y034205D01*
X026204Y034200D01*
X026217Y034194D01*
X026234Y034187D01*
X026236D01*
X026238Y034185D01*
X026247Y034183D01*
X026262Y034181D01*
X026277Y034179D01*
X026280D01*
X026291Y034181D01*
X026306Y034183D01*
X026325Y034187D01*
X026327D01*
X026328Y034188D01*
X026341Y034192D01*
X026356Y034200D01*
X026375Y034209D01*
X026377D01*
X026378Y034211D01*
X026391Y034218D01*
X026406Y034225D01*
X026425Y034237D01*
X026426D01*
X026428Y034238D01*
X026439Y034246D01*
X026454Y034255D01*
X026471Y034264D01*
X026475Y034266D01*
X026482Y034272D01*
X026493Y034281D01*
X026508Y034292D01*
X026525Y034307D01*
X026543Y034324D01*
X026562Y034342D01*
X026578Y034362D01*
X026580Y034364D01*
X026586Y034374D01*
X026593Y034385D01*
X026604Y034399D01*
X026615Y034418D01*
X026628Y034438D01*
X026650Y034483D01*
X026652Y034485D01*
X026654Y034488D01*
Y034490D01*
Y034494D01*
X026656Y034496D01*
Y034498D01*
X026654D01*
X026650Y034496D01*
X026641Y034494D01*
X026630Y034490D01*
X026626Y034488D01*
X026617Y034486D01*
X026604Y034481D01*
X026588Y034475D01*
X026586D01*
X026584Y034474D01*
X026573Y034470D01*
X026558Y034466D01*
X026538Y034459D01*
X026536D01*
X026534Y034457D01*
X026521Y034453D01*
X026506Y034448D01*
X026488Y034440D01*
X026486D01*
X026484Y034438D01*
X026475Y034437D01*
X026462Y034431D01*
X026447Y034427D01*
X026445D01*
X026438Y034424D01*
X026430Y034422D01*
X026423Y034420D01*
X026421Y034418D01*
X026412Y034414D01*
X026408Y034412D01*
X026399Y034409D01*
X026397D01*
X026395Y034407D01*
X026386Y034403D01*
X026382D01*
X026377Y034401D01*
X026369D01*
X026362Y034403D01*
X026352Y034405D01*
X026351Y034407D01*
X026347Y034409D01*
X026336Y034420D01*
X026334Y034422D01*
X026332Y034425D01*
X026328Y034433D01*
X026325Y034440D01*
Y034442D01*
X026323Y034448D01*
X026321Y034455D01*
Y034462D01*
Y034464D01*
Y034466D01*
X026323Y034477D01*
X026327Y034490D01*
X026334Y034503D01*
X026336Y034505D01*
X026343Y034512D01*
X026354Y034518D01*
X026367Y034525D01*
X026369D01*
X026371Y034527D01*
X026380Y034529D01*
X026393Y034533D01*
X026408Y034535D01*
X026412D01*
X026419Y034536D01*
X026430D01*
X026441Y034538D01*
X026443D01*
X026449Y034540D01*
X026451D01*
X026452Y034542D01*
X026460Y034544D01*
X026462D01*
X026465Y034546D01*
X026475Y034549D01*
X026476D01*
X026478Y034551D01*
X026486D01*
X026488Y034553D01*
X026495Y034555D01*
X026504Y034561D01*
X026519Y034566D01*
X026521D01*
X026523Y034568D01*
X026534Y034572D01*
X026550Y034577D01*
X026569Y034585D01*
X026571D01*
X026575Y034586D01*
X026580Y034588D01*
X026586Y034592D01*
X026604Y034598D01*
X026623Y034603D01*
X026625D01*
X026628Y034605D01*
X026639Y034607D01*
X026654Y034609D01*
X026671Y034610D01*
X026684D01*
X026695Y034607D01*
X026708Y034603D01*
X026712Y034601D01*
X026719Y034598D01*
X026728Y034592D01*
X026737Y034583D01*
X026739Y034581D01*
X026745Y034575D01*
X026750Y034566D01*
X026756Y034555D01*
X026758Y034551D01*
X026760Y034544D01*
X026762Y034533D01*
X026763Y034518D01*
Y034516D01*
Y034512D01*
X026762Y034501D01*
Y034499D01*
X026760Y034496D01*
Y034488D01*
X026758Y034479D01*
Y034475D01*
X026754Y034468D01*
X026750Y034455D01*
X026745Y034438D01*
X026736Y034420D01*
X026726Y034398D01*
X026702Y034353D01*
X026700Y034351D01*
X026695Y034344D01*
X026687Y034333D01*
X026678Y034318D01*
X026665Y034301D01*
X026649Y034285D01*
X026632Y034266D01*
X026613Y034248D01*
X026612Y034246D01*
X026604Y034240D01*
X026595Y034231D01*
X026580Y034220D01*
X026565Y034205D01*
X026545Y034192D01*
X026525Y034177D01*
X026502Y034163D01*
X026501Y034161D01*
X026491Y034157D01*
X026480Y034150D01*
X026465Y034142D01*
X026447Y034133D01*
X026425Y034124D01*
X026378Y034103D01*
X026373Y034101D01*
X026365Y034098D01*
X026354Y034094D01*
X026352D01*
X026345Y034092D01*
X026334Y034090D01*
X026323Y034087D01*
X026321D01*
X026314Y034085D01*
X026302Y034083D01*
X026291Y034079D01*
X026282D01*
X026275Y034077D01*
X026238D01*
X026225Y034079D01*
X026223D01*
X026215Y034081D01*
X026206D01*
X026197Y034083D01*
X026195D01*
X026191Y034085D01*
X026178Y034089D01*
X026177D01*
X026175Y034090D01*
X026165Y034094D01*
X026164D01*
X026160Y034098D01*
X026153Y034101D01*
X026145Y034105D01*
X026123Y034118D01*
X026101Y034133D01*
X026099Y034135D01*
X026097Y034137D01*
X026084Y034148D01*
X026069Y034163D01*
X026053Y034183D01*
Y034185D01*
X026049Y034188D01*
X026045Y034194D01*
X026041Y034201D01*
X026030Y034224D01*
X026019Y034248D01*
Y034250D01*
X026017Y034253D01*
X026016Y034261D01*
X026014Y034270D01*
X026012Y034283D01*
X026010Y034296D01*
X026008Y034325D01*
Y034327D01*
Y034333D01*
Y034342D01*
X026010Y034353D01*
X026012Y034368D01*
X026014Y034383D01*
X026023Y034418D01*
Y034420D01*
X026027Y034427D01*
X026029Y034437D01*
X026034Y034449D01*
X026040Y034464D01*
X026047Y034481D01*
X026064Y034516D01*
X026066Y034518D01*
X026069Y034525D01*
X026073Y034535D01*
X026080Y034548D01*
X026090Y034562D01*
X026099Y034579D01*
X026123Y034614D01*
X026125Y034616D01*
X026128Y034623D01*
X026136Y034633D01*
X026145Y034646D01*
X026156Y034659D01*
X026169Y034675D01*
X026197Y034709D01*
X026199Y034710D01*
X026204Y034716D01*
X026212Y034725D01*
X026223Y034736D01*
X026236Y034747D01*
X026249Y034762D01*
X026280Y034790D01*
X026282Y034792D01*
X026288Y034797D01*
X026297Y034805D01*
X026308Y034814D01*
X026321Y034823D01*
X026336Y034836D01*
X026367Y034859D01*
X026369D01*
X026371Y034862D01*
X026377Y034864D01*
X026384Y034870D01*
X026402Y034881D01*
X026423Y034894D01*
X026425D01*
X026428Y034897D01*
X026434Y034901D01*
X026441Y034905D01*
X026462Y034916D01*
X026484Y034927D01*
X026486D01*
X026489Y034929D01*
X026495Y034933D01*
X026504Y034936D01*
X026525Y034944D01*
X026547Y034951D01*
X026549D01*
X026552Y034953D01*
X026560Y034955D01*
X026567Y034957D01*
X026588Y034958D01*
X026612Y034960D01*
X026626D01*
X026641Y034957D01*
D02*
G37*
G36*
X029829Y034651D02*
X029836Y034648D01*
X029838Y034646D01*
X029842Y034642D01*
X029847Y034636D01*
X029853Y034629D01*
X029855Y034627D01*
X029856Y034622D01*
X029860Y034614D01*
X029862Y034603D01*
Y034601D01*
X029864Y034594D01*
Y034583D01*
Y034572D01*
Y034570D01*
Y034566D01*
Y034559D01*
X029862Y034551D01*
Y034549D01*
Y034546D01*
Y034536D01*
X029866Y034540D01*
X029873Y034548D01*
X029884Y034561D01*
X029897Y034573D01*
X029899D01*
X029901Y034577D01*
X029910Y034585D01*
X029923Y034596D01*
X029938Y034607D01*
X029940D01*
X029942Y034609D01*
X029953Y034616D01*
X029967Y034623D01*
X029984Y034631D01*
X029986D01*
X029988Y034633D01*
X029999Y034636D01*
X030016Y034638D01*
X030034Y034640D01*
X030040D01*
X030053Y034638D01*
X030054D01*
X030060Y034636D01*
X030067Y034635D01*
X030075Y034633D01*
X030077D01*
X030082Y034631D01*
X030090Y034629D01*
X030099Y034625D01*
X030101Y034623D01*
X030106Y034622D01*
X030116Y034616D01*
X030125Y034610D01*
X030127D01*
X030128Y034609D01*
X030136Y034601D01*
X030147Y034588D01*
X030158Y034573D01*
Y034572D01*
X030160Y034570D01*
X030166Y034559D01*
X030169Y034544D01*
X030171Y034527D01*
Y034525D01*
Y034522D01*
X030169Y034514D01*
X030167Y034507D01*
Y034505D01*
X030166Y034499D01*
X030164Y034494D01*
X030158Y034486D01*
X030156Y034485D01*
X030154Y034483D01*
X030143Y034474D01*
X030141D01*
X030138Y034472D01*
X030132Y034470D01*
X030125Y034468D01*
X030117D01*
X030110Y034470D01*
X030099Y034472D01*
X030097Y034474D01*
X030090Y034475D01*
X030082Y034481D01*
X030075Y034486D01*
X030073Y034488D01*
X030066Y034496D01*
Y034498D01*
X030064Y034499D01*
X030058Y034509D01*
Y034511D01*
X030056Y034512D01*
X030051Y034522D01*
Y034523D01*
X030049Y034525D01*
X030045Y034529D01*
X030043Y034531D01*
X030021D01*
X030014Y034529D01*
X029993Y034523D01*
X029973Y034514D01*
X029971D01*
X029967Y034512D01*
X029964Y034509D01*
X029956Y034505D01*
X029940Y034492D01*
X029921Y034477D01*
X029919Y034475D01*
X029917Y034474D01*
X029906Y034462D01*
X029892Y034448D01*
X029877Y034429D01*
Y034427D01*
X029873Y034425D01*
X029866Y034414D01*
X029853Y034399D01*
X029842Y034383D01*
Y034381D01*
X029840Y034374D01*
X029836Y034364D01*
X029834Y034351D01*
X029829Y034335D01*
X029825Y034318D01*
X029814Y034277D01*
Y034275D01*
X029812Y034268D01*
X029808Y034257D01*
X029805Y034242D01*
X029801Y034225D01*
X029795Y034205D01*
X029784Y034163D01*
Y034146D01*
Y034142D01*
Y034135D01*
Y034124D01*
X029782Y034109D01*
Y034105D01*
Y034098D01*
X029780Y034087D01*
X029777Y034076D01*
X029775D01*
X029771Y034072D01*
X029766Y034068D01*
X029756Y034064D01*
X029755Y034063D01*
X029749Y034061D01*
X029740Y034059D01*
X029729Y034057D01*
X029725D01*
X029714Y034059D01*
X029701Y034063D01*
X029690Y034072D01*
X029688Y034076D01*
X029684Y034083D01*
X029681Y034096D01*
X029679Y034111D01*
Y034113D01*
Y034116D01*
Y034124D01*
X029681Y034131D01*
Y034133D01*
X029682Y034138D01*
X029684Y034148D01*
X029686Y034159D01*
X029688Y034172D01*
X029692Y034188D01*
X029699Y034224D01*
Y034225D01*
X029701Y034233D01*
X029703Y034242D01*
X029706Y034257D01*
X029708Y034272D01*
X029712Y034288D01*
X029719Y034327D01*
Y034329D01*
X029721Y034337D01*
X029723Y034346D01*
X029727Y034359D01*
X029729Y034375D01*
X029732Y034392D01*
X029740Y034429D01*
Y034431D01*
X029742Y034438D01*
X029743Y034448D01*
X029747Y034461D01*
X029749Y034475D01*
X029753Y034490D01*
X029758Y034522D01*
Y034523D01*
Y034525D01*
Y034531D01*
Y034533D01*
Y034535D01*
Y034542D01*
Y034546D01*
Y034553D01*
Y034566D01*
X029760Y034579D01*
Y034581D01*
Y034583D01*
X029762Y034592D01*
X029766Y034603D01*
X029768Y034614D01*
Y034616D01*
X029769Y034618D01*
X029773Y034627D01*
X029777Y034638D01*
X029782Y034646D01*
X029784Y034648D01*
X029788Y034651D01*
X029797Y034653D01*
X029808Y034655D01*
X029819D01*
X029829Y034651D01*
D02*
G37*
G36*
X031799Y034638D02*
X031855D01*
X031866Y034635D01*
X031892D01*
X031899Y034633D01*
X031901D01*
X031908Y034624D01*
X031912Y034618D01*
X031917Y034609D01*
Y034607D01*
Y034598D01*
X031919Y034589D01*
Y034569D01*
Y034558D01*
Y034549D01*
Y034544D01*
Y034542D01*
Y034482D01*
X031941Y034476D01*
X031970Y034469D01*
X031995Y034458D01*
X032003Y034453D01*
X032008Y034449D01*
X032012Y034447D01*
X032015Y034444D01*
X032035Y034427D01*
X032052Y034407D01*
X032057Y034398D01*
X032061Y034391D01*
X032066Y034387D01*
Y034384D01*
X032070Y034371D01*
X032075Y034360D01*
X032077Y034351D01*
Y034347D01*
Y034338D01*
X032079Y034324D01*
Y034296D01*
Y034280D01*
Y034269D01*
Y034260D01*
Y034258D01*
X032081Y034160D01*
X031201D01*
X031204Y034258D01*
Y034282D01*
Y034300D01*
Y034316D01*
Y034329D01*
X031206Y034338D01*
Y034342D01*
Y034347D01*
X031208Y034362D01*
X031212Y034373D01*
X031215Y034382D01*
X031217Y034384D01*
X031232Y034409D01*
X031248Y034429D01*
X031261Y034440D01*
X031266Y034444D01*
X031268D01*
X031292Y034460D01*
X031315Y034469D01*
X031326Y034473D01*
X031332D01*
X031337Y034476D01*
X031339D01*
X031361Y034482D01*
Y034542D01*
Y034558D01*
Y034571D01*
X031364Y034582D01*
Y034591D01*
X031366Y034602D01*
Y034607D01*
X031370Y034618D01*
X031375Y034627D01*
X031379Y034631D01*
X031381Y034633D01*
X031390Y034635D01*
X031419D01*
X031437Y034638D01*
X031479D01*
X031526Y034640D01*
X031775D01*
X031799Y034638D01*
D02*
G37*
G36*
X029542Y034925D02*
X029564Y034921D01*
X029566D01*
X029569Y034920D01*
X029575D01*
X029582Y034918D01*
X029599Y034910D01*
X029618Y034901D01*
X029619D01*
X029621Y034899D01*
X029631Y034892D01*
X029644Y034881D01*
X029655Y034866D01*
Y034864D01*
X029656Y034862D01*
X029662Y034851D01*
X029668Y034834D01*
X029669Y034812D01*
Y034810D01*
Y034803D01*
X029668Y034794D01*
X029666Y034781D01*
X029662Y034766D01*
X029656Y034749D01*
X029649Y034733D01*
X029640Y034716D01*
X029638Y034714D01*
X029634Y034709D01*
X029629Y034701D01*
X029619Y034690D01*
X029608Y034677D01*
X029595Y034664D01*
X029579Y034651D01*
X029560Y034636D01*
X029558Y034635D01*
X029551Y034631D01*
X029540Y034623D01*
X029525Y034614D01*
X029507Y034603D01*
X029486Y034592D01*
X029460Y034579D01*
X029434Y034566D01*
X029431Y034564D01*
X029421Y034561D01*
X029407Y034555D01*
X029388Y034548D01*
X029364Y034538D01*
X029336Y034527D01*
X029307Y034516D01*
X029273Y034505D01*
X029277D01*
X029284Y034503D01*
X029299Y034501D01*
X029316Y034498D01*
X029334Y034494D01*
X029355Y034490D01*
X029395Y034479D01*
X029397D01*
X029405Y034477D01*
X029414Y034474D01*
X029425Y034470D01*
X029453Y034459D01*
X029481Y034444D01*
X029482D01*
X029486Y034440D01*
X029494Y034437D01*
X029501Y034431D01*
X029518Y034416D01*
X029532Y034398D01*
Y034396D01*
X029534Y034394D01*
X029538Y034388D01*
X029542Y034381D01*
X029547Y034362D01*
X029549Y034340D01*
Y034338D01*
Y034333D01*
X029547Y034324D01*
X029545Y034312D01*
X029544Y034300D01*
X029538Y034285D01*
X029532Y034268D01*
X029523Y034251D01*
X029521Y034250D01*
X029518Y034244D01*
X029512Y034235D01*
X029503Y034224D01*
X029492Y034211D01*
X029477Y034196D01*
X029460Y034179D01*
X029440Y034164D01*
X029436Y034163D01*
X029429Y034157D01*
X029416Y034150D01*
X029397Y034138D01*
X029395D01*
X029394Y034137D01*
X029383Y034129D01*
X029364Y034120D01*
X029344Y034109D01*
X029342D01*
X029338Y034107D01*
X029333Y034103D01*
X029325Y034101D01*
X029305Y034092D01*
X029281Y034083D01*
X029279D01*
X029275Y034081D01*
X029270Y034079D01*
X029260Y034076D01*
X029240Y034068D01*
X029216Y034061D01*
X029214D01*
X029210Y034059D01*
X029203Y034057D01*
X029196Y034055D01*
X029175Y034050D01*
X029151Y034044D01*
X029149D01*
X029146Y034042D01*
X029140D01*
X029133Y034040D01*
X029112Y034039D01*
X029092Y034037D01*
X029077D01*
X029068Y034039D01*
X029066D01*
X029062Y034040D01*
X029049Y034046D01*
X029047Y034048D01*
X029044Y034050D01*
X029033Y034061D01*
X029031Y034063D01*
X029027Y034066D01*
X029023Y034074D01*
X029016Y034083D01*
X029014Y034081D01*
X029007Y034077D01*
X028996Y034072D01*
X028985Y034068D01*
X028983D01*
X028975Y034066D01*
X028964Y034064D01*
X028933D01*
X028927Y034068D01*
X028925Y034070D01*
X028920Y034074D01*
Y034076D01*
X028918Y034077D01*
X028914Y034085D01*
Y034087D01*
Y034089D01*
X028912Y034096D01*
Y034098D01*
Y034101D01*
Y034107D01*
X028914Y034114D01*
X028916Y034135D01*
X028922Y034155D01*
Y034157D01*
X028923Y034161D01*
X028925Y034166D01*
X028927Y034172D01*
X028935Y034190D01*
X028942Y034211D01*
Y034213D01*
X028946Y034220D01*
X028948Y034229D01*
X028953Y034244D01*
X028957Y034259D01*
X028962Y034277D01*
X028975Y034318D01*
Y034320D01*
X028979Y034327D01*
X028983Y034338D01*
X028986Y034353D01*
X028992Y034372D01*
X028998Y034390D01*
X029010Y034433D01*
Y034435D01*
X029014Y034442D01*
X029016Y034453D01*
X029022Y034468D01*
X029025Y034485D01*
X029031Y034503D01*
X029042Y034544D01*
Y034546D01*
X029044Y034553D01*
X029047Y034564D01*
X029051Y034577D01*
X029055Y034594D01*
X029060Y034612D01*
X029070Y034649D01*
X029086Y034720D01*
Y034722D01*
Y034725D01*
X029085Y034729D01*
Y034731D01*
Y034735D01*
X029083Y034747D01*
Y034749D01*
Y034755D01*
Y034768D01*
Y034775D01*
X029085Y034786D01*
X029086Y034792D01*
X029090Y034799D01*
X029092Y034809D01*
X029094Y034810D01*
X029096Y034818D01*
X029099Y034825D01*
X029105Y034834D01*
X029107Y034836D01*
X029110Y034842D01*
X029116Y034849D01*
X029123Y034855D01*
X029125Y034857D01*
X029129Y034860D01*
X029136Y034862D01*
X029144Y034864D01*
X029159D01*
X029170Y034862D01*
X029179D01*
X029190Y034860D01*
X029212D01*
X029214Y034862D01*
X029225Y034864D01*
X029227D01*
X029231Y034866D01*
X029238Y034870D01*
X029247Y034871D01*
X029249Y034873D01*
X029259Y034875D01*
X029270Y034879D01*
X029286Y034884D01*
X029288D01*
X029292Y034886D01*
X029299Y034888D01*
X029307Y034892D01*
X029327Y034897D01*
X029347Y034903D01*
X029349D01*
X029353Y034905D01*
X029358Y034907D01*
X029366Y034908D01*
X029383Y034914D01*
X029403Y034918D01*
X029405D01*
X029407Y034920D01*
X029420Y034921D01*
X029434Y034923D01*
X029453Y034925D01*
X029457D01*
X029468Y034927D01*
X029523D01*
X029542Y034925D01*
D02*
G37*
G36*
X030602Y034664D02*
X030613Y034662D01*
X030638Y034657D01*
X030650Y034649D01*
X030663Y034642D01*
X030665Y034640D01*
X030669Y034638D01*
X030675Y034633D01*
X030684Y034625D01*
X030691Y034616D01*
X030700Y034605D01*
X030710Y034592D01*
X030719Y034577D01*
X030721Y034575D01*
X030723Y034570D01*
X030726Y034561D01*
X030730Y034551D01*
X030732Y034549D01*
X030734Y034544D01*
X030736Y034535D01*
X030739Y034523D01*
X030741Y034522D01*
X030743Y034514D01*
X030745Y034505D01*
X030747Y034494D01*
Y034490D01*
X030749Y034483D01*
Y034472D01*
Y034457D01*
Y034455D01*
Y034449D01*
Y034438D01*
X030747Y034427D01*
X030745Y034412D01*
X030743Y034396D01*
X030734Y034359D01*
Y034357D01*
X030732Y034351D01*
X030728Y034340D01*
X030723Y034329D01*
X030717Y034314D01*
X030710Y034298D01*
X030691Y034262D01*
X030689Y034261D01*
X030686Y034255D01*
X030680Y034246D01*
X030673Y034235D01*
X030662Y034220D01*
X030650Y034205D01*
X030623Y034172D01*
X030621Y034170D01*
X030615Y034164D01*
X030608Y034157D01*
X030597Y034146D01*
X030584Y034135D01*
X030569Y034122D01*
X030536Y034094D01*
X030534Y034092D01*
X030530Y034090D01*
X030523Y034087D01*
X030513Y034081D01*
X030502Y034076D01*
X030491Y034070D01*
X030462Y034059D01*
X030460D01*
X030454Y034057D01*
X030447Y034055D01*
X030436Y034053D01*
X030423Y034050D01*
X030408Y034048D01*
X030375Y034046D01*
X030358D01*
X030347Y034048D01*
X030321Y034051D01*
X030293Y034059D01*
X030291D01*
X030288Y034061D01*
X030282Y034064D01*
X030273Y034068D01*
X030254Y034077D01*
X030236Y034092D01*
Y034094D01*
X030232Y034096D01*
X030228Y034101D01*
X030223Y034109D01*
X030212Y034126D01*
X030203Y034148D01*
Y034150D01*
X030201Y034153D01*
X030199Y034161D01*
X030197Y034168D01*
X030195Y034179D01*
X030193Y034192D01*
X030191Y034220D01*
Y034222D01*
Y034227D01*
Y034235D01*
X030193Y034244D01*
Y034257D01*
X030197Y034270D01*
X030203Y034301D01*
Y034303D01*
X030204Y034309D01*
X030206Y034316D01*
X030210Y034325D01*
X030214Y034337D01*
X030217Y034350D01*
X030230Y034379D01*
Y034381D01*
X030234Y034387D01*
X030238Y034394D01*
X030243Y034405D01*
X030251Y034418D01*
X030260Y034433D01*
X030280Y034462D01*
X030282Y034464D01*
X030286Y034470D01*
X030293Y034477D01*
X030301Y034488D01*
X030312Y034501D01*
X030325Y034516D01*
X030354Y034546D01*
X030356Y034548D01*
X030362Y034553D01*
X030371Y034561D01*
X030384Y034570D01*
X030399Y034583D01*
X030415Y034596D01*
X030454Y034622D01*
X030456Y034623D01*
X030462Y034625D01*
X030469Y034629D01*
X030482Y034633D01*
X030484D01*
X030486Y034635D01*
X030495Y034636D01*
X030508Y034640D01*
X030521Y034642D01*
X030523Y034644D01*
X030525Y034646D01*
X030530Y034649D01*
X030538Y034655D01*
X030547Y034659D01*
X030558Y034662D01*
X030571Y034664D01*
X030586Y034666D01*
X030593D01*
X030602Y034664D01*
D02*
G37*
G36*
X027759D02*
X027770Y034662D01*
X027794Y034657D01*
X027807Y034649D01*
X027820Y034642D01*
X027822Y034640D01*
X027826Y034638D01*
X027831Y034633D01*
X027841Y034625D01*
X027848Y034616D01*
X027857Y034605D01*
X027867Y034592D01*
X027876Y034577D01*
X027878Y034575D01*
X027880Y034570D01*
X027883Y034561D01*
X027887Y034551D01*
X027889Y034549D01*
X027891Y034544D01*
X027892Y034535D01*
X027896Y034523D01*
X027898Y034522D01*
X027900Y034514D01*
X027902Y034505D01*
X027904Y034494D01*
Y034490D01*
X027905Y034483D01*
Y034472D01*
Y034457D01*
Y034455D01*
Y034449D01*
Y034438D01*
X027904Y034427D01*
X027902Y034412D01*
X027900Y034396D01*
X027891Y034359D01*
Y034357D01*
X027889Y034351D01*
X027885Y034340D01*
X027880Y034329D01*
X027874Y034314D01*
X027867Y034298D01*
X027848Y034262D01*
X027846Y034261D01*
X027842Y034255D01*
X027837Y034246D01*
X027830Y034235D01*
X027818Y034220D01*
X027807Y034205D01*
X027780Y034172D01*
X027778Y034170D01*
X027772Y034164D01*
X027765Y034157D01*
X027754Y034146D01*
X027741Y034135D01*
X027726Y034122D01*
X027693Y034094D01*
X027691Y034092D01*
X027687Y034090D01*
X027680Y034087D01*
X027670Y034081D01*
X027659Y034076D01*
X027648Y034070D01*
X027619Y034059D01*
X027617D01*
X027611Y034057D01*
X027604Y034055D01*
X027593Y034053D01*
X027580Y034050D01*
X027565Y034048D01*
X027532Y034046D01*
X027515D01*
X027504Y034048D01*
X027478Y034051D01*
X027450Y034059D01*
X027448D01*
X027445Y034061D01*
X027439Y034064D01*
X027430Y034068D01*
X027411Y034077D01*
X027393Y034092D01*
Y034094D01*
X027389Y034096D01*
X027385Y034101D01*
X027380Y034109D01*
X027369Y034126D01*
X027359Y034148D01*
Y034150D01*
X027358Y034153D01*
X027356Y034161D01*
X027354Y034168D01*
X027352Y034179D01*
X027350Y034192D01*
X027348Y034220D01*
Y034222D01*
Y034227D01*
Y034235D01*
X027350Y034244D01*
Y034257D01*
X027354Y034270D01*
X027359Y034301D01*
Y034303D01*
X027361Y034309D01*
X027363Y034316D01*
X027367Y034325D01*
X027370Y034337D01*
X027374Y034350D01*
X027387Y034379D01*
Y034381D01*
X027391Y034387D01*
X027395Y034394D01*
X027400Y034405D01*
X027408Y034418D01*
X027417Y034433D01*
X027437Y034462D01*
X027439Y034464D01*
X027443Y034470D01*
X027450Y034477D01*
X027457Y034488D01*
X027469Y034501D01*
X027482Y034516D01*
X027511Y034546D01*
X027513Y034548D01*
X027519Y034553D01*
X027528Y034561D01*
X027541Y034570D01*
X027556Y034583D01*
X027572Y034596D01*
X027611Y034622D01*
X027613Y034623D01*
X027619Y034625D01*
X027626Y034629D01*
X027639Y034633D01*
X027641D01*
X027643Y034635D01*
X027652Y034636D01*
X027665Y034640D01*
X027678Y034642D01*
X027680Y034644D01*
X027681Y034646D01*
X027687Y034649D01*
X027694Y034655D01*
X027704Y034659D01*
X027715Y034662D01*
X027728Y034664D01*
X027743Y034666D01*
X027750D01*
X027759Y034664D01*
D02*
G37*
G36*
X026985Y034651D02*
X026993Y034648D01*
X026995Y034646D01*
X026998Y034642D01*
X027004Y034636D01*
X027010Y034629D01*
X027011Y034627D01*
X027013Y034622D01*
X027017Y034614D01*
X027019Y034603D01*
Y034601D01*
X027021Y034594D01*
Y034583D01*
Y034572D01*
Y034570D01*
Y034566D01*
Y034559D01*
X027019Y034551D01*
Y034549D01*
Y034546D01*
Y034536D01*
X027023Y034540D01*
X027030Y034548D01*
X027041Y034561D01*
X027054Y034573D01*
X027056D01*
X027058Y034577D01*
X027067Y034585D01*
X027080Y034596D01*
X027095Y034607D01*
X027097D01*
X027098Y034609D01*
X027109Y034616D01*
X027124Y034623D01*
X027141Y034631D01*
X027143D01*
X027145Y034633D01*
X027156Y034636D01*
X027172Y034638D01*
X027191Y034640D01*
X027196D01*
X027209Y034638D01*
X027211D01*
X027217Y034636D01*
X027224Y034635D01*
X027232Y034633D01*
X027234D01*
X027239Y034631D01*
X027246Y034629D01*
X027256Y034625D01*
X027258Y034623D01*
X027263Y034622D01*
X027272Y034616D01*
X027282Y034610D01*
X027283D01*
X027285Y034609D01*
X027293Y034601D01*
X027304Y034588D01*
X027315Y034573D01*
Y034572D01*
X027317Y034570D01*
X027322Y034559D01*
X027326Y034544D01*
X027328Y034527D01*
Y034525D01*
Y034522D01*
X027326Y034514D01*
X027324Y034507D01*
Y034505D01*
X027322Y034499D01*
X027321Y034494D01*
X027315Y034486D01*
X027313Y034485D01*
X027311Y034483D01*
X027300Y034474D01*
X027298D01*
X027295Y034472D01*
X027289Y034470D01*
X027282Y034468D01*
X027274D01*
X027267Y034470D01*
X027256Y034472D01*
X027254Y034474D01*
X027246Y034475D01*
X027239Y034481D01*
X027232Y034486D01*
X027230Y034488D01*
X027222Y034496D01*
Y034498D01*
X027221Y034499D01*
X027215Y034509D01*
Y034511D01*
X027213Y034512D01*
X027208Y034522D01*
Y034523D01*
X027206Y034525D01*
X027202Y034529D01*
X027200Y034531D01*
X027178D01*
X027171Y034529D01*
X027150Y034523D01*
X027130Y034514D01*
X027128D01*
X027124Y034512D01*
X027121Y034509D01*
X027113Y034505D01*
X027097Y034492D01*
X027078Y034477D01*
X027076Y034475D01*
X027074Y034474D01*
X027063Y034462D01*
X027048Y034448D01*
X027034Y034429D01*
Y034427D01*
X027030Y034425D01*
X027023Y034414D01*
X027010Y034399D01*
X026998Y034383D01*
Y034381D01*
X026997Y034374D01*
X026993Y034364D01*
X026991Y034351D01*
X026985Y034335D01*
X026982Y034318D01*
X026971Y034277D01*
Y034275D01*
X026969Y034268D01*
X026965Y034257D01*
X026961Y034242D01*
X026958Y034225D01*
X026952Y034205D01*
X026941Y034163D01*
Y034146D01*
Y034142D01*
Y034135D01*
Y034124D01*
X026939Y034109D01*
Y034105D01*
Y034098D01*
X026937Y034087D01*
X026934Y034076D01*
X026932D01*
X026928Y034072D01*
X026923Y034068D01*
X026913Y034064D01*
X026911Y034063D01*
X026906Y034061D01*
X026897Y034059D01*
X026886Y034057D01*
X026882D01*
X026871Y034059D01*
X026858Y034063D01*
X026847Y034072D01*
X026845Y034076D01*
X026841Y034083D01*
X026837Y034096D01*
X026836Y034111D01*
Y034113D01*
Y034116D01*
Y034124D01*
X026837Y034131D01*
Y034133D01*
X026839Y034138D01*
X026841Y034148D01*
X026843Y034159D01*
X026845Y034172D01*
X026848Y034188D01*
X026856Y034224D01*
Y034225D01*
X026858Y034233D01*
X026860Y034242D01*
X026863Y034257D01*
X026865Y034272D01*
X026869Y034288D01*
X026876Y034327D01*
Y034329D01*
X026878Y034337D01*
X026880Y034346D01*
X026884Y034359D01*
X026886Y034375D01*
X026889Y034392D01*
X026897Y034429D01*
Y034431D01*
X026898Y034438D01*
X026900Y034448D01*
X026904Y034461D01*
X026906Y034475D01*
X026910Y034490D01*
X026915Y034522D01*
Y034523D01*
Y034525D01*
Y034531D01*
Y034533D01*
Y034535D01*
Y034542D01*
Y034546D01*
Y034553D01*
Y034566D01*
X026917Y034579D01*
Y034581D01*
Y034583D01*
X026919Y034592D01*
X026923Y034603D01*
X026924Y034614D01*
Y034616D01*
X026926Y034618D01*
X026930Y034627D01*
X026934Y034638D01*
X026939Y034646D01*
X026941Y034648D01*
X026945Y034651D01*
X026954Y034653D01*
X026965Y034655D01*
X026976D01*
X026985Y034651D01*
D02*
G37*
G36*
X028846Y034664D02*
X028857Y034660D01*
X028870Y034651D01*
X028872Y034649D01*
X028877Y034642D01*
X028883Y034631D01*
X028885Y034616D01*
Y034614D01*
Y034610D01*
X028883Y034605D01*
X028881Y034598D01*
Y034596D01*
X028879Y034590D01*
X028877Y034583D01*
X028874Y034575D01*
X028670Y034216D01*
X028653Y034187D01*
X028651Y034183D01*
X028648Y034176D01*
X028642Y034163D01*
X028635Y034150D01*
X028633Y034148D01*
X028629Y034140D01*
X028622Y034129D01*
X028614Y034118D01*
X028613Y034116D01*
X028607Y034111D01*
X028600Y034103D01*
X028588Y034098D01*
X028587Y034096D01*
X028579Y034094D01*
X028570Y034092D01*
X028559Y034090D01*
X028555D01*
X028544Y034092D01*
X028531Y034096D01*
X028516Y034103D01*
X028513Y034105D01*
X028505Y034113D01*
X028496Y034122D01*
X028485Y034135D01*
Y034137D01*
X028483Y034138D01*
X028477Y034148D01*
X028470Y034161D01*
X028463Y034177D01*
Y034179D01*
X028461Y034181D01*
X028457Y034192D01*
X028453Y034205D01*
X028450Y034220D01*
X028427Y034316D01*
X028426Y034314D01*
X028422Y034311D01*
X028414Y034303D01*
X028413Y034301D01*
X028407Y034294D01*
X028398Y034283D01*
X028387Y034270D01*
X028383Y034266D01*
X028376Y034257D01*
X028364Y034244D01*
X028350Y034227D01*
Y034225D01*
X028346Y034224D01*
X028339Y034213D01*
X028326Y034198D01*
X028313Y034181D01*
Y034179D01*
X028309Y034177D01*
X028302Y034168D01*
X028290Y034155D01*
X028279Y034140D01*
X028277Y034138D01*
X028270Y034131D01*
X028263Y034124D01*
X028255Y034116D01*
X028253Y034114D01*
X028250Y034113D01*
X028244Y034107D01*
X028237Y034101D01*
X028235Y034100D01*
X028231Y034098D01*
X028218Y034089D01*
X028216D01*
X028213Y034085D01*
X028202Y034079D01*
X028200D01*
X028198Y034077D01*
X028189Y034076D01*
X028181D01*
X028174Y034077D01*
X028165D01*
X028144Y034083D01*
X028122Y034094D01*
X028120D01*
X028118Y034098D01*
X028107Y034107D01*
X028092Y034122D01*
X028079Y034142D01*
Y034144D01*
X028078Y034148D01*
X028074Y034153D01*
X028072Y034163D01*
X028065Y034185D01*
X028059Y034211D01*
Y034213D01*
Y034216D01*
X028057Y034224D01*
Y034235D01*
X028055Y034259D01*
X028054Y034287D01*
Y034288D01*
Y034292D01*
Y034300D01*
Y034307D01*
Y034329D01*
X028055Y034353D01*
Y034355D01*
Y034359D01*
X028057Y034366D01*
Y034374D01*
X028061Y034396D01*
X028063Y034420D01*
Y034422D01*
X028065Y034425D01*
Y034433D01*
X028066Y034440D01*
X028070Y034461D01*
X028074Y034483D01*
Y034485D01*
X028076Y034488D01*
Y034494D01*
X028078Y034501D01*
X028079Y034522D01*
X028083Y034542D01*
Y034544D01*
Y034551D01*
Y034553D01*
Y034557D01*
Y034566D01*
Y034581D01*
Y034583D01*
Y034588D01*
Y034599D01*
Y034601D01*
X028085Y034603D01*
X028087Y034610D01*
Y034612D01*
X028089Y034614D01*
X028092Y034623D01*
X028100Y034635D01*
X028109Y034642D01*
X028111Y034644D01*
X028118Y034648D01*
X028129Y034649D01*
X028142Y034651D01*
X028153D01*
X028163Y034649D01*
X028172Y034646D01*
X028174Y034644D01*
X028179Y034642D01*
X028187Y034636D01*
X028192Y034631D01*
X028194Y034629D01*
X028196Y034625D01*
X028200Y034618D01*
X028202Y034609D01*
Y034607D01*
X028203Y034601D01*
X028205Y034594D01*
Y034583D01*
Y034581D01*
Y034575D01*
Y034573D01*
Y034566D01*
Y034564D01*
X028203Y034562D01*
Y034555D01*
X028202Y034546D01*
Y034544D01*
X028200Y034536D01*
X028198Y034525D01*
X028196Y034512D01*
Y034509D01*
X028194Y034501D01*
X028192Y034488D01*
X028189Y034472D01*
Y034468D01*
X028187Y034459D01*
X028185Y034446D01*
X028181Y034431D01*
Y034427D01*
X028179Y034420D01*
X028178Y034409D01*
X028174Y034398D01*
Y034396D01*
Y034390D01*
X028172Y034383D01*
Y034377D01*
Y034375D01*
X028170Y034374D01*
Y034368D01*
X028168Y034361D01*
Y034359D01*
X028166Y034353D01*
Y034346D01*
X028165Y034335D01*
Y034333D01*
X028163Y034325D01*
Y034314D01*
X028161Y034301D01*
Y034298D01*
Y034290D01*
Y034281D01*
Y034268D01*
Y034266D01*
Y034259D01*
Y034248D01*
Y034237D01*
Y034235D01*
X028163Y034227D01*
X028165Y034220D01*
X028166Y034211D01*
Y034209D01*
X028168Y034205D01*
X028174Y034192D01*
X028176D01*
X028178Y034190D01*
X028181Y034188D01*
X028187Y034187D01*
X028189D01*
X028190Y034188D01*
X028196Y034190D01*
X028203Y034194D01*
X028205Y034196D01*
X028211Y034200D01*
X028218Y034207D01*
X028226Y034216D01*
X028228Y034218D01*
X028233Y034224D01*
X028240Y034233D01*
X028250Y034242D01*
X028252Y034244D01*
X028257Y034250D01*
X028268Y034264D01*
X028270Y034266D01*
X028276Y034274D01*
X028283Y034283D01*
X028292Y034294D01*
X028303Y034309D01*
X028314Y034325D01*
X028340Y034362D01*
X028342Y034364D01*
X028346Y034372D01*
X028353Y034381D01*
X028361Y034394D01*
X028370Y034409D01*
X028381Y034427D01*
X028401Y034464D01*
Y034466D01*
X028403Y034468D01*
X028407Y034477D01*
X028413Y034490D01*
X028418Y034505D01*
Y034507D01*
X028420Y034509D01*
X028422Y034518D01*
X028426Y034529D01*
X028431Y034542D01*
X028433Y034546D01*
X028437Y034551D01*
X028444Y034561D01*
X028453Y034568D01*
X028457Y034570D01*
X028464Y034573D01*
X028479Y034577D01*
X028498Y034579D01*
X028500D01*
X028507Y034577D01*
X028516Y034575D01*
X028527Y034568D01*
X028529Y034566D01*
X028537Y034561D01*
X028544Y034553D01*
X028550Y034540D01*
Y034538D01*
Y034536D01*
X028548Y034525D01*
X028546Y034511D01*
X028544Y034494D01*
Y034492D01*
Y034490D01*
X028542Y034479D01*
X028540Y034464D01*
X028537Y034446D01*
Y034444D01*
Y034442D01*
X028535Y034431D01*
X028533Y034414D01*
X028531Y034396D01*
Y034394D01*
Y034392D01*
Y034381D01*
X028529Y034366D01*
Y034350D01*
Y034348D01*
Y034344D01*
Y034337D01*
X028531Y034327D01*
X028533Y034307D01*
X028537Y034283D01*
Y034281D01*
X028538Y034277D01*
X028540Y034272D01*
X028542Y034266D01*
X028551Y034248D01*
X028564Y034231D01*
X028566Y034233D01*
X028568Y034237D01*
X028574Y034242D01*
X028579Y034251D01*
X028594Y034272D01*
X028611Y034298D01*
X028613Y034300D01*
X028614Y034305D01*
X028620Y034312D01*
X028625Y034322D01*
X028633Y034335D01*
X028640Y034348D01*
X028657Y034377D01*
X028659Y034379D01*
X028661Y034385D01*
X028664Y034392D01*
X028670Y034403D01*
X028677Y034414D01*
X028685Y034429D01*
X028700Y034459D01*
X028701Y034461D01*
X028703Y034466D01*
X028707Y034474D01*
X028712Y034485D01*
X028724Y034509D01*
X028737Y034538D01*
X028738Y034540D01*
Y034542D01*
Y034544D01*
Y034549D01*
Y034555D01*
Y034559D01*
X028740Y034566D01*
X028744Y034579D01*
X028749Y034594D01*
Y034596D01*
X028751Y034598D01*
X028757Y034607D01*
X028764Y034618D01*
X028774Y034629D01*
X028775Y034633D01*
X028783Y034638D01*
X028792Y034648D01*
X028803Y034655D01*
X028807Y034657D01*
X028812Y034660D01*
X028822Y034664D01*
X028831Y034666D01*
X028835D01*
X028846Y034664D01*
D02*
G37*
G36*
X031841Y034720D02*
X031439D01*
Y034840D01*
Y034875D01*
Y034902D01*
Y034924D01*
Y034940D01*
Y034949D01*
Y034955D01*
Y034960D01*
Y035200D01*
X031841D01*
Y034720D01*
D02*
G37*
G36*
X032935Y036002D02*
X032952Y035993D01*
X032983Y035971D01*
X032999Y035962D01*
X033010Y035953D01*
X033017Y035946D01*
X033019Y035944D01*
X033039Y035926D01*
X033057Y035906D01*
X033072Y035889D01*
X033086Y035873D01*
X033097Y035860D01*
X033103Y035849D01*
X033108Y035842D01*
X033110Y035840D01*
X033114Y035826D01*
X033119Y035818D01*
X033121Y035811D01*
X033123Y035809D01*
X033128Y035800D01*
X033130Y035795D01*
Y035791D01*
X033128Y035780D01*
X033123Y035771D01*
X033119Y035766D01*
X033117Y035764D01*
X033108Y035760D01*
X033101Y035755D01*
X033094Y035753D01*
X033092D01*
X033081Y035755D01*
X033072Y035760D01*
X033066Y035762D01*
X033063Y035764D01*
X033052Y035775D01*
X033043Y035789D01*
X033037Y035802D01*
X033034Y035804D01*
Y035806D01*
X033021Y035831D01*
X033006Y035851D01*
X032992Y035864D01*
X032990Y035866D01*
X032988Y035869D01*
X032963Y035889D01*
X032941Y035904D01*
X032932Y035911D01*
X032926Y035915D01*
X032921Y035920D01*
X032919D01*
X032908Y035926D01*
X032899Y035933D01*
X032895Y035935D01*
X032892Y035938D01*
X032886Y035944D01*
X032881Y035949D01*
X032877Y035951D01*
X032875Y035960D01*
Y035969D01*
X032879Y035984D01*
X032886Y035993D01*
X032888Y035995D01*
X032895Y036002D01*
X032899Y036004D01*
X032901Y036006D01*
X032903D01*
X032912Y036009D01*
X032917D01*
X032935Y036002D01*
D02*
G37*
G36*
X032455Y035798D02*
X032506D01*
X032495Y035764D01*
X032492Y035753D01*
X032490Y035742D01*
X032488Y035733D01*
Y035731D01*
X032486Y035715D01*
X032483Y035698D01*
Y035684D01*
Y035680D01*
Y035678D01*
Y035655D01*
X032486Y035638D01*
X032488Y035629D01*
Y035624D01*
X032490Y035611D01*
X032492Y035602D01*
X032495Y035593D01*
Y035591D01*
X032506Y035560D01*
X032161Y035558D01*
Y035620D01*
Y035638D01*
Y035651D01*
Y035660D01*
Y035669D01*
Y035673D01*
Y035675D01*
Y035678D01*
Y035800D01*
X032455Y035798D01*
D02*
G37*
G36*
X032990Y036395D02*
X033006Y036393D01*
X033019Y036391D01*
X033021Y036389D01*
X033023D01*
X033066Y036375D01*
X033106Y036358D01*
X033141Y036340D01*
X033174Y036322D01*
X033201Y036306D01*
X033223Y036293D01*
X033237Y036284D01*
X033239Y036280D01*
X033241D01*
X033279Y036251D01*
X033312Y036220D01*
X033341Y036191D01*
X033368Y036164D01*
X033388Y036140D01*
X033401Y036122D01*
X033412Y036109D01*
X033414Y036106D01*
Y036104D01*
X033439Y036062D01*
X033450Y036042D01*
X033461Y036024D01*
X033470Y036006D01*
X033477Y035993D01*
X033479Y035984D01*
X033481Y035982D01*
X033490Y035958D01*
X033499Y035935D01*
X033506Y035918D01*
X033510Y035900D01*
X033512Y035886D01*
X033514Y035878D01*
X033517Y035871D01*
Y035869D01*
Y035855D01*
X033514Y035844D01*
X033512Y035838D01*
X033510Y035835D01*
X033501Y035829D01*
X033492Y035824D01*
X033483Y035822D01*
X033481D01*
X033470Y035824D01*
X033459Y035829D01*
X033454Y035833D01*
X033452Y035835D01*
X033448Y035842D01*
X033443Y035849D01*
X033437Y035866D01*
X033432Y035882D01*
X033430Y035886D01*
Y035889D01*
X033410Y035944D01*
X033386Y035993D01*
X033359Y036038D01*
X033332Y036075D01*
X033310Y036106D01*
X033290Y036129D01*
X033283Y036138D01*
X033277Y036144D01*
X033274Y036146D01*
X033272Y036149D01*
X033228Y036186D01*
X033183Y036220D01*
X033139Y036246D01*
X033099Y036269D01*
X033061Y036286D01*
X033046Y036293D01*
X033034Y036298D01*
X033023Y036302D01*
X033015Y036304D01*
X033010Y036306D01*
X033008D01*
X032994Y036313D01*
X032983Y036318D01*
X032977Y036322D01*
X032975D01*
X032963Y036326D01*
X032957Y036331D01*
X032952Y036333D01*
X032948Y036342D01*
X032946Y036351D01*
Y036358D01*
Y036360D01*
X032948Y036371D01*
X032950Y036380D01*
X032954Y036384D01*
X032957Y036386D01*
X032963Y036393D01*
X032970Y036395D01*
X032977Y036398D01*
X032979D01*
X032990Y036395D01*
D02*
G37*
G36*
X032959Y036200D02*
X032975Y036198D01*
X032988Y036193D01*
X032990Y036191D01*
X032992D01*
X033030Y036175D01*
X033066Y036155D01*
X033097Y036135D01*
X033126Y036115D01*
X033148Y036098D01*
X033163Y036084D01*
X033174Y036075D01*
X033179Y036071D01*
X033208Y036040D01*
X033232Y036009D01*
X033254Y035980D01*
X033272Y035951D01*
X033286Y035926D01*
X033297Y035906D01*
X033303Y035893D01*
X033306Y035891D01*
Y035889D01*
X033310Y035875D01*
X033314Y035862D01*
X033317Y035853D01*
X033319Y035851D01*
X033323Y035840D01*
X033326Y035833D01*
Y035829D01*
Y035826D01*
X033321Y035811D01*
X033314Y035802D01*
X033308Y035795D01*
X033306Y035793D01*
X033292Y035789D01*
X033277D01*
X033268Y035791D01*
X033263Y035793D01*
X033257Y035802D01*
X033250Y035813D01*
X033248Y035822D01*
X033246Y035826D01*
X033228Y035866D01*
X033210Y035900D01*
X033192Y035931D01*
X033174Y035955D01*
X033159Y035978D01*
X033146Y035991D01*
X033137Y036002D01*
X033134Y036004D01*
X033106Y036029D01*
X033077Y036053D01*
X033046Y036073D01*
X033017Y036089D01*
X032992Y036102D01*
X032972Y036111D01*
X032959Y036118D01*
X032957Y036120D01*
X032954D01*
X032946Y036124D01*
X032937Y036126D01*
X032932Y036131D01*
X032930D01*
X032923Y036138D01*
X032919Y036140D01*
X032917Y036142D01*
X032912Y036151D01*
X032910Y036160D01*
X032912Y036175D01*
X032917Y036186D01*
X032919Y036189D01*
Y036191D01*
X032928Y036198D01*
X032937Y036200D01*
X032943Y036202D01*
X032946D01*
X032959Y036200D01*
D02*
G37*
G36*
X032790Y035875D02*
X032810Y035871D01*
X032826Y035866D01*
X032841Y035860D01*
X032852Y035855D01*
X032861Y035849D01*
X032868Y035846D01*
X032870Y035844D01*
X032899Y035820D01*
X032921Y035793D01*
X032928Y035782D01*
X032935Y035773D01*
X032937Y035766D01*
X032939Y035764D01*
X032948Y035749D01*
X032952Y035735D01*
X032954Y035726D01*
Y035724D01*
X032957Y035711D01*
Y035695D01*
Y035682D01*
Y035680D01*
Y035678D01*
Y035658D01*
X032954Y035642D01*
Y035633D01*
Y035631D01*
X032950Y035620D01*
X032946Y035607D01*
X032941Y035598D01*
X032939Y035595D01*
Y035593D01*
X032926Y035569D01*
X032912Y035551D01*
X032903Y035540D01*
X032899Y035535D01*
X032879Y035520D01*
X032861Y035509D01*
X032846Y035500D01*
X032843Y035498D01*
X032841D01*
X032826Y035491D01*
X032815Y035487D01*
X032808Y035484D01*
X032806D01*
X032792Y035482D01*
X032741D01*
X032726Y035484D01*
X032715D01*
X032703Y035487D01*
X032690Y035491D01*
X032681Y035495D01*
X032679Y035498D01*
X032655Y035511D01*
X032637Y035522D01*
X032626Y035531D01*
X032621Y035535D01*
X032606Y035553D01*
X032592Y035573D01*
X032583Y035587D01*
X032581Y035591D01*
Y035593D01*
X032572Y035609D01*
X032568Y035622D01*
X032566Y035629D01*
Y035631D01*
X032563Y035644D01*
X032561Y035660D01*
Y035673D01*
Y035675D01*
Y035678D01*
Y035698D01*
X032563Y035711D01*
X032566Y035720D01*
Y035722D01*
X032568Y035735D01*
X032572Y035746D01*
X032577Y035755D01*
X032579Y035760D01*
X032583Y035771D01*
X032590Y035780D01*
X032595Y035786D01*
X032597Y035789D01*
X032603Y035800D01*
X032608Y035809D01*
X032612Y035813D01*
X032615Y035815D01*
X032630Y035829D01*
X032643Y035840D01*
X032657Y035846D01*
X032659Y035849D01*
X032661D01*
X032681Y035860D01*
X032697Y035869D01*
X032710Y035873D01*
X032712Y035875D01*
X032739D01*
X032750Y035878D01*
X032770D01*
X032790Y035875D01*
D02*
G37*
G36*
X032081Y035891D02*
Y035682D01*
Y035644D01*
Y035611D01*
Y035584D01*
Y035558D01*
Y035538D01*
X032079Y035520D01*
Y035504D01*
Y035491D01*
Y035482D01*
Y035475D01*
X032077Y035464D01*
Y035460D01*
X032070Y035453D01*
X032061Y035449D01*
X032055Y035444D01*
X032052D01*
X032043Y035442D01*
X032032D01*
X032010Y035440D01*
X031919D01*
Y035375D01*
Y035358D01*
Y035344D01*
X031917Y035333D01*
Y035322D01*
Y035315D01*
X031915Y035311D01*
Y035307D01*
X031910Y035295D01*
X031904Y035289D01*
X031899Y035284D01*
X031888D01*
X031875Y035282D01*
X031799D01*
X031755Y035280D01*
X031486D01*
X031466Y035282D01*
X031408D01*
X031392Y035284D01*
X031384D01*
X031375Y035289D01*
X031370Y035298D01*
X031366Y035304D01*
Y035307D01*
X031364Y035315D01*
Y035327D01*
X031361Y035349D01*
Y035360D01*
Y035367D01*
Y035373D01*
Y035375D01*
Y035440D01*
X031257D01*
X031248Y035442D01*
X031235D01*
X031221Y035447D01*
X031215Y035451D01*
X031210Y035455D01*
X031208Y035458D01*
X031206Y035460D01*
Y035467D01*
X031204Y035478D01*
Y035491D01*
Y035493D01*
Y035495D01*
Y035511D01*
X031201Y035527D01*
Y035564D01*
Y035580D01*
Y035593D01*
Y035602D01*
Y035604D01*
Y035635D01*
Y035660D01*
Y035682D01*
Y035698D01*
X031204Y035709D01*
Y035718D01*
Y035722D01*
Y035724D01*
X031206Y035746D01*
X031208Y035762D01*
X031210Y035771D01*
Y035773D01*
X031226Y035809D01*
X031244Y035838D01*
X031266Y035862D01*
X031290Y035880D01*
X031310Y035893D01*
X031328Y035902D01*
X031341Y035906D01*
X031344Y035909D01*
X031346D01*
X031352Y035911D01*
X031364D01*
X031375Y035913D01*
X031388D01*
X031401Y035915D01*
X031437D01*
X031455Y035918D01*
X031497D01*
X031546Y035920D01*
X032055D01*
X032081Y035891D01*
D02*
G37*
G36*
X032881Y035240D02*
X033019D01*
X033108Y035149D01*
X033139Y035118D01*
X033161Y035093D01*
X033179Y035075D01*
X033190Y035062D01*
X033197Y035055D01*
X033199Y035049D01*
X033201Y035047D01*
X033199Y035033D01*
X033192Y035020D01*
X033186Y035011D01*
X033183Y035009D01*
Y035007D01*
X033174Y034998D01*
X033161Y034984D01*
X033134Y034958D01*
X033121Y034944D01*
X033110Y034933D01*
X033103Y034927D01*
X033101Y034924D01*
X033081Y034904D01*
X033066Y034889D01*
X033054Y034878D01*
X033043Y034869D01*
X033037Y034862D01*
X033032Y034858D01*
X033028Y034853D01*
X033015Y034844D01*
X033006Y034840D01*
X032999D01*
X032988Y034842D01*
X032979Y034847D01*
X032975Y034849D01*
X032972Y034851D01*
X032963Y034860D01*
X032961Y034869D01*
X032959Y034878D01*
Y034880D01*
X032961Y034887D01*
X032966Y034895D01*
X032970Y034902D01*
X032972Y034904D01*
X032979Y034913D01*
X032988Y034922D01*
X033006Y034944D01*
X033015Y034953D01*
X033023Y034962D01*
X033028Y034967D01*
X033030Y034969D01*
X033103Y035038D01*
X032983Y035158D01*
X032539D01*
X032419Y035038D01*
X032490Y034969D01*
X032506Y034953D01*
X032517Y034940D01*
X032528Y034929D01*
X032535Y034920D01*
X032546Y034909D01*
X032548Y034904D01*
X032555Y034893D01*
X032559Y034887D01*
Y034882D01*
Y034880D01*
X032557Y034869D01*
X032552Y034860D01*
X032550Y034853D01*
X032548Y034851D01*
X032539Y034844D01*
X032530Y034842D01*
X032521Y034840D01*
X032519D01*
X032510Y034842D01*
X032501Y034847D01*
X032495Y034851D01*
X032492Y034853D01*
X032483Y034860D01*
X032472Y034871D01*
X032448Y034895D01*
X032437Y034907D01*
X032428Y034915D01*
X032421Y034922D01*
X032419Y034924D01*
X032399Y034944D01*
X032381Y034962D01*
X032368Y034978D01*
X032357Y034989D01*
X032348Y034995D01*
X032343Y035002D01*
X032339Y035007D01*
X032328Y035022D01*
X032323Y035035D01*
X032321Y035044D01*
Y035047D01*
Y035049D01*
X032323Y035053D01*
X032335Y035067D01*
X032350Y035082D01*
X032366Y035102D01*
X032383Y035120D01*
X032397Y035133D01*
X032408Y035144D01*
X032412Y035149D01*
X032503Y035240D01*
X032641D01*
Y035284D01*
Y035298D01*
Y035309D01*
Y035318D01*
Y035324D01*
Y035329D01*
Y035331D01*
Y035424D01*
X032675Y035413D01*
X032686Y035409D01*
X032697Y035407D01*
X032706Y035404D01*
X032708D01*
X032723Y035402D01*
X032783D01*
X032799Y035404D01*
X032812D01*
X032826Y035407D01*
X032837Y035409D01*
X032846Y035413D01*
X032848D01*
X032877Y035424D01*
X032881Y035240D01*
D02*
G37*
G36*
X032875Y034907D02*
X032877D01*
X032881Y034904D01*
X032886Y034900D01*
X032888Y034898D01*
X032890Y034895D01*
X032895Y034884D01*
Y034880D01*
Y034878D01*
Y034869D01*
X032892Y034858D01*
Y034849D01*
Y034847D01*
Y034844D01*
X032890Y034831D01*
X032888Y034820D01*
X032886Y034811D01*
Y034809D01*
X032881Y034800D01*
X032879Y034791D01*
X032875Y034789D01*
Y034787D01*
X032868Y034775D01*
X032857Y034767D01*
X032835Y034753D01*
X032826Y034751D01*
X032817Y034749D01*
X032810Y034747D01*
X032808D01*
X032795Y034744D01*
X032788Y034742D01*
X032783Y034740D01*
Y034738D01*
Y034731D01*
Y034724D01*
X032786Y034715D01*
Y034713D01*
X032790Y034680D01*
X032803Y034562D01*
X033061Y034555D01*
X033074Y034540D01*
X033081Y034533D01*
X033086Y034527D01*
X033088Y034520D01*
Y034518D01*
Y034513D01*
X033090Y034504D01*
Y034489D01*
Y034473D01*
Y034469D01*
Y034467D01*
Y034449D01*
X033088Y034433D01*
X033086Y034422D01*
Y034413D01*
X033083Y034409D01*
X033081Y034404D01*
Y034402D01*
X033072Y034393D01*
X033063Y034387D01*
X033048Y034380D01*
X033032Y034376D01*
X033006D01*
X032975Y034169D01*
X032970Y034147D01*
X032966Y034129D01*
X032961Y034113D01*
X032959Y034104D01*
Y034098D01*
X032957Y034091D01*
Y034089D01*
Y034087D01*
X032959Y034084D01*
X032966Y034082D01*
X032972D01*
X032988Y034080D01*
X033497D01*
X033508Y034067D01*
X033514Y034058D01*
X033517Y034047D01*
Y034038D01*
Y034031D01*
X033510Y034018D01*
X033508Y034016D01*
Y034013D01*
X033497Y034002D01*
X031146D01*
X031132Y034013D01*
X031126Y034024D01*
X031124Y034033D01*
Y034042D01*
Y034051D01*
X031130Y034062D01*
X031132Y034064D01*
Y034067D01*
X031146Y034080D01*
X032486D01*
X032503Y034082D01*
X032528D01*
X032539Y034084D01*
X032546D01*
X032555Y034087D01*
X032559Y034089D01*
X032557Y034091D01*
X032555Y034098D01*
Y034107D01*
X032552Y034118D01*
X032550Y034131D01*
X032548Y034144D01*
X032546Y034153D01*
X032543Y034162D01*
Y034164D01*
X032508Y034376D01*
X032492D01*
X032479Y034378D01*
X032468Y034380D01*
X032459Y034382D01*
X032457Y034384D01*
X032446Y034391D01*
X032439Y034398D01*
X032435Y034402D01*
X032432Y034404D01*
X032430Y034411D01*
X032428Y034418D01*
Y034424D01*
Y034427D01*
X032426Y034440D01*
Y034456D01*
Y034467D01*
Y034469D01*
Y034471D01*
Y034527D01*
X032459Y034558D01*
X032743D01*
Y034595D01*
Y034607D01*
Y034615D01*
X032741Y034622D01*
Y034627D01*
X032739Y034631D01*
X032732D01*
X032726Y034629D01*
X032717Y034627D01*
X032715D01*
X032699Y034622D01*
X032686Y034620D01*
X032661D01*
X032655Y034622D01*
X032648D01*
X032646Y034624D01*
X032643D01*
X032632Y034631D01*
X032623Y034638D01*
X032608Y034655D01*
X032601Y034664D01*
X032597Y034673D01*
X032592Y034678D01*
Y034680D01*
X032583Y034693D01*
X032579Y034702D01*
X032572Y034718D01*
X032570Y034727D01*
Y034729D01*
X032572Y034735D01*
X032577Y034740D01*
X032588Y034749D01*
X032599Y034755D01*
X032601Y034758D01*
X032603D01*
X032617Y034762D01*
X032626Y034764D01*
X032632Y034767D01*
X032635D01*
X032643Y034769D01*
X032655Y034771D01*
X032695D01*
X032703Y034769D01*
X032710D01*
X032712Y034767D01*
X032715D01*
Y034769D01*
Y034773D01*
X032710Y034784D01*
X032703Y034798D01*
X032701Y034800D01*
Y034802D01*
X032688Y034824D01*
X032677Y034842D01*
X032670Y034851D01*
X032668Y034853D01*
X032659Y034862D01*
X032657Y034871D01*
X032655Y034878D01*
Y034880D01*
Y034891D01*
X032659Y034898D01*
X032663Y034900D01*
X032666Y034902D01*
X032675Y034907D01*
X032681D01*
X032688Y034904D01*
X032690D01*
X032695Y034900D01*
X032701Y034895D01*
X032715Y034882D01*
X032726Y034869D01*
X032728Y034867D01*
X032730Y034864D01*
X032735Y034858D01*
X032739D01*
X032741Y034860D01*
X032743Y034867D01*
X032748Y034875D01*
X032755Y034882D01*
X032757Y034884D01*
X032770Y034893D01*
X032783Y034898D01*
X032815Y034907D01*
X032830D01*
X032841Y034909D01*
X032870D01*
X032875Y034907D01*
D02*
G37*
%LPC*%
G36*
X027755Y034559D02*
Y034557D01*
X027752Y034555D01*
X027744Y034544D01*
X027743D01*
X027741Y034540D01*
X027735Y034536D01*
X027728Y034533D01*
X027726D01*
X027720Y034529D01*
X027711Y034527D01*
X027698Y034523D01*
X027694D01*
X027685Y034522D01*
X027670Y034520D01*
X027650Y034516D01*
X027646Y034514D01*
X027637Y034511D01*
X027624Y034503D01*
X027609Y034494D01*
X027606Y034492D01*
X027596Y034485D01*
X027583Y034475D01*
X027569Y034462D01*
X027565Y034459D01*
X027557Y034451D01*
X027544Y034438D01*
X027532Y034422D01*
Y034420D01*
X027528Y034418D01*
X027520Y034409D01*
X027509Y034394D01*
X027498Y034377D01*
Y034375D01*
X027496Y034374D01*
X027491Y034364D01*
X027483Y034350D01*
X027474Y034333D01*
Y034331D01*
X027472Y034329D01*
X027469Y034320D01*
X027463Y034307D01*
X027459Y034294D01*
Y034292D01*
X027457Y034285D01*
X027456Y034275D01*
X027454Y034266D01*
Y034264D01*
Y034259D01*
Y034251D01*
Y034242D01*
Y034238D01*
Y034231D01*
X027456Y034218D01*
X027457Y034205D01*
X027459Y034203D01*
X027461Y034196D01*
X027467Y034185D01*
X027474Y034176D01*
X027476Y034174D01*
X027483Y034170D01*
X027493Y034163D01*
X027504Y034157D01*
X027507Y034155D01*
X027515Y034153D01*
X027530Y034151D01*
X027546Y034150D01*
X027554D01*
X027563Y034151D01*
X027574Y034153D01*
X027602Y034159D01*
X027617Y034164D01*
X027631Y034172D01*
X027633Y034174D01*
X027639Y034176D01*
X027646Y034181D01*
X027656Y034188D01*
X027678Y034207D01*
X027702Y034231D01*
X027704Y034233D01*
X027707Y034237D01*
X027713Y034244D01*
X027720Y034253D01*
X027728Y034264D01*
X027737Y034277D01*
X027754Y034307D01*
X027755Y034309D01*
X027757Y034314D01*
X027761Y034322D01*
X027765Y034331D01*
X027774Y034355D01*
X027783Y034381D01*
Y034383D01*
X027785Y034385D01*
X027787Y034394D01*
X027789Y034407D01*
X027793Y034420D01*
Y034422D01*
Y034424D01*
X027794Y034433D01*
X027796Y034444D01*
Y034455D01*
Y034459D01*
Y034464D01*
X027794Y034475D01*
X027791Y034485D01*
X027789Y034486D01*
X027787Y034494D01*
X027781Y034503D01*
X027776Y034516D01*
Y034518D01*
X027772Y034522D01*
X027768Y034529D01*
X027765Y034536D01*
Y034538D01*
X027761Y034544D01*
X027759Y034551D01*
X027755Y034559D01*
D02*
G37*
G36*
X029477Y034820D02*
X029442D01*
X029421Y034816D01*
X029394Y034812D01*
X029392D01*
X029388Y034810D01*
X029381Y034809D01*
X029371Y034807D01*
X029347Y034801D01*
X029320Y034794D01*
X029318D01*
X029314Y034792D01*
X029307Y034790D01*
X029299Y034786D01*
X029279Y034779D01*
X029257Y034768D01*
X029255D01*
X029253Y034766D01*
X029242Y034760D01*
X029229Y034751D01*
X029220Y034742D01*
X029218Y034738D01*
X029216Y034735D01*
X029214Y034727D01*
Y034725D01*
X029212Y034722D01*
X029210Y034714D01*
X029207Y034705D01*
Y034703D01*
X029205Y034697D01*
X029201Y034690D01*
X029197Y034681D01*
Y034679D01*
X029196Y034675D01*
X029194Y034670D01*
X029190Y034664D01*
Y034662D01*
X029188Y034660D01*
X029186Y034655D01*
X029184Y034646D01*
Y034644D01*
X029183Y034638D01*
X029179Y034629D01*
X029175Y034616D01*
Y034612D01*
X029172Y034605D01*
X029168Y034594D01*
X029164Y034579D01*
Y034575D01*
X029160Y034566D01*
X029157Y034553D01*
X029151Y034536D01*
X029153D01*
X029157Y034538D01*
X029164Y034540D01*
X029173Y034544D01*
X029196Y034551D01*
X029221Y034562D01*
X029223D01*
X029229Y034564D01*
X029236Y034568D01*
X029246Y034572D01*
X029271Y034583D01*
X029299Y034594D01*
X029301D01*
X029307Y034598D01*
X029314Y034601D01*
X029325Y034605D01*
X029336Y034610D01*
X029351Y034618D01*
X029381Y034631D01*
X029383Y034633D01*
X029388Y034635D01*
X029395Y034638D01*
X029407Y034644D01*
X029418Y034649D01*
X029432Y034657D01*
X029462Y034672D01*
X029460D01*
X029462Y034673D01*
X029470Y034677D01*
X029479Y034683D01*
X029490Y034690D01*
X029492Y034692D01*
X029499Y034697D01*
X029507Y034705D01*
X029516Y034714D01*
X029518Y034716D01*
X029521Y034723D01*
X029527Y034731D01*
X029532Y034742D01*
X029534Y034744D01*
X029536Y034751D01*
X029538Y034760D01*
X029540Y034770D01*
Y034772D01*
Y034775D01*
X029536Y034788D01*
Y034790D01*
X029532Y034794D01*
X029529Y034799D01*
X029523Y034805D01*
X029521Y034807D01*
X029518Y034809D01*
X029508Y034812D01*
X029499Y034816D01*
X029497D01*
X029490Y034818D01*
X029477Y034820D01*
D02*
G37*
G36*
X030599Y034559D02*
Y034557D01*
X030595Y034555D01*
X030588Y034544D01*
X030586D01*
X030584Y034540D01*
X030578Y034536D01*
X030571Y034533D01*
X030569D01*
X030563Y034529D01*
X030554Y034527D01*
X030541Y034523D01*
X030538D01*
X030528Y034522D01*
X030513Y034520D01*
X030493Y034516D01*
X030489Y034514D01*
X030480Y034511D01*
X030467Y034503D01*
X030452Y034494D01*
X030449Y034492D01*
X030439Y034485D01*
X030426Y034475D01*
X030412Y034462D01*
X030408Y034459D01*
X030401Y034451D01*
X030388Y034438D01*
X030375Y034422D01*
Y034420D01*
X030371Y034418D01*
X030364Y034409D01*
X030352Y034394D01*
X030341Y034377D01*
Y034375D01*
X030339Y034374D01*
X030334Y034364D01*
X030327Y034350D01*
X030317Y034333D01*
Y034331D01*
X030315Y034329D01*
X030312Y034320D01*
X030306Y034307D01*
X030302Y034294D01*
Y034292D01*
X030301Y034285D01*
X030299Y034275D01*
X030297Y034266D01*
Y034264D01*
Y034259D01*
Y034251D01*
Y034242D01*
Y034238D01*
Y034231D01*
X030299Y034218D01*
X030301Y034205D01*
X030302Y034203D01*
X030304Y034196D01*
X030310Y034185D01*
X030317Y034176D01*
X030319Y034174D01*
X030327Y034170D01*
X030336Y034163D01*
X030347Y034157D01*
X030351Y034155D01*
X030358Y034153D01*
X030373Y034151D01*
X030389Y034150D01*
X030397D01*
X030406Y034151D01*
X030417Y034153D01*
X030445Y034159D01*
X030460Y034164D01*
X030475Y034172D01*
X030476Y034174D01*
X030482Y034176D01*
X030489Y034181D01*
X030499Y034188D01*
X030521Y034207D01*
X030545Y034231D01*
X030547Y034233D01*
X030550Y034237D01*
X030556Y034244D01*
X030563Y034253D01*
X030571Y034264D01*
X030580Y034277D01*
X030597Y034307D01*
X030599Y034309D01*
X030600Y034314D01*
X030604Y034322D01*
X030608Y034331D01*
X030617Y034355D01*
X030626Y034381D01*
Y034383D01*
X030628Y034385D01*
X030630Y034394D01*
X030632Y034407D01*
X030636Y034420D01*
Y034422D01*
Y034424D01*
X030638Y034433D01*
X030639Y034444D01*
Y034455D01*
Y034459D01*
Y034464D01*
X030638Y034475D01*
X030634Y034485D01*
X030632Y034486D01*
X030630Y034494D01*
X030625Y034503D01*
X030619Y034516D01*
Y034518D01*
X030615Y034522D01*
X030612Y034529D01*
X030608Y034536D01*
Y034538D01*
X030604Y034544D01*
X030602Y034551D01*
X030599Y034559D01*
D02*
G37*
G36*
X029122Y034437D02*
X029120Y034433D01*
X029118Y034424D01*
X029112Y034409D01*
X029107Y034390D01*
X029101Y034370D01*
X029094Y034346D01*
X029081Y034294D01*
Y034290D01*
X029077Y034283D01*
X029075Y034268D01*
X029070Y034251D01*
X029064Y034231D01*
X029059Y034207D01*
X029046Y034157D01*
X029086Y034151D01*
X029101D01*
X029110Y034150D01*
X029127D01*
X029138Y034151D01*
X029155Y034155D01*
X029175Y034159D01*
X029177D01*
X029181Y034161D01*
X029186Y034163D01*
X029194Y034164D01*
X029214Y034170D01*
X029236Y034176D01*
X029238D01*
X029242Y034177D01*
X029247Y034179D01*
X029257Y034183D01*
X029277Y034190D01*
X029299Y034200D01*
X029301D01*
X029305Y034201D01*
X029312Y034205D01*
X029320Y034209D01*
X029340Y034220D01*
X029362Y034231D01*
X029364Y034233D01*
X029370Y034237D01*
X029377Y034242D01*
X029386Y034248D01*
X029388Y034250D01*
X029394Y034255D01*
X029401Y034262D01*
X029410Y034272D01*
X029412Y034274D01*
X029416Y034279D01*
X029421Y034288D01*
X029427Y034298D01*
X029429Y034300D01*
X029431Y034307D01*
X029432Y034316D01*
X029434Y034327D01*
Y034329D01*
Y034331D01*
X029431Y034342D01*
X029423Y034355D01*
X029418Y034362D01*
X029408Y034368D01*
X029407D01*
X029405Y034372D01*
X029397Y034374D01*
X029390Y034379D01*
X029381Y034383D01*
X029370Y034388D01*
X029342Y034396D01*
X029340D01*
X029336Y034398D01*
X029331D01*
X029320Y034399D01*
X029318D01*
X029310Y034401D01*
X029297Y034405D01*
X029283Y034407D01*
X029279D01*
X029268Y034409D01*
X029253Y034412D01*
X029236Y034414D01*
X029233D01*
X029221Y034416D01*
X029207Y034420D01*
X029188Y034422D01*
X029186D01*
X029184Y034424D01*
X029175Y034425D01*
X029162Y034427D01*
X029147Y034429D01*
X029144D01*
X029138Y034431D01*
X029129Y034435D01*
X029122Y034437D01*
D02*
G37*
%LPD*%
D10*
X034150Y043100D02*
X034250Y043000D01*
X034150Y042100D02*
X034250Y042200D01*
Y043000D01*
X032350Y043100D02*
X033150D01*
X032350Y042100D02*
X033150D01*
X033350D02*
X034150D01*
X033350Y043100D02*
X034150D01*
X033250Y043000D02*
X033350Y043100D01*
X033150D02*
X033250Y043000D01*
Y042200D02*
X033350Y042100D01*
X033150D02*
X033250Y042200D01*
X032250D02*
X032350Y042100D01*
X032250Y043000D02*
X032350Y043100D01*
X031250Y043000D02*
X031350Y043100D01*
X031250Y042200D02*
X031350Y042100D01*
X032150D02*
X032250Y042200D01*
X032150Y043100D02*
X032250Y043000D01*
X031350Y042100D02*
X032150D01*
X031350Y043100D02*
X032150D01*
X030250Y043000D02*
X030350Y043100D01*
X030250Y042200D02*
X030350Y042100D01*
X031150D02*
X031250Y042200D01*
X031150Y043100D02*
X031250Y043000D01*
X030350Y042100D02*
X031150D01*
X030350Y043100D02*
X031150D01*
X029250Y043000D02*
X029350Y043100D01*
X029250Y042200D02*
X029350Y042100D01*
X030150D02*
X030250Y042200D01*
X030150Y043100D02*
X030250Y043000D01*
X029350Y042100D02*
X030150D01*
X029350Y043100D02*
X030150D01*
X029150Y042100D02*
X029250Y042200D01*
X029150Y043100D02*
X029250Y043000D01*
X028350Y043100D02*
X029150D01*
X028350Y042100D02*
X029150D01*
X028250Y042200D02*
Y043000D01*
Y042200D02*
X028350Y042100D01*
X028250Y043000D02*
X028350Y043100D01*
D35*
X015392Y031500D02*
G03*
X015392Y031500I-000662J000000D01*
G01*
Y042500D02*
G03*
X015392Y042500I-000662J000000D01*
G01*
X036302Y042550D02*
G03*
X036302Y042550I-000662J000000D01*
G01*
Y031450D02*
G03*
X036302Y031450I-000662J000000D01*
G01*
X016540Y040410D02*
Y041410D01*
X018540D01*
Y040410D02*
Y041410D01*
X016540Y040410D02*
X018540D01*
X031152Y036337D02*
X031110Y036295D01*
Y036212D01*
X031152Y036170D01*
X031318D01*
X031360Y036212D01*
Y036295D01*
X031318Y036337D01*
X031360Y036420D02*
Y036503D01*
Y036462D01*
X031110D01*
X031152Y036420D01*
X027987Y035848D02*
X027945Y035890D01*
X027862D01*
X027820Y035848D01*
Y035682D01*
X027862Y035640D01*
X027945D01*
X027987Y035682D01*
X028237Y035640D02*
X028070D01*
X028237Y035807D01*
Y035848D01*
X028195Y035890D01*
X028112D01*
X028070Y035848D01*
X030077Y035788D02*
X030035Y035830D01*
X029952D01*
X029910Y035788D01*
Y035622D01*
X029952Y035580D01*
X030035D01*
X030077Y035622D01*
X030160Y035788D02*
X030202Y035830D01*
X030285D01*
X030327Y035788D01*
Y035747D01*
X030285Y035705D01*
X030243D01*
X030285D01*
X030327Y035663D01*
Y035622D01*
X030285Y035580D01*
X030202D01*
X030160Y035622D01*
X032272Y037067D02*
X032230Y037025D01*
Y036942D01*
X032272Y036900D01*
X032438D01*
X032480Y036942D01*
Y037025D01*
X032438Y037067D01*
X032230Y037317D02*
Y037150D01*
X032355D01*
X032313Y037233D01*
Y037275D01*
X032355Y037317D01*
X032438D01*
X032480Y037275D01*
Y037192D01*
X032438Y037150D01*
X020197Y039038D02*
X020155Y039080D01*
X020072D01*
X020030Y039038D01*
Y038872D01*
X020072Y038830D01*
X020155D01*
X020197Y038872D01*
X020447Y039080D02*
X020363Y039038D01*
X020280Y038955D01*
Y038872D01*
X020322Y038830D01*
X020405D01*
X020447Y038872D01*
Y038913D01*
X020405Y038955D01*
X020280D01*
X020927Y035628D02*
X020885Y035670D01*
X020802D01*
X020760Y035628D01*
Y035462D01*
X020802Y035420D01*
X020885D01*
X020927Y035462D01*
X021010Y035670D02*
X021177D01*
Y035628D01*
X021010Y035462D01*
Y035420D01*
X023593Y039237D02*
X023560Y039270D01*
X023493D01*
X023460Y039237D01*
Y039103D01*
X023493Y039070D01*
X023560D01*
X023593Y039103D01*
X023660Y039070D02*
X023727D01*
X023693D01*
Y039270D01*
X023660Y039237D01*
X023827Y039070D02*
X023893D01*
X023860D01*
Y039270D01*
X023827Y039237D01*
X015537Y039748D02*
X015495Y039790D01*
X015412D01*
X015370Y039748D01*
Y039582D01*
X015412Y039540D01*
X015495D01*
X015537Y039582D01*
X015620Y039540D02*
X015703D01*
X015662D01*
Y039790D01*
X015620Y039748D01*
X015995Y039540D02*
X015828D01*
X015995Y039707D01*
Y039748D01*
X015953Y039790D01*
X015870D01*
X015828Y039748D01*
X014200Y033400D02*
X014250Y033450D01*
X014350D01*
X014400Y033400D01*
Y033350D01*
X014350Y033300D01*
X014300D01*
X014350D01*
X014400Y033250D01*
Y033200D01*
X014350Y033150D01*
X014250D01*
X014200Y033200D01*
X014500Y033450D02*
Y033250D01*
X014600Y033150D01*
X014700Y033250D01*
Y033450D01*
X014800Y033400D02*
X014850Y033450D01*
X014950D01*
X015000Y033400D01*
Y033350D01*
X014950Y033300D01*
X014900D01*
X014950D01*
X015000Y033250D01*
Y033200D01*
X014950Y033150D01*
X014850D01*
X014800Y033200D01*
X015100Y033100D02*
X015300D01*
X015400Y033150D02*
Y033450D01*
X015550D01*
X015600Y033400D01*
Y033300D01*
X015550Y033250D01*
X015400D01*
X015700Y033450D02*
Y033150D01*
X015799Y033250D01*
X015899Y033150D01*
Y033450D01*
X015999Y033150D02*
Y033450D01*
X016149D01*
X016199Y033400D01*
Y033300D01*
X016149Y033250D01*
X015999D01*
X016099D02*
X016199Y033150D01*
X014400Y035140D02*
X014200D01*
Y034990D01*
X014300Y035040D01*
X014350D01*
X014400Y034990D01*
Y034890D01*
X014350Y034840D01*
X014250D01*
X014200Y034890D01*
X014500Y035140D02*
Y034940D01*
X014600Y034840D01*
X014700Y034940D01*
Y035140D01*
X014800Y034790D02*
X015000D01*
X015100Y034840D02*
Y035140D01*
X015250D01*
X015300Y035090D01*
Y034990D01*
X015250Y034940D01*
X015100D01*
X015400Y035140D02*
Y034840D01*
X015500Y034940D01*
X015600Y034840D01*
Y035140D01*
X015700Y034840D02*
Y035140D01*
X015849D01*
X015899Y035090D01*
Y034990D01*
X015849Y034940D01*
X015700D01*
X015799D02*
X015899Y034840D01*
X032200Y041870D02*
Y041620D01*
X032250Y041570D01*
X032350D01*
X032400Y041620D01*
Y041870D01*
X032500Y041570D02*
Y041770D01*
X032600Y041870D01*
X032700Y041770D01*
Y041570D01*
Y041720D01*
X032500D01*
X032800Y041570D02*
Y041870D01*
X032950D01*
X033000Y041820D01*
Y041720D01*
X032950Y041670D01*
X032800D01*
X032900D02*
X033000Y041570D01*
X033100Y041870D02*
X033300D01*
X033200D01*
Y041570D01*
X015480Y040460D02*
Y040760D01*
X015630D01*
X015680Y040710D01*
Y040610D01*
X015630Y040560D01*
X015480D01*
X015580D02*
X015680Y040460D01*
X015980Y040710D02*
X015930Y040760D01*
X015830D01*
X015780Y040710D01*
Y040660D01*
X015830Y040610D01*
X015930D01*
X015980Y040560D01*
Y040510D01*
X015930Y040460D01*
X015830D01*
X015780Y040510D01*
X016080Y040760D02*
X016280D01*
X016180D01*
Y040460D01*
X016580Y043240D02*
Y042940D01*
X016730D01*
X016780Y042990D01*
Y043040D01*
X016730Y043090D01*
X016580D01*
X016730D01*
X016780Y043140D01*
Y043190D01*
X016730Y043240D01*
X016580D01*
X017030D02*
X016930D01*
X016880Y043190D01*
Y042990D01*
X016930Y042940D01*
X017030D01*
X017080Y042990D01*
Y043190D01*
X017030Y043240D01*
X017330D02*
X017230D01*
X017180Y043190D01*
Y042990D01*
X017230Y042940D01*
X017330D01*
X017380Y042990D01*
Y043190D01*
X017330Y043240D01*
X017480D02*
X017680D01*
X017580D01*
Y042940D01*
X017780Y042890D02*
X017980D01*
X018080Y042940D02*
Y043240D01*
X018179Y043140D01*
X018279Y043240D01*
Y042940D01*
X018529Y043240D02*
X018429D01*
X018379Y043190D01*
Y042990D01*
X018429Y042940D01*
X018529D01*
X018579Y042990D01*
Y043190D01*
X018529Y043240D01*
X018679D02*
Y042940D01*
X018829D01*
X018879Y042990D01*
Y043190D01*
X018829Y043240D01*
X018679D01*
X019179D02*
X018979D01*
Y042940D01*
X019179D01*
X018979Y043090D02*
X019079D01*
X020050Y041120D02*
X020350D01*
Y041270D01*
X020300Y041320D01*
X020100D01*
X020050Y041270D01*
Y041120D01*
Y041420D02*
X020350D01*
X020200D01*
Y041620D01*
X020050D01*
X020350D01*
X020050Y041720D02*
Y041920D01*
Y041820D01*
X020350D01*
Y042020D02*
Y042120D01*
Y042070D01*
X020050D01*
X020100Y042020D01*
X022030Y041070D02*
X022330D01*
Y041220D01*
X022280Y041270D01*
X022080D01*
X022030Y041220D01*
Y041070D01*
Y041370D02*
X022330D01*
X022180D01*
Y041570D01*
X022030D01*
X022330D01*
X022030Y041670D02*
Y041870D01*
Y041770D01*
X022330D01*
Y042170D02*
Y041970D01*
X022130Y042170D01*
X022080D01*
X022030Y042120D01*
Y042020D01*
X022080Y041970D01*
X024010Y041070D02*
X024310D01*
Y041220D01*
X024260Y041270D01*
X024060D01*
X024010Y041220D01*
Y041070D01*
Y041370D02*
X024310D01*
X024160D01*
Y041570D01*
X024010D01*
X024310D01*
X024010Y041670D02*
Y041870D01*
Y041770D01*
X024310D01*
X024060Y041970D02*
X024010Y042020D01*
Y042120D01*
X024060Y042170D01*
X024110D01*
X024160Y042120D01*
Y042070D01*
Y042120D01*
X024210Y042170D01*
X024260D01*
X024310Y042120D01*
Y042020D01*
X024260Y041970D01*
X026010Y041070D02*
X026310D01*
Y041220D01*
X026260Y041270D01*
X026060D01*
X026010Y041220D01*
Y041070D01*
Y041370D02*
X026310D01*
X026160D01*
Y041570D01*
X026010D01*
X026310D01*
X026010Y041670D02*
Y041870D01*
Y041770D01*
X026310D01*
Y042120D02*
X026010D01*
X026160Y041970D01*
Y042170D01*
X019320Y031630D02*
X019120D01*
X019020Y031730D01*
X019120Y031830D01*
X019320D01*
X019170D01*
Y031630D01*
X019020Y031930D02*
X019320D01*
Y032080D01*
X019270Y032130D01*
X019070D01*
X019020Y032080D01*
Y031930D01*
X019070Y032430D02*
X019020Y032380D01*
Y032280D01*
X019070Y032230D01*
X019270D01*
X019320Y032280D01*
Y032380D01*
X019270Y032430D01*
X019370Y032530D02*
Y032730D01*
X019070Y032830D02*
X019020Y032880D01*
Y032980D01*
X019070Y033030D01*
X019270D01*
X019320Y032980D01*
Y032880D01*
X019270Y032830D01*
X019070D01*
X021320Y031670D02*
X021120D01*
X021020Y031770D01*
X021120Y031870D01*
X021320D01*
X021170D01*
Y031670D01*
X021020Y031970D02*
X021320D01*
Y032120D01*
X021270Y032170D01*
X021070D01*
X021020Y032120D01*
Y031970D01*
X021070Y032470D02*
X021020Y032420D01*
Y032320D01*
X021070Y032270D01*
X021270D01*
X021320Y032320D01*
Y032420D01*
X021270Y032470D01*
X021370Y032570D02*
Y032770D01*
X021320Y032870D02*
Y032970D01*
Y032920D01*
X021020D01*
X021070Y032870D01*
X023330Y031630D02*
X023130D01*
X023030Y031730D01*
X023130Y031830D01*
X023330D01*
X023180D01*
Y031630D01*
X023030Y031930D02*
X023330D01*
Y032080D01*
X023280Y032130D01*
X023080D01*
X023030Y032080D01*
Y031930D01*
X023080Y032430D02*
X023030Y032380D01*
Y032280D01*
X023080Y032230D01*
X023280D01*
X023330Y032280D01*
Y032380D01*
X023280Y032430D01*
X023380Y032530D02*
Y032730D01*
X023330Y033030D02*
Y032830D01*
X023130Y033030D01*
X023080D01*
X023030Y032980D01*
Y032880D01*
X023080Y032830D01*
X025370Y031630D02*
X025170D01*
X025070Y031730D01*
X025170Y031830D01*
X025370D01*
X025220D01*
Y031630D01*
X025070Y031930D02*
X025370D01*
Y032080D01*
X025320Y032130D01*
X025120D01*
X025070Y032080D01*
Y031930D01*
X025120Y032430D02*
X025070Y032380D01*
Y032280D01*
X025120Y032230D01*
X025320D01*
X025370Y032280D01*
Y032380D01*
X025320Y032430D01*
X025420Y032530D02*
Y032730D01*
X025120Y032830D02*
X025070Y032880D01*
Y032980D01*
X025120Y033030D01*
X025170D01*
X025220Y032980D01*
Y032930D01*
Y032980D01*
X025270Y033030D01*
X025320D01*
X025370Y032980D01*
Y032880D01*
X025320Y032830D01*
X027340Y031630D02*
X027140D01*
X027040Y031730D01*
X027140Y031830D01*
X027340D01*
X027190D01*
Y031630D01*
X027040Y031930D02*
X027340D01*
Y032080D01*
X027290Y032130D01*
X027090D01*
X027040Y032080D01*
Y031930D01*
X027090Y032430D02*
X027040Y032380D01*
Y032280D01*
X027090Y032230D01*
X027290D01*
X027340Y032280D01*
Y032380D01*
X027290Y032430D01*
X027390Y032530D02*
Y032730D01*
X027340Y032980D02*
X027040D01*
X027190Y032830D01*
Y033030D01*
X029360Y031630D02*
X029160D01*
X029060Y031730D01*
X029160Y031830D01*
X029360D01*
X029210D01*
Y031630D01*
X029060Y031930D02*
X029360D01*
Y032080D01*
X029310Y032130D01*
X029110D01*
X029060Y032080D01*
Y031930D01*
X029110Y032430D02*
X029060Y032380D01*
Y032280D01*
X029110Y032230D01*
X029310D01*
X029360Y032280D01*
Y032380D01*
X029310Y032430D01*
X029410Y032530D02*
Y032730D01*
X029060Y033030D02*
Y032830D01*
X029210D01*
X029160Y032930D01*
Y032980D01*
X029210Y033030D01*
X029310D01*
X029360Y032980D01*
Y032880D01*
X029310Y032830D01*
X031320Y031630D02*
X031120D01*
X031020Y031730D01*
X031120Y031830D01*
X031320D01*
X031170D01*
Y031630D01*
X031020Y031930D02*
X031320D01*
Y032080D01*
X031270Y032130D01*
X031070D01*
X031020Y032080D01*
Y031930D01*
X031070Y032430D02*
X031020Y032380D01*
Y032280D01*
X031070Y032230D01*
X031270D01*
X031320Y032280D01*
Y032380D01*
X031270Y032430D01*
X031370Y032530D02*
Y032730D01*
X031020Y033030D02*
X031070Y032930D01*
X031170Y032830D01*
X031270D01*
X031320Y032880D01*
Y032980D01*
X031270Y033030D01*
X031220D01*
X031170Y032980D01*
Y032830D01*
X033340Y031630D02*
X033140D01*
X033040Y031730D01*
X033140Y031830D01*
X033340D01*
X033190D01*
Y031630D01*
X033040Y031930D02*
X033340D01*
Y032080D01*
X033290Y032130D01*
X033090D01*
X033040Y032080D01*
Y031930D01*
X033090Y032430D02*
X033040Y032380D01*
Y032280D01*
X033090Y032230D01*
X033290D01*
X033340Y032280D01*
Y032380D01*
X033290Y032430D01*
X033390Y032530D02*
Y032730D01*
X033040Y032830D02*
Y033030D01*
X033090D01*
X033290Y032830D01*
X033340D01*
X027400Y036500D02*
Y036750D01*
X027525D01*
X027567Y036708D01*
Y036625D01*
X027525Y036583D01*
X027400D01*
X027483D02*
X027567Y036500D01*
X027650D02*
X027733D01*
X027692D01*
Y036750D01*
X027650Y036708D01*
X016730Y032680D02*
Y032930D01*
X016855D01*
X016897Y032888D01*
Y032805D01*
X016855Y032763D01*
X016730D01*
X016813D02*
X016897Y032680D01*
X017147D02*
X016980D01*
X017147Y032847D01*
Y032888D01*
X017105Y032930D01*
X017022D01*
X016980Y032888D01*
X016730Y034400D02*
Y034650D01*
X016855D01*
X016897Y034608D01*
Y034525D01*
X016855Y034483D01*
X016730D01*
X016813D02*
X016897Y034400D01*
X016980Y034608D02*
X017022Y034650D01*
X017105D01*
X017147Y034608D01*
Y034567D01*
X017105Y034525D01*
X017063D01*
X017105D01*
X017147Y034483D01*
Y034442D01*
X017105Y034400D01*
X017022D01*
X016980Y034442D01*
X024400Y039020D02*
Y039220D01*
X024500D01*
X024533Y039187D01*
Y039120D01*
X024500Y039087D01*
X024400D01*
X024467D02*
X024533Y039020D01*
X024700D02*
Y039220D01*
X024600Y039120D01*
X024733D01*
X030780Y040930D02*
Y041180D01*
X030905D01*
X030947Y041138D01*
Y041055D01*
X030905Y041013D01*
X030780D01*
X030863D02*
X030947Y040930D01*
X031197Y041180D02*
X031030D01*
Y041055D01*
X031113Y041097D01*
X031155D01*
X031197Y041055D01*
Y040972D01*
X031155Y040930D01*
X031072D01*
X031030Y040972D01*
X018750Y039710D02*
Y039960D01*
X018875D01*
X018917Y039918D01*
Y039835D01*
X018875Y039793D01*
X018750D01*
X018833D02*
X018917Y039710D01*
X019167Y039960D02*
X019083Y039918D01*
X019000Y039835D01*
Y039752D01*
X019042Y039710D01*
X019125D01*
X019167Y039752D01*
Y039793D01*
X019125Y039835D01*
X019000D01*
X030780Y040420D02*
Y040670D01*
X030905D01*
X030947Y040628D01*
Y040545D01*
X030905Y040503D01*
X030780D01*
X030863D02*
X030947Y040420D01*
X031030Y040670D02*
X031197D01*
Y040628D01*
X031030Y040462D01*
Y040420D01*
X028480Y041430D02*
Y041680D01*
X028605D01*
X028647Y041638D01*
Y041555D01*
X028605Y041513D01*
X028480D01*
X028563D02*
X028647Y041430D01*
X028730Y041638D02*
X028772Y041680D01*
X028855D01*
X028897Y041638D01*
Y041597D01*
X028855Y041555D01*
X028897Y041513D01*
Y041472D01*
X028855Y041430D01*
X028772D01*
X028730Y041472D01*
Y041513D01*
X028772Y041555D01*
X028730Y041597D01*
Y041638D01*
X028772Y041555D02*
X028855D01*
X015850Y042490D02*
Y042740D01*
X015975D01*
X016017Y042698D01*
Y042615D01*
X015975Y042573D01*
X015850D01*
X015933D02*
X016017Y042490D01*
X016100Y042532D02*
X016142Y042490D01*
X016225D01*
X016267Y042532D01*
Y042698D01*
X016225Y042740D01*
X016142D01*
X016100Y042698D01*
Y042657D01*
X016142Y042615D01*
X016267D01*
X018750Y040200D02*
Y040450D01*
X018875D01*
X018917Y040408D01*
Y040325D01*
X018875Y040283D01*
X018750D01*
X018833D02*
X018917Y040200D01*
X019000D02*
X019083D01*
X019042D01*
Y040450D01*
X019000Y040408D01*
X019208D02*
X019250Y040450D01*
X019333D01*
X019375Y040408D01*
Y040242D01*
X019333Y040200D01*
X019250D01*
X019208Y040242D01*
Y040408D01*
X026150Y036790D02*
X025900D01*
Y036915D01*
X025942Y036957D01*
X026025D01*
X026067Y036915D01*
Y036790D01*
Y036873D02*
X026150Y036957D01*
Y037040D02*
Y037123D01*
Y037082D01*
X025900D01*
X025942Y037040D01*
X026150Y037248D02*
Y037331D01*
Y037290D01*
X025900D01*
X025942Y037248D01*
X026700Y036750D02*
X026450D01*
Y036875D01*
X026492Y036917D01*
X026575D01*
X026617Y036875D01*
Y036750D01*
Y036833D02*
X026700Y036917D01*
Y037000D02*
Y037083D01*
Y037042D01*
X026450D01*
X026492Y037000D01*
X026700Y037375D02*
Y037208D01*
X026533Y037375D01*
X026492D01*
X026450Y037333D01*
Y037250D01*
X026492Y037208D01*
X025390Y035000D02*
X025140D01*
Y035125D01*
X025182Y035167D01*
X025265D01*
X025307Y035125D01*
Y035000D01*
Y035083D02*
X025390Y035167D01*
Y035250D02*
Y035333D01*
Y035292D01*
X025140D01*
X025182Y035250D01*
Y035458D02*
X025140Y035500D01*
Y035583D01*
X025182Y035625D01*
X025223D01*
X025265Y035583D01*
Y035541D01*
Y035583D01*
X025307Y035625D01*
X025348D01*
X025390Y035583D01*
Y035500D01*
X025348Y035458D01*
X022650Y037000D02*
Y036792D01*
X022692Y036750D01*
X022775D01*
X022817Y036792D01*
Y037000D01*
X023067Y036750D02*
X022900D01*
X023067Y036917D01*
Y036958D01*
X023025Y037000D01*
X022942D01*
X022900Y036958D01*
X021410Y037180D02*
Y036972D01*
X021452Y036930D01*
X021535D01*
X021577Y036972D01*
Y037180D01*
X021660Y037138D02*
X021702Y037180D01*
X021785D01*
X021827Y037138D01*
Y037097D01*
X021785Y037055D01*
X021743D01*
X021785D01*
X021827Y037013D01*
Y036972D01*
X021785Y036930D01*
X021702D01*
X021660Y036972D01*
X022172Y037357D02*
X022130Y037315D01*
Y037232D01*
X022172Y037190D01*
X022213D01*
X022255Y037232D01*
Y037315D01*
X022297Y037357D01*
X022338D01*
X022380Y037315D01*
Y037232D01*
X022338Y037190D01*
X022380Y037440D02*
Y037523D01*
Y037482D01*
X022130D01*
X022172Y037440D01*
X028910Y035840D02*
X029077Y035590D01*
Y035840D02*
X028910Y035590D01*
X029160D02*
X029243D01*
X029202D01*
Y035840D01*
X029160Y035798D01*
D37*
X019950Y038620D02*
X021250D01*
X019950Y037920D02*
Y038620D01*
Y037920D02*
X021250D01*
Y038620D01*
X031160Y039630D02*
Y039830D01*
X031660Y039630D02*
Y039830D01*
X031760Y039080D02*
Y040380D01*
Y039080D02*
X032460D01*
Y040380D01*
X031760D02*
X032460D01*
D60*
X023753Y034940D02*
G03*
X023753Y034940I-000118J000000D01*
G01*
D61*
X024471Y034359D02*
G03*
X024471Y034359I-000049J000000D01*
G01*
X030699Y037560D02*
G03*
X030699Y037560I-000049J000000D01*
G01*
X021358Y037542D02*
G03*
X021358Y037542I-000049J000000D01*
G01*
D62*
X013935Y039342D02*
X019565D01*
Y035798D02*
Y039342D01*
X019014Y035798D02*
X019565D01*
X013935D02*
X017518D01*
X013935D02*
Y039342D01*
X015901Y032554D02*
X015979D01*
X015901Y033046D02*
X015979D01*
X015951Y034254D02*
X016029D01*
X015951Y034746D02*
X016029D01*
X022572Y036554D02*
X024028D01*
X022572Y034546D02*
X024028D01*
X022572D02*
Y036554D01*
X024028Y034546D02*
Y036554D01*
X021210Y036913D02*
Y037227D01*
X019990Y036913D02*
Y037227D01*
X021210D01*
X019990Y036913D02*
X021210D01*
D63*
X020550Y040100D02*
X021650D01*
X022533D02*
X023633D01*
X024517D02*
X025617D01*
X026500D02*
X027600D01*
X031720Y033900D02*
X032820D01*
X029720D02*
X030820D01*
X027720D02*
X028820D01*
X025720D02*
X026820D01*
X023720D02*
X024820D01*
X021720D02*
X022820D01*
X019720D02*
X020820D01*
X017720D02*
X018820D01*
X016510Y041590D02*
Y042690D01*
D64*
X021650Y040100D02*
Y043200D01*
X020550D02*
X021650D01*
X020550Y040100D02*
Y043200D01*
X023633Y040100D02*
Y043200D01*
X022533D02*
X023633D01*
X022533Y040100D02*
Y043200D01*
X025617Y040100D02*
Y043200D01*
X024517D02*
X025617D01*
X024517Y040100D02*
Y043200D01*
X027600Y040100D02*
Y043200D01*
X026500D02*
X027600D01*
X026500Y040100D02*
Y043200D01*
X031720Y030800D02*
Y033900D01*
Y030800D02*
X032820D01*
Y033900D01*
X029720Y030800D02*
Y033900D01*
Y030800D02*
X030820D01*
Y033900D01*
X027720Y030800D02*
Y033900D01*
Y030800D02*
X028820D01*
Y033900D01*
X025720Y030800D02*
Y033900D01*
Y030800D02*
X026820D01*
Y033900D01*
X023720Y030800D02*
Y033900D01*
Y030800D02*
X024820D01*
Y033900D01*
X021720Y030800D02*
Y033900D01*
Y030800D02*
X022820D01*
Y033900D01*
X019720Y030800D02*
Y033900D01*
Y030800D02*
X020820D01*
Y033900D01*
X017720Y030800D02*
Y033900D01*
Y030800D02*
X018820D01*
Y033900D01*
X016510Y041590D02*
X019610D01*
Y042690D01*
X016510D02*
X019610D01*
X023394Y037509D02*
Y038691D01*
X022606Y037509D02*
Y038691D01*
D65*
X028940Y036043D02*
X029176D01*
X028940Y037067D02*
X029176D01*
M02*
