G04 Layer_Physical_Order=3*
G04 Layer_Color=56745*
%FSAX24Y24*%
%MOIN*%
G70*
G01*
G75*
%ADD48R,0.0900X0.0800*%
%ADD49C,0.0600*%
%ADD55C,0.0200*%
%ADD56C,0.0500*%
%ADD57C,0.0300*%
G36*
X037990Y042300D02*
Y041700D01*
X034840D01*
Y041359D01*
X034814Y041345D01*
X034790Y041339D01*
X034742Y041371D01*
X034680Y041383D01*
X034618Y041371D01*
X034565Y041335D01*
X034529Y041282D01*
X034517Y041220D01*
X034529Y041158D01*
X034565Y041105D01*
X034579Y041095D01*
Y041045D01*
X034565Y041035D01*
X034529Y040982D01*
X034517Y040920D01*
X034529Y040858D01*
X034565Y040805D01*
X034579Y040795D01*
Y040745D01*
X034565Y040735D01*
X034529Y040682D01*
X034517Y040620D01*
X034529Y040558D01*
X034565Y040505D01*
X034579Y040495D01*
Y040445D01*
X034565Y040435D01*
X034529Y040382D01*
X034517Y040320D01*
X034529Y040258D01*
X034565Y040205D01*
X034579Y040195D01*
Y040145D01*
X034565Y040135D01*
X034529Y040082D01*
X034517Y040020D01*
X034529Y039958D01*
X034565Y039905D01*
X034579Y039895D01*
Y039845D01*
X034565Y039835D01*
X034555Y039821D01*
X034505D01*
X034495Y039835D01*
X034442Y039871D01*
X034380Y039883D01*
X034318Y039871D01*
X034265Y039835D01*
X034229Y039782D01*
X034217Y039720D01*
X034229Y039658D01*
X034265Y039605D01*
X034318Y039569D01*
X034380Y039557D01*
X034442Y039569D01*
X034495Y039605D01*
X034505Y039619D01*
X034555D01*
X034565Y039605D01*
X034618Y039569D01*
X034680Y039557D01*
X034742Y039569D01*
X034795Y039605D01*
X034829Y039655D01*
X034829Y039655D01*
X034831Y039658D01*
X034835Y039677D01*
X034840Y039700D01*
Y039700D01*
X034840Y039700D01*
X037710D01*
X037990Y039420D01*
Y034580D01*
X037710Y034300D01*
X034890D01*
X034865Y034311D01*
X034837Y034349D01*
X034835Y034361D01*
X034831Y034382D01*
X034823Y034393D01*
X034795Y034435D01*
X034781Y034445D01*
Y034495D01*
X034795Y034505D01*
X034831Y034558D01*
X034843Y034620D01*
X034831Y034682D01*
X034795Y034735D01*
X034781Y034745D01*
Y034795D01*
X034795Y034805D01*
X034831Y034858D01*
X034843Y034920D01*
X034831Y034982D01*
X034795Y035035D01*
X034781Y035045D01*
Y035095D01*
X034795Y035105D01*
X034831Y035158D01*
X034843Y035220D01*
X034831Y035282D01*
X034795Y035335D01*
X034781Y035345D01*
Y035395D01*
X034795Y035405D01*
X034831Y035458D01*
X034843Y035520D01*
X034831Y035582D01*
X034795Y035635D01*
X034781Y035645D01*
Y035695D01*
X034795Y035705D01*
X034831Y035758D01*
X034843Y035820D01*
X034831Y035882D01*
X034795Y035935D01*
X034781Y035945D01*
Y035995D01*
X034795Y036005D01*
X034831Y036058D01*
X034843Y036120D01*
X034831Y036182D01*
X034795Y036235D01*
X034781Y036245D01*
Y036295D01*
X034795Y036305D01*
X034831Y036358D01*
X034843Y036420D01*
X034831Y036482D01*
X034795Y036535D01*
X034781Y036545D01*
Y036595D01*
X034795Y036605D01*
X034831Y036658D01*
X034843Y036720D01*
X034831Y036782D01*
X034795Y036835D01*
X034781Y036845D01*
Y036895D01*
X034795Y036905D01*
X034831Y036958D01*
X034843Y037020D01*
X034831Y037082D01*
X034795Y037135D01*
X034781Y037145D01*
Y037195D01*
X034795Y037205D01*
X034831Y037258D01*
X034843Y037320D01*
X034831Y037382D01*
X034795Y037435D01*
X034781Y037445D01*
Y037495D01*
X034795Y037505D01*
X034831Y037558D01*
X034843Y037620D01*
X034831Y037682D01*
X034795Y037735D01*
X034781Y037745D01*
Y037795D01*
X034795Y037805D01*
X034831Y037858D01*
X034843Y037920D01*
X034831Y037982D01*
X034795Y038035D01*
X034781Y038045D01*
Y038095D01*
X034795Y038105D01*
X034831Y038158D01*
X034843Y038220D01*
X034831Y038282D01*
X034795Y038335D01*
X034781Y038345D01*
Y038395D01*
X034795Y038405D01*
X034831Y038458D01*
X034843Y038520D01*
X034831Y038582D01*
X034795Y038635D01*
X034742Y038671D01*
X034680Y038683D01*
X034618Y038671D01*
X034565Y038635D01*
X034555Y038621D01*
X034505D01*
X034495Y038635D01*
X034442Y038671D01*
X034380Y038683D01*
X034318Y038671D01*
X034265Y038635D01*
X034229Y038582D01*
X034217Y038520D01*
X034229Y038458D01*
X034265Y038405D01*
X034318Y038369D01*
X034380Y038357D01*
X034442Y038369D01*
X034495Y038405D01*
X034505Y038419D01*
X034555D01*
X034565Y038405D01*
X034579Y038395D01*
Y038345D01*
X034565Y038335D01*
X034529Y038282D01*
X034517Y038220D01*
X034529Y038158D01*
X034565Y038105D01*
X034579Y038095D01*
Y038045D01*
X034565Y038035D01*
X034529Y037982D01*
X034517Y037920D01*
X034529Y037858D01*
X034565Y037805D01*
X034579Y037795D01*
Y037745D01*
X034565Y037735D01*
X034529Y037682D01*
X034517Y037620D01*
X034529Y037558D01*
X034565Y037505D01*
X034579Y037495D01*
Y037445D01*
X034565Y037435D01*
X034529Y037382D01*
X034517Y037320D01*
X034529Y037258D01*
X034565Y037205D01*
X034579Y037195D01*
Y037145D01*
X034565Y037135D01*
X034529Y037082D01*
X034517Y037020D01*
X034529Y036958D01*
X034565Y036905D01*
X034579Y036895D01*
Y036845D01*
X034565Y036835D01*
X034529Y036782D01*
X034517Y036720D01*
X034529Y036658D01*
X034565Y036605D01*
X034579Y036595D01*
Y036545D01*
X034565Y036535D01*
X034529Y036482D01*
X034517Y036420D01*
X034529Y036358D01*
X034565Y036305D01*
X034579Y036295D01*
Y036245D01*
X034565Y036235D01*
X034529Y036182D01*
X034517Y036120D01*
X034529Y036058D01*
X034565Y036005D01*
X034579Y035995D01*
Y035945D01*
X034565Y035935D01*
X034529Y035882D01*
X034517Y035820D01*
X034529Y035758D01*
X034565Y035705D01*
X034579Y035695D01*
Y035645D01*
X034565Y035635D01*
X034529Y035582D01*
X034517Y035520D01*
X034529Y035458D01*
X034565Y035405D01*
X034579Y035395D01*
Y035345D01*
X034565Y035335D01*
X034529Y035282D01*
X034517Y035220D01*
X034529Y035158D01*
X034565Y035105D01*
X034579Y035095D01*
Y035045D01*
X034565Y035035D01*
X034529Y034982D01*
X034517Y034920D01*
X034529Y034858D01*
X034565Y034805D01*
X034579Y034795D01*
Y034745D01*
X034565Y034735D01*
X034529Y034682D01*
X034517Y034620D01*
X034529Y034558D01*
X034565Y034505D01*
X034579Y034495D01*
Y034445D01*
X034565Y034435D01*
X034529Y034382D01*
X034517Y034320D01*
X034529Y034258D01*
X034565Y034205D01*
X034579Y034195D01*
Y034145D01*
X034565Y034135D01*
X034529Y034082D01*
X034517Y034020D01*
X034529Y033958D01*
X034565Y033905D01*
X034579Y033895D01*
Y033845D01*
X034565Y033835D01*
X034529Y033782D01*
X034517Y033720D01*
X034529Y033658D01*
X034565Y033605D01*
X034579Y033595D01*
Y033545D01*
X034565Y033535D01*
X034529Y033482D01*
X034517Y033420D01*
X034529Y033358D01*
X034565Y033305D01*
X034579Y033295D01*
Y033245D01*
X034565Y033235D01*
X034529Y033182D01*
X034517Y033120D01*
X034529Y033058D01*
X034565Y033005D01*
X034579Y032995D01*
Y032945D01*
X034565Y032935D01*
X034529Y032882D01*
X034517Y032820D01*
X034529Y032758D01*
X034565Y032705D01*
X034618Y032669D01*
X034680Y032657D01*
X034742Y032669D01*
X034790Y032701D01*
X034814Y032695D01*
X034840Y032681D01*
Y032300D01*
X037990D01*
Y031700D01*
X036890Y030600D01*
X014090D01*
X013830Y030860D01*
Y043150D01*
X014080Y043400D01*
X036890D01*
X037990Y042300D01*
D02*
G37*
%LPC*%
G36*
X023144Y034770D02*
X022949D01*
Y034575D01*
X022996Y034585D01*
X023079Y034640D01*
X023134Y034722D01*
X023144Y034770D01*
D02*
G37*
G36*
X025470Y034973D02*
X025408Y034961D01*
X025355Y034925D01*
X025319Y034872D01*
X025307Y034810D01*
X025319Y034748D01*
X025355Y034695D01*
X025408Y034659D01*
X025470Y034647D01*
X025532Y034659D01*
X025585Y034695D01*
X025621Y034748D01*
X025633Y034810D01*
X025621Y034872D01*
X025585Y034925D01*
X025532Y034961D01*
X025470Y034973D01*
D02*
G37*
G36*
X022849Y034770D02*
X022654D01*
X022663Y034722D01*
X022718Y034640D01*
X022801Y034585D01*
X022849Y034575D01*
Y034770D01*
D02*
G37*
G36*
X032220Y033850D02*
X031720D01*
Y033554D01*
X031670Y033537D01*
X031598Y033586D01*
X031550Y033595D01*
Y033350D01*
Y033105D01*
X031598Y033115D01*
X031670Y033163D01*
X031720Y033146D01*
Y032850D01*
X032111D01*
X032114Y032800D01*
X032100Y032798D01*
X031988Y032752D01*
X031892Y032678D01*
X031818Y032582D01*
X031772Y032470D01*
X031756Y032350D01*
X031772Y032230D01*
X031818Y032118D01*
X031892Y032022D01*
X031988Y031948D01*
X032100Y031902D01*
X032220Y031886D01*
X032320D01*
X032440Y031902D01*
X032552Y031948D01*
X032648Y032022D01*
X032722Y032118D01*
X032768Y032230D01*
X032784Y032350D01*
X032768Y032470D01*
X032722Y032582D01*
X032648Y032678D01*
X032552Y032752D01*
X032440Y032798D01*
X032426Y032800D01*
X032429Y032850D01*
X032820D01*
Y033300D01*
X032270D01*
Y033350D01*
X032220D01*
Y033850D01*
D02*
G37*
G36*
X014290Y034214D02*
X014208Y034198D01*
X014139Y034151D01*
X014092Y034082D01*
X014076Y034000D01*
X014092Y033918D01*
X014139Y033849D01*
X014208Y033802D01*
X014290Y033786D01*
X014372Y033802D01*
X014441Y033849D01*
X014488Y033918D01*
X014504Y034000D01*
X014488Y034082D01*
X014441Y034151D01*
X014372Y034198D01*
X014290Y034214D01*
D02*
G37*
G36*
X025380Y035453D02*
X025318Y035441D01*
X025265Y035405D01*
X025229Y035352D01*
X025217Y035290D01*
X025229Y035228D01*
X025265Y035175D01*
X025318Y035139D01*
X025380Y035127D01*
X025442Y035139D01*
X025495Y035175D01*
X025531Y035228D01*
X025543Y035290D01*
X025531Y035352D01*
X025495Y035405D01*
X025442Y035441D01*
X025380Y035453D01*
D02*
G37*
G36*
X020310Y035784D02*
X020228Y035768D01*
X020159Y035721D01*
X020112Y035652D01*
X020096Y035570D01*
X020112Y035488D01*
X020159Y035419D01*
X020228Y035372D01*
X020310Y035356D01*
X020392Y035372D01*
X020461Y035419D01*
X020508Y035488D01*
X020524Y035570D01*
X020508Y035652D01*
X020461Y035721D01*
X020392Y035768D01*
X020310Y035784D01*
D02*
G37*
G36*
X022949Y035065D02*
Y034870D01*
X023144D01*
X023134Y034918D01*
X023079Y035000D01*
X022996Y035055D01*
X022949Y035065D01*
D02*
G37*
G36*
X024860Y035783D02*
X024798Y035771D01*
X024745Y035735D01*
X024709Y035682D01*
X024697Y035620D01*
X024709Y035558D01*
X024745Y035505D01*
X024798Y035469D01*
X024860Y035457D01*
X024922Y035469D01*
X024975Y035505D01*
X025011Y035558D01*
X025023Y035620D01*
X025011Y035682D01*
X024975Y035735D01*
X024922Y035771D01*
X024860Y035783D01*
D02*
G37*
G36*
X022849Y035065D02*
X022801Y035055D01*
X022718Y035000D01*
X022663Y034918D01*
X022654Y034870D01*
X022849D01*
Y035065D01*
D02*
G37*
G36*
X032820Y033850D02*
X032320D01*
Y033400D01*
X032820D01*
Y033850D01*
D02*
G37*
G36*
X018220D02*
X017720D01*
Y033525D01*
X017670Y033510D01*
X017663Y033520D01*
X017580Y033575D01*
X017533Y033585D01*
Y033340D01*
Y033095D01*
X017580Y033105D01*
X017663Y033160D01*
X017670Y033170D01*
X017720Y033155D01*
Y032850D01*
X018111D01*
X018114Y032800D01*
X018100Y032798D01*
X017988Y032752D01*
X017892Y032678D01*
X017818Y032582D01*
X017772Y032470D01*
X017756Y032350D01*
X017772Y032230D01*
X017818Y032118D01*
X017892Y032022D01*
X017988Y031948D01*
X018100Y031902D01*
X018220Y031886D01*
X018320D01*
X018440Y031902D01*
X018552Y031948D01*
X018648Y032022D01*
X018722Y032118D01*
X018768Y032230D01*
X018784Y032350D01*
X018768Y032470D01*
X018722Y032582D01*
X018648Y032678D01*
X018552Y032752D01*
X018440Y032798D01*
X018426Y032800D01*
X018429Y032850D01*
X018820D01*
Y033300D01*
X018270D01*
Y033350D01*
X018220D01*
Y033850D01*
D02*
G37*
G36*
X031450Y033595D02*
X031402Y033586D01*
X031320Y033530D01*
X031265Y033448D01*
X031255Y033400D01*
X031450D01*
Y033595D01*
D02*
G37*
G36*
X029447D02*
X029400Y033586D01*
X029317Y033530D01*
X029262Y033448D01*
X029252Y033400D01*
X029447D01*
Y033595D01*
D02*
G37*
G36*
X030820Y033850D02*
X030320D01*
Y033400D01*
X030820D01*
Y033850D01*
D02*
G37*
G36*
X020220D02*
X019720D01*
Y033535D01*
X019670Y033520D01*
X019663Y033530D01*
X019580Y033586D01*
X019533Y033595D01*
Y033350D01*
Y033105D01*
X019580Y033115D01*
X019663Y033170D01*
X019670Y033180D01*
X019720Y033165D01*
Y032850D01*
X020111D01*
X020114Y032800D01*
X020100Y032798D01*
X019988Y032752D01*
X019892Y032678D01*
X019818Y032582D01*
X019772Y032470D01*
X019756Y032350D01*
X019772Y032230D01*
X019818Y032118D01*
X019892Y032022D01*
X019988Y031948D01*
X020100Y031902D01*
X020220Y031886D01*
X020320D01*
X020440Y031902D01*
X020552Y031948D01*
X020648Y032022D01*
X020722Y032118D01*
X020768Y032230D01*
X020784Y032350D01*
X020768Y032470D01*
X020722Y032582D01*
X020648Y032678D01*
X020552Y032752D01*
X020440Y032798D01*
X020426Y032800D01*
X020429Y032850D01*
X020820D01*
Y033300D01*
X020270D01*
Y033350D01*
X020220D01*
Y033850D01*
D02*
G37*
G36*
X028220D02*
X027720D01*
Y033545D01*
X027670Y033533D01*
X027592Y033586D01*
X027544Y033595D01*
Y033350D01*
Y033105D01*
X027592Y033115D01*
X027670Y033167D01*
X027720Y033155D01*
Y032850D01*
X028111D01*
X028114Y032800D01*
X028100Y032798D01*
X027988Y032752D01*
X027892Y032678D01*
X027818Y032582D01*
X027772Y032470D01*
X027756Y032350D01*
X027772Y032230D01*
X027818Y032118D01*
X027892Y032022D01*
X027988Y031948D01*
X028100Y031902D01*
X028220Y031886D01*
X028320D01*
X028440Y031902D01*
X028552Y031948D01*
X028648Y032022D01*
X028722Y032118D01*
X028768Y032230D01*
X028784Y032350D01*
X028768Y032470D01*
X028722Y032582D01*
X028648Y032678D01*
X028552Y032752D01*
X028440Y032798D01*
X028426Y032800D01*
X028429Y032850D01*
X028820D01*
Y033300D01*
X028270D01*
Y033350D01*
X028220D01*
Y033850D01*
D02*
G37*
G36*
X030220D02*
X029720D01*
Y033550D01*
X029670Y033535D01*
X029595Y033586D01*
X029547Y033595D01*
Y033350D01*
Y033105D01*
X029595Y033115D01*
X029670Y033165D01*
X029720Y033150D01*
Y032850D01*
X030111D01*
X030114Y032800D01*
X030100Y032798D01*
X029988Y032752D01*
X029892Y032678D01*
X029818Y032582D01*
X029772Y032470D01*
X029756Y032350D01*
X029772Y032230D01*
X029818Y032118D01*
X029892Y032022D01*
X029988Y031948D01*
X030100Y031902D01*
X030220Y031886D01*
X030320D01*
X030440Y031902D01*
X030552Y031948D01*
X030648Y032022D01*
X030722Y032118D01*
X030768Y032230D01*
X030784Y032350D01*
X030768Y032470D01*
X030722Y032582D01*
X030648Y032678D01*
X030552Y032752D01*
X030440Y032798D01*
X030426Y032800D01*
X030429Y032850D01*
X030820D01*
Y033300D01*
X030270D01*
Y033350D01*
X030220D01*
Y033850D01*
D02*
G37*
G36*
X026220D02*
X025720D01*
Y033544D01*
X025693Y033536D01*
X025670Y033531D01*
X025589Y033586D01*
X025541Y033595D01*
Y033350D01*
Y033105D01*
X025589Y033115D01*
X025670Y033169D01*
X025693Y033164D01*
X025720Y033156D01*
Y032850D01*
X026111D01*
X026114Y032800D01*
X026100Y032798D01*
X025988Y032752D01*
X025892Y032678D01*
X025818Y032582D01*
X025772Y032470D01*
X025756Y032350D01*
X025772Y032230D01*
X025818Y032118D01*
X025892Y032022D01*
X025988Y031948D01*
X026100Y031902D01*
X026220Y031886D01*
X026320D01*
X026440Y031902D01*
X026552Y031948D01*
X026648Y032022D01*
X026722Y032118D01*
X026768Y032230D01*
X026784Y032350D01*
X026768Y032470D01*
X026722Y032582D01*
X026648Y032678D01*
X026552Y032752D01*
X026440Y032798D01*
X026426Y032800D01*
X026429Y032850D01*
X026820D01*
Y033300D01*
X026270D01*
Y033350D01*
X026220D01*
Y033850D01*
D02*
G37*
G36*
X022220D02*
X021720D01*
Y033535D01*
X021672Y033521D01*
X021666Y033530D01*
X021583Y033586D01*
X021536Y033595D01*
Y033350D01*
Y033105D01*
X021583Y033115D01*
X021666Y033170D01*
X021672Y033179D01*
X021720Y033165D01*
Y032850D01*
X022111D01*
X022114Y032800D01*
X022100Y032798D01*
X021988Y032752D01*
X021892Y032678D01*
X021818Y032582D01*
X021772Y032470D01*
X021756Y032350D01*
X021772Y032230D01*
X021818Y032118D01*
X021892Y032022D01*
X021988Y031948D01*
X022100Y031902D01*
X022220Y031886D01*
X022320D01*
X022440Y031902D01*
X022552Y031948D01*
X022648Y032022D01*
X022722Y032118D01*
X022768Y032230D01*
X022784Y032350D01*
X022768Y032470D01*
X022722Y032582D01*
X022648Y032678D01*
X022552Y032752D01*
X022440Y032798D01*
X022426Y032800D01*
X022429Y032850D01*
X022820D01*
Y033300D01*
X022270D01*
Y033350D01*
X022220D01*
Y033850D01*
D02*
G37*
G36*
X024220D02*
X023720D01*
Y033540D01*
X023672Y033525D01*
X023669Y033530D01*
X023586Y033586D01*
X023539Y033595D01*
Y033350D01*
Y033105D01*
X023586Y033115D01*
X023669Y033170D01*
X023672Y033175D01*
X023720Y033160D01*
Y032850D01*
X024111D01*
X024114Y032800D01*
X024100Y032798D01*
X023988Y032752D01*
X023892Y032678D01*
X023818Y032582D01*
X023772Y032470D01*
X023756Y032350D01*
X023772Y032230D01*
X023818Y032118D01*
X023892Y032022D01*
X023988Y031948D01*
X024100Y031902D01*
X024220Y031886D01*
X024320D01*
X024440Y031902D01*
X024552Y031948D01*
X024648Y032022D01*
X024722Y032118D01*
X024768Y032230D01*
X024784Y032350D01*
X024768Y032470D01*
X024722Y032582D01*
X024648Y032678D01*
X024552Y032752D01*
X024440Y032798D01*
X024426Y032800D01*
X024429Y032850D01*
X024820D01*
Y033300D01*
X024270D01*
Y033350D01*
X024220D01*
Y033850D01*
D02*
G37*
G36*
X023800Y037833D02*
X023738Y037821D01*
X023685Y037785D01*
X023649Y037732D01*
X023637Y037670D01*
X023649Y037608D01*
X023685Y037555D01*
X023738Y037519D01*
X023800Y037507D01*
X023862Y037519D01*
X023915Y037555D01*
X023951Y037608D01*
X023963Y037670D01*
X023951Y037732D01*
X023915Y037785D01*
X023862Y037821D01*
X023800Y037833D01*
D02*
G37*
G36*
X024400Y037720D02*
X024256D01*
X024262Y037692D01*
X024306Y037626D01*
X024372Y037582D01*
X024400Y037576D01*
Y037720D01*
D02*
G37*
G36*
X027962Y037641D02*
X027899Y037629D01*
X027846Y037594D01*
X027811Y037541D01*
X027799Y037478D01*
X027811Y037416D01*
X027846Y037363D01*
X027899Y037327D01*
X027962Y037315D01*
X028024Y037327D01*
X028077Y037363D01*
X028113Y037416D01*
X028125Y037478D01*
X028113Y037541D01*
X028077Y037594D01*
X028024Y037629D01*
X027962Y037641D01*
D02*
G37*
G36*
X017105Y038221D02*
X016670D01*
Y037591D01*
X016666Y037570D01*
X016670Y037549D01*
Y036919D01*
X017105D01*
Y037549D01*
X017110Y037570D01*
X017105Y037591D01*
Y038221D01*
D02*
G37*
G36*
X029950Y037403D02*
X029888Y037391D01*
X029835Y037355D01*
X029799Y037302D01*
X029787Y037240D01*
X029799Y037178D01*
X029835Y037125D01*
X029888Y037089D01*
X029950Y037077D01*
X030012Y037089D01*
X030065Y037125D01*
X030101Y037178D01*
X030113Y037240D01*
X030101Y037302D01*
X030065Y037355D01*
X030012Y037391D01*
X029950Y037403D01*
D02*
G37*
G36*
X024644Y037720D02*
X024500D01*
Y037576D01*
X024528Y037582D01*
X024594Y037626D01*
X024638Y037692D01*
X024644Y037720D01*
D02*
G37*
G36*
X027680Y038003D02*
X027618Y037991D01*
X027565Y037955D01*
X027529Y037902D01*
X027517Y037840D01*
X027529Y037778D01*
X027565Y037725D01*
X027618Y037689D01*
X027680Y037677D01*
X027742Y037689D01*
X027795Y037725D01*
X027831Y037778D01*
X027843Y037840D01*
X027831Y037902D01*
X027795Y037955D01*
X027742Y037991D01*
X027680Y038003D01*
D02*
G37*
G36*
X029940Y038023D02*
X029878Y038011D01*
X029825Y037975D01*
X029789Y037922D01*
X029777Y037860D01*
X029789Y037798D01*
X029825Y037745D01*
X029878Y037709D01*
X029940Y037697D01*
X030002Y037709D01*
X030055Y037745D01*
X030091Y037798D01*
X030103Y037860D01*
X030091Y037922D01*
X030055Y037975D01*
X030002Y038011D01*
X029940Y038023D01*
D02*
G37*
G36*
X029642Y037802D02*
X029498D01*
Y037658D01*
X029526Y037663D01*
X029593Y037707D01*
X029637Y037774D01*
X029642Y037802D01*
D02*
G37*
G36*
X030760Y037963D02*
X030698Y037951D01*
X030645Y037915D01*
X030609Y037862D01*
X030597Y037800D01*
X030609Y037738D01*
X030645Y037685D01*
X030698Y037649D01*
X030760Y037637D01*
X030822Y037649D01*
X030875Y037685D01*
X030911Y037738D01*
X030923Y037800D01*
X030911Y037862D01*
X030875Y037915D01*
X030822Y037951D01*
X030760Y037963D01*
D02*
G37*
G36*
X028750Y038883D02*
X028688Y038871D01*
X028635Y038835D01*
X028599Y038782D01*
X028587Y038720D01*
X028599Y038658D01*
X028630Y038612D01*
X028635Y038584D01*
Y038576D01*
X028630Y038548D01*
X028599Y038502D01*
X028587Y038440D01*
X028599Y038378D01*
X028630Y038332D01*
X028635Y038304D01*
Y038296D01*
X028630Y038268D01*
X028599Y038222D01*
X028587Y038160D01*
X028599Y038098D01*
X028635Y038045D01*
X028637Y038043D01*
X028646Y037977D01*
X028629Y037952D01*
X028617Y037890D01*
X028629Y037828D01*
X028665Y037775D01*
X028718Y037739D01*
X028780Y037727D01*
X028842Y037739D01*
X028895Y037775D01*
X028899Y037780D01*
X028961Y037783D01*
X028998Y037759D01*
X029060Y037747D01*
X029122Y037759D01*
X029175Y037795D01*
X029198Y037829D01*
X029251Y037818D01*
X029260Y037774D01*
X029304Y037707D01*
X029370Y037663D01*
X029398Y037658D01*
Y037852D01*
Y038046D01*
X029370Y038040D01*
X029304Y037996D01*
X029268Y037941D01*
X029220Y037945D01*
X029216Y037947D01*
X029211Y037972D01*
X029175Y038025D01*
X029122Y038061D01*
X029060Y038073D01*
X028998Y038061D01*
X028945Y038025D01*
X028941Y038020D01*
X028902Y038029D01*
X028888Y038078D01*
X028901Y038098D01*
X028913Y038160D01*
X028901Y038222D01*
X028870Y038268D01*
X028865Y038296D01*
Y038304D01*
X028870Y038332D01*
X028901Y038378D01*
X028913Y038440D01*
X028901Y038502D01*
X028870Y038548D01*
X028865Y038576D01*
Y038584D01*
X028870Y038612D01*
X028901Y038658D01*
X028913Y038720D01*
X028901Y038782D01*
X028865Y038835D01*
X028812Y038871D01*
X028750Y038883D01*
D02*
G37*
G36*
X021745Y035970D02*
X021550D01*
Y035775D01*
X021598Y035784D01*
X021680Y035840D01*
X021735Y035922D01*
X021745Y035970D01*
D02*
G37*
G36*
X030108Y036319D02*
X030026Y036303D01*
X029956Y036256D01*
X029910Y036187D01*
X029894Y036105D01*
X029910Y036023D01*
X029956Y035953D01*
X030026Y035907D01*
X030108Y035891D01*
X030190Y035907D01*
X030259Y035953D01*
X030306Y036023D01*
X030322Y036105D01*
X030306Y036187D01*
X030259Y036256D01*
X030190Y036303D01*
X030108Y036319D01*
D02*
G37*
G36*
X021450Y035970D02*
X021255D01*
X021265Y035922D01*
X021320Y035840D01*
X021402Y035784D01*
X021450Y035775D01*
Y035970D01*
D02*
G37*
G36*
X018266Y035902D02*
X018244Y035898D01*
X017615D01*
Y035463D01*
X018244D01*
X018266Y035458D01*
X018287Y035463D01*
X018916D01*
Y035898D01*
X018287D01*
X018266Y035902D01*
D02*
G37*
G36*
X026580Y035813D02*
X026518Y035801D01*
X026465Y035765D01*
X026429Y035712D01*
X026417Y035650D01*
X026429Y035588D01*
X026465Y035535D01*
X026518Y035499D01*
X026580Y035487D01*
X026642Y035499D01*
X026695Y035535D01*
X026731Y035588D01*
X026743Y035650D01*
X026731Y035712D01*
X026695Y035765D01*
X026642Y035801D01*
X026580Y035813D01*
D02*
G37*
G36*
X021450Y036265D02*
X021402Y036256D01*
X021320Y036200D01*
X021265Y036118D01*
X021255Y036070D01*
X021450D01*
Y036265D01*
D02*
G37*
G36*
X028008Y037219D02*
X027926Y037203D01*
X027856Y037156D01*
X027810Y037087D01*
X027794Y037005D01*
X027810Y036923D01*
X027856Y036853D01*
X027926Y036807D01*
X028008Y036791D01*
X028090Y036807D01*
X028159Y036853D01*
X028206Y036923D01*
X028222Y037005D01*
X028206Y037087D01*
X028159Y037156D01*
X028090Y037203D01*
X028008Y037219D01*
D02*
G37*
G36*
X019467Y038319D02*
X019033D01*
Y037591D01*
X019028Y037570D01*
X019033Y037549D01*
Y036821D01*
X019467D01*
Y037549D01*
X019472Y037570D01*
X019467Y037591D01*
Y038319D01*
D02*
G37*
G36*
X025250Y037214D02*
X025168Y037198D01*
X025099Y037151D01*
X025052Y037082D01*
X025036Y037000D01*
X025052Y036918D01*
X025099Y036849D01*
X025168Y036802D01*
X025250Y036786D01*
X025332Y036802D01*
X025401Y036849D01*
X025448Y036918D01*
X025464Y037000D01*
X025448Y037082D01*
X025401Y037151D01*
X025332Y037198D01*
X025250Y037214D01*
D02*
G37*
G36*
X021550Y036265D02*
Y036070D01*
X021745D01*
X021735Y036118D01*
X021680Y036200D01*
X021598Y036256D01*
X021550Y036265D01*
D02*
G37*
G36*
X031605Y036814D02*
X031523Y036798D01*
X031453Y036751D01*
X031407Y036682D01*
X031391Y036600D01*
X031407Y036518D01*
X031453Y036449D01*
X031523Y036402D01*
X031605Y036386D01*
X031687Y036402D01*
X031756Y036449D01*
X031803Y036518D01*
X031819Y036600D01*
X031803Y036682D01*
X031756Y036751D01*
X031687Y036798D01*
X031605Y036814D01*
D02*
G37*
G36*
X021483Y031554D02*
X021401Y031538D01*
X021331Y031491D01*
X021285Y031422D01*
X021269Y031340D01*
X021285Y031258D01*
X021331Y031189D01*
X021401Y031142D01*
X021483Y031126D01*
X021565Y031142D01*
X021634Y031189D01*
X021681Y031258D01*
X021697Y031340D01*
X021681Y031422D01*
X021634Y031491D01*
X021565Y031538D01*
X021483Y031554D01*
D02*
G37*
G36*
X025490D02*
X025408Y031538D01*
X025339Y031491D01*
X025292Y031422D01*
X025276Y031340D01*
X025292Y031258D01*
X025339Y031189D01*
X025408Y031142D01*
X025490Y031126D01*
X025572Y031142D01*
X025641Y031189D01*
X025688Y031258D01*
X025704Y031340D01*
X025688Y031422D01*
X025641Y031491D01*
X025572Y031538D01*
X025490Y031554D01*
D02*
G37*
G36*
X019480D02*
X019398Y031538D01*
X019329Y031491D01*
X019282Y031422D01*
X019266Y031340D01*
X019282Y031258D01*
X019329Y031189D01*
X019398Y031142D01*
X019480Y031126D01*
X019562Y031142D01*
X019631Y031189D01*
X019678Y031258D01*
X019694Y031340D01*
X019678Y031422D01*
X019631Y031491D01*
X019562Y031538D01*
X019480Y031554D01*
D02*
G37*
G36*
X023490Y031544D02*
X023408Y031528D01*
X023339Y031481D01*
X023292Y031412D01*
X023276Y031330D01*
X023292Y031248D01*
X023339Y031179D01*
X023408Y031132D01*
X023490Y031116D01*
X023572Y031132D01*
X023641Y031179D01*
X023688Y031248D01*
X023704Y031330D01*
X023688Y031412D01*
X023641Y031481D01*
X023572Y031528D01*
X023490Y031544D01*
D02*
G37*
G36*
X029490D02*
X029408Y031528D01*
X029339Y031481D01*
X029292Y031412D01*
X029276Y031330D01*
X029292Y031248D01*
X029339Y031179D01*
X029408Y031132D01*
X029490Y031116D01*
X029572Y031132D01*
X029641Y031179D01*
X029688Y031248D01*
X029704Y031330D01*
X029688Y031412D01*
X029641Y031481D01*
X029572Y031528D01*
X029490Y031544D01*
D02*
G37*
G36*
X016254Y033264D02*
X016059D01*
X016069Y033217D01*
X016124Y033134D01*
X016207Y033079D01*
X016254Y033069D01*
Y033264D01*
D02*
G37*
G36*
X016549D02*
X016354D01*
Y033069D01*
X016402Y033079D01*
X016484Y033134D01*
X016540Y033217D01*
X016549Y033264D01*
D02*
G37*
G36*
X014290Y032514D02*
X014208Y032498D01*
X014139Y032451D01*
X014092Y032382D01*
X014076Y032300D01*
X014092Y032218D01*
X014139Y032149D01*
X014208Y032102D01*
X014290Y032086D01*
X014372Y032102D01*
X014441Y032149D01*
X014488Y032218D01*
X014504Y032300D01*
X014488Y032382D01*
X014441Y032451D01*
X014372Y032498D01*
X014290Y032514D01*
D02*
G37*
G36*
X027493Y031554D02*
X027411Y031538D01*
X027341Y031491D01*
X027295Y031422D01*
X027279Y031340D01*
X027295Y031258D01*
X027341Y031189D01*
X027411Y031142D01*
X027493Y031126D01*
X027575Y031142D01*
X027644Y031189D01*
X027691Y031258D01*
X027707Y031340D01*
X027691Y031422D01*
X027644Y031491D01*
X027575Y031538D01*
X027493Y031554D01*
D02*
G37*
G36*
X031490D02*
X031408Y031538D01*
X031339Y031491D01*
X031292Y031422D01*
X031276Y031340D01*
X031292Y031258D01*
X031339Y031189D01*
X031408Y031142D01*
X031490Y031126D01*
X031572Y031142D01*
X031641Y031189D01*
X031688Y031258D01*
X031704Y031340D01*
X031688Y031422D01*
X031641Y031491D01*
X031572Y031538D01*
X031490Y031554D01*
D02*
G37*
G36*
X017480Y031544D02*
X017398Y031528D01*
X017329Y031481D01*
X017282Y031412D01*
X017266Y031330D01*
X017282Y031248D01*
X017329Y031179D01*
X017398Y031132D01*
X017480Y031116D01*
X017562Y031132D01*
X017631Y031179D01*
X017678Y031248D01*
X017694Y031330D01*
X017678Y031412D01*
X017631Y031481D01*
X017562Y031528D01*
X017480Y031544D01*
D02*
G37*
G36*
X022320Y031814D02*
X022220D01*
X022100Y031798D01*
X021988Y031752D01*
X021892Y031678D01*
X021818Y031582D01*
X021772Y031470D01*
X021756Y031350D01*
X021772Y031230D01*
X021818Y031118D01*
X021892Y031022D01*
X021988Y030948D01*
X022100Y030902D01*
X022220Y030886D01*
X022320D01*
X022440Y030902D01*
X022552Y030948D01*
X022648Y031022D01*
X022722Y031118D01*
X022768Y031230D01*
X022784Y031350D01*
X022768Y031470D01*
X022722Y031582D01*
X022648Y031678D01*
X022552Y031752D01*
X022440Y031798D01*
X022320Y031814D01*
D02*
G37*
G36*
X024320D02*
X024220D01*
X024100Y031798D01*
X023988Y031752D01*
X023892Y031678D01*
X023818Y031582D01*
X023772Y031470D01*
X023756Y031350D01*
X023772Y031230D01*
X023818Y031118D01*
X023892Y031022D01*
X023988Y030948D01*
X024100Y030902D01*
X024220Y030886D01*
X024320D01*
X024440Y030902D01*
X024552Y030948D01*
X024648Y031022D01*
X024722Y031118D01*
X024768Y031230D01*
X024784Y031350D01*
X024768Y031470D01*
X024722Y031582D01*
X024648Y031678D01*
X024552Y031752D01*
X024440Y031798D01*
X024320Y031814D01*
D02*
G37*
G36*
X020320D02*
X020220D01*
X020100Y031798D01*
X019988Y031752D01*
X019892Y031678D01*
X019818Y031582D01*
X019772Y031470D01*
X019756Y031350D01*
X019772Y031230D01*
X019818Y031118D01*
X019892Y031022D01*
X019988Y030948D01*
X020100Y030902D01*
X020220Y030886D01*
X020320D01*
X020440Y030902D01*
X020552Y030948D01*
X020648Y031022D01*
X020722Y031118D01*
X020768Y031230D01*
X020784Y031350D01*
X020768Y031470D01*
X020722Y031582D01*
X020648Y031678D01*
X020552Y031752D01*
X020440Y031798D01*
X020320Y031814D01*
D02*
G37*
G36*
X035640Y032054D02*
X035522Y032043D01*
X035409Y032008D01*
X035304Y031952D01*
X035213Y031877D01*
X035138Y031786D01*
X035082Y031681D01*
X035047Y031568D01*
X035036Y031450D01*
X035047Y031332D01*
X035082Y031219D01*
X035138Y031114D01*
X035213Y031023D01*
X035304Y030948D01*
X035409Y030892D01*
X035522Y030857D01*
X035640Y030846D01*
X035758Y030857D01*
X035871Y030892D01*
X035976Y030948D01*
X036067Y031023D01*
X036142Y031114D01*
X036198Y031219D01*
X036233Y031332D01*
X036244Y031450D01*
X036233Y031568D01*
X036198Y031681D01*
X036142Y031786D01*
X036067Y031877D01*
X035976Y031952D01*
X035871Y032008D01*
X035758Y032043D01*
X035640Y032054D01*
D02*
G37*
G36*
X018320Y031814D02*
X018220D01*
X018100Y031798D01*
X017988Y031752D01*
X017892Y031678D01*
X017818Y031582D01*
X017772Y031470D01*
X017756Y031350D01*
X017772Y031230D01*
X017818Y031118D01*
X017892Y031022D01*
X017988Y030948D01*
X018100Y030902D01*
X018220Y030886D01*
X018320D01*
X018440Y030902D01*
X018552Y030948D01*
X018648Y031022D01*
X018722Y031118D01*
X018768Y031230D01*
X018784Y031350D01*
X018768Y031470D01*
X018722Y031582D01*
X018648Y031678D01*
X018552Y031752D01*
X018440Y031798D01*
X018320Y031814D01*
D02*
G37*
G36*
X032320D02*
X032220D01*
X032100Y031798D01*
X031988Y031752D01*
X031892Y031678D01*
X031818Y031582D01*
X031772Y031470D01*
X031756Y031350D01*
X031772Y031230D01*
X031818Y031118D01*
X031892Y031022D01*
X031988Y030948D01*
X032100Y030902D01*
X032220Y030886D01*
X032320D01*
X032440Y030902D01*
X032552Y030948D01*
X032648Y031022D01*
X032722Y031118D01*
X032768Y031230D01*
X032784Y031350D01*
X032768Y031470D01*
X032722Y031582D01*
X032648Y031678D01*
X032552Y031752D01*
X032440Y031798D01*
X032320Y031814D01*
D02*
G37*
G36*
X014730Y032104D02*
X014612Y032093D01*
X014499Y032058D01*
X014394Y032002D01*
X014303Y031927D01*
X014228Y031836D01*
X014172Y031731D01*
X014137Y031618D01*
X014126Y031500D01*
X014137Y031382D01*
X014172Y031269D01*
X014228Y031164D01*
X014303Y031073D01*
X014394Y030998D01*
X014499Y030942D01*
X014612Y030907D01*
X014730Y030896D01*
X014848Y030907D01*
X014961Y030942D01*
X015066Y030998D01*
X015157Y031073D01*
X015232Y031164D01*
X015288Y031269D01*
X015323Y031382D01*
X015334Y031500D01*
X015323Y031618D01*
X015288Y031731D01*
X015232Y031836D01*
X015157Y031927D01*
X015066Y032002D01*
X014961Y032058D01*
X014848Y032093D01*
X014730Y032104D01*
D02*
G37*
G36*
X030320Y031814D02*
X030220D01*
X030100Y031798D01*
X029988Y031752D01*
X029892Y031678D01*
X029818Y031582D01*
X029772Y031470D01*
X029756Y031350D01*
X029772Y031230D01*
X029818Y031118D01*
X029892Y031022D01*
X029988Y030948D01*
X030100Y030902D01*
X030220Y030886D01*
X030320D01*
X030440Y030902D01*
X030552Y030948D01*
X030648Y031022D01*
X030722Y031118D01*
X030768Y031230D01*
X030784Y031350D01*
X030768Y031470D01*
X030722Y031582D01*
X030648Y031678D01*
X030552Y031752D01*
X030440Y031798D01*
X030320Y031814D01*
D02*
G37*
G36*
X026320D02*
X026220D01*
X026100Y031798D01*
X025988Y031752D01*
X025892Y031678D01*
X025818Y031582D01*
X025772Y031470D01*
X025756Y031350D01*
X025772Y031230D01*
X025818Y031118D01*
X025892Y031022D01*
X025988Y030948D01*
X026100Y030902D01*
X026220Y030886D01*
X026320D01*
X026440Y030902D01*
X026552Y030948D01*
X026648Y031022D01*
X026722Y031118D01*
X026768Y031230D01*
X026784Y031350D01*
X026768Y031470D01*
X026722Y031582D01*
X026648Y031678D01*
X026552Y031752D01*
X026440Y031798D01*
X026320Y031814D01*
D02*
G37*
G36*
X028320D02*
X028220D01*
X028100Y031798D01*
X027988Y031752D01*
X027892Y031678D01*
X027818Y031582D01*
X027772Y031470D01*
X027756Y031350D01*
X027772Y031230D01*
X027818Y031118D01*
X027892Y031022D01*
X027988Y030948D01*
X028100Y030902D01*
X028220Y030886D01*
X028320D01*
X028440Y030902D01*
X028552Y030948D01*
X028648Y031022D01*
X028722Y031118D01*
X028768Y031230D01*
X028784Y031350D01*
X028768Y031470D01*
X028722Y031582D01*
X028648Y031678D01*
X028552Y031752D01*
X028440Y031798D01*
X028320Y031814D01*
D02*
G37*
G36*
X017433Y033290D02*
X017238D01*
X017247Y033242D01*
X017303Y033160D01*
X017385Y033105D01*
X017433Y033095D01*
Y033290D01*
D02*
G37*
G36*
X022820Y033850D02*
X022320D01*
Y033400D01*
X022820D01*
Y033850D01*
D02*
G37*
G36*
X023439Y033595D02*
X023391Y033586D01*
X023308Y033530D01*
X023253Y033448D01*
X023244Y033400D01*
X023439D01*
Y033595D01*
D02*
G37*
G36*
X021436D02*
X021388Y033586D01*
X021305Y033530D01*
X021250Y033448D01*
X021241Y033400D01*
X021436D01*
Y033595D01*
D02*
G37*
G36*
X019433D02*
X019385Y033586D01*
X019303Y033530D01*
X019247Y033448D01*
X019238Y033400D01*
X019433D01*
Y033595D01*
D02*
G37*
G36*
X020820Y033850D02*
X020320D01*
Y033400D01*
X020820D01*
Y033850D01*
D02*
G37*
G36*
X027444Y033595D02*
X027397Y033586D01*
X027314Y033530D01*
X027259Y033448D01*
X027249Y033400D01*
X027444D01*
Y033595D01*
D02*
G37*
G36*
X028820Y033850D02*
X028320D01*
Y033400D01*
X028820D01*
Y033850D01*
D02*
G37*
G36*
X026820D02*
X026320D01*
Y033400D01*
X026820D01*
Y033850D01*
D02*
G37*
G36*
X024820D02*
X024320D01*
Y033400D01*
X024820D01*
Y033850D01*
D02*
G37*
G36*
X025441Y033595D02*
X025394Y033586D01*
X025311Y033530D01*
X025256Y033448D01*
X025246Y033400D01*
X025441D01*
Y033595D01*
D02*
G37*
G36*
X018820Y033850D02*
X018320D01*
Y033400D01*
X018820D01*
Y033850D01*
D02*
G37*
G36*
X025441Y033300D02*
X025246D01*
X025256Y033252D01*
X025311Y033170D01*
X025394Y033115D01*
X025441Y033105D01*
Y033300D01*
D02*
G37*
G36*
X027444D02*
X027249D01*
X027259Y033252D01*
X027314Y033170D01*
X027397Y033115D01*
X027444Y033105D01*
Y033300D01*
D02*
G37*
G36*
X023439D02*
X023244D01*
X023253Y033252D01*
X023308Y033170D01*
X023391Y033115D01*
X023439Y033105D01*
Y033300D01*
D02*
G37*
G36*
X019433D02*
X019238D01*
X019247Y033252D01*
X019303Y033170D01*
X019385Y033115D01*
X019433Y033105D01*
Y033300D01*
D02*
G37*
G36*
X021436D02*
X021241D01*
X021250Y033252D01*
X021305Y033170D01*
X021388Y033115D01*
X021436Y033105D01*
Y033300D01*
D02*
G37*
G36*
X016354Y033559D02*
Y033364D01*
X016549D01*
X016540Y033412D01*
X016484Y033494D01*
X016402Y033550D01*
X016354Y033559D01*
D02*
G37*
G36*
X017433Y033585D02*
X017385Y033575D01*
X017303Y033520D01*
X017247Y033438D01*
X017238Y033390D01*
X017433D01*
Y033585D01*
D02*
G37*
G36*
X016254Y033559D02*
X016207Y033550D01*
X016124Y033494D01*
X016069Y033412D01*
X016059Y033364D01*
X016254D01*
Y033559D01*
D02*
G37*
G36*
X029447Y033300D02*
X029252D01*
X029262Y033252D01*
X029317Y033170D01*
X029400Y033115D01*
X029447Y033105D01*
Y033300D01*
D02*
G37*
G36*
X031450D02*
X031255D01*
X031265Y033252D01*
X031320Y033170D01*
X031402Y033115D01*
X031450Y033105D01*
Y033300D01*
D02*
G37*
G36*
X024400Y037964D02*
X024372Y037958D01*
X024306Y037914D01*
X024262Y037848D01*
X024256Y037820D01*
X024400D01*
Y037964D01*
D02*
G37*
G36*
X015960Y041384D02*
X015932Y041378D01*
X015866Y041334D01*
X015822Y041268D01*
X015816Y041240D01*
X015960D01*
Y041384D01*
D02*
G37*
G36*
X016060D02*
Y041240D01*
X016204D01*
X016198Y041268D01*
X016154Y041334D01*
X016088Y041378D01*
X016060Y041384D01*
D02*
G37*
G36*
X016204Y041140D02*
X016060D01*
Y040996D01*
X016088Y041002D01*
X016154Y041046D01*
X016198Y041112D01*
X016204Y041140D01*
D02*
G37*
G36*
X029210Y041313D02*
X029148Y041301D01*
X029095Y041265D01*
X029059Y041212D01*
X029047Y041150D01*
X029059Y041088D01*
X029095Y041035D01*
X029148Y040999D01*
X029210Y040987D01*
X029272Y040999D01*
X029325Y041035D01*
X029361Y041088D01*
X029373Y041150D01*
X029361Y041212D01*
X029325Y041265D01*
X029272Y041301D01*
X029210Y041313D01*
D02*
G37*
G36*
X015960Y041140D02*
X015816D01*
X015822Y041112D01*
X015866Y041046D01*
X015932Y041002D01*
X015960Y040996D01*
Y041140D01*
D02*
G37*
G36*
X018060Y042654D02*
X017940Y042638D01*
X017828Y042592D01*
X017732Y042518D01*
X017658Y042422D01*
X017612Y042310D01*
X017596Y042190D01*
Y042090D01*
X017612Y041970D01*
X017658Y041858D01*
X017732Y041762D01*
X017828Y041688D01*
X017940Y041642D01*
X018060Y041626D01*
X018180Y041642D01*
X018292Y041688D01*
X018388Y041762D01*
X018462Y041858D01*
X018508Y041970D01*
X018524Y042090D01*
Y042190D01*
X018508Y042310D01*
X018462Y042422D01*
X018388Y042518D01*
X018292Y042592D01*
X018180Y042638D01*
X018060Y042654D01*
D02*
G37*
G36*
X019060D02*
X018940Y042638D01*
X018828Y042592D01*
X018732Y042518D01*
X018658Y042422D01*
X018612Y042310D01*
X018596Y042190D01*
Y042090D01*
X018612Y041970D01*
X018658Y041858D01*
X018732Y041762D01*
X018828Y041688D01*
X018940Y041642D01*
X019060Y041626D01*
X019180Y041642D01*
X019292Y041688D01*
X019388Y041762D01*
X019462Y041858D01*
X019508Y041970D01*
X019524Y042090D01*
Y042190D01*
X019508Y042310D01*
X019462Y042422D01*
X019388Y042518D01*
X019292Y042592D01*
X019180Y042638D01*
X019060Y042654D01*
D02*
G37*
G36*
X033750Y042014D02*
X033668Y041998D01*
X033599Y041951D01*
X033552Y041882D01*
X033536Y041800D01*
X033552Y041718D01*
X033599Y041649D01*
X033668Y041602D01*
X033750Y041586D01*
X033832Y041602D01*
X033901Y041649D01*
X033948Y041718D01*
X033964Y041800D01*
X033948Y041882D01*
X033901Y041951D01*
X033832Y041998D01*
X033750Y042014D01*
D02*
G37*
G36*
X031700Y041750D02*
X031505D01*
X031514Y041702D01*
X031570Y041620D01*
X031652Y041564D01*
X031700Y041555D01*
Y041750D01*
D02*
G37*
G36*
X031995D02*
X031800D01*
Y041555D01*
X031848Y041564D01*
X031930Y041620D01*
X031985Y041702D01*
X031995Y041750D01*
D02*
G37*
G36*
X029750Y041303D02*
X029688Y041291D01*
X029635Y041255D01*
X029599Y041202D01*
X029587Y041140D01*
X029599Y041078D01*
X029635Y041025D01*
X029688Y040989D01*
X029750Y040977D01*
X029812Y040989D01*
X029865Y041025D01*
X029901Y041078D01*
X029913Y041140D01*
X029901Y041202D01*
X029865Y041255D01*
X029812Y041291D01*
X029750Y041303D01*
D02*
G37*
G36*
X022240Y040895D02*
X022192Y040886D01*
X022110Y040830D01*
X022055Y040748D01*
X022045Y040700D01*
X022240D01*
Y040895D01*
D02*
G37*
G36*
X024223D02*
X024176Y040886D01*
X024093Y040830D01*
X024038Y040748D01*
X024028Y040700D01*
X024223D01*
Y040895D01*
D02*
G37*
G36*
X020250D02*
X020202Y040886D01*
X020120Y040830D01*
X020064Y040748D01*
X020055Y040700D01*
X020250D01*
Y040895D01*
D02*
G37*
G36*
X019470Y040933D02*
X019408Y040921D01*
X019355Y040885D01*
X019319Y040832D01*
X019307Y040770D01*
X019319Y040708D01*
X019355Y040655D01*
X019408Y040619D01*
X019470Y040607D01*
X019532Y040619D01*
X019585Y040655D01*
X019621Y040708D01*
X019633Y040770D01*
X019621Y040832D01*
X019585Y040885D01*
X019532Y040921D01*
X019470Y040933D01*
D02*
G37*
G36*
X029460Y041013D02*
X029398Y041001D01*
X029345Y040965D01*
X029309Y040912D01*
X029297Y040850D01*
X029309Y040788D01*
X029345Y040735D01*
X029398Y040699D01*
X029460Y040687D01*
X029522Y040699D01*
X029575Y040735D01*
X029611Y040788D01*
X029623Y040850D01*
X029611Y040912D01*
X029575Y040965D01*
X029522Y041001D01*
X029460Y041013D01*
D02*
G37*
G36*
X023133Y042114D02*
X023033D01*
X022913Y042098D01*
X022801Y042052D01*
X022705Y041978D01*
X022632Y041882D01*
X022585Y041770D01*
X022569Y041650D01*
X022585Y041530D01*
X022632Y041418D01*
X022705Y041322D01*
X022801Y041248D01*
X022913Y041202D01*
X022927Y041200D01*
X022924Y041150D01*
X022533D01*
Y040826D01*
X022483Y040811D01*
X022470Y040830D01*
X022388Y040886D01*
X022340Y040895D01*
Y040650D01*
Y040405D01*
X022388Y040415D01*
X022470Y040470D01*
X022483Y040489D01*
X022533Y040474D01*
Y040150D01*
X023033D01*
Y040650D01*
X023083D01*
Y040700D01*
X023633D01*
Y041150D01*
X023243D01*
X023239Y041200D01*
X023253Y041202D01*
X023365Y041248D01*
X023461Y041322D01*
X023535Y041418D01*
X023581Y041530D01*
X023597Y041650D01*
X023581Y041770D01*
X023535Y041882D01*
X023461Y041978D01*
X023365Y042052D01*
X023253Y042098D01*
X023133Y042114D01*
D02*
G37*
G36*
X027100D02*
X027000D01*
X026880Y042098D01*
X026768Y042052D01*
X026672Y041978D01*
X026598Y041882D01*
X026552Y041770D01*
X026536Y041650D01*
X026552Y041530D01*
X026598Y041418D01*
X026672Y041322D01*
X026768Y041248D01*
X026880Y041202D01*
X026894Y041200D01*
X026891Y041150D01*
X026500D01*
Y040831D01*
X026450Y040816D01*
X026440Y040830D01*
X026358Y040886D01*
X026310Y040895D01*
Y040650D01*
Y040405D01*
X026358Y040415D01*
X026440Y040470D01*
X026450Y040484D01*
X026500Y040469D01*
Y040150D01*
X027000D01*
Y040650D01*
X027050D01*
Y040700D01*
X027600D01*
Y041150D01*
X027209D01*
X027206Y041200D01*
X027220Y041202D01*
X027332Y041248D01*
X027428Y041322D01*
X027502Y041418D01*
X027548Y041530D01*
X027564Y041650D01*
X027548Y041770D01*
X027502Y041882D01*
X027428Y041978D01*
X027332Y042052D01*
X027220Y042098D01*
X027100Y042114D01*
D02*
G37*
G36*
X025117D02*
X025017D01*
X024897Y042098D01*
X024785Y042052D01*
X024689Y041978D01*
X024615Y041882D01*
X024569Y041770D01*
X024553Y041650D01*
X024569Y041530D01*
X024615Y041418D01*
X024689Y041322D01*
X024785Y041248D01*
X024897Y041202D01*
X024911Y041200D01*
X024907Y041150D01*
X024517D01*
Y040826D01*
X024467Y040811D01*
X024454Y040830D01*
X024371Y040886D01*
X024323Y040895D01*
Y040650D01*
Y040405D01*
X024371Y040415D01*
X024454Y040470D01*
X024467Y040489D01*
X024517Y040474D01*
Y040150D01*
X025017D01*
Y040650D01*
X025067D01*
Y040700D01*
X025617D01*
Y041150D01*
X025226D01*
X025223Y041200D01*
X025237Y041202D01*
X025349Y041248D01*
X025445Y041322D01*
X025518Y041418D01*
X025565Y041530D01*
X025581Y041650D01*
X025565Y041770D01*
X025518Y041882D01*
X025445Y041978D01*
X025349Y042052D01*
X025237Y042098D01*
X025117Y042114D01*
D02*
G37*
G36*
X026210Y040895D02*
X026162Y040886D01*
X026080Y040830D01*
X026024Y040748D01*
X026015Y040700D01*
X026210D01*
Y040895D01*
D02*
G37*
G36*
X021150Y042114D02*
X021050D01*
X020930Y042098D01*
X020818Y042052D01*
X020722Y041978D01*
X020648Y041882D01*
X020602Y041770D01*
X020586Y041650D01*
X020602Y041530D01*
X020648Y041418D01*
X020722Y041322D01*
X020818Y041248D01*
X020930Y041202D01*
X020944Y041200D01*
X020941Y041150D01*
X020550D01*
Y040816D01*
X020500Y040801D01*
X020480Y040830D01*
X020398Y040886D01*
X020350Y040895D01*
Y040650D01*
Y040405D01*
X020398Y040415D01*
X020480Y040470D01*
X020500Y040499D01*
X020550Y040484D01*
Y040150D01*
X021050D01*
Y040650D01*
X021100D01*
Y040700D01*
X021650D01*
Y041150D01*
X021259D01*
X021256Y041200D01*
X021270Y041202D01*
X021382Y041248D01*
X021478Y041322D01*
X021552Y041418D01*
X021598Y041530D01*
X021614Y041650D01*
X021598Y041770D01*
X021552Y041882D01*
X021478Y041978D01*
X021382Y042052D01*
X021270Y042098D01*
X021150Y042114D01*
D02*
G37*
G36*
X017520Y042650D02*
X016600D01*
Y041630D01*
X017520D01*
Y042650D01*
D02*
G37*
G36*
X034110Y042960D02*
X033390D01*
Y042240D01*
X034110D01*
Y042960D01*
D02*
G37*
G36*
X020310Y042854D02*
X020228Y042838D01*
X020159Y042791D01*
X020112Y042722D01*
X020096Y042640D01*
X020112Y042558D01*
X020159Y042489D01*
X020228Y042442D01*
X020310Y042426D01*
X020392Y042442D01*
X020461Y042489D01*
X020508Y042558D01*
X020524Y042640D01*
X020508Y042722D01*
X020461Y042791D01*
X020392Y042838D01*
X020310Y042854D01*
D02*
G37*
G36*
X032750Y042963D02*
X032656Y042951D01*
X032568Y042914D01*
X032493Y042857D01*
X032436Y042782D01*
X032399Y042694D01*
X032387Y042600D01*
X032399Y042506D01*
X032436Y042418D01*
X032493Y042343D01*
X032568Y042286D01*
X032656Y042249D01*
X032750Y042237D01*
X032844Y042249D01*
X032932Y042286D01*
X033007Y042343D01*
X033064Y042418D01*
X033101Y042506D01*
X033113Y042600D01*
X033101Y042694D01*
X033064Y042782D01*
X033007Y042857D01*
X032932Y042914D01*
X032844Y042951D01*
X032750Y042963D01*
D02*
G37*
G36*
X029750D02*
X029656Y042951D01*
X029568Y042914D01*
X029493Y042857D01*
X029436Y042782D01*
X029399Y042694D01*
X029387Y042600D01*
X029399Y042506D01*
X029436Y042418D01*
X029493Y042343D01*
X029568Y042286D01*
X029656Y042249D01*
X029750Y042237D01*
X029844Y042249D01*
X029932Y042286D01*
X030007Y042343D01*
X030064Y042418D01*
X030101Y042506D01*
X030113Y042600D01*
X030101Y042694D01*
X030064Y042782D01*
X030007Y042857D01*
X029932Y042914D01*
X029844Y042951D01*
X029750Y042963D01*
D02*
G37*
G36*
X030750D02*
X030656Y042951D01*
X030568Y042914D01*
X030493Y042857D01*
X030436Y042782D01*
X030399Y042694D01*
X030387Y042600D01*
X030399Y042506D01*
X030436Y042418D01*
X030493Y042343D01*
X030568Y042286D01*
X030656Y042249D01*
X030750Y042237D01*
X030844Y042249D01*
X030932Y042286D01*
X031007Y042343D01*
X031064Y042418D01*
X031101Y042506D01*
X031113Y042600D01*
X031101Y042694D01*
X031064Y042782D01*
X031007Y042857D01*
X030932Y042914D01*
X030844Y042951D01*
X030750Y042963D01*
D02*
G37*
G36*
X031700Y042997D02*
X031646Y042990D01*
X031548Y042949D01*
X031465Y042885D01*
X031401Y042802D01*
X031360Y042704D01*
X031353Y042650D01*
X031700D01*
Y042997D01*
D02*
G37*
G36*
X031800D02*
Y042650D01*
X032147D01*
X032140Y042704D01*
X032099Y042802D01*
X032035Y042885D01*
X031952Y042949D01*
X031854Y042990D01*
X031800Y042997D01*
D02*
G37*
G36*
X026270Y042874D02*
X026188Y042858D01*
X026119Y042811D01*
X026072Y042742D01*
X026056Y042660D01*
X026072Y042578D01*
X026119Y042509D01*
X026188Y042462D01*
X026270Y042446D01*
X026352Y042462D01*
X026421Y042509D01*
X026468Y042578D01*
X026484Y042660D01*
X026468Y042742D01*
X026421Y042811D01*
X026352Y042858D01*
X026270Y042874D01*
D02*
G37*
G36*
X022290Y042854D02*
X022208Y042838D01*
X022139Y042791D01*
X022092Y042722D01*
X022076Y042640D01*
X022092Y042558D01*
X022139Y042489D01*
X022208Y042442D01*
X022290Y042426D01*
X022372Y042442D01*
X022441Y042489D01*
X022488Y042558D01*
X022504Y042640D01*
X022488Y042722D01*
X022441Y042791D01*
X022372Y042838D01*
X022290Y042854D01*
D02*
G37*
G36*
X024283Y042874D02*
X024201Y042858D01*
X024132Y042811D01*
X024086Y042742D01*
X024069Y042660D01*
X024086Y042578D01*
X024132Y042509D01*
X024201Y042462D01*
X024283Y042446D01*
X024365Y042462D01*
X024435Y042509D01*
X024481Y042578D01*
X024497Y042660D01*
X024481Y042742D01*
X024435Y042811D01*
X024365Y042858D01*
X024283Y042874D01*
D02*
G37*
G36*
X028750Y042963D02*
X028656Y042951D01*
X028568Y042914D01*
X028493Y042857D01*
X028436Y042782D01*
X028399Y042694D01*
X028387Y042600D01*
X028399Y042506D01*
X028436Y042418D01*
X028493Y042343D01*
X028568Y042286D01*
X028656Y042249D01*
X028750Y042237D01*
X028844Y042249D01*
X028932Y042286D01*
X029007Y042343D01*
X029064Y042418D01*
X029101Y042506D01*
X029113Y042600D01*
X029101Y042694D01*
X029064Y042782D01*
X029007Y042857D01*
X028932Y042914D01*
X028844Y042951D01*
X028750Y042963D01*
D02*
G37*
G36*
X035640Y043154D02*
X035522Y043143D01*
X035409Y043108D01*
X035304Y043052D01*
X035213Y042977D01*
X035138Y042886D01*
X035082Y042781D01*
X035047Y042668D01*
X035036Y042550D01*
X035047Y042432D01*
X035082Y042319D01*
X035138Y042214D01*
X035213Y042123D01*
X035304Y042048D01*
X035409Y041992D01*
X035522Y041957D01*
X035640Y041946D01*
X035758Y041957D01*
X035871Y041992D01*
X035976Y042048D01*
X036067Y042123D01*
X036142Y042214D01*
X036198Y042319D01*
X036233Y042432D01*
X036244Y042550D01*
X036233Y042668D01*
X036198Y042781D01*
X036142Y042886D01*
X036067Y042977D01*
X035976Y043052D01*
X035871Y043108D01*
X035758Y043143D01*
X035640Y043154D01*
D02*
G37*
G36*
X021150Y043114D02*
X021050D01*
X020930Y043098D01*
X020818Y043052D01*
X020722Y042978D01*
X020648Y042882D01*
X020602Y042770D01*
X020586Y042650D01*
X020602Y042530D01*
X020648Y042418D01*
X020722Y042322D01*
X020818Y042248D01*
X020930Y042202D01*
X021050Y042186D01*
X021150D01*
X021270Y042202D01*
X021382Y042248D01*
X021478Y042322D01*
X021552Y042418D01*
X021598Y042530D01*
X021614Y042650D01*
X021598Y042770D01*
X021552Y042882D01*
X021478Y042978D01*
X021382Y043052D01*
X021270Y043098D01*
X021150Y043114D01*
D02*
G37*
G36*
X014730Y043104D02*
X014612Y043093D01*
X014499Y043058D01*
X014394Y043002D01*
X014303Y042927D01*
X014228Y042836D01*
X014172Y042731D01*
X014137Y042618D01*
X014126Y042500D01*
X014137Y042382D01*
X014172Y042269D01*
X014228Y042164D01*
X014303Y042073D01*
X014394Y041998D01*
X014499Y041942D01*
X014612Y041907D01*
X014730Y041896D01*
X014848Y041907D01*
X014961Y041942D01*
X015066Y041998D01*
X015157Y042073D01*
X015232Y042164D01*
X015288Y042269D01*
X015323Y042382D01*
X015334Y042500D01*
X015323Y042618D01*
X015288Y042731D01*
X015232Y042836D01*
X015157Y042927D01*
X015066Y043002D01*
X014961Y043058D01*
X014848Y043093D01*
X014730Y043104D01*
D02*
G37*
G36*
X031700Y042045D02*
X031652Y042035D01*
X031570Y041980D01*
X031514Y041898D01*
X031505Y041850D01*
X031700D01*
Y042045D01*
D02*
G37*
G36*
X031800D02*
Y041850D01*
X031995D01*
X031985Y041898D01*
X031930Y041980D01*
X031848Y042035D01*
X031800Y042045D01*
D02*
G37*
G36*
X031700Y042550D02*
X031353D01*
X031360Y042496D01*
X031401Y042398D01*
X031465Y042315D01*
X031548Y042251D01*
X031646Y042210D01*
X031700Y042203D01*
Y042550D01*
D02*
G37*
G36*
X032147D02*
X031800D01*
Y042203D01*
X031854Y042210D01*
X031952Y042251D01*
X032035Y042315D01*
X032099Y042398D01*
X032140Y042496D01*
X032147Y042550D01*
D02*
G37*
G36*
X027100Y043114D02*
X027000D01*
X026880Y043098D01*
X026768Y043052D01*
X026672Y042978D01*
X026598Y042882D01*
X026552Y042770D01*
X026536Y042650D01*
X026552Y042530D01*
X026598Y042418D01*
X026672Y042322D01*
X026768Y042248D01*
X026880Y042202D01*
X027000Y042186D01*
X027100D01*
X027220Y042202D01*
X027332Y042248D01*
X027428Y042322D01*
X027502Y042418D01*
X027548Y042530D01*
X027564Y042650D01*
X027548Y042770D01*
X027502Y042882D01*
X027428Y042978D01*
X027332Y043052D01*
X027220Y043098D01*
X027100Y043114D01*
D02*
G37*
G36*
X023133D02*
X023033D01*
X022913Y043098D01*
X022801Y043052D01*
X022705Y042978D01*
X022632Y042882D01*
X022585Y042770D01*
X022569Y042650D01*
X022585Y042530D01*
X022632Y042418D01*
X022705Y042322D01*
X022801Y042248D01*
X022913Y042202D01*
X023033Y042186D01*
X023133D01*
X023253Y042202D01*
X023365Y042248D01*
X023461Y042322D01*
X023535Y042418D01*
X023581Y042530D01*
X023597Y042650D01*
X023581Y042770D01*
X023535Y042882D01*
X023461Y042978D01*
X023365Y043052D01*
X023253Y043098D01*
X023133Y043114D01*
D02*
G37*
G36*
X025117D02*
X025017D01*
X024897Y043098D01*
X024785Y043052D01*
X024689Y042978D01*
X024615Y042882D01*
X024569Y042770D01*
X024553Y042650D01*
X024569Y042530D01*
X024615Y042418D01*
X024689Y042322D01*
X024785Y042248D01*
X024897Y042202D01*
X025017Y042186D01*
X025117D01*
X025237Y042202D01*
X025349Y042248D01*
X025445Y042322D01*
X025518Y042418D01*
X025565Y042530D01*
X025581Y042650D01*
X025565Y042770D01*
X025518Y042882D01*
X025445Y042978D01*
X025349Y043052D01*
X025237Y043098D01*
X025117Y043114D01*
D02*
G37*
G36*
X028710Y039293D02*
X028648Y039281D01*
X028595Y039245D01*
X028559Y039192D01*
X028547Y039130D01*
X028559Y039068D01*
X028595Y039015D01*
X028648Y038979D01*
X028710Y038967D01*
X028772Y038979D01*
X028825Y039015D01*
X028861Y039068D01*
X028873Y039130D01*
X028861Y039192D01*
X028825Y039245D01*
X028772Y039281D01*
X028710Y039293D01*
D02*
G37*
G36*
X028010Y039340D02*
X027815D01*
X027824Y039292D01*
X027880Y039210D01*
X027962Y039155D01*
X028010Y039145D01*
Y039340D01*
D02*
G37*
G36*
X029567Y038880D02*
X029504Y038867D01*
X029451Y038832D01*
X029416Y038779D01*
X029403Y038717D01*
X029416Y038654D01*
X029451Y038601D01*
X029504Y038566D01*
X029567Y038553D01*
X029629Y038566D01*
X029682Y038601D01*
X029717Y038654D01*
X029730Y038717D01*
X029717Y038779D01*
X029682Y038832D01*
X029629Y038867D01*
X029567Y038880D01*
D02*
G37*
G36*
X030700Y039213D02*
X030638Y039201D01*
X030585Y039165D01*
X030549Y039112D01*
X030537Y039050D01*
X030549Y038988D01*
X030585Y038935D01*
X030635Y038901D01*
X030638Y038880D01*
Y038870D01*
X030635Y038849D01*
X030585Y038815D01*
X030549Y038762D01*
X030537Y038700D01*
X030549Y038638D01*
X030585Y038585D01*
X030638Y038549D01*
X030700Y038537D01*
X030762Y038549D01*
X030815Y038585D01*
X030851Y038638D01*
X030863Y038700D01*
X030851Y038762D01*
X030815Y038815D01*
X030765Y038849D01*
X030762Y038870D01*
Y038880D01*
X030765Y038901D01*
X030815Y038935D01*
X030851Y038988D01*
X030863Y039050D01*
X030851Y039112D01*
X030815Y039165D01*
X030762Y039201D01*
X030700Y039213D01*
D02*
G37*
G36*
X029133Y038880D02*
X029071Y038867D01*
X029018Y038832D01*
X028983Y038779D01*
X028970Y038717D01*
X028983Y038654D01*
X029018Y038601D01*
X029071Y038566D01*
X029133Y038553D01*
X029196Y038566D01*
X029249Y038601D01*
X029284Y038654D01*
X029297Y038717D01*
X029284Y038779D01*
X029249Y038832D01*
X029196Y038867D01*
X029133Y038880D01*
D02*
G37*
G36*
X030860Y039680D02*
X030665D01*
X030675Y039632D01*
X030730Y039550D01*
X030812Y039495D01*
X030860Y039485D01*
Y039680D01*
D02*
G37*
G36*
X031155D02*
X030960D01*
Y039485D01*
X031008Y039495D01*
X031090Y039550D01*
X031146Y039632D01*
X031155Y039680D01*
D02*
G37*
G36*
X027440Y040083D02*
X027378Y040071D01*
X027325Y040035D01*
X027289Y039982D01*
X027277Y039920D01*
X027289Y039858D01*
X027325Y039805D01*
X027378Y039769D01*
X027388Y039767D01*
X027387Y039760D01*
X027398Y039679D01*
X027429Y039604D01*
X027479Y039539D01*
X027544Y039489D01*
X027619Y039458D01*
X027700Y039447D01*
X027767Y039456D01*
X027788Y039440D01*
X028305D01*
X028296Y039488D01*
X028240Y039570D01*
X028234Y039574D01*
X028240Y039631D01*
X028275Y039655D01*
X028311Y039708D01*
X028323Y039770D01*
X028311Y039832D01*
X028275Y039885D01*
X028222Y039921D01*
X028160Y039933D01*
X028098Y039921D01*
X028045Y039885D01*
X028040Y039879D01*
X027984Y039885D01*
X027971Y039916D01*
X027921Y039981D01*
X027856Y040031D01*
X027781Y040062D01*
X027700Y040073D01*
X027619Y040062D01*
X027555Y040036D01*
X027502Y040071D01*
X027440Y040083D01*
D02*
G37*
G36*
X028305Y039340D02*
X028110D01*
Y039145D01*
X028158Y039155D01*
X028240Y039210D01*
X028296Y039292D01*
X028305Y039340D01*
D02*
G37*
G36*
X032710Y039534D02*
X032628Y039518D01*
X032559Y039471D01*
X032512Y039402D01*
X032496Y039320D01*
X032512Y039238D01*
X032559Y039169D01*
X032628Y039122D01*
X032710Y039106D01*
X032792Y039122D01*
X032848Y039159D01*
X032874Y039142D01*
X032888Y039126D01*
X032877Y039070D01*
X032889Y039008D01*
X032920Y038961D01*
X032925Y038955D01*
X032914Y038902D01*
X032905Y038895D01*
X032869Y038842D01*
X032857Y038780D01*
X032869Y038718D01*
X032904Y038665D01*
X032912Y038653D01*
Y038617D01*
X032904Y038605D01*
X032869Y038552D01*
X032857Y038490D01*
X032864Y038455D01*
X032850Y038408D01*
X032833Y038391D01*
X032795Y038366D01*
X032783Y038358D01*
X032747D01*
X032735Y038366D01*
X032682Y038401D01*
X032620Y038413D01*
X032558Y038401D01*
X032505Y038366D01*
X032493Y038358D01*
X032457D01*
X032445Y038366D01*
X032392Y038401D01*
X032330Y038413D01*
X032268Y038401D01*
X032215Y038365D01*
X032179Y038312D01*
X032167Y038250D01*
X032179Y038188D01*
X032215Y038135D01*
X032268Y038099D01*
X032330Y038087D01*
X032392Y038099D01*
X032445Y038134D01*
X032457Y038142D01*
X032493D01*
X032505Y038134D01*
X032558Y038099D01*
X032620Y038087D01*
X032682Y038099D01*
X032735Y038134D01*
X032747Y038142D01*
X032783D01*
X032795Y038134D01*
X032848Y038099D01*
X032910Y038087D01*
X032972Y038099D01*
X033025Y038135D01*
X033061Y038188D01*
X033073Y038250D01*
X033066Y038285D01*
X033082Y038339D01*
X033135Y038375D01*
X033171Y038428D01*
X033183Y038490D01*
X033171Y038552D01*
X033136Y038605D01*
X033128Y038617D01*
Y038653D01*
X033136Y038665D01*
X033171Y038718D01*
X033183Y038780D01*
X033171Y038842D01*
X033140Y038889D01*
X033135Y038895D01*
X033146Y038948D01*
X033155Y038955D01*
X033191Y039008D01*
X033203Y039070D01*
X033198Y039094D01*
X033240Y039137D01*
X033302Y039149D01*
X033355Y039185D01*
X033362Y039195D01*
X033420Y039204D01*
X033458Y039179D01*
X033520Y039167D01*
X033582Y039179D01*
X033635Y039215D01*
X033671Y039268D01*
X033683Y039330D01*
X033671Y039392D01*
X033635Y039445D01*
X033582Y039481D01*
X033520Y039493D01*
X033458Y039481D01*
X033405Y039445D01*
X033398Y039435D01*
X033334Y039430D01*
X033302Y039451D01*
X033240Y039463D01*
X033178Y039451D01*
X033125Y039415D01*
X033089Y039362D01*
X033077Y039300D01*
X033082Y039276D01*
X033040Y039233D01*
X032978Y039221D01*
X032939Y039195D01*
X032903Y039231D01*
X032908Y039238D01*
X032924Y039320D01*
X032908Y039402D01*
X032861Y039471D01*
X032792Y039518D01*
X032710Y039534D01*
D02*
G37*
G36*
X027260Y039083D02*
X027198Y039071D01*
X027145Y039035D01*
X027109Y038982D01*
X027097Y038920D01*
X027109Y038858D01*
X027145Y038805D01*
X027198Y038769D01*
X027260Y038757D01*
X027286Y038762D01*
X027329Y038720D01*
X027327Y038710D01*
X027339Y038648D01*
X027375Y038595D01*
X027428Y038559D01*
X027490Y038547D01*
X027544Y038558D01*
X027571Y038537D01*
X027585Y038521D01*
X027577Y038480D01*
X027589Y038418D01*
X027625Y038365D01*
X027678Y038329D01*
X027740Y038317D01*
X027802Y038329D01*
X027855Y038365D01*
X027891Y038418D01*
X027903Y038480D01*
X027891Y038542D01*
X027855Y038595D01*
X027802Y038631D01*
X027740Y038643D01*
X027686Y038632D01*
X027659Y038653D01*
X027645Y038669D01*
X027653Y038710D01*
X027641Y038772D01*
X027605Y038825D01*
X027552Y038861D01*
X027490Y038873D01*
X027464Y038868D01*
X027421Y038910D01*
X027423Y038920D01*
X027411Y038982D01*
X027375Y039035D01*
X027322Y039071D01*
X027260Y039083D01*
D02*
G37*
G36*
X025330Y038313D02*
X025268Y038301D01*
X025215Y038265D01*
X025179Y038212D01*
X025167Y038150D01*
X025179Y038088D01*
X025215Y038035D01*
X025268Y037999D01*
X025330Y037987D01*
X025392Y037999D01*
X025445Y038035D01*
X025481Y038088D01*
X025493Y038150D01*
X025481Y038212D01*
X025445Y038265D01*
X025392Y038301D01*
X025330Y038313D01*
D02*
G37*
G36*
X030760Y038373D02*
X030698Y038361D01*
X030645Y038325D01*
X030609Y038272D01*
X030597Y038210D01*
X030609Y038148D01*
X030645Y038095D01*
X030698Y038059D01*
X030760Y038047D01*
X030822Y038059D01*
X030875Y038095D01*
X030911Y038148D01*
X030923Y038210D01*
X030911Y038272D01*
X030875Y038325D01*
X030822Y038361D01*
X030760Y038373D01*
D02*
G37*
G36*
X033490Y039043D02*
X033428Y039031D01*
X033375Y038995D01*
X033339Y038942D01*
X033327Y038880D01*
X033339Y038818D01*
X033365Y038779D01*
X033371Y038745D01*
X033365Y038711D01*
X033339Y038672D01*
X033327Y038610D01*
X033339Y038548D01*
X033371Y038500D01*
X033377Y038482D01*
Y038443D01*
X033365Y038435D01*
X033329Y038382D01*
X033317Y038320D01*
X033329Y038258D01*
X033354Y038221D01*
X033364Y038203D01*
X033344Y038158D01*
X033325Y038145D01*
X033289Y038092D01*
X033277Y038030D01*
X033280Y038016D01*
X033244Y037980D01*
X033230Y037983D01*
X033168Y037971D01*
X033115Y037935D01*
X033093Y037904D01*
X033036Y037900D01*
X033036Y037900D01*
X033025Y037915D01*
X032972Y037951D01*
X032910Y037963D01*
X032848Y037951D01*
X032795Y037916D01*
X032783Y037908D01*
X032747D01*
X032735Y037916D01*
X032682Y037951D01*
X032620Y037963D01*
X032558Y037951D01*
X032505Y037916D01*
X032493Y037908D01*
X032457D01*
X032445Y037916D01*
X032392Y037951D01*
X032330Y037963D01*
X032268Y037951D01*
X032215Y037915D01*
X032179Y037862D01*
X032167Y037800D01*
X032179Y037738D01*
X032215Y037685D01*
X032268Y037649D01*
X032330Y037637D01*
X032392Y037649D01*
X032445Y037684D01*
X032457Y037692D01*
X032493D01*
X032505Y037684D01*
X032558Y037649D01*
X032620Y037637D01*
X032682Y037649D01*
X032735Y037684D01*
X032747Y037692D01*
X032783D01*
X032795Y037684D01*
X032848Y037649D01*
X032910Y037637D01*
X032972Y037649D01*
X033025Y037685D01*
X033047Y037716D01*
X033104Y037720D01*
X033104Y037720D01*
X033115Y037705D01*
X033168Y037669D01*
X033230Y037657D01*
X033292Y037669D01*
X033345Y037705D01*
X033381Y037758D01*
X033393Y037820D01*
X033390Y037834D01*
X033426Y037870D01*
X033440Y037867D01*
X033502Y037879D01*
X033555Y037915D01*
X033591Y037968D01*
X033603Y038030D01*
X033591Y038092D01*
X033566Y038129D01*
X033556Y038147D01*
X033576Y038192D01*
X033595Y038205D01*
X033631Y038258D01*
X033643Y038320D01*
X033631Y038382D01*
X033599Y038430D01*
X033593Y038448D01*
Y038487D01*
X033605Y038495D01*
X033641Y038548D01*
X033653Y038610D01*
X033641Y038672D01*
X033615Y038711D01*
X033609Y038745D01*
X033615Y038779D01*
X033641Y038818D01*
X033653Y038880D01*
X033641Y038942D01*
X033605Y038995D01*
X033552Y039031D01*
X033490Y039043D01*
D02*
G37*
G36*
X024500Y037964D02*
Y037820D01*
X024644D01*
X024638Y037848D01*
X024594Y037914D01*
X024528Y037958D01*
X024500Y037964D01*
D02*
G37*
G36*
X029498Y038046D02*
Y037902D01*
X029642D01*
X029637Y037930D01*
X029593Y037996D01*
X029526Y038040D01*
X029498Y038046D01*
D02*
G37*
G36*
X029567Y038447D02*
X029504Y038434D01*
X029451Y038399D01*
X029416Y038346D01*
X029403Y038283D01*
X029416Y038221D01*
X029451Y038168D01*
X029504Y038133D01*
X029567Y038120D01*
X029629Y038133D01*
X029682Y038168D01*
X029717Y038221D01*
X029730Y038283D01*
X029717Y038346D01*
X029682Y038399D01*
X029629Y038434D01*
X029567Y038447D01*
D02*
G37*
G36*
X029960Y039153D02*
X029898Y039141D01*
X029845Y039105D01*
X029809Y039052D01*
X029797Y038990D01*
X029809Y038928D01*
X029835Y038889D01*
X029841Y038855D01*
X029835Y038821D01*
X029809Y038782D01*
X029797Y038720D01*
X029809Y038658D01*
X029835Y038619D01*
X029841Y038585D01*
X029835Y038551D01*
X029809Y038512D01*
X029797Y038450D01*
X029809Y038388D01*
X029845Y038335D01*
X029898Y038299D01*
X029960Y038287D01*
X030022Y038299D01*
X030075Y038335D01*
X030111Y038388D01*
X030123Y038450D01*
X030111Y038512D01*
X030085Y038551D01*
X030079Y038585D01*
X030085Y038619D01*
X030111Y038658D01*
X030123Y038720D01*
X030111Y038782D01*
X030085Y038821D01*
X030079Y038855D01*
X030085Y038889D01*
X030111Y038928D01*
X030123Y038990D01*
X030111Y039052D01*
X030075Y039105D01*
X030022Y039141D01*
X029960Y039153D01*
D02*
G37*
G36*
X029133Y038447D02*
X029071Y038434D01*
X029018Y038399D01*
X028983Y038346D01*
X028970Y038283D01*
X028983Y038221D01*
X029018Y038168D01*
X029071Y038133D01*
X029133Y038120D01*
X029196Y038133D01*
X029249Y038168D01*
X029284Y038221D01*
X029297Y038283D01*
X029284Y038346D01*
X029249Y038399D01*
X029196Y038434D01*
X029133Y038447D01*
D02*
G37*
G36*
X021500Y038484D02*
X021418Y038468D01*
X021349Y038421D01*
X021302Y038352D01*
X021286Y038270D01*
X021302Y038188D01*
X021349Y038119D01*
X021418Y038072D01*
X021500Y038056D01*
X021582Y038072D01*
X021651Y038119D01*
X021698Y038188D01*
X021714Y038270D01*
X021698Y038352D01*
X021651Y038421D01*
X021582Y038468D01*
X021500Y038484D01*
D02*
G37*
G36*
X027000Y038383D02*
X026938Y038371D01*
X026885Y038335D01*
X026849Y038282D01*
X026837Y038220D01*
X026849Y038158D01*
X026885Y038105D01*
X026938Y038069D01*
X027000Y038057D01*
X027062Y038069D01*
X027115Y038105D01*
X027151Y038158D01*
X027163Y038220D01*
X027151Y038282D01*
X027115Y038335D01*
X027062Y038371D01*
X027000Y038383D01*
D02*
G37*
G36*
X029520Y040033D02*
X029458Y040021D01*
X029405Y039985D01*
X029369Y039932D01*
X029357Y039870D01*
X029369Y039808D01*
X029405Y039755D01*
X029458Y039719D01*
X029520Y039707D01*
X029582Y039719D01*
X029595Y039728D01*
X029642Y039742D01*
X029686Y039676D01*
X029752Y039632D01*
X029780Y039626D01*
Y039820D01*
Y040014D01*
X029752Y040008D01*
X029702Y039975D01*
X029640Y039979D01*
X029635Y039985D01*
X029582Y040021D01*
X029520Y040033D01*
D02*
G37*
G36*
X020250Y040600D02*
X020055D01*
X020064Y040552D01*
X020120Y040470D01*
X020202Y040415D01*
X020250Y040405D01*
Y040600D01*
D02*
G37*
G36*
X022240D02*
X022045D01*
X022055Y040552D01*
X022110Y040470D01*
X022192Y040415D01*
X022240Y040405D01*
Y040600D01*
D02*
G37*
G36*
X029620Y040653D02*
X029558Y040641D01*
X029505Y040605D01*
X029469Y040552D01*
X029457Y040490D01*
X029469Y040428D01*
X029505Y040375D01*
X029558Y040339D01*
X029620Y040327D01*
X029682Y040339D01*
X029735Y040375D01*
X029771Y040428D01*
X029783Y040490D01*
X029771Y040552D01*
X029735Y040605D01*
X029682Y040641D01*
X029620Y040653D01*
D02*
G37*
G36*
X025617Y040600D02*
X025117D01*
Y040150D01*
X025617D01*
Y040600D01*
D02*
G37*
G36*
X027600D02*
X027100D01*
Y040150D01*
X027600D01*
Y040600D01*
D02*
G37*
G36*
X018040Y041298D02*
X017940Y041285D01*
X017846Y041246D01*
X017766Y041184D01*
X017704Y041104D01*
X017665Y041010D01*
X017652Y040910D01*
X017665Y040810D01*
X017704Y040716D01*
X017766Y040636D01*
X017846Y040574D01*
X017940Y040535D01*
X018040Y040522D01*
X018140Y040535D01*
X018234Y040574D01*
X018314Y040636D01*
X018376Y040716D01*
X018415Y040810D01*
X018428Y040910D01*
X018415Y041010D01*
X018376Y041104D01*
X018314Y041184D01*
X018234Y041246D01*
X018140Y041285D01*
X018040Y041298D01*
D02*
G37*
G36*
X031380Y040893D02*
X031318Y040881D01*
X031265Y040845D01*
X031229Y040792D01*
X031217Y040730D01*
X031229Y040668D01*
X031265Y040615D01*
X031318Y040579D01*
X031380Y040567D01*
X031442Y040579D01*
X031495Y040615D01*
X031531Y040668D01*
X031543Y040730D01*
X031531Y040792D01*
X031495Y040845D01*
X031442Y040881D01*
X031380Y040893D01*
D02*
G37*
G36*
X017040Y041298D02*
X016940Y041285D01*
X016846Y041246D01*
X016766Y041184D01*
X016704Y041104D01*
X016665Y041010D01*
X016652Y040910D01*
X016665Y040810D01*
X016704Y040716D01*
X016766Y040636D01*
X016846Y040574D01*
X016940Y040535D01*
X017040Y040522D01*
X017140Y040535D01*
X017234Y040574D01*
X017314Y040636D01*
X017376Y040716D01*
X017415Y040810D01*
X017428Y040910D01*
X017415Y041010D01*
X017376Y041104D01*
X017314Y041184D01*
X017234Y041246D01*
X017140Y041285D01*
X017040Y041298D01*
D02*
G37*
G36*
X024223Y040600D02*
X024028D01*
X024038Y040552D01*
X024093Y040470D01*
X024176Y040415D01*
X024223Y040405D01*
Y040600D01*
D02*
G37*
G36*
X026210D02*
X026015D01*
X026024Y040552D01*
X026080Y040470D01*
X026162Y040415D01*
X026210Y040405D01*
Y040600D01*
D02*
G37*
G36*
X023633D02*
X023133D01*
Y040150D01*
X023633D01*
Y040600D01*
D02*
G37*
G36*
X018490Y040133D02*
X018428Y040121D01*
X018375Y040085D01*
X018339Y040032D01*
X018327Y039970D01*
X018339Y039908D01*
X018375Y039855D01*
X018428Y039819D01*
X018490Y039807D01*
X018552Y039819D01*
X018605Y039855D01*
X018641Y039908D01*
X018653Y039970D01*
X018641Y040032D01*
X018605Y040085D01*
X018552Y040121D01*
X018490Y040133D01*
D02*
G37*
G36*
X016010Y040143D02*
X015948Y040131D01*
X015895Y040095D01*
X015859Y040042D01*
X015847Y039980D01*
X015859Y039918D01*
X015895Y039865D01*
X015948Y039829D01*
X016010Y039817D01*
X016072Y039829D01*
X016125Y039865D01*
X016161Y039918D01*
X016173Y039980D01*
X016161Y040042D01*
X016125Y040095D01*
X016072Y040131D01*
X016010Y040143D01*
D02*
G37*
G36*
X030960Y039975D02*
Y039780D01*
X031155D01*
X031146Y039828D01*
X031090Y039910D01*
X031008Y039966D01*
X030960Y039975D01*
D02*
G37*
G36*
X030024Y039770D02*
X029880D01*
Y039626D01*
X029908Y039632D01*
X029974Y039676D01*
X030018Y039742D01*
X030024Y039770D01*
D02*
G37*
G36*
X030860Y039975D02*
X030812Y039966D01*
X030730Y039910D01*
X030675Y039828D01*
X030665Y039780D01*
X030860D01*
Y039975D01*
D02*
G37*
G36*
X030390Y040303D02*
X030328Y040291D01*
X030275Y040255D01*
X030239Y040202D01*
X030227Y040140D01*
X030239Y040078D01*
X030275Y040025D01*
X030328Y039989D01*
X030390Y039977D01*
X030452Y039989D01*
X030505Y040025D01*
X030541Y040078D01*
X030553Y040140D01*
X030541Y040202D01*
X030505Y040255D01*
X030452Y040291D01*
X030390Y040303D01*
D02*
G37*
G36*
X021650Y040600D02*
X021150D01*
Y040150D01*
X021650D01*
Y040600D01*
D02*
G37*
G36*
X028740Y040243D02*
X028678Y040231D01*
X028625Y040195D01*
X028589Y040142D01*
X028577Y040080D01*
X028589Y040018D01*
X028625Y039965D01*
X028678Y039929D01*
X028740Y039917D01*
X028802Y039929D01*
X028855Y039965D01*
X028891Y040018D01*
X028903Y040080D01*
X028891Y040142D01*
X028855Y040195D01*
X028802Y040231D01*
X028740Y040243D01*
D02*
G37*
G36*
X032700Y040294D02*
X032618Y040278D01*
X032549Y040231D01*
X032502Y040162D01*
X032486Y040080D01*
X032502Y039998D01*
X032549Y039929D01*
X032618Y039882D01*
X032700Y039866D01*
X032782Y039882D01*
X032851Y039929D01*
X032898Y039998D01*
X032914Y040080D01*
X032898Y040162D01*
X032851Y040231D01*
X032782Y040278D01*
X032700Y040294D01*
D02*
G37*
G36*
X029880Y040014D02*
Y039870D01*
X030024D01*
X030018Y039898D01*
X029974Y039964D01*
X029908Y040008D01*
X029880Y040014D01*
D02*
G37*
%LPD*%
D48*
X021100Y040650D02*
D03*
X023083D02*
D03*
X025067D02*
D03*
X027050D02*
D03*
X032270Y033350D02*
D03*
X030270D02*
D03*
X028270D02*
D03*
X026270D02*
D03*
X024270D02*
D03*
X022270D02*
D03*
X020270D02*
D03*
X018270D02*
D03*
D49*
X031750Y042600D02*
D03*
D55*
X016030Y041150D02*
D03*
X024450Y037770D02*
D03*
X027440Y039920D02*
D03*
X029448Y037852D02*
D03*
X029830Y039820D02*
D03*
D56*
X027700Y039760D02*
D03*
D57*
X016304Y033314D02*
D03*
X028060Y039390D02*
D03*
X030910Y039730D02*
D03*
X026260Y040650D02*
D03*
X024273D02*
D03*
X022290D02*
D03*
X020300D02*
D03*
X031750Y041800D02*
D03*
X021500Y036020D02*
D03*
X017483Y033340D02*
D03*
X019483Y033350D02*
D03*
X021486D02*
D03*
X023489D02*
D03*
X025491D02*
D03*
X027494D02*
D03*
X029497D02*
D03*
X031500D02*
D03*
X022899Y034820D02*
D03*
M02*
