G04 Layer_Color=8150272*
%FSAX24Y24*%
%MOIN*%
G70*
G01*
G75*
%ADD90R,0.0355X0.1221*%
%ADD91R,0.1221X0.0355*%
%ADD92R,0.0355X0.1418*%
%ADD93O,0.0940X0.0840*%
%ADD94R,0.0940X0.0840*%
%ADD95C,0.0640*%
%ADD96R,0.0640X0.0640*%
%ADD97C,0.0690*%
%ADD98O,0.0840X0.0940*%
%ADD99R,0.0840X0.0940*%
%ADD100C,0.1123*%
%ADD101C,0.0240*%
%ADD102C,0.0540*%
%ADD103C,0.0340*%
D90*
X016888Y037570D02*
D03*
D91*
X018266Y035680D02*
D03*
D92*
X019250Y037570D02*
D03*
D93*
X021100Y042650D02*
D03*
Y041650D02*
D03*
X023083Y042650D02*
D03*
Y041650D02*
D03*
X025067Y042650D02*
D03*
Y041650D02*
D03*
X027050Y042650D02*
D03*
Y041650D02*
D03*
X032270Y031350D02*
D03*
Y032350D02*
D03*
X030270Y031350D02*
D03*
Y032350D02*
D03*
X028270Y031350D02*
D03*
Y032350D02*
D03*
X026270Y031350D02*
D03*
Y032350D02*
D03*
X024270Y031350D02*
D03*
Y032350D02*
D03*
X022270Y031350D02*
D03*
Y032350D02*
D03*
X020270Y031350D02*
D03*
Y032350D02*
D03*
X018270Y031350D02*
D03*
Y032350D02*
D03*
D94*
X021100Y040650D02*
D03*
X023083D02*
D03*
X025067D02*
D03*
X027050D02*
D03*
X032270Y033350D02*
D03*
X030270D02*
D03*
X028270D02*
D03*
X026270D02*
D03*
X024270D02*
D03*
X022270D02*
D03*
X020270D02*
D03*
X018270D02*
D03*
D95*
X028750Y042600D02*
D03*
X029750D02*
D03*
X030750D02*
D03*
X031750D02*
D03*
X032750D02*
D03*
D96*
X033750D02*
D03*
D97*
X018040Y040910D02*
D03*
X017040D02*
D03*
D98*
X019060Y042140D02*
D03*
X018060D02*
D03*
D99*
X017060D02*
D03*
D100*
X035640Y042550D02*
D03*
Y031450D02*
D03*
X014730Y031500D02*
D03*
Y042500D02*
D03*
D101*
X016030Y041150D02*
D03*
X024450Y037770D02*
D03*
X023800Y037670D02*
D03*
X019470Y040770D02*
D03*
X016010Y039980D02*
D03*
X026580Y035650D02*
D03*
X031380Y040730D02*
D03*
X029210Y041150D02*
D03*
X029448Y037852D02*
D03*
X029830Y039820D02*
D03*
D102*
X027700Y039760D02*
D03*
D103*
X016304Y033314D02*
D03*
X020310Y035570D02*
D03*
X028008Y037005D02*
D03*
X028060Y039390D02*
D03*
X030910Y039730D02*
D03*
X022290Y042640D02*
D03*
X020310D02*
D03*
X024283Y042660D02*
D03*
X026270D02*
D03*
X026260Y040650D02*
D03*
X024273D02*
D03*
X022290D02*
D03*
X020300D02*
D03*
X032700Y040080D02*
D03*
X031605Y036600D02*
D03*
X014290Y034000D02*
D03*
Y032300D02*
D03*
X030108Y036105D02*
D03*
X031750Y041800D02*
D03*
X021500Y038270D02*
D03*
Y036020D02*
D03*
X025250Y037000D02*
D03*
X017483Y033340D02*
D03*
X019483Y033350D02*
D03*
X021486D02*
D03*
X023489D02*
D03*
X025491D02*
D03*
X027494D02*
D03*
X029497D02*
D03*
X031500D02*
D03*
X021483Y031340D02*
D03*
X019480D02*
D03*
X017480Y031330D02*
D03*
X027493Y031340D02*
D03*
X025490D02*
D03*
X023490Y031330D02*
D03*
X031490Y031340D02*
D03*
X029490Y031330D02*
D03*
X022899Y034820D02*
D03*
X033750Y041800D02*
D03*
X032710Y039320D02*
D03*
M02*
