G04 Layer_Color=7318015*
%FSAX24Y24*%
%MOIN*%
G70*
G01*
G75*
%ADD11R,0.0433X0.0354*%
G04:AMPARAMS|DCode=12|XSize=40mil|YSize=55mil|CornerRadius=5mil|HoleSize=0mil|Usage=FLASHONLY|Rotation=0.000|XOffset=0mil|YOffset=0mil|HoleType=Round|Shape=RoundedRectangle|*
%AMROUNDEDRECTD12*
21,1,0.0400,0.0450,0,0,0.0*
21,1,0.0300,0.0550,0,0,0.0*
1,1,0.0100,0.0150,-0.0225*
1,1,0.0100,-0.0150,-0.0225*
1,1,0.0100,-0.0150,0.0225*
1,1,0.0100,0.0150,0.0225*
%
%ADD12ROUNDEDRECTD12*%
%ADD13R,0.0413X0.0571*%
%ADD14R,0.0492X0.0433*%
%ADD15R,0.0283X0.0299*%
%ADD16R,0.0413X0.0354*%
%ADD17R,0.0354X0.0413*%
%ADD18R,0.0472X0.0157*%
%ADD19R,0.0268X0.0331*%
%ADD20R,0.0413X0.0394*%
%ADD21R,0.0591X0.0217*%
%ADD22R,0.0315X0.0315*%
%ADD23R,0.0315X0.0315*%
%ADD24O,0.0295X0.0098*%
%ADD25O,0.0098X0.0295*%
%ADD26R,0.0846X0.0846*%
G04:AMPARAMS|DCode=27|XSize=40mil|YSize=55mil|CornerRadius=5mil|HoleSize=0mil|Usage=FLASHONLY|Rotation=270.000|XOffset=0mil|YOffset=0mil|HoleType=Round|Shape=RoundedRectangle|*
%AMROUNDEDRECTD27*
21,1,0.0400,0.0450,0,0,270.0*
21,1,0.0300,0.0550,0,0,270.0*
1,1,0.0100,-0.0225,-0.0150*
1,1,0.0100,-0.0225,0.0150*
1,1,0.0100,0.0225,0.0150*
1,1,0.0100,0.0225,-0.0150*
%
%ADD27ROUNDEDRECTD27*%
%ADD28R,0.0394X0.0512*%
%ADD29R,0.0236X0.0335*%
%ADD30R,0.0512X0.0413*%
%ADD31R,0.0252X0.0268*%
%ADD32R,0.0512X0.0394*%
%ADD33R,0.0650X0.0650*%
%ADD34R,0.0335X0.0276*%
D11*
X016020Y042125D02*
D03*
Y041535D02*
D03*
D12*
X020950Y038270D02*
D03*
X020250D02*
D03*
D13*
X016304Y032800D02*
D03*
X015576D02*
D03*
X016354Y034500D02*
D03*
X015626D02*
D03*
D14*
X020305Y036020D02*
D03*
X020975D02*
D03*
D15*
X031905Y037057D02*
D03*
Y037443D02*
D03*
X031305Y037057D02*
D03*
Y037443D02*
D03*
D16*
X024450Y038134D02*
D03*
Y038666D02*
D03*
X025250Y035934D02*
D03*
Y036466D02*
D03*
X019070Y040774D02*
D03*
Y041306D02*
D03*
X030390Y041036D02*
D03*
Y040504D02*
D03*
D17*
X018116Y039970D02*
D03*
X017584D02*
D03*
X030394Y041540D02*
D03*
X030926D02*
D03*
X029214Y041550D02*
D03*
X029746D02*
D03*
D18*
X022178Y036446D02*
D03*
Y036190D02*
D03*
Y035934D02*
D03*
Y035678D02*
D03*
Y035422D02*
D03*
Y035166D02*
D03*
Y034910D02*
D03*
Y034654D02*
D03*
X024422Y036446D02*
D03*
Y036190D02*
D03*
Y035934D02*
D03*
Y035678D02*
D03*
Y035422D02*
D03*
Y035166D02*
D03*
Y034910D02*
D03*
Y034654D02*
D03*
D19*
X031513Y038800D02*
D03*
X031087D02*
D03*
D20*
X031895Y038000D02*
D03*
X031305D02*
D03*
D21*
X023000Y038740D02*
D03*
Y037460D02*
D03*
D22*
X014295Y032800D02*
D03*
X014885D02*
D03*
D23*
X014295Y034500D02*
D03*
X014885D02*
D03*
D24*
X030305Y037811D02*
D03*
Y038008D02*
D03*
Y038205D02*
D03*
Y038402D02*
D03*
Y038598D02*
D03*
Y038795D02*
D03*
Y038992D02*
D03*
Y039189D02*
D03*
X028395D02*
D03*
Y038992D02*
D03*
Y038795D02*
D03*
Y038598D02*
D03*
Y038402D02*
D03*
Y038205D02*
D03*
Y038008D02*
D03*
Y037811D02*
D03*
D25*
X030039Y039455D02*
D03*
X029842D02*
D03*
X029645D02*
D03*
X029448D02*
D03*
X029252D02*
D03*
X029055D02*
D03*
X028858D02*
D03*
X028661D02*
D03*
Y037545D02*
D03*
X028858D02*
D03*
X029055D02*
D03*
X029252D02*
D03*
X029448D02*
D03*
X029645D02*
D03*
X029842D02*
D03*
X030039D02*
D03*
D26*
X029350Y038500D02*
D03*
D27*
X031410Y040080D02*
D03*
Y039380D02*
D03*
X032110Y040080D02*
D03*
Y039380D02*
D03*
X030710Y036310D02*
D03*
Y037010D02*
D03*
D28*
X032595Y038750D02*
D03*
X032005D02*
D03*
X016445Y039980D02*
D03*
X017035D02*
D03*
D29*
X020974Y037542D02*
D03*
X020600D02*
D03*
X020226D02*
D03*
Y036598D02*
D03*
X020974D02*
D03*
D30*
X029511Y036191D02*
D03*
X028605D02*
D03*
Y036919D02*
D03*
X029511D02*
D03*
D31*
X028008Y036181D02*
D03*
Y036528D02*
D03*
X030108Y036928D02*
D03*
Y036581D02*
D03*
D32*
X023800Y038055D02*
D03*
Y038645D02*
D03*
D33*
X034080Y039120D02*
D03*
Y038320D02*
D03*
Y039920D02*
D03*
D34*
X027560Y037486D02*
D03*
Y037034D02*
D03*
X026580Y036476D02*
D03*
Y035984D02*
D03*
X026010Y035994D02*
D03*
Y036486D02*
D03*
M02*
