G04 Layer_Color=20142*
%FSAX24Y24*%
%MOIN*%
G70*
G01*
G75*
G04:AMPARAMS|DCode=51|XSize=23.7mil|YSize=23.7mil|CornerRadius=4mil|HoleSize=0mil|Usage=FLASHONLY|Rotation=90.000|XOffset=0mil|YOffset=0mil|HoleType=Round|Shape=RoundedRectangle|*
%AMROUNDEDRECTD51*
21,1,0.0237,0.0157,0,0,90.0*
21,1,0.0157,0.0237,0,0,90.0*
1,1,0.0079,0.0079,0.0079*
1,1,0.0079,0.0079,-0.0079*
1,1,0.0079,-0.0079,-0.0079*
1,1,0.0079,-0.0079,0.0079*
%
%ADD51ROUNDEDRECTD51*%
%ADD52R,0.0552X0.0434*%
%ADD53R,0.0827X0.0394*%
%ADD54R,0.0394X0.0827*%
%ADD55R,0.2009X0.2009*%
%ADD56R,0.0295X0.0315*%
%ADD57R,0.1339X0.0985*%
%ADD58R,0.0434X0.0985*%
%ADD59R,0.0257X0.0257*%
%ADD60R,0.0394X0.0237*%
%ADD61R,0.0260X0.0260*%
%ADD62R,0.0552X0.0394*%
%ADD63R,0.0631X0.0257*%
%ADD64R,0.0453X0.0394*%
%ADD65R,0.0591X0.0512*%
%ADD66C,0.0740*%
%ADD67C,0.0690*%
%ADD68R,0.1221X0.0355*%
%ADD69R,0.0355X0.1221*%
%ADD70R,0.1418X0.0355*%
%ADD71C,0.1123*%
D51*
X029550Y034517D02*
D03*
Y034123D02*
D03*
D52*
X034450Y045755D02*
D03*
Y046345D02*
D03*
D53*
X032740Y046350D02*
D03*
X025850Y038673D02*
D03*
Y046350D02*
D03*
Y045759D02*
D03*
Y045169D02*
D03*
Y044578D02*
D03*
Y043988D02*
D03*
Y043397D02*
D03*
Y042807D02*
D03*
Y042216D02*
D03*
Y041626D02*
D03*
Y041035D02*
D03*
Y040444D02*
D03*
Y039854D02*
D03*
Y039263D02*
D03*
X032740Y037492D02*
D03*
Y038082D02*
D03*
Y038673D02*
D03*
Y039263D02*
D03*
Y039854D02*
D03*
Y040444D02*
D03*
Y041035D02*
D03*
Y041626D02*
D03*
Y042216D02*
D03*
Y042807D02*
D03*
Y043397D02*
D03*
Y043988D02*
D03*
X025850Y037492D02*
D03*
Y038082D02*
D03*
X032740Y044578D02*
D03*
Y045169D02*
D03*
Y045759D02*
D03*
D54*
X031362Y037196D02*
D03*
X031952D02*
D03*
X030181D02*
D03*
X029590D02*
D03*
X029000D02*
D03*
X028409D02*
D03*
X027819D02*
D03*
X027228D02*
D03*
X026637D02*
D03*
X030771D02*
D03*
D55*
X028827Y043181D02*
D03*
D56*
X034237Y035550D02*
D03*
X033863D02*
D03*
X034237Y034550D02*
D03*
X033863D02*
D03*
D57*
X031150Y032308D02*
D03*
D58*
X030244Y034592D02*
D03*
X031150D02*
D03*
X032056D02*
D03*
D59*
X030900Y030777D02*
D03*
Y030423D02*
D03*
X029850D02*
D03*
Y030777D02*
D03*
D60*
Y029444D02*
D03*
Y029956D02*
D03*
X030900Y029444D02*
D03*
Y029956D02*
D03*
D61*
X024350Y046650D02*
D03*
Y046250D02*
D03*
D62*
X024900Y045876D02*
D03*
Y046624D02*
D03*
D63*
X035250Y046440D02*
D03*
Y045160D02*
D03*
D64*
X033650Y045784D02*
D03*
Y046316D02*
D03*
X029000Y035884D02*
D03*
Y036416D02*
D03*
D65*
X033000Y033785D02*
D03*
Y033115D02*
D03*
D66*
X035100Y044250D02*
D03*
Y043250D02*
D03*
Y042250D02*
D03*
Y041250D02*
D03*
Y040000D02*
D03*
Y039000D02*
D03*
Y038000D02*
D03*
Y037000D02*
D03*
X022650Y042350D02*
D03*
X023650D02*
D03*
X024650D02*
D03*
X022650Y045050D02*
D03*
X023650D02*
D03*
X024650D02*
D03*
X022650Y043700D02*
D03*
X023650D02*
D03*
X024650D02*
D03*
X022650Y041000D02*
D03*
X023650D02*
D03*
X024650D02*
D03*
X022650Y039650D02*
D03*
X023650D02*
D03*
X024650D02*
D03*
X022650Y038300D02*
D03*
X023650D02*
D03*
X024650D02*
D03*
X022650Y036950D02*
D03*
X023650D02*
D03*
X024650D02*
D03*
X022650Y035600D02*
D03*
X023650D02*
D03*
X024650D02*
D03*
X022650Y034000D02*
D03*
X023650D02*
D03*
X024650D02*
D03*
X022650Y032650D02*
D03*
X023650D02*
D03*
X024650D02*
D03*
X022650Y031300D02*
D03*
X023650D02*
D03*
X024650D02*
D03*
X022650Y029950D02*
D03*
X023650D02*
D03*
X024650D02*
D03*
D67*
X035100Y034550D02*
D03*
Y035550D02*
D03*
Y031890D02*
D03*
Y032890D02*
D03*
D68*
X027300Y032238D02*
D03*
D69*
X029190Y033616D02*
D03*
D70*
X027300Y034600D02*
D03*
D71*
X034670Y029880D02*
D03*
X023150Y046270D02*
D03*
M02*
