G04 Layer_Color=8150272*
%FSAX24Y24*%
%MOIN*%
G70*
G01*
G75*
%ADD66C,0.0740*%
%ADD67C,0.0690*%
%ADD68R,0.1221X0.0355*%
%ADD69R,0.0355X0.1221*%
%ADD70R,0.1418X0.0355*%
%ADD71C,0.1123*%
D66*
X035100Y044250D02*
D03*
Y043250D02*
D03*
Y042250D02*
D03*
Y041250D02*
D03*
Y040000D02*
D03*
Y039000D02*
D03*
Y038000D02*
D03*
Y037000D02*
D03*
X022650Y042350D02*
D03*
X023650D02*
D03*
X024650D02*
D03*
X022650Y045050D02*
D03*
X023650D02*
D03*
X024650D02*
D03*
X022650Y043700D02*
D03*
X023650D02*
D03*
X024650D02*
D03*
X022650Y041000D02*
D03*
X023650D02*
D03*
X024650D02*
D03*
X022650Y039650D02*
D03*
X023650D02*
D03*
X024650D02*
D03*
X022650Y038300D02*
D03*
X023650D02*
D03*
X024650D02*
D03*
X022650Y036950D02*
D03*
X023650D02*
D03*
X024650D02*
D03*
X022650Y035600D02*
D03*
X023650D02*
D03*
X024650D02*
D03*
X022650Y034000D02*
D03*
X023650D02*
D03*
X024650D02*
D03*
X022650Y032650D02*
D03*
X023650D02*
D03*
X024650D02*
D03*
X022650Y031300D02*
D03*
X023650D02*
D03*
X024650D02*
D03*
X022650Y029950D02*
D03*
X023650D02*
D03*
X024650D02*
D03*
D67*
X035100Y034550D02*
D03*
Y035550D02*
D03*
Y031890D02*
D03*
Y032890D02*
D03*
D68*
X027300Y032238D02*
D03*
D69*
X029190Y033616D02*
D03*
D70*
X027300Y034600D02*
D03*
D71*
X034670Y029880D02*
D03*
X023150Y046270D02*
D03*
M02*
