G04 Layer_Color=7318015*
%FSAX24Y24*%
%MOIN*%
G70*
G01*
G75*
G04:AMPARAMS|DCode=10|XSize=19.7mil|YSize=19.7mil|CornerRadius=2mil|HoleSize=0mil|Usage=FLASHONLY|Rotation=90.000|XOffset=0mil|YOffset=0mil|HoleType=Round|Shape=RoundedRectangle|*
%AMROUNDEDRECTD10*
21,1,0.0197,0.0157,0,0,90.0*
21,1,0.0157,0.0197,0,0,90.0*
1,1,0.0039,0.0079,0.0079*
1,1,0.0039,0.0079,-0.0079*
1,1,0.0039,-0.0079,-0.0079*
1,1,0.0039,-0.0079,0.0079*
%
%ADD10ROUNDEDRECTD10*%
%ADD11R,0.0512X0.0394*%
%ADD12R,0.0787X0.0354*%
%ADD13R,0.0354X0.0787*%
%ADD14R,0.1969X0.1969*%
%ADD15R,0.0256X0.0276*%
%ADD16R,0.1299X0.0945*%
%ADD17R,0.0394X0.0945*%
%ADD18R,0.0217X0.0217*%
%ADD19R,0.0354X0.0197*%
%ADD20R,0.0220X0.0220*%
%ADD21R,0.0512X0.0354*%
%ADD22R,0.0591X0.0217*%
%ADD23R,0.0413X0.0354*%
%ADD24R,0.0551X0.0472*%
D10*
X029550Y034517D02*
D03*
Y034123D02*
D03*
D11*
X034450Y045755D02*
D03*
Y046345D02*
D03*
D12*
X032740Y046350D02*
D03*
X025850Y038673D02*
D03*
Y046350D02*
D03*
Y045759D02*
D03*
Y045169D02*
D03*
Y044578D02*
D03*
Y043988D02*
D03*
Y043397D02*
D03*
Y042807D02*
D03*
Y042216D02*
D03*
Y041626D02*
D03*
Y041035D02*
D03*
Y040444D02*
D03*
Y039854D02*
D03*
Y039263D02*
D03*
X032740Y037492D02*
D03*
Y038082D02*
D03*
Y038673D02*
D03*
Y039263D02*
D03*
Y039854D02*
D03*
Y040444D02*
D03*
Y041035D02*
D03*
Y041626D02*
D03*
Y042216D02*
D03*
Y042807D02*
D03*
Y043397D02*
D03*
Y043988D02*
D03*
X025850Y037492D02*
D03*
Y038082D02*
D03*
X032740Y044578D02*
D03*
Y045169D02*
D03*
Y045759D02*
D03*
D13*
X031362Y037196D02*
D03*
X031952D02*
D03*
X030181D02*
D03*
X029590D02*
D03*
X029000D02*
D03*
X028409D02*
D03*
X027819D02*
D03*
X027228D02*
D03*
X026637D02*
D03*
X030771D02*
D03*
D14*
X028827Y043181D02*
D03*
D15*
X034237Y035550D02*
D03*
X033863D02*
D03*
X034237Y034550D02*
D03*
X033863D02*
D03*
D16*
X031150Y032308D02*
D03*
D17*
X030244Y034592D02*
D03*
X031150D02*
D03*
X032056D02*
D03*
D18*
X030900Y030777D02*
D03*
Y030423D02*
D03*
X029850D02*
D03*
Y030777D02*
D03*
D19*
Y029444D02*
D03*
Y029956D02*
D03*
X030900Y029444D02*
D03*
Y029956D02*
D03*
D20*
X024350Y046650D02*
D03*
Y046250D02*
D03*
D21*
X024900Y045876D02*
D03*
Y046624D02*
D03*
D22*
X035250Y046440D02*
D03*
Y045160D02*
D03*
D23*
X033650Y045784D02*
D03*
Y046316D02*
D03*
X029000Y035884D02*
D03*
Y036416D02*
D03*
D24*
X033000Y033785D02*
D03*
Y033115D02*
D03*
M02*
