G04 Layer_Physical_Order=1*
G04 Layer_Color=25308*
%FSAX24Y24*%
%MOIN*%
G70*
G01*
G75*
G04:AMPARAMS|DCode=10|XSize=19.7mil|YSize=19.7mil|CornerRadius=2mil|HoleSize=0mil|Usage=FLASHONLY|Rotation=90.000|XOffset=0mil|YOffset=0mil|HoleType=Round|Shape=RoundedRectangle|*
%AMROUNDEDRECTD10*
21,1,0.0197,0.0157,0,0,90.0*
21,1,0.0157,0.0197,0,0,90.0*
1,1,0.0039,0.0079,0.0079*
1,1,0.0039,0.0079,-0.0079*
1,1,0.0039,-0.0079,-0.0079*
1,1,0.0039,-0.0079,0.0079*
%
%ADD10ROUNDEDRECTD10*%
%ADD11R,0.0512X0.0394*%
%ADD12R,0.0787X0.0354*%
%ADD13R,0.0354X0.0787*%
%ADD14R,0.1969X0.1969*%
%ADD15R,0.0256X0.0276*%
%ADD16R,0.1299X0.0945*%
%ADD17R,0.0394X0.0945*%
%ADD18R,0.0217X0.0217*%
%ADD19R,0.0354X0.0197*%
%ADD20R,0.0220X0.0220*%
%ADD21R,0.0512X0.0354*%
%ADD22R,0.0591X0.0217*%
%ADD23R,0.0413X0.0354*%
%ADD24R,0.0551X0.0472*%
%ADD25C,0.0080*%
%ADD26C,0.0100*%
%ADD27C,0.0150*%
%ADD28C,0.0200*%
%ADD29C,0.0050*%
%ADD30R,0.0750X0.1650*%
%ADD31R,0.3600X0.1050*%
%ADD32R,0.4950X0.0650*%
%ADD33R,0.0400X0.0310*%
%ADD34R,0.3600X0.0550*%
%ADD35R,0.3450X0.0950*%
%ADD36R,0.1550X0.1600*%
%ADD37R,0.0950X0.0500*%
%ADD38R,0.4050X0.0450*%
%ADD39R,0.3850X0.5060*%
%ADD40C,0.0700*%
%ADD41C,0.0650*%
%ADD42R,0.1181X0.0315*%
%ADD43R,0.0315X0.1181*%
%ADD44R,0.1378X0.0315*%
%ADD45C,0.1083*%
%ADD46C,0.0500*%
%ADD47C,0.0300*%
D10*
X029550Y034517D02*
D03*
Y034123D02*
D03*
D11*
X034450Y045755D02*
D03*
Y046345D02*
D03*
D12*
X032740Y046350D02*
D03*
X025850Y038673D02*
D03*
Y046350D02*
D03*
Y045759D02*
D03*
Y045169D02*
D03*
Y044578D02*
D03*
Y043988D02*
D03*
Y043397D02*
D03*
Y042807D02*
D03*
Y042216D02*
D03*
Y041626D02*
D03*
Y041035D02*
D03*
Y040444D02*
D03*
Y039854D02*
D03*
Y039263D02*
D03*
X032740Y037492D02*
D03*
Y038082D02*
D03*
Y038673D02*
D03*
Y039263D02*
D03*
Y039854D02*
D03*
Y040444D02*
D03*
Y041035D02*
D03*
Y041626D02*
D03*
Y042216D02*
D03*
Y042807D02*
D03*
Y043397D02*
D03*
Y043988D02*
D03*
X025850Y037492D02*
D03*
Y038082D02*
D03*
X032740Y044578D02*
D03*
Y045169D02*
D03*
Y045759D02*
D03*
D13*
X031362Y037196D02*
D03*
X031952D02*
D03*
X030181D02*
D03*
X029590D02*
D03*
X029000D02*
D03*
X028409D02*
D03*
X027819D02*
D03*
X027228D02*
D03*
X026637D02*
D03*
X030771D02*
D03*
D14*
X028827Y043181D02*
D03*
D15*
X034237Y035550D02*
D03*
X033863D02*
D03*
X034237Y034550D02*
D03*
X033863D02*
D03*
D16*
X031150Y032308D02*
D03*
D17*
X030244Y034592D02*
D03*
X031150D02*
D03*
X032056D02*
D03*
D18*
X030900Y030777D02*
D03*
Y030423D02*
D03*
X029850D02*
D03*
Y030777D02*
D03*
D19*
Y029444D02*
D03*
Y029956D02*
D03*
X030900Y029444D02*
D03*
Y029956D02*
D03*
D20*
X024350Y046650D02*
D03*
Y046250D02*
D03*
D21*
X024900Y045876D02*
D03*
Y046624D02*
D03*
D22*
X035250Y046440D02*
D03*
Y045160D02*
D03*
D23*
X033650Y045784D02*
D03*
Y046316D02*
D03*
X029000Y035884D02*
D03*
Y036416D02*
D03*
D24*
X033000Y033785D02*
D03*
Y033115D02*
D03*
D25*
X034287Y034550D02*
X035100D01*
X032271Y036370D02*
X033560Y035081D01*
Y034630D02*
Y035081D01*
Y034630D02*
X033640Y034550D01*
X033863D01*
Y034600D02*
X033913Y034550D01*
X033863Y035600D02*
X033913Y035550D01*
X029904Y036761D02*
X030295Y036370D01*
X029590Y037196D02*
X029904Y036883D01*
Y036761D02*
Y036883D01*
X030181Y037196D02*
X030221Y037156D01*
Y036879D02*
Y037156D01*
Y036879D02*
X030550Y036550D01*
X030295Y036370D02*
X032271D01*
X030550Y036550D02*
X032695D01*
X033695Y035550D01*
X033863D01*
X034287D02*
X035100D01*
D26*
Y034550D02*
X035100Y034550D01*
X026641Y045759D02*
X026650Y045750D01*
X024350Y045900D02*
X024374Y045876D01*
X024350Y046650D02*
X024376Y046624D01*
X032740Y045759D02*
X032765Y045784D01*
X033650D01*
Y046316D02*
X034420D01*
X034450Y046345D01*
X034544Y046440D01*
X035250D01*
X035090Y030890D02*
Y031890D01*
X034990D02*
X035040Y031940D01*
X028984Y035900D02*
X029000Y035884D01*
X028350Y035900D02*
X028984D01*
X029850Y030777D02*
Y031250D01*
X030900Y029956D02*
Y030423D01*
X029850Y029956D02*
Y030423D01*
Y029444D02*
X029856Y029450D01*
X030400D01*
X030894D02*
X030900Y029444D01*
X030400Y029450D02*
X030894D01*
X035040Y031940D02*
X035090Y031890D01*
X035100Y035550D02*
X035100Y035550D01*
X030900Y032058D02*
X031150Y032308D01*
X030900Y030827D02*
Y032058D01*
X029000Y037196D02*
X029000Y037196D01*
Y036416D02*
Y037196D01*
X026650Y046350D02*
X026650Y046350D01*
X022650Y043700D02*
X023100Y044150D01*
Y044370D02*
Y044600D01*
X022650Y045050D02*
X023100Y044600D01*
Y041680D02*
Y041900D01*
X022650Y042350D02*
X023100Y041900D01*
X022650Y041000D02*
X023100Y041450D01*
Y041680D01*
X022650Y038300D02*
X023100Y038750D01*
Y038980D01*
X022650Y039650D02*
X023100Y039200D01*
Y038980D02*
Y039200D01*
X022650Y035600D02*
X023110Y036060D01*
Y036280D01*
X022650Y036950D02*
X023110Y036490D01*
Y036280D02*
Y036490D01*
X023120Y033320D02*
Y033530D01*
X022650Y034000D02*
X023120Y033530D01*
X022650Y032650D02*
X023120Y033120D01*
Y033320D01*
Y030620D02*
Y030830D01*
X022650Y031300D02*
X023120Y030830D01*
X022650Y029950D02*
X023120Y030420D01*
Y030620D01*
X023100Y044150D02*
Y044370D01*
X024180D02*
Y044580D01*
X024650Y045050D01*
X024180Y044170D02*
X024650Y043700D01*
X024180Y044170D02*
Y044370D01*
X024190Y041460D02*
X024650Y041000D01*
X024190Y041460D02*
Y041890D01*
X024650Y042350D01*
X024190Y038980D02*
Y039190D01*
X024650Y039650D01*
X024190Y038760D02*
Y038980D01*
Y038760D02*
X024650Y038300D01*
X024180Y036280D02*
Y036480D01*
X024650Y036950D01*
X024180Y036070D02*
Y036280D01*
Y036070D02*
X024650Y035600D01*
X024190Y033320D02*
Y033540D01*
X024650Y034000D01*
X024190Y033110D02*
Y033320D01*
Y033110D02*
X024650Y032650D01*
X024180Y030620D02*
Y030830D01*
X024650Y031300D01*
X024180Y030420D02*
Y030620D01*
Y030420D02*
X024650Y029950D01*
X035100Y041250D02*
X035930D01*
X035100Y044250D02*
X035880D01*
X032740Y046350D02*
X032740Y046350D01*
X034460Y045170D02*
Y045745D01*
X034470Y045160D02*
X035250D01*
X034460Y045170D02*
X034470Y045160D01*
X031360Y037970D02*
X031362Y037968D01*
D27*
X025850Y045759D02*
X026641D01*
X024374Y045876D02*
X024900D01*
X024350Y045900D02*
Y046250D01*
X024900Y045876D02*
X025017Y045759D01*
X025850D01*
X024376Y046624D02*
X024900D01*
X025576D02*
X025850Y046350D01*
X024900Y046624D02*
X025576D01*
X025850Y046350D02*
X026650D01*
X031960Y046350D02*
X032740D01*
X031362Y037196D02*
Y037968D01*
D28*
X031150Y034592D02*
Y035500D01*
D29*
X024410Y045530D02*
X025010D01*
X023650Y043690D02*
Y043700D01*
X025250Y043970D02*
X025832D01*
X025850Y043988D01*
X025280Y044590D02*
X025838D01*
X025850Y044578D01*
Y041626D02*
X025856Y041620D01*
X025850Y039263D02*
X025857Y039270D01*
X025862Y038070D02*
X026710D01*
X025850Y038082D02*
X025862Y038070D01*
X025850Y039854D02*
X026664D01*
X025850Y040444D02*
X026674D01*
X025850Y041035D02*
X026665D01*
X025850Y042807D02*
X025857Y042800D01*
X026710D01*
X025850Y042216D02*
X025854Y042220D01*
X023650Y043690D02*
X024140Y043200D01*
X023650Y042350D02*
X024130Y042830D01*
X025140Y044730D02*
X025280Y044590D01*
X025140Y044730D02*
Y045400D01*
X025010Y045530D02*
X025140Y045400D01*
X023650Y045050D02*
X023930D01*
X024070Y045190D02*
X024410Y045530D01*
X023930Y045050D02*
X024070Y045190D01*
X025160Y043880D02*
X025250Y043970D01*
X024140Y043200D02*
X024984D01*
X025160Y043376D01*
Y043880D01*
X025387Y043397D02*
X025850D01*
X024130Y042830D02*
X025040D01*
X025280Y043070D01*
Y043290D01*
X025387Y043397D01*
X025854Y042220D02*
X026710D01*
X025856Y041620D02*
X026710D01*
X025857Y039270D02*
X026710D01*
X025850Y038673D02*
X026710D01*
X025869Y045150D02*
X026650D01*
X025850Y045169D02*
X025869Y045150D01*
X031960Y043393D02*
X032735D01*
X032740Y043397D01*
X031960Y043984D02*
X032736D01*
X032740Y043988D01*
X031965Y042807D02*
X032740D01*
X031960Y042801D02*
X031965Y042807D01*
X031960Y042210D02*
X032734D01*
X032740Y042216D01*
X031960Y041611D02*
X032725D01*
X032740Y041626D01*
X031975Y041035D02*
X032740D01*
X031960Y041020D02*
X031975Y041035D01*
D30*
X033025Y032575D02*
D03*
D31*
X031550Y032275D02*
D03*
D32*
X027975Y034725D02*
D03*
D33*
X029550Y034105D02*
D03*
D34*
X027300Y034675D02*
D03*
D35*
X030775Y033525D02*
D03*
D36*
X032625Y034300D02*
D03*
D37*
X032775Y033800D02*
D03*
D38*
X031225Y033725D02*
D03*
D39*
X027425Y031730D02*
D03*
D40*
X035100Y044250D02*
D03*
Y043250D02*
D03*
Y042250D02*
D03*
Y041250D02*
D03*
Y040000D02*
D03*
Y039000D02*
D03*
Y038000D02*
D03*
Y037000D02*
D03*
X022650Y042350D02*
D03*
X023650D02*
D03*
X024650D02*
D03*
X022650Y045050D02*
D03*
X023650D02*
D03*
X024650D02*
D03*
X022650Y043700D02*
D03*
X023650D02*
D03*
X024650D02*
D03*
X022650Y041000D02*
D03*
X023650D02*
D03*
X024650D02*
D03*
X022650Y039650D02*
D03*
X023650D02*
D03*
X024650D02*
D03*
X022650Y038300D02*
D03*
X023650D02*
D03*
X024650D02*
D03*
X022650Y036950D02*
D03*
X023650D02*
D03*
X024650D02*
D03*
X022650Y035600D02*
D03*
X023650D02*
D03*
X024650D02*
D03*
X022650Y034000D02*
D03*
X023650D02*
D03*
X024650D02*
D03*
X022650Y032650D02*
D03*
X023650D02*
D03*
X024650D02*
D03*
X022650Y031300D02*
D03*
X023650D02*
D03*
X024650D02*
D03*
X022650Y029950D02*
D03*
X023650D02*
D03*
X024650D02*
D03*
D41*
X035100Y034550D02*
D03*
Y035550D02*
D03*
Y031890D02*
D03*
Y032890D02*
D03*
D42*
X027300Y032238D02*
D03*
D43*
X029190Y033616D02*
D03*
D44*
X027300Y034600D02*
D03*
D45*
X034670Y029880D02*
D03*
X023150Y046270D02*
D03*
D46*
X026650Y046350D02*
D03*
Y045750D02*
D03*
X035090Y030890D02*
D03*
X028350Y035900D02*
D03*
X031150Y035500D02*
D03*
X032200Y032250D02*
D03*
X032950D02*
D03*
Y034600D02*
D03*
X030100Y032250D02*
D03*
X023100Y041680D02*
D03*
Y038980D02*
D03*
X023110Y036280D02*
D03*
X023120Y033320D02*
D03*
Y030620D02*
D03*
X023100Y044370D02*
D03*
X024180D02*
D03*
X024190Y041675D02*
D03*
Y038980D02*
D03*
X024180Y036280D02*
D03*
X024190Y033320D02*
D03*
X024180Y030620D02*
D03*
X026710Y041026D02*
D03*
Y040435D02*
D03*
X028827Y043740D02*
D03*
X028207D02*
D03*
X029447D02*
D03*
Y043161D02*
D03*
X028207D02*
D03*
X028827D02*
D03*
X029447Y042590D02*
D03*
X028827D02*
D03*
X028207D02*
D03*
X026710Y039844D02*
D03*
Y039253D02*
D03*
Y038661D02*
D03*
Y038070D02*
D03*
Y042209D02*
D03*
Y042800D02*
D03*
Y041617D02*
D03*
X026650Y045150D02*
D03*
X031960Y042801D02*
D03*
Y043984D02*
D03*
Y043393D02*
D03*
Y042210D02*
D03*
Y041020D02*
D03*
Y041611D02*
D03*
X035900Y041250D02*
D03*
Y044250D02*
D03*
X031960Y046350D02*
D03*
X034460Y045170D02*
D03*
X031360Y037970D02*
D03*
D47*
X029850Y031250D02*
D03*
X030400Y029450D02*
D03*
M02*
