G04 Layer_Physical_Order=4*
G04 Layer_Color=11436288*
%FSAX24Y24*%
%MOIN*%
G70*
G01*
G75*
%ADD26C,0.0100*%
%ADD29C,0.0050*%
%ADD40C,0.0700*%
%ADD41C,0.0650*%
%ADD42R,0.1181X0.0315*%
%ADD43R,0.0315X0.1181*%
%ADD44R,0.1378X0.0315*%
%ADD45C,0.1083*%
%ADD46C,0.0500*%
%ADD47C,0.0300*%
D26*
X027300Y033800D02*
Y034600D01*
Y033800D02*
X029850Y031250D01*
D29*
X035060Y032850D02*
X035100Y032890D01*
X034650Y032850D02*
X035060D01*
X023650Y039650D02*
X024360Y040360D01*
X025170D01*
X025330Y040520D01*
X023984Y038300D02*
X025120Y039436D01*
X023650Y038300D02*
X023984D01*
X025190Y039270D02*
X025280Y039360D01*
X025190Y037710D02*
Y039270D01*
X025140Y037660D02*
X025190Y037710D01*
X024360Y037660D02*
X025140D01*
X023650Y036950D02*
X024360Y037660D01*
X023650Y035600D02*
X024000D01*
X025300Y036900D01*
Y039210D01*
X025440Y039350D01*
X023989Y041000D02*
X025085Y042096D01*
X023650Y034000D02*
Y034790D01*
X024025Y035165D01*
X024830D01*
X025160Y035495D01*
Y036570D01*
X025510Y036920D01*
Y039240D01*
X025600Y039330D01*
X025290Y036540D02*
X025640Y036890D01*
X025290Y035430D02*
Y036540D01*
X025085Y035225D02*
X025290Y035430D01*
X025085Y033740D02*
Y035225D01*
X023995Y032650D02*
X025085Y033740D01*
X023650Y032650D02*
X023995D01*
X025440Y036430D02*
X025750Y036740D01*
X025440Y035410D02*
Y036430D01*
X025195Y035165D02*
X025440Y035410D01*
X025195Y032415D02*
Y035165D01*
X024950Y032170D02*
X025195Y032415D01*
X023650Y031300D02*
Y031940D01*
X023880Y032170D01*
X024950D01*
X023650Y041000D02*
X023989D01*
X025930Y036710D02*
Y037960D01*
X025560Y036340D02*
X025930Y036710D01*
X025560Y035310D02*
Y036340D01*
X025330Y035080D02*
X025560Y035310D01*
X025330Y031296D02*
Y035080D01*
X023650Y029950D02*
X023984D01*
X025330Y031296D01*
X025085Y042096D02*
Y042585D01*
X025300Y042800D01*
X026710D01*
X025330Y040520D02*
Y042050D01*
X025489Y042209D01*
X026710D01*
X025500Y041560D02*
X025557Y041617D01*
X026710D01*
X025610Y040940D02*
X025696Y041026D01*
X026710D01*
X025120Y039436D02*
Y040110D01*
X025280Y039360D02*
Y040050D01*
X025120Y040110D02*
X025500Y040490D01*
Y041560D01*
X025280Y040050D02*
X025610Y040380D01*
Y040940D01*
X025875Y040435D02*
X026710D01*
X025440Y040000D02*
X025875Y040435D01*
X025440Y039350D02*
Y040000D01*
X025600Y039330D02*
Y039740D01*
X025704Y039844D01*
X026710D01*
X025640Y036890D02*
Y039110D01*
X025780Y039250D01*
X026707D01*
X026710Y039253D01*
X025750Y036740D02*
Y038550D01*
X025861Y038661D01*
X026710D01*
X025930Y037960D02*
X026040Y038070D01*
X026710D01*
X033680Y033820D02*
X034650Y032850D01*
X033680Y033820D02*
Y035470D01*
X032570Y036580D02*
X033680Y035470D01*
X030060Y036580D02*
X032570D01*
X027320Y039320D02*
X030060Y036580D01*
X027320Y039320D02*
Y045030D01*
X027200Y045150D02*
X027320Y045030D01*
X026650Y045150D02*
X027200D01*
X031960Y043984D02*
X033386D01*
X034120Y043250D01*
X035100D01*
X031960Y043393D02*
X033298D01*
X031960Y042801D02*
X031969Y042810D01*
X033500D01*
X031960Y042210D02*
X033630D01*
X034410Y041430D01*
X031960Y041611D02*
X033849D01*
X031960Y041020D02*
X033750D01*
X033849Y041611D02*
X034200Y041260D01*
X033750Y041020D02*
X034000Y040770D01*
X034640Y037000D02*
X035100D01*
X034200Y039430D02*
Y041260D01*
X034000Y039370D02*
Y040770D01*
X034340Y037300D02*
X034640Y037000D01*
X034340Y037300D02*
Y039030D01*
X034000Y039370D02*
X034340Y039030D01*
X034680Y039000D02*
X035100D01*
X034720Y038000D02*
X035100D01*
X034600Y039080D02*
X034680Y039000D01*
X034480Y038240D02*
X034720Y038000D01*
X034480Y038240D02*
Y039150D01*
X034200Y039430D02*
X034480Y039150D01*
X034410Y039800D02*
Y041430D01*
X034600Y039080D02*
Y039270D01*
X034410Y039460D02*
X034600Y039270D01*
X034410Y039460D02*
Y041430D01*
X034700Y040000D02*
X035100D01*
X034590Y040110D02*
X034700Y040000D01*
X033500Y042810D02*
X034590Y041720D01*
Y040110D02*
Y041720D01*
X034440Y042250D02*
X035100D01*
X033298Y043393D02*
X034440Y042250D01*
D40*
X035100Y044250D02*
D03*
Y043250D02*
D03*
Y042250D02*
D03*
Y041250D02*
D03*
Y040000D02*
D03*
Y039000D02*
D03*
Y038000D02*
D03*
Y037000D02*
D03*
X022650Y042350D02*
D03*
X023650D02*
D03*
X024650D02*
D03*
X022650Y045050D02*
D03*
X023650D02*
D03*
X024650D02*
D03*
X022650Y043700D02*
D03*
X023650D02*
D03*
X024650D02*
D03*
X022650Y041000D02*
D03*
X023650D02*
D03*
X024650D02*
D03*
X022650Y039650D02*
D03*
X023650D02*
D03*
X024650D02*
D03*
X022650Y038300D02*
D03*
X023650D02*
D03*
X024650D02*
D03*
X022650Y036950D02*
D03*
X023650D02*
D03*
X024650D02*
D03*
X022650Y035600D02*
D03*
X023650D02*
D03*
X024650D02*
D03*
X022650Y034000D02*
D03*
X023650D02*
D03*
X024650D02*
D03*
X022650Y032650D02*
D03*
X023650D02*
D03*
X024650D02*
D03*
X022650Y031300D02*
D03*
X023650D02*
D03*
X024650D02*
D03*
X022650Y029950D02*
D03*
X023650D02*
D03*
X024650D02*
D03*
D41*
X035100Y034550D02*
D03*
Y035550D02*
D03*
Y031890D02*
D03*
Y032890D02*
D03*
D42*
X027300Y032238D02*
D03*
D43*
X029190Y033616D02*
D03*
D44*
X027300Y034600D02*
D03*
D45*
X034670Y029880D02*
D03*
X023150Y046270D02*
D03*
D46*
X026650Y046350D02*
D03*
Y045750D02*
D03*
X035090Y030890D02*
D03*
X028350Y035900D02*
D03*
X031150Y035500D02*
D03*
X032200Y032250D02*
D03*
X032950D02*
D03*
Y034600D02*
D03*
X030100Y032250D02*
D03*
X023100Y041680D02*
D03*
Y038980D02*
D03*
X023110Y036280D02*
D03*
X023120Y033320D02*
D03*
Y030620D02*
D03*
X023100Y044370D02*
D03*
X024180D02*
D03*
X024190Y041675D02*
D03*
Y038980D02*
D03*
X024180Y036280D02*
D03*
X024190Y033320D02*
D03*
X024180Y030620D02*
D03*
X026710Y041026D02*
D03*
Y040435D02*
D03*
X028827Y043740D02*
D03*
X028207D02*
D03*
X029447D02*
D03*
Y043161D02*
D03*
X028207D02*
D03*
X028827D02*
D03*
X029447Y042590D02*
D03*
X028827D02*
D03*
X028207D02*
D03*
X026710Y039844D02*
D03*
Y039253D02*
D03*
Y038661D02*
D03*
Y038070D02*
D03*
Y042209D02*
D03*
Y042800D02*
D03*
Y041617D02*
D03*
X026650Y045150D02*
D03*
X031960Y042801D02*
D03*
Y043984D02*
D03*
Y043393D02*
D03*
Y042210D02*
D03*
Y041020D02*
D03*
Y041611D02*
D03*
X035900Y041250D02*
D03*
Y044250D02*
D03*
X031960Y046350D02*
D03*
X034460Y045170D02*
D03*
X031360Y037970D02*
D03*
D47*
X029850Y031250D02*
D03*
X030400Y029450D02*
D03*
M02*
