G04 Layer_Color=15132400*
%FSAX24Y24*%
%MOIN*%
G70*
G01*
G75*
%ADD25C,0.0080*%
%ADD26C,0.0100*%
%ADD48C,0.0098*%
%ADD49C,0.0079*%
%ADD50C,0.0059*%
G36*
X033060Y030179D02*
X033071Y030178D01*
X033085Y030176D01*
X033101Y030173D01*
X033119Y030169D01*
X033139Y030163D01*
X033115Y030080D01*
X033114Y030081D01*
X033108Y030083D01*
X033101Y030085D01*
X033090Y030089D01*
X033079Y030092D01*
X033066Y030095D01*
X033053Y030096D01*
X033040Y030097D01*
X033030D01*
X033024Y030096D01*
X033017Y030095D01*
X033007Y030092D01*
X032988Y030085D01*
X032977Y030080D01*
X032966Y030074D01*
X032955Y030067D01*
X032946Y030057D01*
X032936Y030047D01*
X032927Y030035D01*
X032919Y030020D01*
X032913Y030003D01*
Y030002D01*
Y030001D01*
Y029997D01*
Y029992D01*
Y029980D01*
Y029965D01*
Y029945D01*
Y029923D01*
Y029899D01*
Y029872D01*
X032915Y029817D01*
Y029763D01*
X032916Y029736D01*
Y029712D01*
X032917Y029689D01*
Y029670D01*
X032824D01*
Y029672D01*
Y029677D01*
X032825Y029686D01*
Y029696D01*
X032827Y029711D01*
Y029727D01*
X032828Y029745D01*
X032829Y029764D01*
X032830Y029805D01*
X032831Y029847D01*
X032833Y029888D01*
Y029907D01*
Y029925D01*
Y029926D01*
Y029931D01*
Y029937D01*
Y029947D01*
X032831Y029958D01*
Y029971D01*
X032830Y029985D01*
Y030001D01*
X032828Y030019D01*
X032827Y030037D01*
X032823Y030077D01*
X032817Y030119D01*
X032809Y030161D01*
X032899Y030174D01*
Y030173D01*
Y030172D01*
X032900Y030164D01*
X032902Y030155D01*
X032905Y030144D01*
X032906Y030131D01*
X032908Y030119D01*
X032910Y030107D01*
Y030098D01*
X032913D01*
X032915Y030099D01*
X032916Y030102D01*
X032919Y030105D01*
X032923Y030111D01*
X032935Y030125D01*
X032951Y030139D01*
X032970Y030155D01*
X032993Y030167D01*
X033005Y030173D01*
X033018Y030176D01*
X033031Y030179D01*
X033044Y030180D01*
X033052D01*
X033060Y030179D01*
D02*
G37*
G36*
X033130Y031005D02*
X033138Y031004D01*
X033148Y031002D01*
X033171Y030998D01*
X033197Y030989D01*
X033225Y030977D01*
X033238Y030970D01*
X033253Y030962D01*
X033266Y030951D01*
X033279Y030939D01*
X033280Y030938D01*
X033283Y030935D01*
X033285Y030931D01*
X033290Y030927D01*
X033295Y030919D01*
X033301Y030911D01*
X033308Y030901D01*
X033314Y030891D01*
X033320Y030877D01*
X033327Y030864D01*
X033333Y030848D01*
X033338Y030832D01*
X033343Y030814D01*
X033347Y030794D01*
X033348Y030773D01*
X033349Y030751D01*
Y030750D01*
Y030745D01*
Y030738D01*
X033348Y030729D01*
X033347Y030719D01*
X033345Y030705D01*
X033343Y030691D01*
X033339Y030675D01*
X033330Y030643D01*
X033324Y030625D01*
X033317Y030608D01*
X033308Y030591D01*
X033297Y030574D01*
X033285Y030559D01*
X033272Y030544D01*
X033271Y030543D01*
X033268Y030541D01*
X033265Y030537D01*
X033259Y030533D01*
X033252Y030527D01*
X033243Y030521D01*
X033232Y030514D01*
X033221Y030508D01*
X033208Y030501D01*
X033195Y030494D01*
X033165Y030483D01*
X033148Y030478D01*
X033130Y030474D01*
X033112Y030472D01*
X033093Y030471D01*
X033083D01*
X033077Y030472D01*
X033069Y030473D01*
X033059Y030474D01*
X033036Y030479D01*
X033010Y030486D01*
X032982Y030498D01*
X032968Y030506D01*
X032954Y030514D01*
X032940Y030525D01*
X032927Y030536D01*
X032926Y030537D01*
X032924Y030539D01*
X032921Y030543D01*
X032916Y030548D01*
X032911Y030555D01*
X032905Y030562D01*
X032898Y030572D01*
X032892Y030584D01*
X032886Y030596D01*
X032879Y030609D01*
X032873Y030625D01*
X032868Y030642D01*
X032863Y030660D01*
X032861Y030679D01*
X032858Y030699D01*
X032857Y030721D01*
Y030722D01*
Y030727D01*
Y030734D01*
X032858Y030744D01*
X032859Y030755D01*
X032861Y030768D01*
X032863Y030782D01*
X032867Y030798D01*
X032876Y030832D01*
X032882Y030848D01*
X032889Y030867D01*
X032898Y030883D01*
X032909Y030900D01*
X032921Y030916D01*
X032934Y030930D01*
X032935Y030931D01*
X032938Y030934D01*
X032942Y030938D01*
X032947Y030942D01*
X032954Y030948D01*
X032964Y030954D01*
X032974Y030962D01*
X032986Y030969D01*
X032998Y030975D01*
X033012Y030982D01*
X033042Y030994D01*
X033059Y030999D01*
X033077Y031002D01*
X033095Y031005D01*
X033114Y031006D01*
X033124D01*
X033130Y031005D01*
D02*
G37*
G36*
X033458Y030185D02*
X033467Y030184D01*
X033476Y030182D01*
X033499Y030178D01*
X033526Y030169D01*
X033553Y030157D01*
X033567Y030150D01*
X033581Y030142D01*
X033594Y030131D01*
X033607Y030119D01*
X033609Y030118D01*
X033611Y030115D01*
X033613Y030111D01*
X033618Y030107D01*
X033623Y030099D01*
X033629Y030091D01*
X033636Y030081D01*
X033642Y030071D01*
X033648Y030057D01*
X033656Y030044D01*
X033662Y030028D01*
X033666Y030012D01*
X033671Y029994D01*
X033675Y029974D01*
X033676Y029953D01*
X033677Y029931D01*
Y029930D01*
Y029925D01*
Y029918D01*
X033676Y029909D01*
X033675Y029899D01*
X033674Y029885D01*
X033671Y029871D01*
X033668Y029855D01*
X033658Y029823D01*
X033652Y029805D01*
X033645Y029788D01*
X033636Y029771D01*
X033625Y029754D01*
X033613Y029739D01*
X033600Y029724D01*
X033599Y029723D01*
X033597Y029721D01*
X033593Y029717D01*
X033587Y029713D01*
X033580Y029707D01*
X033571Y029701D01*
X033561Y029694D01*
X033550Y029688D01*
X033536Y029681D01*
X033523Y029674D01*
X033493Y029663D01*
X033476Y029658D01*
X033458Y029654D01*
X033440Y029652D01*
X033421Y029651D01*
X033411D01*
X033405Y029652D01*
X033397Y029653D01*
X033387Y029654D01*
X033364Y029659D01*
X033338Y029666D01*
X033310Y029678D01*
X033296Y029686D01*
X033283Y029694D01*
X033268Y029705D01*
X033255Y029716D01*
X033254Y029717D01*
X033253Y029719D01*
X033249Y029723D01*
X033244Y029728D01*
X033239Y029735D01*
X033233Y029742D01*
X033226Y029752D01*
X033220Y029764D01*
X033214Y029776D01*
X033207Y029789D01*
X033201Y029805D01*
X033196Y029822D01*
X033191Y029840D01*
X033189Y029859D01*
X033186Y029879D01*
X033185Y029901D01*
Y029902D01*
Y029907D01*
Y029914D01*
X033186Y029924D01*
X033188Y029935D01*
X033189Y029948D01*
X033191Y029962D01*
X033195Y029978D01*
X033204Y030012D01*
X033210Y030028D01*
X033218Y030047D01*
X033226Y030063D01*
X033237Y030080D01*
X033249Y030096D01*
X033262Y030110D01*
X033263Y030111D01*
X033266Y030114D01*
X033271Y030118D01*
X033275Y030122D01*
X033283Y030128D01*
X033292Y030134D01*
X033302Y030142D01*
X033314Y030149D01*
X033326Y030155D01*
X033340Y030162D01*
X033370Y030174D01*
X033387Y030179D01*
X033405Y030182D01*
X033423Y030185D01*
X033443Y030186D01*
X033452D01*
X033458Y030185D01*
D02*
G37*
G36*
X032466Y030348D02*
X032479Y030347D01*
X032496Y030345D01*
X032514Y030341D01*
X032533Y030338D01*
X032554Y030332D01*
X032574Y030323D01*
X032593Y030314D01*
X032611Y030302D01*
X032628Y030287D01*
X032641Y030270D01*
X032652Y030250D01*
X032659Y030227D01*
X032662Y030214D01*
Y030201D01*
Y030199D01*
Y030196D01*
X032661Y030190D01*
Y030181D01*
X032658Y030173D01*
X032657Y030162D01*
X032649Y030138D01*
X032644Y030125D01*
X032637Y030111D01*
X032628Y030098D01*
X032619Y030086D01*
X032607Y030074D01*
X032593Y030063D01*
X032578Y030054D01*
X032560Y030045D01*
Y030041D01*
X032561D01*
X032566Y030039D01*
X032573Y030037D01*
X032582Y030035D01*
X032593Y030030D01*
X032605Y030025D01*
X032619Y030018D01*
X032632Y030010D01*
X032645Y030001D01*
X032658Y029989D01*
X032670Y029976D01*
X032681Y029960D01*
X032691Y029942D01*
X032698Y029923D01*
X032703Y029901D01*
X032704Y029876D01*
Y029875D01*
Y029871D01*
Y029866D01*
X032703Y029859D01*
X032702Y029850D01*
X032699Y029841D01*
X032693Y029818D01*
X032688Y029806D01*
X032684Y029793D01*
X032676Y029781D01*
X032668Y029767D01*
X032658Y029754D01*
X032646Y029742D01*
X032634Y029730D01*
X032619Y029719D01*
X032617D01*
X032615Y029717D01*
X032610Y029715D01*
X032603Y029711D01*
X032595Y029707D01*
X032585Y029702D01*
X032572Y029699D01*
X032558Y029694D01*
X032543Y029689D01*
X032526Y029684D01*
X032507Y029680D01*
X032486Y029676D01*
X032465Y029672D01*
X032441Y029670D01*
X032415Y029669D01*
X032389Y029668D01*
X032343D01*
X032332Y029669D01*
X032271D01*
X032252Y029670D01*
X032230D01*
Y029672D01*
Y029677D01*
X032231Y029686D01*
Y029698D01*
Y029713D01*
X032232Y029731D01*
Y029752D01*
X032234Y029775D01*
X032235Y029800D01*
Y029828D01*
X032236Y029856D01*
Y029888D01*
Y029920D01*
X032237Y029954D01*
Y030025D01*
Y030027D01*
Y030033D01*
Y030043D01*
Y030056D01*
Y030072D01*
Y030090D01*
Y030110D01*
X032236Y030133D01*
Y030158D01*
Y030184D01*
X032235Y030238D01*
X032232Y030293D01*
X032230Y030346D01*
X032331D01*
X032347Y030347D01*
X032374D01*
X032384Y030348D01*
X032396D01*
X032422Y030350D01*
X032455D01*
X032466Y030348D01*
D02*
G37*
G36*
X032732Y030999D02*
X032743Y030998D01*
X032757Y030996D01*
X032773Y030993D01*
X032791Y030989D01*
X032811Y030983D01*
X032787Y030900D01*
X032786Y030901D01*
X032780Y030903D01*
X032773Y030905D01*
X032762Y030909D01*
X032751Y030912D01*
X032738Y030915D01*
X032725Y030916D01*
X032711Y030917D01*
X032702D01*
X032696Y030916D01*
X032689Y030915D01*
X032679Y030912D01*
X032660Y030905D01*
X032649Y030900D01*
X032638Y030894D01*
X032627Y030887D01*
X032618Y030877D01*
X032608Y030867D01*
X032598Y030855D01*
X032591Y030840D01*
X032585Y030823D01*
Y030822D01*
Y030821D01*
Y030817D01*
Y030812D01*
Y030800D01*
Y030785D01*
Y030765D01*
Y030743D01*
Y030719D01*
Y030692D01*
X032586Y030637D01*
Y030583D01*
X032588Y030556D01*
Y030532D01*
X032589Y030509D01*
Y030490D01*
X032496D01*
Y030492D01*
Y030497D01*
X032497Y030506D01*
Y030516D01*
X032498Y030531D01*
Y030547D01*
X032500Y030565D01*
X032501Y030584D01*
X032502Y030625D01*
X032503Y030667D01*
X032505Y030708D01*
Y030727D01*
Y030745D01*
Y030746D01*
Y030751D01*
Y030757D01*
Y030767D01*
X032503Y030778D01*
Y030791D01*
X032502Y030805D01*
Y030821D01*
X032500Y030839D01*
X032498Y030857D01*
X032495Y030897D01*
X032489Y030939D01*
X032480Y030981D01*
X032571Y030994D01*
Y030993D01*
Y030992D01*
X032572Y030984D01*
X032574Y030975D01*
X032577Y030964D01*
X032578Y030951D01*
X032580Y030939D01*
X032582Y030927D01*
Y030918D01*
X032585D01*
X032586Y030919D01*
X032588Y030922D01*
X032591Y030925D01*
X032595Y030931D01*
X032607Y030945D01*
X032622Y030959D01*
X032642Y030975D01*
X032665Y030987D01*
X032677Y030993D01*
X032690Y030996D01*
X032703Y030999D01*
X032716Y031000D01*
X032723D01*
X032732Y030999D01*
D02*
G37*
G36*
X034194Y030982D02*
Y030978D01*
X034192Y030975D01*
X034191Y030970D01*
X034189Y030962D01*
X034186Y030953D01*
X034183Y030941D01*
X034178Y030927D01*
X034172Y030910D01*
X034165Y030889D01*
X034155Y030867D01*
X034145Y030840D01*
X034133Y030810D01*
X034119Y030776D01*
X034103Y030738D01*
X034102Y030735D01*
X034100Y030728D01*
X034095Y030719D01*
X034089Y030704D01*
X034083Y030687D01*
X034076Y030668D01*
X034067Y030649D01*
X034059Y030627D01*
X034042Y030584D01*
X034035Y030563D01*
X034029Y030543D01*
X034023Y030526D01*
X034018Y030510D01*
X034015Y030498D01*
X034014Y030490D01*
X033944D01*
Y030491D01*
X033943Y030495D01*
Y030498D01*
X033942Y030503D01*
X033940Y030509D01*
X033938Y030516D01*
X033935Y030525D01*
X033931Y030536D01*
X033928Y030548D01*
X033922Y030562D01*
X033916Y030578D01*
X033910Y030596D01*
X033901Y030618D01*
X033892Y030640D01*
X033890Y030643D01*
X033889Y030648D01*
X033886Y030656D01*
X033881Y030667D01*
X033876Y030681D01*
X033870Y030697D01*
X033863Y030714D01*
X033855Y030733D01*
X033841Y030774D01*
X033825Y030816D01*
X033812Y030856D01*
X033806Y030875D01*
X033800Y030893D01*
X033795D01*
Y030892D01*
X033794Y030889D01*
X033793Y030883D01*
X033791Y030876D01*
X033788Y030868D01*
X033784Y030857D01*
X033781Y030844D01*
X033776Y030828D01*
X033770Y030811D01*
X033764Y030793D01*
X033757Y030772D01*
X033750Y030750D01*
X033741Y030725D01*
X033732Y030698D01*
X033721Y030670D01*
X033710Y030640D01*
Y030639D01*
X033708Y030634D01*
X033705Y030628D01*
X033703Y030620D01*
X033699Y030609D01*
X033695Y030598D01*
X033687Y030573D01*
X033677Y030547D01*
X033670Y030521D01*
X033668Y030512D01*
X033665Y030502D01*
X033663Y030495D01*
Y030490D01*
X033592D01*
Y030491D01*
Y030495D01*
X033591Y030498D01*
X033590Y030503D01*
X033587Y030512D01*
X033585Y030520D01*
X033581Y030532D01*
X033578Y030547D01*
X033572Y030565D01*
X033564Y030584D01*
X033557Y030608D01*
X033546Y030634D01*
X033535Y030666D01*
X033522Y030701D01*
X033508Y030739D01*
Y030740D01*
X033507Y030741D01*
X033504Y030749D01*
X033501Y030759D01*
X033495Y030774D01*
X033489Y030791D01*
X033481Y030810D01*
X033474Y030830D01*
X033466Y030852D01*
X033450Y030895D01*
X033443Y030916D01*
X033437Y030935D01*
X033431Y030952D01*
X033427Y030966D01*
X033425Y030976D01*
X033424Y030983D01*
X033515D01*
Y030982D01*
Y030980D01*
X033516Y030976D01*
X033517Y030972D01*
X033519Y030966D01*
X033520Y030958D01*
X033522Y030948D01*
X033526Y030938D01*
X033529Y030923D01*
X033534Y030907D01*
X033540Y030889D01*
X033548Y030868D01*
X033556Y030844D01*
X033564Y030816D01*
X033575Y030786D01*
X033576Y030784D01*
X033578Y030779D01*
X033581Y030770D01*
X033585Y030758D01*
X033590Y030745D01*
X033594Y030731D01*
X033600Y030714D01*
X033606Y030697D01*
X033617Y030662D01*
X033622Y030645D01*
X033627Y030631D01*
X033631Y030616D01*
X033634Y030604D01*
X033635Y030595D01*
X033637Y030587D01*
X033643D01*
Y030590D01*
Y030592D01*
X033644Y030597D01*
X033645Y030602D01*
X033646Y030609D01*
X033647Y030619D01*
X033651Y030628D01*
X033653Y030642D01*
X033658Y030656D01*
X033663Y030673D01*
X033669Y030692D01*
X033676Y030713D01*
X033685Y030737D01*
X033694Y030763D01*
X033705Y030792D01*
X033706Y030794D01*
X033708Y030799D01*
X033711Y030808D01*
X033715Y030818D01*
X033720Y030830D01*
X033724Y030845D01*
X033736Y030877D01*
X033748Y030911D01*
X033753Y030927D01*
X033758Y030941D01*
X033762Y030956D01*
X033765Y030968D01*
X033766Y030976D01*
X033768Y030983D01*
X033855D01*
Y030982D01*
Y030980D01*
X033857Y030977D01*
X033858Y030972D01*
X033859Y030966D01*
X033861Y030959D01*
X033864Y030950D01*
X033868Y030938D01*
X033871Y030924D01*
X033877Y030907D01*
X033883Y030889D01*
X033890Y030868D01*
X033899Y030842D01*
X033910Y030815D01*
X033920Y030784D01*
X033922Y030781D01*
X033923Y030776D01*
X033926Y030768D01*
X033931Y030756D01*
X033936Y030743D01*
X033941Y030727D01*
X033947Y030711D01*
X033954Y030693D01*
X033966Y030660D01*
X033971Y030643D01*
X033976Y030627D01*
X033981Y030614D01*
X033984Y030602D01*
X033985Y030593D01*
X033987Y030587D01*
X033991D01*
Y030589D01*
Y030591D01*
X033993Y030595D01*
Y030599D01*
X033995Y030605D01*
X033996Y030614D01*
X033999Y030624D01*
X034001Y030634D01*
X034006Y030649D01*
X034009Y030664D01*
X034015Y030682D01*
X034021Y030703D01*
X034030Y030726D01*
X034038Y030751D01*
X034048Y030780D01*
X034049Y030782D01*
X034050Y030787D01*
X034053Y030796D01*
X034056Y030806D01*
X034061Y030818D01*
X034066Y030834D01*
X034071Y030850D01*
X034077Y030867D01*
X034086Y030901D01*
X034096Y030934D01*
X034100Y030950D01*
X034102Y030963D01*
X034104Y030975D01*
Y030983D01*
X034194D01*
Y030982D01*
D02*
G37*
G36*
X032223Y031175D02*
X032240Y031173D01*
X032258Y031172D01*
X032278Y031170D01*
X032300Y031165D01*
X032322Y031160D01*
X032308Y031075D01*
X032307D01*
X032305Y031076D01*
X032300Y031077D01*
X032294Y031078D01*
X032287Y031079D01*
X032278Y031081D01*
X032259Y031085D01*
X032237Y031089D01*
X032215Y031091D01*
X032192Y031094D01*
X032170Y031095D01*
X032158D01*
X032150Y031094D01*
X032139Y031093D01*
X032127Y031091D01*
X032114Y031089D01*
X032099Y031085D01*
X032068Y031076D01*
X032052Y031070D01*
X032037Y031063D01*
X032021Y031054D01*
X032005Y031043D01*
X031991Y031031D01*
X031978Y031018D01*
X031976Y031017D01*
X031975Y031015D01*
X031972Y031011D01*
X031967Y031005D01*
X031962Y030998D01*
X031957Y030988D01*
X031951Y030978D01*
X031945Y030966D01*
X031938Y030953D01*
X031932Y030939D01*
X031922Y030907D01*
X031914Y030870D01*
X031913Y030851D01*
X031911Y030830D01*
Y030829D01*
Y030826D01*
Y030820D01*
X031913Y030811D01*
X031914Y030802D01*
X031915Y030790D01*
X031917Y030776D01*
X031921Y030763D01*
X031929Y030732D01*
X031937Y030715D01*
X031944Y030698D01*
X031952Y030681D01*
X031962Y030664D01*
X031974Y030648D01*
X031987Y030631D01*
X031988Y030630D01*
X031991Y030627D01*
X031996Y030624D01*
X032002Y030618D01*
X032009Y030612D01*
X032018Y030604D01*
X032031Y030597D01*
X032044Y030589D01*
X032058Y030581D01*
X032074Y030573D01*
X032092Y030566D01*
X032111Y030560D01*
X032132Y030554D01*
X032154Y030550D01*
X032178Y030548D01*
X032204Y030547D01*
X032215D01*
X032223Y030548D01*
X032234D01*
X032247Y030550D01*
X032263Y030551D01*
X032281Y030554D01*
Y030555D01*
Y030556D01*
X032280Y030563D01*
X032278Y030574D01*
X032277Y030590D01*
X032275Y030608D01*
X032274Y030630D01*
X032272Y030654D01*
Y030680D01*
Y030681D01*
Y030682D01*
Y030686D01*
Y030691D01*
Y030702D01*
X032271Y030717D01*
Y030735D01*
X032270Y030755D01*
X032268Y030776D01*
X032265Y030798D01*
X032359D01*
Y030797D01*
Y030794D01*
Y030791D01*
Y030786D01*
X032358Y030780D01*
Y030773D01*
Y030755D01*
X032357Y030732D01*
Y030708D01*
X032355Y030681D01*
Y030652D01*
Y030651D01*
Y030645D01*
Y030642D01*
Y030636D01*
Y030630D01*
Y030621D01*
X032357Y030613D01*
Y030602D01*
Y030590D01*
Y030575D01*
X032358Y030560D01*
Y030543D01*
X032359Y030524D01*
Y030503D01*
X032358D01*
X032355Y030502D01*
X032351Y030501D01*
X032345Y030500D01*
X032336Y030497D01*
X032328Y030495D01*
X032317Y030492D01*
X032306Y030490D01*
X032280Y030485D01*
X032251Y030480D01*
X032219Y030478D01*
X032187Y030477D01*
X032178D01*
X032170Y030478D01*
X032157D01*
X032142Y030479D01*
X032124Y030482D01*
X032105Y030485D01*
X032085Y030489D01*
X032063Y030494D01*
X032040Y030501D01*
X032017Y030508D01*
X031994Y030518D01*
X031972Y030529D01*
X031950Y030542D01*
X031929Y030556D01*
X031911Y030573D01*
X031910Y030574D01*
X031908Y030578D01*
X031903Y030583D01*
X031897Y030591D01*
X031890Y030599D01*
X031883Y030612D01*
X031874Y030625D01*
X031866Y030639D01*
X031856Y030656D01*
X031848Y030674D01*
X031840Y030695D01*
X031833Y030716D01*
X031827Y030738D01*
X031822Y030762D01*
X031820Y030787D01*
X031819Y030814D01*
Y030815D01*
Y030820D01*
X031820Y030828D01*
Y030838D01*
X031822Y030851D01*
X031824Y030865D01*
X031827Y030882D01*
X031832Y030900D01*
X031837Y030919D01*
X031844Y030940D01*
X031851Y030960D01*
X031861Y030982D01*
X031873Y031004D01*
X031886Y031025D01*
X031902Y031047D01*
X031920Y031067D01*
X031921Y031069D01*
X031925Y031072D01*
X031931Y031077D01*
X031938Y031084D01*
X031949Y031093D01*
X031961Y031102D01*
X031976Y031112D01*
X031993Y031122D01*
X032011Y031131D01*
X032033Y031142D01*
X032056Y031150D01*
X032081Y031159D01*
X032108Y031166D01*
X032136Y031171D01*
X032168Y031175D01*
X032200Y031176D01*
X032211D01*
X032223Y031175D01*
D02*
G37*
%LPC*%
G36*
X033431Y030121D02*
X033423D01*
X033419Y030120D01*
X033405Y030118D01*
X033388Y030114D01*
X033369Y030107D01*
X033350Y030096D01*
X033342Y030089D01*
X033332Y030081D01*
X033324Y030072D01*
X033315Y030061D01*
Y030060D01*
X033314Y030059D01*
X033312Y030055D01*
X033309Y030050D01*
X033303Y030038D01*
X033296Y030021D01*
X033287Y030001D01*
X033281Y029977D01*
X033277Y029952D01*
X033275Y029923D01*
Y029921D01*
Y029919D01*
Y029914D01*
X033277Y029909D01*
Y029902D01*
X033278Y029894D01*
X033280Y029873D01*
X033285Y029852D01*
X033292Y029826D01*
X033302Y029801D01*
X033315Y029777D01*
Y029776D01*
X033318Y029775D01*
X033322Y029767D01*
X033332Y029758D01*
X033345Y029746D01*
X033362Y029734D01*
X033382Y029724D01*
X033405Y029717D01*
X033419Y029716D01*
X033433Y029715D01*
X033440D01*
X033445Y029716D01*
X033458Y029718D01*
X033475Y029722D01*
X033493Y029729D01*
X033512Y029740D01*
X033522Y029747D01*
X033530Y029755D01*
X033540Y029764D01*
X033547Y029775D01*
Y029776D01*
X033548Y029777D01*
X033551Y029781D01*
X033553Y029785D01*
X033559Y029798D01*
X033568Y029814D01*
X033575Y029835D01*
X033581Y029859D01*
X033586Y029884D01*
X033587Y029913D01*
Y029914D01*
Y029917D01*
Y029921D01*
Y029926D01*
X033586Y029933D01*
X033585Y029942D01*
X033582Y029962D01*
X033577Y029984D01*
X033570Y030008D01*
X033559Y030033D01*
X033546Y030057D01*
Y030059D01*
X033544Y030060D01*
X033539Y030067D01*
X033529Y030078D01*
X033516Y030090D01*
X033500Y030101D01*
X033480Y030111D01*
X033457Y030119D01*
X033444Y030120D01*
X033431Y030121D01*
D02*
G37*
G36*
X033102Y030941D02*
X033095D01*
X033090Y030940D01*
X033077Y030938D01*
X033060Y030934D01*
X033041Y030927D01*
X033022Y030916D01*
X033013Y030909D01*
X033004Y030901D01*
X032995Y030892D01*
X032987Y030881D01*
Y030880D01*
X032986Y030879D01*
X032983Y030875D01*
X032981Y030870D01*
X032975Y030858D01*
X032968Y030841D01*
X032959Y030821D01*
X032953Y030797D01*
X032948Y030772D01*
X032947Y030743D01*
Y030741D01*
Y030739D01*
Y030734D01*
X032948Y030729D01*
Y030722D01*
X032950Y030714D01*
X032952Y030693D01*
X032957Y030672D01*
X032964Y030646D01*
X032974Y030621D01*
X032987Y030597D01*
Y030596D01*
X032989Y030595D01*
X032994Y030587D01*
X033004Y030578D01*
X033017Y030566D01*
X033034Y030554D01*
X033054Y030544D01*
X033077Y030537D01*
X033090Y030536D01*
X033105Y030535D01*
X033112D01*
X033117Y030536D01*
X033130Y030538D01*
X033147Y030542D01*
X033165Y030549D01*
X033184Y030560D01*
X033194Y030567D01*
X033202Y030575D01*
X033212Y030584D01*
X033219Y030595D01*
Y030596D01*
X033220Y030597D01*
X033223Y030601D01*
X033225Y030605D01*
X033231Y030618D01*
X033240Y030634D01*
X033247Y030655D01*
X033253Y030679D01*
X033258Y030704D01*
X033259Y030733D01*
Y030734D01*
Y030737D01*
Y030741D01*
Y030746D01*
X033258Y030753D01*
X033256Y030762D01*
X033254Y030782D01*
X033249Y030804D01*
X033242Y030828D01*
X033231Y030853D01*
X033218Y030877D01*
Y030879D01*
X033215Y030880D01*
X033211Y030887D01*
X033201Y030898D01*
X033188Y030910D01*
X033172Y030921D01*
X033152Y030931D01*
X033129Y030939D01*
X033116Y030940D01*
X033102Y030941D01*
D02*
G37*
G36*
X032430Y030282D02*
X032404D01*
X032388Y030281D01*
X032368Y030280D01*
X032349Y030279D01*
X032330Y030276D01*
X032312Y030274D01*
Y030271D01*
Y030269D01*
X032313Y030265D01*
Y030259D01*
Y030253D01*
Y030244D01*
X032314Y030233D01*
Y030221D01*
Y030205D01*
Y030188D01*
X032315Y030169D01*
Y030146D01*
Y030121D01*
Y030093D01*
Y030062D01*
X032332D01*
X032341Y030061D01*
X032389D01*
X032397Y030062D01*
X032407D01*
X032428Y030065D01*
X032454Y030067D01*
X032478Y030071D01*
X032502Y030077D01*
X032511Y030081D01*
X032521Y030085D01*
X032522D01*
X032524Y030086D01*
X032530Y030090D01*
X032538Y030096D01*
X032548Y030105D01*
X032557Y030118D01*
X032566Y030133D01*
X032572Y030152D01*
X032574Y030162D01*
Y030174D01*
Y030175D01*
Y030179D01*
X032573Y030184D01*
X032572Y030191D01*
X032569Y030199D01*
X032567Y030209D01*
X032562Y030219D01*
X032556Y030228D01*
X032549Y030238D01*
X032539Y030249D01*
X032527Y030257D01*
X032513Y030265D01*
X032497Y030273D01*
X032478Y030278D01*
X032455Y030281D01*
X032430Y030282D01*
D02*
G37*
G36*
X032410Y029995D02*
X032365D01*
X032354Y029994D01*
X032342D01*
X032317Y029991D01*
Y029990D01*
Y029985D01*
Y029978D01*
Y029968D01*
Y029956D01*
Y029942D01*
Y029926D01*
X032318Y029908D01*
Y029890D01*
Y029870D01*
X032319Y029829D01*
X032320Y029785D01*
X032323Y029743D01*
X032324D01*
X032326Y029742D01*
X032331D01*
X032338Y029741D01*
X032348Y029740D01*
X032360D01*
X032374Y029739D01*
X032413D01*
X032422Y029740D01*
X032435Y029741D01*
X032461Y029743D01*
X032491Y029747D01*
X032520Y029753D01*
X032546Y029761D01*
X032558Y029766D01*
X032569Y029772D01*
X032572Y029773D01*
X032576Y029778D01*
X032584Y029785D01*
X032593Y029795D01*
X032602Y029808D01*
X032609Y029824D01*
X032614Y029844D01*
X032616Y029867D01*
Y029868D01*
Y029873D01*
X032615Y029879D01*
X032613Y029888D01*
X032609Y029897D01*
X032604Y029908D01*
X032597Y029919D01*
X032588Y029931D01*
X032576Y029943D01*
X032561Y029954D01*
X032543Y029965D01*
X032521Y029974D01*
X032495Y029983D01*
X032465Y029989D01*
X032448Y029991D01*
X032430Y029994D01*
X032410Y029995D01*
D02*
G37*
%LPD*%
D25*
X029587Y035433D02*
X029530Y035490D01*
X029417D01*
X029360Y035433D01*
Y035207D01*
X029417Y035150D01*
X029530D01*
X029587Y035207D01*
X029700Y035150D02*
X029813D01*
X029757D01*
Y035490D01*
X029700Y035433D01*
X025800Y036940D02*
Y036657D01*
X025857Y036600D01*
X025970D01*
X026027Y036657D01*
Y036940D01*
X026140Y036600D02*
X026253D01*
X026197D01*
Y036940D01*
X026140Y036883D01*
X034357Y045293D02*
X034300Y045350D01*
X034187D01*
X034130Y045293D01*
Y045067D01*
X034187Y045010D01*
X034300D01*
X034357Y045067D01*
X034696Y045350D02*
X034470D01*
Y045180D01*
X034583Y045237D01*
X034640D01*
X034696Y045180D01*
Y045067D01*
X034640Y045010D01*
X034527D01*
X034470Y045067D01*
X033517Y033427D02*
X033460Y033370D01*
Y033257D01*
X033517Y033200D01*
X033743D01*
X033800Y033257D01*
Y033370D01*
X033743Y033427D01*
X033800Y033710D02*
X033460D01*
X033630Y033540D01*
Y033766D01*
X031267Y029300D02*
X031210Y029357D01*
Y029470D01*
X031267Y029527D01*
X031323D01*
X031380Y029470D01*
Y029413D01*
Y029470D01*
X031437Y029527D01*
X031493D01*
X031550Y029470D01*
Y029357D01*
X031493Y029300D01*
X031210Y029640D02*
X031437D01*
X031550Y029753D01*
X031437Y029866D01*
X031210D01*
X031267Y029980D02*
X031210Y030036D01*
Y030150D01*
X031267Y030206D01*
X031323D01*
X031380Y030150D01*
Y030093D01*
Y030150D01*
X031437Y030206D01*
X031493D01*
X031550Y030150D01*
Y030036D01*
X031493Y029980D01*
X031607Y030320D02*
Y030546D01*
X031550Y030660D02*
X031210D01*
Y030830D01*
X031267Y030886D01*
X031380D01*
X031437Y030830D01*
Y030660D01*
X031210Y030999D02*
X031550D01*
X031437Y031113D01*
X031550Y031226D01*
X031210D01*
X031550Y031339D02*
X031210D01*
Y031509D01*
X031267Y031566D01*
X031380D01*
X031437Y031509D01*
Y031339D01*
Y031453D02*
X031550Y031566D01*
X030160Y029527D02*
Y029300D01*
X030330D01*
X030273Y029413D01*
Y029470D01*
X030330Y029527D01*
X030443D01*
X030500Y029470D01*
Y029357D01*
X030443Y029300D01*
X030160Y029640D02*
X030387D01*
X030500Y029753D01*
X030387Y029866D01*
X030160D01*
X030557Y029980D02*
Y030206D01*
X030500Y030320D02*
X030160D01*
Y030490D01*
X030217Y030546D01*
X030330D01*
X030387Y030490D01*
Y030320D01*
X030160Y030660D02*
X030500D01*
X030387Y030773D01*
X030500Y030886D01*
X030160D01*
X030500Y030999D02*
X030160D01*
Y031169D01*
X030217Y031226D01*
X030330D01*
X030387Y031169D01*
Y030999D01*
Y031113D02*
X030500Y031226D01*
X021990Y044600D02*
X021763D01*
X021650Y044713D01*
X021763Y044827D01*
X021990D01*
X021820D01*
Y044600D01*
X021650Y044940D02*
X021990D01*
Y045110D01*
X021933Y045166D01*
X021707D01*
X021650Y045110D01*
Y044940D01*
X021707Y045280D02*
X021650Y045336D01*
Y045450D01*
X021707Y045506D01*
X021933D01*
X021990Y045450D01*
Y045336D01*
X021933Y045280D01*
X021707D01*
X021990Y039200D02*
X021763D01*
X021650Y039313D01*
X021763Y039427D01*
X021990D01*
X021820D01*
Y039200D01*
X021650Y039540D02*
X021990D01*
Y039710D01*
X021933Y039766D01*
X021707D01*
X021650Y039710D01*
Y039540D01*
X021990Y040050D02*
X021650D01*
X021820Y039880D01*
Y040106D01*
X035760Y031250D02*
X036100D01*
Y031420D01*
X036043Y031477D01*
X035987D01*
X035930Y031420D01*
Y031250D01*
Y031420D01*
X035873Y031477D01*
X035817D01*
X035760Y031420D01*
Y031250D01*
Y031760D02*
Y031647D01*
X035817Y031590D01*
X036043D01*
X036100Y031647D01*
Y031760D01*
X036043Y031816D01*
X035817D01*
X035760Y031760D01*
Y032100D02*
Y031986D01*
X035817Y031930D01*
X036043D01*
X036100Y031986D01*
Y032100D01*
X036043Y032156D01*
X035817D01*
X035760Y032100D01*
Y032270D02*
Y032496D01*
Y032383D01*
X036100D01*
X036157Y032610D02*
Y032836D01*
X036100Y032949D02*
X035760D01*
X035873Y033063D01*
X035760Y033176D01*
X036100D01*
X035760Y033289D02*
X036100D01*
Y033459D01*
X036043Y033516D01*
X035817D01*
X035760Y033459D01*
Y033289D01*
X021990Y043300D02*
X021763D01*
X021650Y043413D01*
X021763Y043527D01*
X021990D01*
X021820D01*
Y043300D01*
X021650Y043640D02*
X021990D01*
Y043810D01*
X021933Y043866D01*
X021707D01*
X021650Y043810D01*
Y043640D01*
X021990Y043980D02*
Y044093D01*
Y044036D01*
X021650D01*
X021707Y043980D01*
X021990Y037850D02*
X021763D01*
X021650Y037963D01*
X021763Y038077D01*
X021990D01*
X021820D01*
Y037850D01*
X021650Y038190D02*
X021990D01*
Y038360D01*
X021933Y038416D01*
X021707D01*
X021650Y038360D01*
Y038190D01*
Y038756D02*
Y038530D01*
X021820D01*
X021763Y038643D01*
Y038700D01*
X021820Y038756D01*
X021933D01*
X021990Y038700D01*
Y038586D01*
X021933Y038530D01*
X021990Y041900D02*
X021763D01*
X021650Y042013D01*
X021763Y042127D01*
X021990D01*
X021820D01*
Y041900D01*
X021650Y042240D02*
X021990D01*
Y042410D01*
X021933Y042466D01*
X021707D01*
X021650Y042410D01*
Y042240D01*
X021990Y042806D02*
Y042580D01*
X021763Y042806D01*
X021707D01*
X021650Y042750D01*
Y042636D01*
X021707Y042580D01*
X021990Y036500D02*
X021763D01*
X021650Y036613D01*
X021763Y036727D01*
X021990D01*
X021820D01*
Y036500D01*
X021650Y036840D02*
X021990D01*
Y037010D01*
X021933Y037066D01*
X021707D01*
X021650Y037010D01*
Y036840D01*
Y037406D02*
X021707Y037293D01*
X021820Y037180D01*
X021933D01*
X021990Y037236D01*
Y037350D01*
X021933Y037406D01*
X021877D01*
X021820Y037350D01*
Y037180D01*
X021990Y040550D02*
X021763D01*
X021650Y040663D01*
X021763Y040777D01*
X021990D01*
X021820D01*
Y040550D01*
X021650Y040890D02*
X021990D01*
Y041060D01*
X021933Y041116D01*
X021707D01*
X021650Y041060D01*
Y040890D01*
X021707Y041230D02*
X021650Y041286D01*
Y041400D01*
X021707Y041456D01*
X021763D01*
X021820Y041400D01*
Y041343D01*
Y041400D01*
X021877Y041456D01*
X021933D01*
X021990Y041400D01*
Y041286D01*
X021933Y041230D01*
X021990Y035150D02*
X021763D01*
X021650Y035263D01*
X021763Y035377D01*
X021990D01*
X021820D01*
Y035150D01*
X021650Y035490D02*
X021990D01*
Y035660D01*
X021933Y035716D01*
X021707D01*
X021650Y035660D01*
Y035490D01*
Y035830D02*
Y036056D01*
X021707D01*
X021933Y035830D01*
X021990D01*
X035760Y042150D02*
X036043D01*
X036100Y042207D01*
Y042320D01*
X036043Y042377D01*
X035760D01*
X036100Y042490D02*
X035873D01*
X035760Y042603D01*
X035873Y042716D01*
X036100D01*
X035930D01*
Y042490D01*
X036100Y042830D02*
X035760D01*
Y043000D01*
X035817Y043056D01*
X035930D01*
X035987Y043000D01*
Y042830D01*
Y042943D02*
X036100Y043056D01*
X035760Y043170D02*
Y043396D01*
Y043283D01*
X036100D01*
X035760Y038067D02*
Y037953D01*
Y038010D01*
X036043D01*
X036100Y037953D01*
Y037897D01*
X036043Y037840D01*
X035760Y038180D02*
Y038406D01*
Y038293D01*
X036100D01*
Y038520D02*
X035873D01*
X035760Y038633D01*
X035873Y038746D01*
X036100D01*
X035930D01*
Y038520D01*
X035817Y039086D02*
X035760Y039030D01*
Y038916D01*
X035817Y038860D01*
X036043D01*
X036100Y038916D01*
Y039030D01*
X036043Y039086D01*
X035930D01*
Y038973D01*
X021650Y033580D02*
X021990D01*
Y033750D01*
X021933Y033807D01*
X021707D01*
X021650Y033750D01*
Y033580D01*
Y033920D02*
Y034146D01*
Y034033D01*
X021990D01*
Y034260D02*
Y034373D01*
Y034316D01*
X021650D01*
X021707Y034260D01*
X021650Y030850D02*
X021990D01*
Y031020D01*
X021933Y031077D01*
X021707D01*
X021650Y031020D01*
Y030850D01*
Y031190D02*
Y031416D01*
Y031303D01*
X021990D01*
X021707Y031530D02*
X021650Y031586D01*
Y031700D01*
X021707Y031756D01*
X021763D01*
X021820Y031700D01*
Y031643D01*
Y031700D01*
X021877Y031756D01*
X021933D01*
X021990Y031700D01*
Y031586D01*
X021933Y031530D01*
X021650Y032210D02*
X021990D01*
Y032380D01*
X021933Y032437D01*
X021707D01*
X021650Y032380D01*
Y032210D01*
Y032550D02*
Y032776D01*
Y032663D01*
X021990D01*
Y033116D02*
Y032890D01*
X021763Y033116D01*
X021707D01*
X021650Y033060D01*
Y032946D01*
X021707Y032890D01*
X021650Y029500D02*
X021990D01*
Y029670D01*
X021933Y029727D01*
X021707D01*
X021650Y029670D01*
Y029500D01*
Y029840D02*
Y030066D01*
Y029953D01*
X021990D01*
Y030350D02*
X021650D01*
X021820Y030180D01*
Y030406D01*
X035760Y034590D02*
X036043D01*
X036100Y034647D01*
Y034760D01*
X036043Y034817D01*
X035760D01*
X035817Y035156D02*
X035760Y035100D01*
Y034987D01*
X035817Y034930D01*
X035873D01*
X035930Y034987D01*
Y035100D01*
X035987Y035156D01*
X036043D01*
X036100Y035100D01*
Y034987D01*
X036043Y034930D01*
X035760Y035270D02*
X036100D01*
Y035440D01*
X036043Y035496D01*
X035987D01*
X035930Y035440D01*
Y035270D01*
Y035440D01*
X035873Y035496D01*
X035817D01*
X035760Y035440D01*
Y035270D01*
X033450Y045010D02*
Y045350D01*
X033620D01*
X033677Y045293D01*
Y045180D01*
X033620Y045123D01*
X033450D01*
X033563D02*
X033677Y045010D01*
X033790D02*
X033903D01*
X033847D01*
Y045350D01*
X033790Y045293D01*
X033770Y035860D02*
Y036200D01*
X033940D01*
X033997Y036143D01*
Y036030D01*
X033940Y035973D01*
X033770D01*
X033883D02*
X033997Y035860D01*
X034336D02*
X034110D01*
X034336Y036087D01*
Y036143D01*
X034280Y036200D01*
X034167D01*
X034110Y036143D01*
X033770Y034870D02*
Y035210D01*
X033940D01*
X033997Y035153D01*
Y035040D01*
X033940Y034983D01*
X033770D01*
X033883D02*
X033997Y034870D01*
X034110Y035153D02*
X034167Y035210D01*
X034280D01*
X034336Y035153D01*
Y035097D01*
X034280Y035040D01*
X034223D01*
X034280D01*
X034336Y034983D01*
Y034927D01*
X034280Y034870D01*
X034167D01*
X034110Y034927D01*
X029350Y035940D02*
Y036280D01*
X029520D01*
X029577Y036223D01*
Y036110D01*
X029520Y036053D01*
X029350D01*
X029463D02*
X029577Y035940D01*
X029860D02*
Y036280D01*
X029690Y036110D01*
X029916D01*
X035867Y045727D02*
X035810Y045670D01*
Y045557D01*
X035867Y045500D01*
X035923D01*
X035980Y045557D01*
Y045670D01*
X036037Y045727D01*
X036093D01*
X036150Y045670D01*
Y045557D01*
X036093Y045500D01*
X036150Y045840D02*
Y045953D01*
Y045897D01*
X035810D01*
X035867Y045840D01*
X031860Y035650D02*
Y035358D01*
X031918Y035300D01*
X032035D01*
X032093Y035358D01*
Y035650D01*
X032443Y035300D02*
X032210D01*
X032443Y035533D01*
Y035592D01*
X032385Y035650D01*
X032268D01*
X032210Y035592D01*
D26*
X025446Y046704D02*
Y049299D01*
Y046700D02*
X033133D01*
X025466Y049299D02*
X027051D01*
X033133Y046704D02*
Y049299D01*
X027031D02*
X033133D01*
X034600Y036050D02*
X035600D01*
Y034050D02*
Y036050D01*
X034600Y034050D02*
X035600D01*
X034600D02*
Y036050D01*
X022150Y042850D02*
X025150D01*
Y041850D02*
Y042850D01*
X022150Y041850D02*
X025150D01*
X022150D02*
Y042850D01*
Y045550D02*
X025150D01*
Y044550D02*
Y045550D01*
X022150Y044550D02*
X025150D01*
X022150D02*
Y045550D01*
Y044200D02*
X025150D01*
Y043200D02*
Y044200D01*
X022150Y043200D02*
X025150D01*
X022150D02*
Y044200D01*
Y041500D02*
X025150D01*
Y040500D02*
Y041500D01*
X022150Y040500D02*
X025150D01*
X022150D02*
Y041500D01*
Y040150D02*
X025150D01*
Y039150D02*
Y040150D01*
X022150Y039150D02*
X025150D01*
X022150D02*
Y040150D01*
Y038800D02*
X025150D01*
Y037800D02*
Y038800D01*
X022150Y037800D02*
X025150D01*
X022150D02*
Y038800D01*
Y037450D02*
X025150D01*
Y036450D02*
Y037450D01*
X022150Y036450D02*
X025150D01*
X022150D02*
Y037450D01*
Y036100D02*
X025150D01*
Y035100D02*
Y036100D01*
X022150Y035100D02*
X025150D01*
X022150D02*
Y036100D01*
Y034500D02*
X025150D01*
Y033500D02*
Y034500D01*
X022150Y033500D02*
X025150D01*
X022150D02*
Y034500D01*
Y033150D02*
X025150D01*
Y032150D02*
Y033150D01*
X022150Y032150D02*
X025150D01*
X022150D02*
Y033150D01*
Y031800D02*
X025150D01*
Y030800D02*
Y031800D01*
X022150Y030800D02*
X025150D01*
X022150D02*
Y031800D01*
Y030450D02*
X025150D01*
Y029450D02*
Y030450D01*
X022150Y029450D02*
X025150D01*
X022150D02*
Y030450D01*
X034600Y033390D02*
X035600D01*
Y031390D02*
Y033390D01*
X034600Y031390D02*
X035600D01*
X034600D02*
Y033390D01*
D48*
X032518Y034592D02*
G03*
X032518Y034592I-000049J000000D01*
G01*
D49*
X029831Y032899D02*
Y034001D01*
X032469Y032899D02*
Y034001D01*
X029831Y032899D02*
X032469D01*
X029831Y034001D02*
X032469D01*
X034650Y043750D02*
X035565D01*
X034650Y042750D02*
X035565D01*
X034650Y041750D02*
X035565D01*
X034635Y040781D02*
X035565D01*
X034635Y044718D02*
X035565D01*
X034635Y040781D02*
Y044718D01*
X035565Y040781D02*
Y044718D01*
X034650Y039500D02*
X035565D01*
X034650Y038500D02*
X035565D01*
X034650Y037500D02*
X035565D01*
X034635Y036532D02*
X035565D01*
X034635Y040469D02*
X035565D01*
X034635Y036532D02*
Y040469D01*
X035565Y036532D02*
Y040469D01*
X025528Y029285D02*
Y034915D01*
X029072D01*
Y034364D02*
Y034915D01*
Y029285D02*
Y032868D01*
X025528Y029285D02*
X029072D01*
D50*
X035644Y045209D02*
Y046391D01*
X034856Y045209D02*
Y046391D01*
M02*
