M48
;Layer_Color=6321
;FILE_FORMAT=2:4
INCH
;TYPE=PLATED
T1F00S00C0.0150
T2F00S00C0.0280
T3F00S00C0.0315
T4F00S00C0.0394
T5F00S00C0.0400
T6F00S00C0.0420
T7F00S00C0.1083
%
T01
X030400Y029450
X029850Y031250
T02
X035090Y030890
X024180Y030620
X023120
Y033320
X024190
X024180Y036280
X023110
X023100Y038980
X024190
Y041675
X023100Y041680
Y044370
X024180
X026650Y045150
Y045750
Y046350
X026710Y042800
Y042209
Y041617
Y041026
Y040435
Y039844
Y039253
Y038661
Y038070
X028350Y035900
X031150Y035500
X030100Y032250
X029447Y042590
Y043161
Y043740
X028827
Y043161
Y042590
X028207
Y043161
Y043740
X031960Y043984
Y043393
Y042801
Y042210
Y041611
Y041020
X031360Y037970
X032950Y034600
Y032250
X032200
X035900Y041250
Y044250
X034460Y045170
X031960Y046350
T03
X027300Y032238
Y034600
X029190Y033616
T04
X035100Y031890
Y032890
Y034550
Y035550
T05
X035100Y037000
Y038000
Y039000
Y040000
Y041250
Y042250
Y043250
Y044250
T06
X022650Y029950
X023650
X024650
Y031300
X023650
X022650
Y032650
X023650
X024650
Y034000
X023650
X022650
Y035600
X023650
X024650
Y036950
X023650
X022650
Y038300
X023650
X024650
Y039650
X023650
X022650
Y041000
X023650
X024650
Y042350
X023650
X022650
Y043700
X023650
X024650
Y045050
X023650
X022650
T07
X034670Y029880
X023150Y046270
M30
